<svg width="26" height="23" viewBox="0 0 26 23" fill="none" xmlns="http://www.w3.org/2000/svg">
<path id="Vector" d="M24.8517 8.67722H24.9167C25.204 8.67722 25.4795 8.55147 25.6827 8.32763C25.8859 8.10379 26 7.80021 26 7.48365V6.29009C26 5.97354 25.8859 5.66995 25.6827 5.44611C25.4795 5.22227 25.204 5.09652 24.9167 5.09652H23.4542C23.201 5.09791 22.9516 5.16446 22.7259 5.29087C22.5002 5.41728 22.3044 5.60005 22.1542 5.8246C22.1381 5.8364 22.1193 5.8427 22.1 5.8427C22.0807 5.8427 22.0619 5.8364 22.0458 5.8246C22.0285 5.81742 22.0128 5.80625 21.9997 5.79184C21.9867 5.77743 21.9765 5.76012 21.97 5.74105L21.45 2.87649C21.3024 2.06551 20.9044 1.33585 20.3238 0.811489C19.7432 0.287124 19.0157 0.00038911 18.265 0H7.735C6.97966 0.00201714 6.24854 0.29384 5.6673 0.825315C5.08606 1.35679 4.691 2.09473 4.55 2.9123L4.03 5.77686C4.02348 5.79592 4.01334 5.81324 4.00027 5.82765C3.98719 5.84206 3.97147 5.85322 3.95417 5.8604C3.93813 5.87221 3.91928 5.87851 3.9 5.87851C3.88072 5.87851 3.86187 5.87221 3.84583 5.8604C3.69561 5.63585 3.49983 5.45308 3.27413 5.32668C3.04842 5.20027 2.79903 5.13372 2.54583 5.13233H1.08333C0.796016 5.13233 0.520465 5.25808 0.317301 5.48192C0.114137 5.70575 0 6.00934 0 6.3259L0 7.51946C0 7.83601 0.114137 8.1396 0.317301 8.36344C0.520465 8.58728 0.796016 8.71303 1.08333 8.71303H1.14833C1.20243 8.7138 1.25507 8.7324 1.29948 8.76644C1.34389 8.80048 1.37803 8.84839 1.3975 8.904C1.42428 8.95256 1.43844 9.0083 1.43844 9.06513C1.43844 9.12195 1.42428 9.17769 1.3975 9.22626C0.523661 10.1914 0.0228349 11.4917 0 12.8547L0 17.629C5.34421e-05 17.9674 0.087743 18.2987 0.252772 18.5842C0.417801 18.8696 0.653317 19.0972 0.931667 19.2403C0.976539 19.2674 1.01416 19.307 1.04078 19.3552C1.06739 19.4034 1.08207 19.4584 1.08333 19.5148V21.2097C1.08333 21.6845 1.25454 22.1399 1.55928 22.4756C1.86403 22.8114 2.27736 23 2.70833 23H4.875C5.30598 23 5.7193 22.8114 6.02405 22.4756C6.3288 22.1399 6.5 21.6845 6.5 21.2097V19.7296C6.49995 19.6494 6.52813 19.5722 6.57863 19.5143C6.62913 19.4564 6.69802 19.4224 6.77083 19.4193H19.2292C19.302 19.4224 19.3709 19.4564 19.4214 19.5143C19.4719 19.5722 19.5001 19.6494 19.5 19.7296V21.2097C19.5 21.6845 19.6712 22.1399 19.976 22.4756C20.2807 22.8114 20.694 23 21.125 23H23.2917C23.7226 23 24.136 22.8114 24.4407 22.4756C24.7455 22.1399 24.9167 21.6845 24.9167 21.2097V19.5148C24.9179 19.4584 24.9326 19.4034 24.9592 19.3552C24.9858 19.307 25.0235 19.2674 25.0683 19.2403C25.3467 19.0972 25.5822 18.8696 25.7472 18.5842C25.9123 18.2987 25.9999 17.9674 26 17.629V12.8547C25.9971 11.486 25.5116 10.1721 24.6458 9.19045C24.6191 9.14188 24.6049 9.08615 24.6049 9.02932C24.6049 8.97249 24.6191 8.91676 24.6458 8.86819C24.6621 8.81936 24.6896 8.77604 24.7257 8.74255C24.7618 8.70905 24.8052 8.68653 24.8517 8.67722ZM3.52083 18.2257H1.625C1.48134 18.2257 1.34357 18.1629 1.24198 18.0509C1.1404 17.939 1.08333 17.7872 1.08333 17.629V17.0322C1.08333 16.8739 1.1404 16.7221 1.24198 16.6102C1.34357 16.4983 1.48134 16.4354 1.625 16.4354H3.52083C3.73731 16.4385 3.94396 16.5355 4.09603 16.7053C4.2481 16.875 4.33335 17.104 4.33333 17.3425C4.33049 17.5778 4.24363 17.8025 4.09156 17.9678C3.9395 18.1331 3.73446 18.2258 3.52083 18.2257ZM5.8175 13.3441C5.79341 13.3787 5.76217 13.4065 5.72638 13.4252C5.69058 13.4439 5.65126 13.4529 5.61167 13.4515H4.33333C3.8092 13.4576 3.30083 13.2541 2.90244 12.8788C2.50405 12.5036 2.24264 11.9819 2.16667 11.4105C2.16124 11.3679 2.16424 11.3245 2.17546 11.2833C2.18668 11.2421 2.20585 11.204 2.23167 11.1718C2.28501 11.1079 2.35883 11.0693 2.4375 11.0643H4.875C5.0283 11.0726 5.17544 11.1334 5.29586 11.2382C5.41628 11.3431 5.50396 11.4868 5.54667 11.6492L5.87167 13.0815C5.88195 13.1269 5.88241 13.1743 5.873 13.2199C5.86359 13.2655 5.84458 13.308 5.8175 13.3441ZM17.3333 13.0457L16.7483 15.0031C16.5684 15.5958 16.2234 16.1109 15.7625 16.4752C15.3015 16.8394 14.7481 17.0343 14.1808 17.0322H11.8517C11.2844 17.0343 10.731 16.8394 10.27 16.4752C9.80911 16.1109 9.46414 15.5958 9.28417 15.0031L8.66667 13.0457C8.63643 12.9572 8.62655 12.8618 8.63789 12.7681C8.64923 12.6744 8.68145 12.5852 8.73167 12.5086C8.78325 12.432 8.85015 12.3696 8.92718 12.3261C9.00421 12.2826 9.0893 12.2593 9.17583 12.2579H16.7592C16.8457 12.2593 16.9308 12.2826 17.0078 12.3261C17.0848 12.3696 17.1517 12.432 17.2033 12.5086C17.2646 12.5786 17.3087 12.6646 17.3314 12.7586C17.3542 12.8525 17.3548 12.9513 17.3333 13.0457ZM19.9875 7.37623C19.9623 7.40953 19.9309 7.43639 19.8953 7.45494C19.8598 7.47349 19.821 7.48329 19.7817 7.48365H6.25083C6.2115 7.48329 6.17272 7.47349 6.13717 7.45494C6.10162 7.43639 6.07017 7.40953 6.045 7.37623C6.02699 7.33958 6.01755 7.29856 6.01755 7.25688C6.01755 7.2152 6.02699 7.17417 6.045 7.13752L6.7275 3.37779C6.77815 3.10413 6.91429 2.85871 7.11224 2.68424C7.31018 2.50977 7.55739 2.41731 7.81083 2.42294H18.3408C18.5943 2.41731 18.8415 2.50977 19.0394 2.68424C19.2374 2.85871 19.3735 3.10413 19.4242 3.37779L20.1067 7.13752C20.1071 7.18976 20.0927 7.24085 20.0656 7.28365C20.0384 7.32645 19.9997 7.35882 19.955 7.37623H19.9875ZM20.4208 13.4515C20.3812 13.4529 20.3419 13.4439 20.3061 13.4252C20.2703 13.4065 20.2391 13.3787 20.215 13.3441C20.1879 13.308 20.1689 13.2655 20.1595 13.2199C20.1501 13.1743 20.1506 13.1269 20.1608 13.0815L20.4858 11.6492C20.5285 11.4868 20.6162 11.3431 20.7366 11.2382C20.8571 11.1334 21.0042 11.0726 21.1575 11.0643H23.5733C23.652 11.0693 23.7258 11.1079 23.7792 11.1718C23.805 11.204 23.8242 11.2421 23.8354 11.2833C23.8466 11.3245 23.8496 11.3679 23.8442 11.4105C23.7682 11.9819 23.5068 12.5036 23.1084 12.8788C22.71 13.2541 22.2016 13.4576 21.6775 13.4515H20.4208ZM24.9492 17.0322V17.629C24.9492 17.7872 24.8921 17.939 24.7905 18.0509C24.6889 18.1629 24.5512 18.2257 24.4075 18.2257H22.4792C22.2655 18.2258 22.0605 18.1331 21.9084 17.9678C21.7564 17.8025 21.6695 17.5778 21.6667 17.3425C21.6666 17.104 21.7519 16.875 21.904 16.7053C22.056 16.5355 22.2627 16.4385 22.4792 16.4354H24.375C24.5187 16.4354 24.6564 16.4983 24.758 16.6102C24.8596 16.7221 24.9167 16.8739 24.9167 17.0322H24.9492Z" fill="black"/>
</svg>
