<svg width="37" height="46" viewBox="0 0 37 46" fill="none" xmlns="http://www.w3.org/2000/svg">
<path id="Vector" d="M30.7017 8.4562L28.3833 6.13787L16.3583 18.1629V20.5029H18.6983L30.7017 8.4562ZM26 3.75453L28.795 0.959532C29.0953 0.655571 29.4529 0.414238 29.8471 0.249526C30.2414 0.0848144 30.6644 0 31.0917 0C31.5189 0 31.9419 0.0848144 32.3362 0.249526C32.7304 0.414238 33.0881 0.655571 33.3883 0.959532L35.88 3.4512C37.1583 4.72953 37.1583 6.78786 35.88 8.04453L34.4067 9.51787L34.3633 9.5612L33.1067 10.8179L20.1067 23.8179H13V16.7545L26 3.75453ZM21.06 2.56287L19.8683 3.75453L17.1167 6.5062C9.96667 6.61453 4.33333 12.1395 4.33333 19.9395C4.33333 25.0095 8.55833 31.7262 17.3333 39.7429C26.1083 31.7262 30.3333 25.0312 30.3333 19.9395V19.7229L34.2333 15.8229C34.515 17.1229 34.6667 18.5095 34.6667 19.9395C34.6667 27.1329 28.8817 35.6479 17.3333 45.5062C5.785 35.6479 0 27.1329 0 19.9395C0 9.14953 8.23333 2.17287 17.3333 2.17287C18.59 2.17287 19.8467 2.30287 21.06 2.56287Z" fill="black"/>
</svg>
