<svg width="29" height="42" viewBox="0 0 29 42" fill="none" xmlns="http://www.w3.org/2000/svg">
<g id="Map pin" filter="url(#filter0_d_157_1693)">
<path id="Shadow" opacity="0.3" d="M14.5001 35C16.7693 35 18.6088 34.1753 18.6088 33.1579C18.6088 32.1405 16.7693 31.3158 14.5001 31.3158C12.2309 31.3158 10.3914 32.1405 10.3914 33.1579C10.3914 34.1753 12.2309 35 14.5001 35Z" fill="black"/>
<path id="Pin" fill-rule="evenodd" clip-rule="evenodd" d="M14.5 0C20.299 0 25 4.85471 25 10.8433C25 16.4836 20.8299 21.118 15.5 21.6381V32.0136C15.5 32.5839 15.0523 33.0462 14.5 33.0462C13.9477 33.0462 13.5 32.5839 13.5 32.0136V21.6381C8.17007 21.118 4 16.4836 4 10.8433C4 4.85471 8.70101 0 14.5 0Z" fill="black"/>
<path id="Circle 1" d="M23 10.8433C23 5.9954 19.1944 2.0654 14.5 2.0654C9.80558 2.0654 6 5.9954 6 10.8433C6 15.6912 9.80558 19.6212 14.5 19.6212C19.1944 19.6212 23 15.6912 23 10.8433Z" fill="#FFFC35"/>
<path id="Circle 2" d="M18.0002 10.8433C18.0002 8.8471 16.4332 7.22887 14.5002 7.22887C12.5672 7.22887 11.0002 8.8471 11.0002 10.8433C11.0002 12.8395 12.5672 14.4577 14.5002 14.4577C16.4332 14.4577 18.0002 12.8395 18.0002 10.8433Z" fill="black"/>
</g>
<defs>
<filter id="filter0_d_157_1693" x="0" y="0" width="29" height="43" filterUnits="userSpaceOnUse" color-interpolation-filters="sRGB">
<feFlood flood-opacity="0" result="BackgroundImageFix"/>
<feColorMatrix in="SourceAlpha" type="matrix" values="0 0 0 0 0 0 0 0 0 0 0 0 0 0 0 0 0 0 127 0" result="hardAlpha"/>
<feOffset dy="4"/>
<feGaussianBlur stdDeviation="2"/>
<feComposite in2="hardAlpha" operator="out"/>
<feColorMatrix type="matrix" values="0 0 0 0 0 0 0 0 0 0 0 0 0 0 0 0 0 0 0.25 0"/>
<feBlend mode="normal" in2="BackgroundImageFix" result="effect1_dropShadow_157_1693"/>
<feBlend mode="normal" in="SourceGraphic" in2="effect1_dropShadow_157_1693" result="shape"/>
</filter>
</defs>
</svg>
