<svg width="44" height="46" viewBox="0 0 44 46" fill="none" xmlns="http://www.w3.org/2000/svg">
<path id="Vector" d="M22.6201 16.774C21.3378 16.6473 20.0476 16.9202 18.9263 17.5551C17.805 18.19 16.9074 19.156 16.3563 20.3208C15.8052 21.4855 15.6276 22.7922 15.8478 24.0618C16.068 25.3315 16.6753 26.502 17.5864 27.4131C18.4976 28.3243 19.6681 28.9316 20.9378 29.1518C22.2074 29.372 23.514 29.1944 24.6788 28.6433C25.8436 28.0922 26.8096 27.1946 27.4445 26.0732C28.0794 24.9519 28.3522 23.6618 28.2256 22.3795C28.0812 20.9419 27.4443 19.5985 26.4227 18.5769C25.4011 17.5553 24.0577 16.9184 22.6201 16.774ZM37.669 22.9937C37.665 23.6731 37.6151 24.3514 37.5195 25.024L41.9346 28.4869C42.1268 28.6462 42.2564 28.8686 42.3002 29.1144C42.344 29.3603 42.2992 29.6137 42.1738 29.8297L37.9971 37.0562C37.8702 37.2701 37.672 37.4323 37.4372 37.5143C37.2025 37.5963 36.9463 37.5928 36.7139 37.5045L32.3291 35.7388C32.0873 35.6426 31.8254 35.6078 31.5669 35.6376C31.3083 35.6674 31.0612 35.7609 30.8477 35.9097C30.1785 36.3705 29.4753 36.7799 28.7442 37.1343C28.5143 37.2461 28.3155 37.4127 28.1653 37.6194C28.015 37.8262 27.918 38.0668 27.8828 38.3199L27.2256 42.9966C27.1824 43.2436 27.0548 43.468 26.8646 43.6313C26.6744 43.7946 26.4333 43.8868 26.1826 43.8922H17.8291C17.5826 43.8879 17.3448 43.7998 17.1551 43.6423C16.9653 43.4849 16.8348 43.2675 16.7852 43.0259L16.1289 38.356C16.0921 38.1001 15.9926 37.8572 15.8392 37.649C15.6859 37.4409 15.4835 37.2738 15.25 37.1627C14.5198 36.8102 13.8189 36.3997 13.1543 35.9351C12.9415 35.7871 12.6952 35.6943 12.4376 35.6651C12.18 35.636 11.9192 35.6714 11.6787 35.7681L7.29494 37.5328C7.06262 37.6212 6.80654 37.6249 6.5718 37.5431C6.33706 37.4612 6.13873 37.2992 6.01173 37.0855L1.83498 29.8589C1.7094 29.643 1.66453 29.3896 1.70834 29.1437C1.75216 28.8978 1.88182 28.6754 2.07423 28.5162L5.80568 25.5865C6.01011 25.4242 6.17078 25.2134 6.2731 24.9733C6.37542 24.7332 6.41616 24.4713 6.39162 24.2115C6.35646 23.8043 6.33498 23.398 6.33498 22.9908C6.33498 22.5836 6.35548 22.1832 6.39162 21.7847C6.41348 21.5265 6.37074 21.2668 6.26726 21.0292C6.16378 20.7915 6.00281 20.5833 5.79884 20.4234L2.06935 17.4937C1.88006 17.3336 1.75313 17.1121 1.71081 16.8678C1.66849 16.6236 1.71349 16.3722 1.83791 16.1578L6.01466 8.93121C6.14151 8.71734 6.33977 8.5551 6.57453 8.4731C6.80928 8.39109 7.06544 8.39459 7.29787 8.48297L11.6826 10.2486C11.9244 10.3449 12.1863 10.3797 12.4449 10.3498C12.7034 10.32 12.9505 10.2265 13.1641 10.0777C13.8333 9.61688 14.5365 9.2075 15.2676 8.85309C15.4975 8.74137 15.6963 8.57477 15.8465 8.36801C15.9967 8.16124 16.0937 7.92068 16.1289 7.66754L16.7861 2.99078C16.8293 2.74379 16.9569 2.51946 17.1472 2.35612C17.3374 2.19279 17.5784 2.10058 17.8291 2.09528H26.1826C26.4292 2.09954 26.6669 2.18766 26.8567 2.34511C27.0464 2.50257 27.1769 2.71996 27.2266 2.96149L27.8828 7.63141C27.9197 7.88733 28.0192 8.13019 28.1725 8.33838C28.3259 8.54657 28.5283 8.71365 28.7617 8.82477C29.492 9.17726 30.1928 9.58776 30.8574 10.0523C31.0702 10.2004 31.3165 10.2932 31.5741 10.3223C31.8317 10.3515 32.0925 10.3161 32.333 10.2193L36.7168 8.45465C36.9491 8.36619 37.2052 8.36254 37.4399 8.44436C37.6747 8.52618 37.873 8.68821 38 8.90192L42.1768 16.1285C42.3023 16.3444 42.3472 16.5978 42.3034 16.8437C42.2596 17.0896 42.1299 17.312 41.9375 17.4713L38.2061 20.4009C38.0008 20.5627 37.8391 20.7732 37.736 21.0134C37.6328 21.2535 37.5913 21.5157 37.6152 21.7759C37.6475 22.1802 37.669 22.5865 37.669 22.9937Z" stroke="black" stroke-width="3.3" stroke-linecap="round" stroke-linejoin="round"/>
</svg>
