<svg width="42" height="38" viewBox="0 0 42 38" fill="none" xmlns="http://www.w3.org/2000/svg">
<path id="Vector" d="M4.16667 0C1.85417 0 0 1.85417 0 4.16667V12.5C0 14.8125 1.85417 16.6667 4.16667 16.6667H12.5C14.8125 16.6667 16.6667 14.8125 16.6667 12.5V4.16667C16.6667 1.85417 14.8125 0 12.5 0H4.16667ZM12.9167 3.125L15.125 5.3125L6.8125 13.5417L1.54167 8.22917L3.77083 6.04167L6.83333 9.14583L12.9167 3.125ZM4.16667 20.8333C1.85417 20.8333 0 22.6875 0 25V33.3333C0 35.6458 1.85417 37.5 4.16667 37.5H12.5C14.8125 37.5 16.6667 35.6458 16.6667 33.3333V25C16.6667 22.6875 14.8125 20.8333 12.5 20.8333H4.16667ZM4.16667 25H12.5V33.3333H4.16667V25ZM20.8333 4.16667H41.6667V8.33333H20.8333V4.16667ZM20.8333 33.3333V29.1667H41.6667V33.3333H20.8333ZM20.8333 16.6667H41.6667V20.8333H20.8333V16.6667Z" fill="black"/>
</svg>
