<svg width="40" height="42" viewBox="0 0 40 42" fill="none" xmlns="http://www.w3.org/2000/svg">
<path id="Vector" d="M29.4167 4.33335C28.8641 4.33335 28.3342 4.11386 27.9435 3.72316C27.5528 3.33246 27.3333 2.80255 27.3333 2.25002C27.3333 1.69749 27.5528 1.16758 27.9435 0.776881C28.3342 0.38618 28.8641 0.166687 29.4167 0.166687H37.75C38.3025 0.166687 38.8324 0.38618 39.2231 0.776881C39.6138 1.16758 39.8333 1.69749 39.8333 2.25002V10.5834C39.8333 11.1359 39.6138 11.6658 39.2231 12.0565C38.8324 12.4472 38.3025 12.6667 37.75 12.6667C37.1975 12.6667 36.6676 12.4472 36.2769 12.0565C35.8862 11.6658 35.6667 11.1359 35.6667 10.5834V7.27919L23.5979 19.3479C23.2072 19.7385 22.6774 19.9579 22.125 19.9579C21.5726 19.9579 21.0428 19.7385 20.6521 19.3479L14.8333 13.5292L3.80625 24.5563C3.41333 24.9358 2.88707 25.1458 2.34083 25.141C1.79459 25.1363 1.27206 24.9172 0.885795 24.5309C0.499528 24.1446 0.280426 23.6221 0.275679 23.0759C0.270932 22.5296 0.480921 22.0034 0.860417 21.6104L13.3604 9.11044C13.7511 8.71987 14.2809 8.50047 14.8333 8.50047C15.3858 8.50047 15.9156 8.71987 16.3062 9.11044L22.125 14.9292L32.7208 4.33335H29.4167ZM4.41667 33.5V39.75C4.41667 40.3026 4.19717 40.8325 3.80647 41.2232C3.41577 41.6139 2.88587 41.8334 2.33333 41.8334C1.7808 41.8334 1.25089 41.6139 0.860194 41.2232C0.469493 40.8325 0.25 40.3026 0.25 39.75V33.5C0.25 32.9475 0.469493 32.4176 0.860194 32.0269C1.25089 31.6362 1.7808 31.4167 2.33333 31.4167C2.88587 31.4167 3.41577 31.6362 3.80647 32.0269C4.19717 32.4176 4.41667 32.9475 4.41667 33.5ZM14.8333 25.1667C14.8333 24.6142 14.6138 24.0842 14.2231 23.6935C13.8324 23.3028 13.3025 23.0834 12.75 23.0834C12.1975 23.0834 11.6676 23.3028 11.2769 23.6935C10.8862 24.0842 10.6667 24.6142 10.6667 25.1667V39.75C10.6667 40.3026 10.8862 40.8325 11.2769 41.2232C11.6676 41.6139 12.1975 41.8334 12.75 41.8334C13.3025 41.8334 13.8324 41.6139 14.2231 41.2232C14.6138 40.8325 14.8333 40.3026 14.8333 39.75V25.1667ZM23.1667 27.25C23.7192 27.25 24.2491 27.4695 24.6398 27.8602C25.0305 28.2509 25.25 28.7808 25.25 29.3334V39.75C25.25 40.3026 25.0305 40.8325 24.6398 41.2232C24.2491 41.6139 23.7192 41.8334 23.1667 41.8334C22.6141 41.8334 22.0842 41.6139 21.6935 41.2232C21.3028 40.8325 21.0833 40.3026 21.0833 39.75V29.3334C21.0833 28.7808 21.3028 28.2509 21.6935 27.8602C22.0842 27.4695 22.6141 27.25 23.1667 27.25ZM35.6667 18.9167C35.6667 18.3642 35.4472 17.8342 35.0565 17.4435C34.6658 17.0528 34.1359 16.8334 33.5833 16.8334C33.0308 16.8334 32.5009 17.0528 32.1102 17.4435C31.7195 17.8342 31.5 18.3642 31.5 18.9167V39.75C31.5 40.3026 31.7195 40.8325 32.1102 41.2232C32.5009 41.6139 33.0308 41.8334 33.5833 41.8334C34.1359 41.8334 34.6658 41.6139 35.0565 41.2232C35.4472 40.8325 35.6667 40.3026 35.6667 39.75V18.9167Z" fill="black"/>
</svg>
