<svg width="28" height="28" viewBox="0 0 28 28" fill="none" xmlns="http://www.w3.org/2000/svg">
<g id="clarity:id-badge-solid-alerted" clip-path="url(#clip0_1094_5841)">
<path id="Vector" d="M14.7776 7.69221L16.3332 5.05554V3.1111C16.3332 2.69854 16.1693 2.30288 15.8776 2.01115C15.5858 1.71943 15.1902 1.55554 14.7776 1.55554H13.2221C12.8095 1.55554 12.4138 1.71943 12.1221 2.01115C11.8304 2.30288 11.6665 2.69854 11.6665 3.1111V7.77776H14.7776V7.69221Z" fill="black"/>
<path id="Vector_2" d="M14 17.1111C15.817 17.1111 17.29 15.6381 17.29 13.8211C17.29 12.0041 15.817 10.5311 14 10.5311C12.1829 10.5311 10.71 12.0041 10.71 13.8211C10.71 15.6381 12.1829 17.1111 14 17.1111Z" fill="black"/>
<path id="Vector_3" d="M7.98008 20.9999C7.84786 21.1595 7.77624 21.3605 7.77786 21.5677V23.3333H20.2223V21.5444C20.2246 21.3371 20.1529 21.1358 20.0201 20.9766C19.2653 20.1357 18.3347 19.4713 17.2943 19.0304C16.2539 18.5895 15.1292 18.383 14.0001 18.4255C12.8691 18.3859 11.7433 18.596 10.7028 19.041C9.66232 19.486 8.73268 20.1548 7.98008 20.9999Z" fill="black"/>
<path id="Vector_4" d="M21.7776 11.9777V24.8888H6.22206V6.22218H10.1109V4.66663H6.22206C5.8095 4.66663 5.41384 4.83051 5.12212 5.12224C4.83039 5.41396 4.6665 5.80962 4.6665 6.22218V24.8888C4.6665 25.3014 4.83039 25.6971 5.12212 25.9888C5.41384 26.2805 5.8095 26.4444 6.22206 26.4444H21.7776C22.1902 26.4444 22.5858 26.2805 22.8776 25.9888C23.1693 25.6971 23.3332 25.3014 23.3332 24.8888V11.9777H21.7776Z" fill="black"/>
<path id="Vector_5" d="M20.8834 0.88663L16.4345 8.55552C16.331 8.70744 16.2716 8.88506 16.2628 9.06868C16.2541 9.2523 16.2964 9.43476 16.385 9.59584C16.4735 9.75691 16.605 9.89031 16.7648 9.98126C16.9245 10.0722 17.1063 10.1171 17.2901 10.1111H26.1956C26.3794 10.1171 26.5612 10.0722 26.7209 9.98126C26.8807 9.89031 27.0122 9.75691 27.1008 9.59584C27.1893 9.43476 27.2316 9.2523 27.2229 9.06868C27.2141 8.88506 27.1547 8.70744 27.0512 8.55552L22.6023 0.88663C22.5146 0.736562 22.3891 0.612083 22.2383 0.525578C22.0875 0.439072 21.9167 0.393555 21.7429 0.393555C21.569 0.393555 21.3982 0.439072 21.2474 0.525578C21.0967 0.612083 20.9711 0.736562 20.8834 0.88663Z" fill="black"/>
</g>
<defs>
<clipPath id="clip0_1094_5841">
<rect width="28" height="28" fill="white"/>
</clipPath>
</defs>
</svg>
