<svg width="49" height="51" viewBox="0 0 49 51" fill="none" xmlns="http://www.w3.org/2000/svg">
<g id="Group 197">
<rect id="Rectangle 164" x="0.5" y="0.5" width="48" height="50" rx="19.5" fill="#FAFAFA" stroke="black"/>
<g id="Group 401">
<path id="Vector" d="M21.2312 40.443V28.805H16.8564C16.6293 28.805 16.4114 28.7131 16.2508 28.5496C16.0902 28.386 16 28.1642 16 27.933V23.3299C16 23.0986 16.0902 22.8769 16.2508 22.7133C16.4114 22.5498 16.6293 22.4579 16.8564 22.4579H21.2139V18.002C21.1097 16.9454 21.234 15.8782 21.578 14.8757C21.922 13.8731 22.4774 12.9593 23.2052 12.1986C23.9331 11.4379 24.8156 10.8486 25.791 10.4722C26.7663 10.0959 27.8108 9.94144 28.851 10.0199H32.4967C32.726 10.0194 32.9463 10.1107 33.11 10.2742C33.2738 10.4376 33.3679 10.66 33.372 10.8934V14.7909C33.367 15.0239 33.2727 15.2457 33.109 15.4087C32.9454 15.5717 32.7256 15.663 32.4967 15.6629H30.2181C27.7573 15.6629 27.2843 16.8501 27.2843 18.5956V22.4563H33.1347C33.2563 22.4522 33.3773 22.4751 33.4893 22.5235C33.6013 22.5718 33.7016 22.6444 33.7833 22.7363C33.865 22.8281 33.926 22.9369 33.9621 23.0552C33.9983 23.1734 34.0087 23.2983 33.9927 23.4211L33.4631 28.0418C33.4366 28.2534 33.3348 28.4478 33.177 28.5882C33.0191 28.7285 32.8162 28.8051 32.6067 28.8034H27.3205V40.4414C27.3234 40.6471 27.2858 40.8512 27.2099 41.0417C27.1339 41.2323 27.0211 41.4054 26.8782 41.5507C26.7353 41.696 26.5652 41.8107 26.378 41.8878C26.1908 41.965 25.9903 42.003 25.7883 41.9998H22.7445C22.5441 42.0005 22.3456 41.9605 22.1606 41.8822C21.9756 41.8039 21.8078 41.6888 21.6669 41.5438C21.526 41.3987 21.4149 41.2265 21.3401 41.0372C21.2653 40.848 21.2283 40.647 21.2312 40.443Z" fill="#006FFF"/>
</g>
</g>
</svg>
