<svg width="45" height="47" viewBox="0 0 45 47" fill="none" xmlns="http://www.w3.org/2000/svg">
<path id="Vector" d="M26.7466 2.73041C25.6118 1.51562 24.0875 0.835388 22.5 0.835388C20.9125 0.835388 19.3882 1.51562 18.2534 2.73041L2.57421 19.5117C1.89115 20.2432 1.34846 21.1165 0.977968 22.0805C0.607475 23.0446 0.416641 24.0799 0.416664 25.1257V41.3125C0.416664 42.7546 0.940156 44.1377 1.87198 45.1574C2.8038 46.1771 4.06762 46.75 5.38541 46.75H18.7237C17.9202 45.5738 17.1578 44.3646 16.4381 43.125H5.38541C4.94615 43.125 4.52488 42.934 4.21427 42.5941C3.90366 42.2542 3.72916 41.7932 3.72916 41.3125V25.1257C3.72916 23.9898 4.14875 22.8975 4.89075 22.1024L6.94891 19.9008C9.51279 21.7737 11.9729 22.5954 14.391 22.6848C17.0454 22.7839 19.5121 21.9961 21.8132 21.0463C22.7805 20.6476 23.6792 20.244 24.556 19.8452C25.8898 19.2411 27.1817 18.6587 28.6105 18.1487C30.8232 17.3585 33.0536 16.8848 35.4563 17.1241L40.1092 22.1024C40.8512 22.8999 41.2708 23.9874 41.2708 25.1257V41.3125C41.2708 41.7932 41.0963 42.2542 40.7857 42.5941C40.4751 42.934 40.0538 43.125 39.6146 43.125H28.5619C27.8422 44.3646 27.0798 45.5738 26.2762 46.75H39.6146C40.9324 46.75 42.1962 46.1771 43.128 45.1574C44.0598 44.1377 44.5833 42.7546 44.5833 41.3125V25.1257C44.5834 24.0799 44.3925 23.0446 44.022 22.0805C43.6515 21.1165 43.1088 20.2432 42.4258 19.5117L26.7466 2.73041ZM20.5699 5.32108C21.0857 4.76903 21.7785 4.45992 22.5 4.45992C23.2215 4.45992 23.9143 4.76903 24.4301 5.32108L32.1372 13.5692C30.5295 13.7722 29.0168 14.1902 27.5836 14.7026C26.0797 15.2391 24.5272 15.9351 23.0786 16.5876C22.2217 16.9742 21.4002 17.344 20.6472 17.6557C18.4764 18.5499 16.5 19.1372 14.5036 19.0622C12.9225 19.0018 11.2419 18.5257 9.38029 17.2981L20.5699 5.32108ZM20.8747 45.8582C21.0754 46.1532 21.3398 46.389 21.6443 46.5447C21.9488 46.7003 22.2837 46.7708 22.6192 46.75C22.9145 46.7303 23.2022 46.6403 23.4623 46.4862C23.7225 46.3322 23.9487 46.1179 24.1253 45.8582C24.6708 45.0728 25.298 44.1303 25.9229 43.125C27.5416 40.5102 29.125 37.4531 29.125 35.4956C29.125 31.4912 26.1592 27.4167 22.5 27.4167C18.8408 27.4167 15.875 31.4912 15.875 35.4956C15.875 37.4531 17.4584 40.5102 19.0771 43.125C19.702 44.1303 20.3292 45.0728 20.8747 45.8582ZM25.8125 34.6667C25.8125 35.6281 25.4635 36.5501 24.8423 37.2299C24.2211 37.9097 23.3785 38.2917 22.5 38.2917C21.6215 38.2917 20.7789 37.9097 20.1577 37.2299C19.5365 36.5501 19.1875 35.6281 19.1875 34.6667C19.1875 33.7053 19.5365 32.7832 20.1577 32.1034C20.7789 31.4236 21.6215 31.0417 22.5 31.0417C23.3785 31.0417 24.2211 31.4236 24.8423 32.1034C25.4635 32.7832 25.8125 33.7053 25.8125 34.6667Z" fill="black"/>
</svg>
