<svg width="67" height="82" viewBox="0 0 67 82" fill="none" xmlns="http://www.w3.org/2000/svg">
<g id="Black Logo 2">
<path id="Vector" d="M34.6164 13.3587C34.7849 13.3738 34.9533 13.3888 35.1217 13.4037C35.1952 13.4104 35.2687 13.4171 35.3444 13.424C35.4709 13.4341 35.5978 13.4387 35.7246 13.4387C35.7246 13.4915 35.7246 13.5443 35.7246 13.5987C35.8636 13.6142 36.0027 13.6291 36.1418 13.6437C36.2192 13.652 36.2966 13.6604 36.3764 13.669C36.5699 13.698 36.5699 13.698 36.7061 13.5987C36.7277 13.6515 36.7493 13.7043 36.7715 13.7587C36.9206 13.8273 36.9206 13.8273 37.1045 13.8833C37.1754 13.9072 37.2462 13.9311 37.3192 13.9556C37.3962 13.9814 37.4732 14.0071 37.5526 14.0336C38.4263 14.3361 39.2448 14.7354 40.074 15.1897C40.2368 15.2772 40.4013 15.3579 40.5664 15.4385C40.7943 15.5778 41.0056 15.7523 41.2207 15.9185C41.2872 15.9689 41.3537 16.0193 41.4221 16.0713C42.2862 16.7324 43.0917 17.4684 43.8379 18.3182C43.929 18.4153 44.0203 18.512 44.1119 18.6082C45.1433 19.7128 45.9626 21.1155 46.6514 22.5578C46.7033 22.6662 46.7033 22.6662 46.7562 22.7769C46.9785 23.253 46.9785 23.253 46.9785 23.4377C47.0217 23.4641 47.0649 23.4905 47.1094 23.5177C47.156 23.6764 47.1987 23.8369 47.2403 23.9977C47.3251 24.2655 47.4134 24.5316 47.502 24.7976C47.5452 24.7976 47.5884 24.7976 47.6329 24.7976C47.6432 24.9309 47.6432 24.9309 47.6538 25.0669C47.6955 25.4741 47.7892 25.8557 47.8864 26.2475C48.1514 27.3187 48.318 28.3767 48.3976 29.4921C48.4017 29.5481 48.4058 29.6041 48.41 29.6618C48.5155 31.1091 48.4872 32.4906 48.3702 33.9361C48.3409 34.3027 48.3141 34.6697 48.2871 35.0366C48.3315 35.0562 48.3758 35.0759 48.4215 35.0961C51.8818 36.6408 51.8818 36.6408 52.7376 38.5472C52.9317 39.0585 52.9316 39.6695 52.8248 40.2114C52.373 41.7199 51.1171 42.5513 49.9874 43.1956C48.0376 44.2654 45.7333 45.0931 43.6027 45.3437C43.4501 45.3617 43.4501 45.3617 43.2491 45.4356C43.1795 45.6175 43.1795 45.6175 43.1182 45.8356C43.0469 45.9888 42.973 46.1403 42.8971 46.2902C42.8533 46.377 42.8096 46.4638 42.7645 46.5532C42.7175 46.6456 42.6704 46.738 42.6234 46.8305C42.5751 46.9259 42.5268 47.0213 42.4785 47.1167C42.1802 47.7051 41.8781 48.2903 41.5695 48.8708C41.3689 49.2497 41.1703 49.6301 40.9713 50.0102C40.903 50.1406 40.903 50.1406 40.8333 50.2737C40.5343 50.8452 40.2369 51.4181 39.941 51.992C39.4205 53.0013 38.8978 54.0089 38.3664 55.0097C38.0864 55.5369 37.8107 56.0674 37.5366 56.5992C36.9868 57.6658 36.4339 58.7298 35.8714 59.7864C35.6168 60.2666 35.3703 60.7528 35.1235 61.2391C34.6223 62.2258 34.0972 63.1913 33.5655 64.1538C33.2075 63.9537 33.0439 63.6158 32.858 63.2039C32.5077 62.4559 32.1121 61.7424 31.7242 61.0231C31.5607 60.7154 31.4033 60.4032 31.2467 60.0901C31.1463 59.8949 31.1463 59.8949 30.9483 59.7542C30.9483 59.675 30.9483 59.5958 30.9483 59.5142C30.8794 59.3626 30.805 59.2146 30.7275 59.0693C30.6865 58.9916 30.6455 58.914 30.6032 58.834C30.4961 58.6319 30.4961 58.6319 30.3594 58.4743C30.1631 58.1051 30.1631 58.1051 30.1631 57.9144C30.0983 57.9144 30.0336 57.9144 29.9668 57.9144C29.9628 57.8599 29.9587 57.8055 29.9546 57.7494C29.8919 57.4724 29.7869 57.3025 29.6435 57.0785C29.5743 56.9545 29.5743 56.9545 29.5743 56.7945C29.5095 56.7945 29.4447 56.7945 29.378 56.7945C29.3706 56.7354 29.3632 56.6764 29.3556 56.6155C29.3113 56.3881 29.2534 56.2518 29.1477 56.0589C29.1136 55.9959 29.0794 55.9328 29.0443 55.8678C29.0073 55.8008 28.9703 55.7337 28.9322 55.6646C28.8541 55.5204 28.7761 55.3761 28.6981 55.2318C28.6387 55.1223 28.6387 55.1223 28.5781 55.0106C28.4036 54.6863 28.2342 54.3584 28.0653 54.0298C28.0336 53.9684 28.002 53.907 27.9694 53.8438C27.7989 53.5131 27.6293 53.1818 27.4601 52.8502C27.4245 52.7807 27.3889 52.7112 27.3522 52.6396C27.284 52.5063 27.2159 52.3728 27.1481 52.2391C27.102 52.1492 27.102 52.1492 27.055 52.0575C27.0281 52.0047 27.0012 51.952 26.9735 51.8976C26.8942 51.7508 26.8942 51.7508 26.7867 51.6268C26.6953 51.515 26.6953 51.515 26.6409 51.3441C26.5275 51.0043 26.3583 50.7149 26.1924 50.4101C25.8631 49.7981 25.5402 49.1819 25.2232 48.5603C25.1825 48.4807 25.1418 48.4011 25.0999 48.3191C24.8939 47.9152 24.6897 47.5101 24.4881 47.1029C24.4494 47.0251 24.4106 46.9472 24.3707 46.867C24.2972 46.7191 24.2241 46.5709 24.1516 46.4222C24.1026 46.3238 24.1026 46.3238 24.0526 46.2233C24.0242 46.1656 23.9959 46.1079 23.9667 46.0484C23.8824 45.8912 23.8824 45.8912 23.6856 45.8356C23.6856 45.73 23.6856 45.6244 23.6856 45.5156C23.6147 45.499 23.5437 45.4824 23.4706 45.4653C16.1011 43.716 16.1011 43.716 14.2893 40.8914C14.1988 40.717 14.1629 40.5972 14.1329 40.3961C14.1132 40.3007 14.1132 40.3007 14.0932 40.2033C13.9563 39.4405 14.0072 38.8499 14.3414 38.1763C15.2698 36.5419 17.0505 35.6157 18.5821 35.1166C18.6468 35.1166 18.7116 35.1166 18.7784 35.1166C18.7649 35.0257 18.7515 34.9347 18.7377 34.841C18.7199 34.7162 18.7021 34.5914 18.6843 34.4667C18.6755 34.4074 18.6667 34.3481 18.6576 34.287C18.5179 33.2957 18.5011 32.2908 18.5003 31.287C18.5002 31.2299 18.5002 31.1728 18.5001 31.114C18.5013 29.5597 18.6679 28.0654 18.9746 26.5574C18.9315 26.531 18.8883 26.5046 18.8438 26.4774C18.887 26.3982 18.9302 26.3191 18.9746 26.2375C19.0867 25.9979 19.149 25.7509 19.2133 25.4872C19.7015 23.5287 20.5433 21.7441 21.5918 20.158C21.6659 20.0401 21.7395 19.9218 21.8127 19.8031C21.8442 19.752 21.8757 19.701 21.9082 19.6484C21.9888 19.5177 21.9888 19.5177 22.0498 19.3581C22.1529 19.2517 22.2561 19.1455 22.3596 19.0397C22.5043 18.8821 22.6394 18.7162 22.7742 18.5461C23.2197 17.9853 23.6971 17.5054 24.209 17.0384C24.2446 17.0052 24.2801 16.972 24.3167 16.9379C26.1824 15.1988 28.3487 14.1429 30.6307 13.5554C30.757 13.5229 30.757 13.5229 30.8828 13.4387C31.0207 13.4208 31.159 13.4073 31.2974 13.3959C31.382 13.3889 31.4666 13.382 31.5538 13.3748C31.5981 13.3713 31.6425 13.3679 31.6882 13.3643C31.8206 13.3539 31.953 13.3428 32.0854 13.3317C32.938 13.2632 33.7646 13.2804 34.6164 13.3587ZM18.5616 37.5314C18.5127 37.5624 18.4639 37.5933 18.4135 37.6253C17.9659 37.9159 17.5789 38.2312 17.3389 38.7962C17.2594 39.1606 17.2567 39.4417 17.3389 39.8061C18.0968 41.3698 19.9841 41.8536 21.3178 42.2716C21.3651 42.2863 21.4123 42.3009 21.461 42.3159C21.5013 42.3288 21.5416 42.3416 21.5831 42.3548C21.9071 42.4501 22.2353 42.524 22.5623 42.6026C22.6531 42.6245 22.7439 42.6467 22.8346 42.6691C23.4222 42.8144 24.0016 42.9194 24.6016 42.9558C24.6016 42.9822 24.6016 43.0086 24.6016 43.0358C24.7529 43.0492 24.9042 43.0625 25.0555 43.0758C25.1398 43.0833 25.224 43.0907 25.3108 43.0983C25.4468 43.1109 25.4468 43.1109 25.583 43.1158C25.6046 43.1422 25.6262 43.1686 25.6485 43.1958C25.8241 43.225 25.9987 43.2495 26.175 43.2708C26.2293 43.2776 26.2837 43.2844 26.3396 43.2914C26.5182 43.3134 26.6967 43.3347 26.8753 43.3558C26.9359 43.363 26.9965 43.3703 27.059 43.3778C28.1159 43.503 29.1665 43.5784 30.2286 43.5958C30.2823 43.597 30.336 43.5982 30.3914 43.5994C30.9084 43.6108 31.4159 43.5889 31.9297 43.5158C31.9297 43.5686 31.9297 43.6214 31.9297 43.6758C32.9445 43.6758 33.9594 43.6758 35.0049 43.6758C35.0049 43.6494 35.0049 43.623 35.0049 43.5958C35.1992 43.5958 35.3936 43.5958 35.5938 43.5958C35.5938 43.6222 35.5938 43.6486 35.5938 43.6758C35.7665 43.6758 35.9393 43.6758 36.1172 43.6758C36.1172 43.623 36.1172 43.5702 36.1172 43.5158C36.1604 43.5422 36.2036 43.5686 36.2481 43.5958C36.422 43.6045 36.5937 43.608 36.7677 43.607C36.8202 43.6068 36.8728 43.6066 36.9269 43.6064C37.5081 43.6003 38.0857 43.552 38.6649 43.4958C38.7209 43.4905 38.7769 43.4852 38.8345 43.4797C40.8901 43.2841 42.9297 42.9858 44.9502 42.4759C44.9502 42.4231 44.9502 42.3703 44.9502 42.3159C45.0207 42.3209 45.0911 42.3258 45.1636 42.3309C45.541 42.3301 45.8863 42.203 46.2466 42.0759C46.3184 42.0508 46.3903 42.0256 46.4644 41.9996C48.2354 41.3641 48.2354 41.3641 49.5375 39.8571C49.6735 39.4349 49.6391 39.0913 49.5058 38.6763C49.4152 38.4691 49.4152 38.4691 49.2686 38.3963C49.2254 38.3237 49.1822 38.2511 49.1377 38.1763C48.944 37.8802 48.7031 37.7501 48.4252 37.5948C48.2871 37.5164 48.2871 37.5164 48.2217 37.4364C48.1338 37.3925 48.0451 37.3512 47.9559 37.3114C47.9079 37.2898 47.8599 37.2683 47.8105 37.2461C47.7735 37.2297 47.7364 37.2133 47.6983 37.1964C47.6762 37.2562 47.6541 37.316 47.6313 37.3776C47.6021 37.4564 47.573 37.5352 47.5429 37.6164C47.4996 37.7333 47.4996 37.7333 47.4555 37.8526C47.4084 37.9774 47.3606 38.1019 47.31 38.2247C47.2469 38.3799 47.1877 38.5363 47.1291 38.6941C46.382 40.6959 46.382 40.6959 45.8783 40.9317C42.636 42.2168 38.9675 42.2948 35.5938 42.3959C35.4981 42.3988 35.4981 42.3988 35.4005 42.4018C34.957 42.4152 34.5134 42.4279 34.0698 42.4398C33.9192 42.4438 33.7687 42.448 33.6181 42.4523C33.406 42.4583 33.1938 42.4637 32.9817 42.469C32.9171 42.4709 32.8524 42.4728 32.7858 42.4748C32.7266 42.4761 32.6673 42.4775 32.6063 42.4789C32.5544 42.4802 32.5025 42.4816 32.449 42.483C32.3223 42.4759 32.3223 42.4759 32.1914 42.3959C32.0992 42.3858 32.0067 42.3803 31.9141 42.3772C31.856 42.375 31.7979 42.3728 31.7381 42.3706C31.6743 42.3685 31.6105 42.3665 31.5448 42.3643C31.4065 42.359 31.2681 42.3537 31.1298 42.3483C31.0195 42.3441 31.0195 42.3441 30.9071 42.3399C27.9056 42.2224 24.8578 41.9997 21.919 41.196C21.8617 41.1828 21.8044 41.1696 21.7454 41.156C21.5679 41.1098 21.3998 41.0473 21.2279 40.976C21.1671 40.9517 21.1063 40.9274 21.0436 40.9023C20.6771 40.6753 20.5107 40.2011 20.32 39.7761C20.2944 39.7197 20.2688 39.6632 20.2424 39.6051C20.1685 39.4423 20.095 39.2793 20.0215 39.1162C19.9548 38.9695 19.888 38.8229 19.8211 38.6763C19.7789 38.583 19.7366 38.4896 19.6944 38.3963C19.6512 38.3963 19.608 38.3963 19.5635 38.3963C19.5024 38.1555 19.4952 38.087 19.5635 37.8363C19.5145 37.6682 19.5145 37.6682 19.4367 37.5014C19.4119 37.4441 19.387 37.3869 19.3613 37.3279C19.3417 37.2845 19.322 37.2411 19.3018 37.1964C19.0126 37.1964 18.8128 37.3668 18.5616 37.5314ZM19.5635 38.0763C19.6289 38.2363 19.6289 38.2363 19.6289 38.2363L19.5635 38.0763Z" fill="#010100"/>
<path id="Vector_2" d="M31.9847 22.932C32.2104 22.9331 32.4362 22.9326 32.662 22.9322C35.367 22.9286 37.8041 23.1022 39.9663 25.3029C40.2103 25.5345 40.4763 25.6811 40.7612 25.8213C40.9895 25.934 41.0795 25.9789 41.2205 26.2375C41.2287 26.4924 41.2287 26.4924 41.2205 26.7174C40.9653 26.9254 40.7315 26.8895 40.4353 26.8774C40.4353 26.9302 40.4353 26.983 40.4353 27.0374C40.5115 27.0349 40.5115 27.0349 40.5892 27.0323C40.8214 27.0256 41.0537 27.0215 41.2859 27.0174C41.3658 27.0147 41.4457 27.012 41.528 27.0093C41.945 27.0038 42.2509 27.0163 42.6115 27.2807C42.7985 27.4065 42.9943 27.4238 43.2038 27.4574C43.6387 27.5413 44.0292 27.6992 44.4347 27.9073C44.4866 27.9335 44.5385 27.9597 44.592 27.9868C44.9989 28.2036 45.3695 28.4788 45.6043 28.9572C45.6043 29.0364 45.6043 29.1156 45.6043 29.1972C45.2156 29.1972 44.827 29.1972 44.4266 29.1972C44.8435 29.7827 44.8435 29.7827 45.3916 30.1071C45.6228 29.9344 45.6644 29.6657 45.7351 29.3572C46.2732 29.9232 46.4439 31.1708 46.5203 31.9969C46.6055 34.0679 46.6055 34.0679 46.324 34.8766C45.8793 35.2391 45.2406 35.2285 44.7174 35.2822C44.6175 35.2926 44.6175 35.2926 44.5155 35.3031C44.2924 35.3254 44.0691 35.3463 43.8459 35.3666C43.7676 35.3737 43.6893 35.3808 43.6087 35.3882C42.0681 35.5227 40.5292 35.5475 38.9851 35.5467C38.8065 35.5466 38.6279 35.5468 38.4492 35.547C37.2632 35.5475 36.0799 35.5287 34.8958 35.4425C34.8288 35.4377 34.8288 35.4377 34.7604 35.4327C32.6459 35.2753 32.6459 35.2753 32.0603 35.0366C32.0597 34.9613 32.0591 34.8861 32.0585 34.8085C32.095 32.0275 32.095 32.0275 31.1047 29.6128C30.8744 29.3546 30.7786 29.2751 30.4614 29.2822C30.1065 29.3964 29.986 29.5901 29.8007 29.9549C29.0978 31.5236 29.2662 33.329 29.4432 35.0366C27.8664 34.8674 26.0941 34.5492 24.6668 33.6767C24.6715 33.624 24.6762 33.5712 24.6811 33.5168C24.8125 31.8036 24.8912 29.9762 24.0779 28.4773C23.9054 28.2867 23.829 28.2402 23.5954 28.1873C23.3093 28.2476 23.2257 28.3352 23.054 28.6107C22.7325 29.289 22.6295 30.0532 22.6321 30.8264C22.6322 30.9079 22.6322 30.9079 22.6324 30.9911C22.6327 31.1631 22.6335 31.335 22.6344 31.507C22.6347 31.6242 22.635 31.7415 22.6353 31.8588C22.636 32.1448 22.6371 32.4308 22.6385 32.7168C22.3122 32.6801 22.0719 32.6435 21.7879 32.4319C21.738 32.3955 21.688 32.3591 21.6366 32.3216C21.6001 32.2936 21.5637 32.2657 21.5262 32.2369C21.5723 32.4927 21.5723 32.4927 21.7582 32.5997C21.8274 32.64 21.8966 32.6803 21.9678 32.7218C22.0363 32.7624 22.1048 32.8029 22.1753 32.8446C22.3499 32.9419 22.525 33.0322 22.7039 33.1168C22.7039 33.2224 22.7039 33.328 22.7039 33.4368C22.0121 33.3004 21.504 32.9363 21.0523 32.2778C20.5308 31.3668 20.4435 30.3478 20.5749 29.2697C20.735 28.5421 21.0637 27.9821 21.5916 27.5973C21.6348 27.5973 21.678 27.5973 21.7225 27.5973C21.709 27.6553 21.6956 27.7132 21.6818 27.7729C21.6642 27.8503 21.6466 27.9276 21.6284 28.0073C21.6109 28.0834 21.5935 28.1595 21.5755 28.2379C21.4064 29.0583 21.3368 30.0713 21.5916 30.877C21.7061 31.1208 21.7061 31.1208 21.8533 31.277C21.9181 31.277 21.9829 31.277 22.0496 31.277C22.0525 31.219 22.0555 31.161 22.0585 31.1013C22.0725 30.8332 22.0876 30.5651 22.1028 30.2971C22.1074 30.2059 22.112 30.1148 22.1167 30.0209C22.1833 28.8739 22.362 27.8523 23.0627 27.0365C23.4811 26.6322 23.9717 26.3049 24.4705 26.0775C24.1289 26.059 23.8472 26.1177 23.5259 26.2497C23.4811 26.2672 23.4364 26.2848 23.3903 26.3029C23.2485 26.3586 23.1071 26.4155 22.9656 26.4724C22.8241 26.529 22.6826 26.5853 22.5409 26.6412C22.4532 26.6757 22.3656 26.7108 22.2781 26.7464C22.0046 26.8548 21.745 26.9165 21.4607 26.9574C21.6339 26.7048 21.8536 26.5848 22.0938 26.4506C22.1371 26.4262 22.1803 26.4018 22.2248 26.3767C22.7043 26.1124 23.1984 25.9082 23.6976 25.7075C24.9129 25.217 24.9129 25.217 26.0344 24.4745C27.9256 23.0109 29.8109 22.918 31.9847 22.932Z" fill="#FFFEC7"/>
<path id="Vector_3" d="M30.9066 23.6643C30.9729 23.6639 31.0391 23.6636 31.1074 23.6633C31.3229 23.6625 31.5384 23.6625 31.7539 23.6627C31.8272 23.6627 31.9005 23.6627 31.9761 23.6627C32.893 23.6635 33.8075 23.677 34.7228 23.7477C34.8047 23.754 34.8867 23.7602 34.9711 23.7667C36.8485 23.9295 38.2584 24.5914 39.7247 26.0398C39.913 26.2213 40.1084 26.3892 40.3047 26.5574C40.2831 26.6894 40.2615 26.8214 40.2393 26.9574C40.1643 26.955 40.0893 26.9526 40.0121 26.9502C38.5575 26.905 37.1035 26.8719 35.6484 26.8719C35.4317 26.8718 35.215 26.8713 34.9984 26.8706C34.8908 26.8703 34.8908 26.8703 34.7811 26.8699C34.6365 26.8695 34.4919 26.869 34.3473 26.8685C33.9781 26.8675 33.609 26.8675 33.2398 26.8694C32.8731 26.8712 32.5064 26.8703 32.1397 26.8676C32.0022 26.867 31.8646 26.8675 31.7271 26.869C31.5373 26.8709 31.3478 26.8694 31.1581 26.867C31.1025 26.8684 31.047 26.8698 30.9898 26.8712C30.7618 26.8654 30.6145 26.8568 30.435 26.6754C30.1606 26.2915 29.9872 25.8565 29.8114 25.3975C29.782 25.3246 29.7526 25.2517 29.7222 25.1766C29.5631 24.7667 29.4558 24.453 29.5088 23.9977C29.8847 23.5922 30.4346 23.665 30.9066 23.6643Z" fill="#010000"/>
<path id="Vector_4" d="M37.6262 31.6619C37.7103 31.6602 37.7103 31.6602 37.7961 31.6585C37.9779 31.6738 38.1268 31.7082 38.3028 31.7575C38.8343 31.877 39.3688 31.8547 39.9071 31.849C40.1035 31.8469 40.2998 31.8459 40.4962 31.8451C40.9122 31.8433 41.3282 31.8402 41.7441 31.8369C42.2282 31.8332 42.7123 31.8299 43.1964 31.828C43.3899 31.8269 43.5834 31.8249 43.7769 31.8229C43.8949 31.8223 44.013 31.8218 44.131 31.8213C44.2118 31.8201 44.2118 31.8201 44.2942 31.8188C44.5479 31.8187 44.6686 31.8207 44.8848 31.9969C44.9798 32.5457 44.8338 33.0623 44.6041 33.5277C44.3872 33.9114 44.1807 34.1152 43.8379 34.3167C43.7731 34.3563 43.7731 34.3563 43.707 34.3967C42.1634 34.7018 39.5997 35.095 38.2733 33.9623C37.7737 33.444 37.2594 32.7201 36.9678 31.9969C36.9894 31.9177 37.011 31.8385 37.0332 31.7569C37.2268 31.6653 37.4203 31.6638 37.6262 31.6619Z" fill="#080604"/>
<path id="Vector_5" d="M30.9484 30.0771C31.4778 30.5657 31.6676 31.4738 31.7736 32.2342C31.818 32.6583 31.8212 33.0798 31.8194 33.5068C31.819 33.644 31.819 33.644 31.8186 33.784C31.8086 34.6955 31.7486 35.6865 31.2224 36.3965C31.0052 36.5178 30.8573 36.5163 30.6212 36.4765C30.102 36.1083 29.9327 35.3994 29.7829 34.7217C29.5745 33.3991 29.4942 31.6381 30.0996 30.4586C30.3521 30.0253 30.5139 29.9122 30.9484 30.0771Z" fill="#FFFEC7"/>
<path id="Vector_6" d="M28.3311 23.9927C28.9634 24.5241 29.325 25.3336 29.4706 26.2488C29.5025 26.5175 29.5157 26.6941 29.4393 26.9524C29.275 27.1662 29.1547 27.1782 28.9199 27.1974C28.7397 26.8069 28.6601 26.4331 28.5928 25.9975C27.7279 25.9515 26.9485 26.0767 26.1064 26.3175C26.1064 26.3702 26.1064 26.423 26.1064 26.4774C26.8406 26.4774 27.5747 26.4774 28.3311 26.4774C28.0912 26.7706 27.7752 26.7269 27.4536 26.7285C27.4003 26.7284 27.347 26.7282 27.2921 26.728C27.2365 26.7281 27.181 26.7282 27.1238 26.7283C27.0067 26.7283 26.8896 26.7282 26.7725 26.7278C26.5935 26.7274 26.4144 26.7278 26.2354 26.7284C26.1214 26.7283 26.0075 26.7282 25.8935 26.728C25.8401 26.7282 25.7867 26.7284 25.7316 26.7285C25.4965 26.7273 25.2857 26.715 25.0596 26.6374C25.0536 26.5536 25.0536 26.5536 25.0476 26.4681C25.0421 26.3953 25.0366 26.3225 25.0309 26.2475C25.0256 26.1751 25.0203 26.1027 25.0148 26.0281C25.0027 25.8366 25.0027 25.8366 24.9287 25.6775C24.9626 25.6562 24.9965 25.6349 25.0314 25.613C25.8135 25.1261 25.8135 25.1261 26.5645 24.5726C27.1262 24.1233 27.6531 23.7337 28.3311 23.9927Z" fill="#040300"/>
<path id="Vector_7" d="M23.7018 28.7972C23.9806 28.9212 24.1195 29.1325 24.2743 29.4371C24.711 30.6707 24.7824 32.3269 24.4051 33.5967C24.2094 34.1652 24.2094 34.1652 24.0126 34.3167C23.8106 34.3276 23.6833 34.291 23.5165 34.1479C22.9586 33.478 22.9508 32.4657 22.9386 31.5745C22.938 31.467 22.9375 31.3595 22.9371 31.252C22.9361 31.0975 22.9361 31.0975 22.9351 30.94C22.9407 30.1921 22.968 29.4344 23.4237 28.8772C23.5546 28.7972 23.5546 28.7972 23.7018 28.7972Z" fill="#FFFEC7"/>
<path id="Vector_8" d="M32.9766 28.4772C33.864 28.539 34.746 28.7981 35.6148 29.012C35.861 29.0725 36.1073 29.1318 36.3537 29.1911C36.5115 29.2296 36.6692 29.2682 36.8269 29.3068C36.9 29.3243 36.9731 29.3419 37.0484 29.3599C37.4152 29.4512 37.7431 29.5563 38.0801 29.7571C38.0146 29.9971 38.0146 29.9971 37.9022 30.0909C37.7237 30.17 37.5831 30.1765 37.3933 30.1755C37.3212 30.1754 37.2491 30.1753 37.1748 30.1752C37.097 30.1742 37.0193 30.1731 36.9391 30.1721C36.8587 30.1714 36.7782 30.1708 36.6954 30.1702C36.0963 30.1636 35.4974 30.1485 34.8986 30.1271C34.7819 30.1234 34.7819 30.1234 34.6628 30.1196C33.5213 30.0717 33.5213 30.0717 33.2424 29.7882C33.0593 29.5445 32.9087 29.2823 32.8457 28.9572C32.8793 28.5962 32.8793 28.5962 32.9766 28.4772Z" fill="#030301"/>
<path id="Vector_9" d="M30.7518 30.957C30.899 30.957 30.899 30.957 31.0789 31.037C31.652 32.0878 31.6353 33.5501 31.4526 34.7479C31.3867 35.0437 31.2853 35.2639 31.1444 35.5166C30.9222 35.5015 30.8348 35.4587 30.6782 35.2616C30.2224 34.3011 30.2448 32.819 30.4451 31.7669C30.5135 31.4635 30.6131 31.222 30.7518 30.957Z" fill="#030200"/>
<path id="Vector_10" d="M21.5263 27.8373C21.5125 27.907 21.5125 27.907 21.4985 27.9782C21.399 28.5248 21.3714 29.0481 21.3709 29.6071C21.3693 29.6897 21.3677 29.7723 21.366 29.8574C21.3645 30.3238 21.3981 30.6626 21.5943 31.067C21.6571 31.197 21.6571 31.197 21.7225 31.437C21.9325 31.4655 22.0229 31.4607 22.1969 31.307C22.3327 31.0817 22.3563 30.9128 22.3768 30.637C22.3984 30.637 22.42 30.637 22.4423 30.637C22.4639 31.297 22.4855 31.9569 22.5077 32.6368C21.788 32.3169 21.788 32.3169 21.6571 32.1569C21.5218 32.1055 21.5218 32.1055 21.3954 32.0769C21.417 32.2353 21.4386 32.3937 21.4608 32.5569C21.0557 32.104 20.8111 31.5773 20.6102 30.957C20.5886 30.957 20.5671 30.957 20.5448 30.957C20.5177 29.8301 20.5165 28.909 21.1337 27.9973C21.33 27.8373 21.33 27.8373 21.5263 27.8373Z" fill="#FFFEC7"/>
<path id="Vector_11" d="M34.4406 36.5815C35.8951 36.9417 37.3588 37.0918 38.836 37.2351C39.2767 37.2779 39.7171 37.324 40.1575 37.3714C40.2201 37.3781 40.2828 37.3848 40.3474 37.3917C40.4858 37.4066 40.6243 37.4215 40.7627 37.4364C40.7627 37.4628 40.7627 37.4892 40.7627 37.5164C38.1907 37.7824 35.7383 37.7324 33.2383 36.8764C33.1791 36.8568 33.1199 36.8371 33.0589 36.8168C32.9993 36.7963 32.9398 36.7757 32.8784 36.7546C32.8238 36.7359 32.7691 36.7172 32.7128 36.6979C32.584 36.6365 32.584 36.6365 32.5186 36.4765C33.14 36.2232 33.8183 36.427 34.4406 36.5815Z" fill="#FFFEC7"/>
<path id="Vector_12" d="M35.385 32.9318C35.4511 32.9361 35.5172 32.9404 35.5853 32.9448C35.8957 32.9736 36.0696 32.9937 36.324 33.2252C36.4821 33.5037 36.4894 33.6649 36.4442 33.9967C36.243 34.2442 36.0846 34.2674 35.8054 34.2686C35.7322 34.2689 35.6589 34.2692 35.5835 34.2695C35.5072 34.2686 35.4309 34.2676 35.3523 34.2667C35.2773 34.2676 35.2022 34.2685 35.125 34.2695C34.6577 34.2675 34.1598 34.2618 33.7803 33.8856C33.6961 33.7567 33.6961 33.7567 33.6675 33.4818C33.6961 33.1968 33.6961 33.1968 33.7861 33.0018C34.2093 32.6938 34.9084 32.889 35.385 32.9318Z" fill="#030200"/>
<path id="Vector_13" d="M23.8164 29.4372C24.1845 29.8484 24.3158 30.3326 24.3532 30.9314C24.361 31.1734 24.364 31.4147 24.3643 31.6569C24.3645 31.7748 24.3645 31.7748 24.3647 31.895C24.3577 32.4499 24.3363 32.9632 24.0781 33.4368C23.9268 33.4368 23.9268 33.4368 23.7509 33.3568C23.3431 32.511 23.3749 31.0978 23.5454 30.1718C23.6055 29.9718 23.6692 29.785 23.7509 29.5971C23.7725 29.5444 23.7941 29.4916 23.8164 29.4372Z" fill="#030200"/>
<path id="Vector_14" d="M30.8829 30.1571C31.2311 30.4972 31.4218 31.0006 31.5372 31.5169C31.5439 31.7413 31.5439 31.7413 31.5372 31.9169C31.398 31.6616 31.2793 31.3986 31.1589 31.1295C31.0937 30.9884 31.0219 30.8519 30.9483 30.717C30.7923 30.7068 30.7923 30.7068 30.6212 30.797C30.2291 31.4486 30.2031 32.2606 30.2041 33.0368C30.2042 33.1689 30.2042 33.1689 30.2044 33.3036C30.2164 34.2873 30.2906 35.1924 30.8829 35.9165C30.67 35.8948 30.5742 35.8577 30.4167 35.6765C29.858 34.5837 29.8545 33.0243 30.0446 31.7919C30.1335 31.3391 30.2644 31.0103 30.4903 30.637C30.3131 30.8258 30.2384 31.005 30.155 31.272C30.1224 31.3745 30.1224 31.3745 30.0891 31.4791C29.9911 31.8207 29.9564 32.1201 29.9462 32.4831C29.9435 32.5759 29.9407 32.6687 29.9379 32.7643C29.9353 32.8608 29.9327 32.9574 29.9301 33.0568C29.9273 33.1546 29.9244 33.2523 29.9215 33.353C29.9146 33.5942 29.9079 33.8355 29.9015 34.0767C29.8367 34.0767 29.7719 34.0767 29.7052 34.0767C29.7033 33.7117 29.7021 33.3468 29.7011 32.9818C29.7005 32.8783 29.7 32.7749 29.6994 32.6682C29.6992 32.5685 29.699 32.4687 29.6988 32.3659C29.6983 32.2283 29.6983 32.2283 29.6978 32.0879C29.7045 31.8588 29.7187 31.6572 29.7706 31.437C29.8138 31.4106 29.857 31.3842 29.9015 31.357C29.9736 31.1377 30.0315 30.9148 30.0914 30.6902C30.1623 30.4798 30.2141 30.3752 30.3595 30.2371C30.673 30.1093 30.673 30.1093 30.8829 30.1571Z" fill="#FFFEC7"/>
<path id="Vector_15" d="M28.4619 23.1978C28.4619 23.2505 28.4619 23.3033 28.4619 23.3577C28.371 23.3896 28.371 23.3896 28.2781 23.4221C28.1998 23.4504 28.1214 23.4786 28.0407 23.5077C27.9625 23.5356 27.8843 23.5634 27.8038 23.5921C27.6037 23.6506 27.6037 23.6506 27.5459 23.8377C27.5933 23.834 27.6407 23.8303 27.6895 23.8264C28.0953 23.8079 28.3449 23.8095 28.6582 24.1577C28.9294 24.4942 29.1759 24.8287 29.3125 25.2776C29.2801 25.3963 29.2801 25.3963 29.2471 25.5175C29.2248 25.4605 29.2025 25.4035 29.1796 25.3447C28.9383 24.7618 28.665 24.2137 28.1348 23.9977C27.7221 23.9594 27.4687 24.0384 27.1083 24.2776C27.0632 24.3064 27.0181 24.3352 26.9716 24.3648C26.6091 24.5992 26.2608 24.8577 25.9142 25.1257C25.6148 25.3527 25.3055 25.5561 24.9941 25.7575C25.0157 25.7839 25.0373 25.8103 25.0596 25.8375C25.0643 25.9724 25.0651 26.1075 25.0637 26.2425C25.0631 26.316 25.0625 26.3895 25.0619 26.4652C25.0611 26.5221 25.0604 26.5789 25.0596 26.6374C25.1232 26.637 25.1868 26.6366 25.2524 26.6362C25.4917 26.6347 25.7311 26.6338 25.9705 26.633C26.0735 26.6326 26.1764 26.6321 26.2794 26.6314C26.858 26.6276 27.4285 26.632 28.0039 26.7174C28.0039 26.7438 28.0039 26.7702 28.0039 26.7974C27.5963 26.7994 27.1887 26.8008 26.7811 26.8018C26.6424 26.8022 26.5036 26.8027 26.3649 26.8034C26.1658 26.8044 25.9667 26.8049 25.7675 26.8052C25.7052 26.8056 25.6429 26.806 25.5788 26.8065C25.5211 26.8065 25.4635 26.8065 25.4041 26.8065C25.3533 26.8067 25.3024 26.8068 25.25 26.807C25.125 26.7974 25.125 26.7974 24.9941 26.7174C24.9693 26.5662 24.9693 26.5662 24.9573 26.3774C24.938 26.1124 24.9113 25.8575 24.8633 25.5975C24.9065 25.5975 24.9496 25.5975 24.9941 25.5975C24.9941 25.5447 24.9941 25.4919 24.9941 25.4375C25.0391 25.4172 25.0841 25.3969 25.1304 25.376C25.1893 25.3484 25.2483 25.3209 25.309 25.2926C25.3675 25.2656 25.4259 25.2387 25.4861 25.211C25.6475 25.1181 25.7368 25.0494 25.8447 24.8776C25.8513 24.8268 25.8578 24.776 25.8646 24.7237C25.9286 24.4904 26.0223 24.4474 26.1969 24.3305C26.2567 24.2902 26.3165 24.2499 26.3781 24.2084C26.4423 24.1669 26.5065 24.1254 26.5726 24.0827C26.6375 24.0401 26.7024 23.9974 26.7692 23.9535C27.9466 23.1978 27.9466 23.1978 28.4619 23.1978Z" fill="#FFFEC7"/>
<path id="Vector_16" d="M23.5546 29.3571C23.6194 29.3835 23.6842 29.4099 23.7509 29.4371C23.7208 29.4701 23.6907 29.5031 23.6597 29.5371C23.2626 30.0662 23.325 30.9432 23.3389 31.6138C23.3643 32.2732 23.4742 32.9079 23.6855 33.5167C23.7826 33.4771 23.7826 33.4771 23.8818 33.4368C23.9789 33.3972 23.9789 33.3972 24.0781 33.3568C24.2256 33.0925 24.2453 32.8104 24.279 32.4981C24.296 32.3426 24.296 32.3426 24.3135 32.1841C24.325 32.075 24.3365 31.966 24.348 31.8569C24.3599 31.7466 24.3719 31.6363 24.384 31.526C24.4133 31.2564 24.4422 30.9867 24.4706 30.717C24.6375 31.0764 24.624 31.3922 24.6219 31.7969C24.6216 31.9043 24.6216 31.9043 24.6213 32.0138C24.6106 32.8126 24.5044 33.5677 24.119 34.2317C24.0126 34.3167 24.0126 34.3167 23.8572 34.3267C23.6042 34.1941 23.4992 33.9573 23.3583 33.6767C23.3799 33.6239 23.4015 33.5711 23.4238 33.5167C23.444 33.5935 23.444 33.5935 23.4647 33.6717C23.5478 33.8647 23.5478 33.8647 23.7591 33.8967C23.8212 33.9033 23.8832 33.9099 23.9472 33.9167C23.9472 33.8639 23.9472 33.8111 23.9472 33.7567C23.8986 33.7534 23.85 33.7501 23.8 33.7467C23.6012 33.6694 23.5222 33.5889 23.4181 33.3686C23.1783 32.6795 23.1433 31.9555 23.1375 31.217C23.1366 31.148 23.1357 31.079 23.1348 31.0079C23.1378 30.4895 23.1676 29.8566 23.4633 29.4544C23.4934 29.4223 23.5236 29.3902 23.5546 29.3571Z" fill="#FFFEC7"/>
<path id="Vector_17" d="M30.8664 30.612C30.9393 30.6244 30.9393 30.6244 31.0136 30.637C31.0398 30.7018 31.0398 30.7018 31.0665 30.768C31.1233 30.9056 31.1816 31.0424 31.2408 31.1785C31.2752 31.2589 31.3095 31.3392 31.3449 31.422C31.3794 31.5017 31.4139 31.5814 31.4494 31.6635C31.6506 32.2451 31.6145 32.8756 31.6148 33.4968C31.6156 33.5876 31.6164 33.6784 31.6172 33.772C31.6174 33.9024 31.6174 33.9024 31.6176 34.0354C31.6178 34.1144 31.6181 34.1934 31.6184 34.2747C31.6025 34.4767 31.6025 34.4767 31.4716 34.7166C31.4727 34.6643 31.4737 34.612 31.4747 34.5582C31.5113 32.8254 31.5113 32.8254 31.0791 31.197C31.0791 31.1442 31.0791 31.0914 31.0791 31.037C30.9711 31.037 30.8631 31.037 30.7519 31.037C30.7091 31.16 30.667 31.2834 30.6251 31.407C30.6016 31.4756 30.5781 31.5443 30.5538 31.6151C30.4198 32.0824 30.4101 32.5468 30.4084 33.0368C30.4081 33.1033 30.4079 33.1698 30.4076 33.2383C30.4116 33.7638 30.4741 34.2328 30.5845 34.7416C30.621 34.9566 30.621 34.9566 30.5556 35.1966C30.1372 34.685 30.1463 34.0526 30.1382 33.3479C30.1383 33.2634 30.1384 33.1789 30.1385 33.0918C30.1386 33.0039 30.1387 32.9159 30.1388 32.8253C30.1468 32.1824 30.1703 30.7087 30.8664 30.612Z" fill="#FFFEC7"/>
<path id="Vector_18" d="M25.1904 32.0769C25.5108 32.1275 25.7975 32.2439 26.0983 32.3819C27.0206 32.7903 27.9519 33.016 28.9199 33.1968C28.9199 33.2232 28.9199 33.2496 28.9199 33.2768C28.7256 33.2768 28.5313 33.2768 28.3311 33.2768C28.3311 33.3296 28.3311 33.3824 28.3311 33.4368C28.3958 33.4368 28.4606 33.4368 28.5273 33.4368C28.5273 33.516 28.5273 33.5952 28.5273 33.6767C28.1081 33.6294 27.7123 33.5443 27.3046 33.4168C27.2481 33.3993 27.1916 33.3818 27.1334 33.3637C26.6529 33.2111 26.1671 33.0479 25.7139 32.7968C25.6923 32.744 25.6707 32.6912 25.6484 32.6369C25.9592 32.7068 25.9592 32.7068 26.1064 32.7968C26.1064 32.7176 26.1064 32.6384 26.1064 32.5569C26.0677 32.5414 26.029 32.5259 25.9891 32.51C25.7195 32.4013 25.4525 32.2912 25.1904 32.1569C25.1904 32.1305 25.1904 32.1041 25.1904 32.0769Z" fill="#FFFEC7"/>
<path id="Vector_19" d="M22.7693 28.9572C22.849 29.2495 22.809 29.3572 22.7415 29.6506C22.6148 30.2853 22.6164 30.8948 22.6262 31.5419C22.6272 31.6567 22.6281 31.7714 22.6289 31.8861C22.631 32.163 22.6344 32.4399 22.6385 32.7168C22.3122 32.6801 22.0719 32.6435 21.7879 32.4318C21.713 32.3772 21.713 32.3772 21.6366 32.3215C21.5819 32.2796 21.5819 32.2796 21.5262 32.2369C21.5723 32.4927 21.5723 32.4927 21.7582 32.5996C21.8274 32.64 21.8966 32.6803 21.9678 32.7218C22.0363 32.7623 22.1048 32.8029 22.1754 32.8446C22.3499 32.9419 22.525 33.0321 22.7039 33.1168C22.7039 33.2224 22.7039 33.328 22.7039 33.4367C22.0127 33.3004 21.5027 32.9369 21.0526 32.2772C20.7934 31.8268 20.5838 31.3575 20.6102 30.797C20.6854 30.9793 20.7587 31.1625 20.8305 31.347C20.863 31.4294 20.8956 31.5119 20.9291 31.5969C20.9775 31.7207 20.9775 31.7207 21.0268 31.8469C21.1313 32.0719 21.2388 32.2246 21.3953 32.3969C21.3953 32.2913 21.3953 32.1857 21.3953 32.0769C21.6704 32.1189 21.8821 32.2455 22.1237 32.4018C22.2551 32.487 22.2551 32.487 22.4422 32.5568C22.4412 32.5082 22.4401 32.4596 22.4391 32.4095C22.395 29.9958 22.395 29.9958 22.7693 28.9572Z" fill="#FFFEC7"/>
<path id="Vector_20" d="M34.7023 36.6364C34.7958 36.6597 34.8893 36.6828 34.9829 36.7058C35.2085 36.7615 35.4339 36.8186 35.6592 36.8764C35.6592 36.9292 35.6592 36.982 35.6592 37.0364C35.2705 36.9836 34.8819 36.9308 34.4814 36.8764C34.503 36.9292 34.5246 36.982 34.5469 37.0364C34.7234 37.0875 34.8959 37.1298 35.0744 37.1664C35.124 37.1771 35.1737 37.1878 35.2248 37.1989C35.3477 37.2253 35.4707 37.2509 35.5938 37.2764C35.5938 37.3028 35.5938 37.3292 35.5938 37.3564C35.1205 37.378 34.6977 37.3 34.2361 37.1764C34.1327 37.1493 34.1327 37.1493 34.0271 37.1216C32.9736 36.8395 32.9736 36.8395 32.584 36.6364C32.5624 36.5836 32.5408 36.5308 32.5186 36.4764C33.2074 36.1957 34.0127 36.459 34.7023 36.6364ZM34.6777 36.9564C34.7857 36.9564 34.8937 36.9564 35.0049 36.9564C34.9617 37.0092 34.9185 37.062 34.874 37.1164C34.8092 37.0636 34.7445 37.0108 34.6777 36.9564Z" fill="#FFFEC7"/>
<path id="Vector_21" d="M46.0382 32.6268C46.1475 32.6318 46.1475 32.6318 46.259 32.6368C46.4121 32.9293 46.4143 33.1753 46.3899 33.5167C46.2584 33.9231 46.048 34.0589 45.7356 34.2367C45.5434 34.2567 45.5434 34.2567 45.4084 34.2367C45.3754 33.6927 45.4675 33.2832 45.6701 32.7968C45.801 32.6368 45.801 32.6368 46.0382 32.6268Z" fill="#040300"/>
<path id="Vector_22" d="M45.7354 29.3571C46.2734 29.9232 46.4441 31.1708 46.5205 31.9969C46.6057 34.0679 46.6057 34.0679 46.3242 34.8766C45.6096 35.4591 44.4087 35.2892 43.5762 35.2766C43.5762 35.2502 43.5762 35.2238 43.5762 35.1966C43.6369 35.1902 43.6975 35.1837 43.7601 35.1771C43.9874 35.1528 44.2147 35.1279 44.442 35.1028C44.5399 35.0921 44.6379 35.0816 44.7359 35.0712C44.8776 35.0562 45.0192 35.0405 45.1608 35.0247C45.2458 35.0155 45.3307 35.0063 45.4183 34.9968C45.686 34.954 45.933 34.8824 46.1934 34.7966C46.2365 34.5062 46.2797 34.2159 46.3242 33.9167C46.1947 34.0223 46.0651 34.1279 45.9316 34.2367C45.8885 34.1839 45.8453 34.1311 45.8008 34.0767C45.8629 34.0437 45.9249 34.0107 45.9889 33.9767C46.2104 33.825 46.242 33.7962 46.3242 33.5167C46.4772 32.2268 46.2826 31.1103 45.8662 29.9171C45.8163 29.9689 45.7663 30.0206 45.7149 30.074C45.5391 30.2371 45.5391 30.2371 45.3428 30.2871C45.0568 30.2142 44.9856 30.0441 44.8193 29.7571C44.9808 29.8492 45.0842 29.9209 45.2119 30.0771C45.3775 30.1021 45.3775 30.1021 45.5391 29.9971C45.6287 29.7922 45.6842 29.5805 45.7354 29.3571Z" fill="#FFFEC7"/>
<path id="Vector_23" d="M34.416 36.7964C34.5987 36.821 34.7814 36.8461 34.964 36.8714C35.0159 36.8784 35.0679 36.8853 35.1214 36.8925C35.5135 36.9473 35.5135 36.9473 35.6592 37.0364C35.6592 36.9836 35.6592 36.9308 35.6592 36.8764C35.861 36.8987 36.0627 36.9224 36.2644 36.9464C36.3501 36.9558 36.3501 36.9558 36.4374 36.9655C36.4927 36.9722 36.5479 36.9789 36.6048 36.9858C36.6556 36.9916 36.7063 36.9975 36.7585 37.0035C36.9127 37.0388 37.0277 37.1031 37.1641 37.1964C37.0993 37.2228 37.0345 37.2492 36.9678 37.2764C36.9246 37.3556 36.8814 37.4348 36.8369 37.5163C36.5017 37.6128 36.2067 37.5888 35.8677 37.5313C35.7823 37.5176 35.6969 37.5039 35.6088 37.4898C35.3975 37.4364 35.3975 37.4364 35.2666 37.2764C35.0825 37.2326 34.8986 37.2051 34.7125 37.177C34.5469 37.1164 34.5469 37.1164 34.459 36.9508C34.4448 36.8998 34.4306 36.8489 34.416 36.7964ZM34.6777 36.9564C34.8073 37.0356 34.8073 37.0356 34.9395 37.1164C34.961 37.0636 34.9826 37.0108 35.0049 36.9564C34.8969 36.9564 34.789 36.9564 34.6777 36.9564Z" fill="#FFFEC7"/>
<path id="Vector_24" d="M25.2559 31.8369C25.5994 31.9467 25.941 32.0629 26.2802 32.1913C27.1293 32.512 27.9656 32.7815 28.8545 32.8768C28.8329 32.9824 28.8113 33.088 28.7891 33.1968C27.5491 33.0233 26.4098 32.6587 25.2559 32.0769C25.2559 31.9977 25.2559 31.9185 25.2559 31.8369Z" fill="#0F0A00"/>
<path id="Vector_25" d="M30.5555 30.557C30.6905 30.592 30.6905 30.592 30.8173 30.637C30.7687 30.6816 30.7201 30.7261 30.67 30.772C30.1489 31.4382 30.1922 32.4675 30.1972 33.3247C30.2183 34.2993 30.2964 35.1998 30.8827 35.9165C30.6698 35.8948 30.5739 35.8577 30.4165 35.6765C29.8578 34.5837 29.8542 33.0243 30.0444 31.7919C30.1369 31.3221 30.2701 30.906 30.5555 30.557Z" fill="#160F00"/>
<path id="Vector_26" d="M25.1904 32.5569C25.4147 32.6062 25.6215 32.6755 25.8355 32.7706C26.7866 33.1821 27.73 33.466 28.7236 33.6767C28.702 33.7559 28.6804 33.8351 28.6582 33.9167C28.2209 33.9425 27.8485 33.8513 27.4273 33.7117C27.362 33.6905 27.2968 33.6693 27.2295 33.6475C25.7083 33.1389 25.7083 33.1389 25.1904 32.7168C25.1904 32.664 25.1904 32.6112 25.1904 32.5569Z" fill="#0F0B00"/>
<path id="Vector_27" d="M38.4072 35.1966C38.5692 35.2362 38.5692 35.2362 38.7344 35.2766C38.7344 35.2502 38.7344 35.2238 38.7344 35.1966C39.1014 35.1966 39.4685 35.1966 39.8467 35.1966C39.8467 35.223 39.8467 35.2494 39.8467 35.2766C40.1274 35.3294 40.4081 35.3822 40.6973 35.4366C40.6973 35.463 40.6973 35.4894 40.6973 35.5166C39.1858 35.5166 37.6744 35.5166 36.1172 35.5166C36.1172 35.4902 36.1172 35.4638 36.1172 35.4366C36.6228 35.359 37.1211 35.3469 37.6302 35.3516C37.7053 35.3519 37.7804 35.3523 37.8577 35.3527C38.0409 35.3536 38.2241 35.3549 38.4072 35.3566C38.4072 35.3038 38.4072 35.251 38.4072 35.1966Z" fill="#FFFEC7"/>
<path id="Vector_28" d="M24.9287 25.3575C24.8653 25.3938 24.8019 25.4301 24.7365 25.4675C24.5315 25.5701 24.5315 25.5701 24.4707 25.7575C24.3319 25.775 24.1931 25.7921 24.0541 25.8075C23.7527 25.86 23.4752 25.9936 23.1907 26.1225C23.1011 26.162 23.1011 26.162 23.0097 26.2023C22.864 26.2666 22.7185 26.3317 22.5732 26.3974C22.6796 26.3626 22.7859 26.3275 22.8922 26.2924C22.9579 26.2708 23.0236 26.2491 23.0913 26.2268C23.2735 26.1642 23.4525 26.0943 23.6324 26.0225C23.9227 25.9134 24.1682 25.8969 24.4707 25.9175C24.4707 25.9439 24.4707 25.9703 24.4707 25.9975C24.4346 26.0048 24.3985 26.0121 24.3614 26.0196C23.802 26.1438 23.2682 26.3597 22.7282 26.5726C22.6042 26.6213 22.48 26.6695 22.3557 26.7177C22.2828 26.7464 22.2099 26.7752 22.1347 26.8048C21.9106 26.8802 21.6915 26.9231 21.4609 26.9574C21.6337 26.7056 21.8521 26.5861 22.0917 26.4524C22.1564 26.416 22.1564 26.416 22.2224 26.3789C22.671 26.1315 23.1306 25.9278 23.5965 25.7349C23.7376 25.6763 23.8782 25.6162 24.0188 25.556C24.1091 25.5181 24.1994 25.4802 24.2897 25.4425C24.3702 25.4088 24.4506 25.3751 24.5335 25.3403C24.7324 25.2775 24.7324 25.2775 24.9287 25.3575Z" fill="#FFFEC7"/>
<path id="Vector_29" d="M23.6203 29.4372C23.6851 29.4372 23.7499 29.4372 23.8166 29.4372C23.8032 29.4854 23.7898 29.5337 23.776 29.5834C23.7583 29.6473 23.7407 29.7113 23.7226 29.7771C23.7051 29.8402 23.6876 29.9033 23.6696 29.9684C23.4165 30.9369 23.4432 32.2485 23.7512 33.1968C23.8825 33.4377 23.9369 33.4872 24.1438 33.5968C23.9926 33.5968 23.8415 33.5968 23.6857 33.5968C23.2565 32.565 23.142 31.3023 23.3497 30.1687C23.51 29.5721 23.51 29.5721 23.6203 29.4372Z" fill="#FFFEC7"/>
<path id="Vector_30" d="M31.12 43.5108C31.2373 43.5113 31.2373 43.5113 31.3569 43.5119C31.5478 43.5128 31.7388 43.5141 31.9297 43.5158C31.9297 43.5686 31.9297 43.6214 31.9297 43.6758C31.9671 43.6733 32.0046 43.6709 32.0431 43.6684C32.8785 43.6154 33.7104 43.5844 34.5469 43.5958C34.5469 43.5694 34.5469 43.543 34.5469 43.5158C34.9355 43.5158 35.3242 43.5158 35.7246 43.5158C35.7246 43.5422 35.7246 43.5686 35.7246 43.5958C35.9189 43.6354 35.9189 43.6354 36.1172 43.6758C36.1172 43.7022 36.1172 43.7286 36.1172 43.7558C35.4766 43.7576 34.8361 43.759 34.1955 43.7599C33.8979 43.7603 33.6003 43.7609 33.3027 43.7618C30.7742 43.7694 30.7742 43.7694 29.5742 43.6758C29.5742 43.6494 29.5742 43.623 29.5742 43.5958C30.0906 43.5158 30.6 43.5062 31.12 43.5108Z" fill="#202020"/>
<path id="Vector_31" d="M30.7193 29.9771C31.0974 30.1422 31.2529 30.4283 31.4334 30.8567C31.7522 31.733 31.8207 32.5753 31.8152 33.5267C31.8157 33.6159 31.8162 33.7051 31.8168 33.797C31.8158 34.3155 31.7772 34.7753 31.668 35.2766C31.6464 35.2766 31.6248 35.2766 31.6026 35.2766C31.6073 35.2069 31.612 35.1372 31.6169 35.0653C31.714 33.5413 31.8131 31.5933 30.9595 30.3405C30.9342 30.3064 30.9089 30.2722 30.8829 30.2371C30.7594 30.247 30.7594 30.247 30.6334 30.2571C30.5871 30.2608 30.5408 30.2645 30.4931 30.2683C30.3066 30.3363 30.2618 30.4342 30.1631 30.637C30.1114 30.7884 30.0638 30.9419 30.02 31.097C29.9862 31.2151 29.9862 31.2151 29.9518 31.3357C29.9351 31.3955 29.9185 31.4553 29.9014 31.5169C29.7979 31.1588 29.8943 30.9264 30.0128 30.5908C30.1806 30.2078 30.3491 30.0094 30.7193 29.9771Z" fill="#FFFEC7"/>
<path id="Vector_32" d="M21.5919 27.5973C21.6351 27.5973 21.6782 27.5973 21.7227 27.5973C21.7026 27.6842 21.7026 27.6842 21.6821 27.7729C21.6645 27.8503 21.6468 27.9276 21.6287 28.0073C21.6112 28.0834 21.5938 28.1595 21.5758 28.2379C21.4067 29.0583 21.3371 30.0713 21.5919 30.877C21.7063 31.1208 21.7063 31.1208 21.8536 31.277C21.9184 31.277 21.9831 31.277 22.0499 31.277C22.0532 31.2152 22.0564 31.1535 22.0598 31.0899C22.075 30.8105 22.091 30.5313 22.1071 30.2521C22.1123 30.1549 22.1174 30.0577 22.1227 29.9576C22.1282 29.8645 22.1337 29.7714 22.1393 29.6756C22.1441 29.5897 22.1489 29.5038 22.1539 29.4153C22.1807 29.1972 22.1807 29.1972 22.3116 28.9572C22.3063 29.3239 22.2989 29.6905 22.2911 30.0571C22.2889 30.2133 22.2889 30.2133 22.2867 30.3727C22.2844 30.4727 22.282 30.5727 22.2796 30.6758C22.2779 30.7679 22.2762 30.8601 22.2745 30.955C22.2441 31.2145 22.1933 31.3267 22.0499 31.5169C21.9067 31.5169 21.9067 31.5169 21.7227 31.4369C21.3421 30.862 21.3182 30.352 21.3179 29.6371C21.3167 29.5125 21.3167 29.5125 21.3155 29.3853C21.3146 28.8349 21.335 28.2891 21.461 27.7573C21.5042 27.7045 21.5474 27.6517 21.5919 27.5973Z" fill="#FFFEC7"/>
<path id="Vector_33" d="M35.4069 26.7896C35.4573 26.7897 35.5077 26.7898 35.5595 26.7899C35.7195 26.7904 35.8795 26.7914 36.0395 26.7924C36.1483 26.7928 36.2572 26.7932 36.366 26.7935C36.632 26.7944 36.898 26.7958 37.1641 26.7974C37.1641 26.8238 37.1641 26.8502 37.1641 26.8774C36.8726 26.917 36.8726 26.917 36.5752 26.9574C36.5752 26.9838 36.5752 27.0102 36.5752 27.0374C35.0854 27.0374 33.5955 27.0374 32.0605 27.0374C32.0605 27.011 32.0605 26.9846 32.0605 26.9574C32.1342 26.9554 32.2078 26.9534 32.2836 26.9513C32.5574 26.9438 32.8311 26.9358 33.1049 26.9276C33.2232 26.9242 33.3416 26.9208 33.4599 26.9176C33.6303 26.913 33.8007 26.9079 33.971 26.9027C34.0237 26.9014 34.0764 26.9 34.1307 26.8987C34.3301 26.8923 34.5174 26.8847 34.7131 26.8363C34.9438 26.7805 35.1728 26.7876 35.4069 26.7896Z" fill="#FFFEC7"/>
<path id="Vector_34" d="M41.0898 27.0374C41.3679 27.0235 41.6455 27.0141 41.9238 27.0171C41.9707 27.0174 42.0175 27.0178 42.0658 27.0181C42.2654 27.0463 42.4158 27.1416 42.5835 27.2727C42.7847 27.3926 42.9831 27.4165 43.204 27.4573C43.6389 27.5424 44.0291 27.699 44.4349 27.9073C44.5128 27.9466 44.5128 27.9466 44.5922 27.9867C44.9991 28.2036 45.3697 28.4787 45.6045 28.9572C45.6045 29.0364 45.6045 29.1156 45.6045 29.1972C45.1942 29.1972 44.784 29.1972 44.3613 29.1972C44.3613 29.1708 44.3613 29.1444 44.3613 29.1172C44.7284 29.1172 45.0954 29.1172 45.4736 29.1172C45.4116 29.0264 45.3495 28.9357 45.2855 28.8422C45.2506 28.7912 45.2157 28.7401 45.1797 28.6875C45.0861 28.5486 45.0861 28.5486 44.9502 28.4772C44.9502 28.4244 44.9502 28.3717 44.9502 28.3173C44.9035 28.3081 44.8567 28.2989 44.8086 28.2894C44.6121 28.2342 44.4527 28.1493 44.2714 28.0423C43.8022 27.7765 43.3583 27.6536 42.8478 27.5701C42.6434 27.5126 42.5095 27.4128 42.333 27.2774C42.0865 27.1698 41.8235 27.1706 41.5642 27.1524C41.5186 27.1489 41.4729 27.1455 41.4259 27.1419C41.3139 27.1335 41.2019 27.1254 41.0898 27.1174C41.0898 27.091 41.0898 27.0646 41.0898 27.0374Z" fill="#FFFEC7"/>
<path id="Vector_35" d="M25.1904 32.0769C25.5056 32.127 25.7864 32.2402 26.0819 32.3769C26.7102 32.659 27.3528 32.8508 28.0039 33.0368C28.0039 33.0632 28.0039 33.0896 28.0039 33.1168C27.5979 33.0782 27.2188 33.0102 26.8262 32.8768C26.8046 32.9824 26.783 33.088 26.7607 33.1968C26.3691 33.0767 26.0009 32.9614 25.6484 32.7168C25.8447 32.6369 25.8447 32.6369 25.9879 32.7118C26.027 32.7399 26.0661 32.7679 26.1064 32.7968C26.1064 32.7176 26.1064 32.6384 26.1064 32.5569C26.0677 32.5414 26.029 32.5259 25.9891 32.51C25.7195 32.4013 25.4525 32.2912 25.1904 32.1569C25.1904 32.1305 25.1904 32.1041 25.1904 32.0769Z" fill="#FFFEC7"/>
<path id="Vector_36" d="M23.5546 29.3571C23.6194 29.3835 23.6842 29.4099 23.7509 29.4371C23.7208 29.4701 23.6907 29.5031 23.6597 29.5371C23.2626 30.0663 23.3249 30.9435 23.3392 31.6141C23.3661 32.3087 23.4634 32.9884 23.7509 33.5967C23.8157 33.6495 23.8805 33.7023 23.9472 33.7567C23.7251 33.7416 23.6377 33.6989 23.481 33.5017C23.1587 32.8194 23.1435 31.9841 23.1375 31.217C23.1366 31.148 23.1357 31.079 23.1348 31.0079C23.1378 30.4895 23.1676 29.8566 23.4633 29.4544C23.4934 29.4223 23.5236 29.3902 23.5546 29.3571Z" fill="#0B0800"/>
<path id="Vector_37" d="M31.21 35.5166C31.2747 35.543 31.3395 35.5694 31.4062 35.5966C31.3868 35.8739 31.3416 35.9953 31.1977 36.2165C30.9961 36.4137 30.8752 36.4548 30.6211 36.4765C30.4915 36.2653 30.362 36.0541 30.2285 35.8365C30.2501 35.7837 30.2717 35.731 30.2939 35.6766C30.3425 35.7145 30.3911 35.7524 30.4412 35.7915C30.5956 35.8988 30.7105 35.9575 30.8828 35.9965C30.8828 35.9437 30.8828 35.8909 30.8828 35.8365C30.8396 35.8101 30.7964 35.7837 30.752 35.7565C30.8471 35.7194 30.8471 35.7194 30.9442 35.6816C31.1341 35.6209 31.1341 35.6209 31.21 35.5166Z" fill="#FFFEC7"/>
<path id="Vector_38" d="M24.3398 32.9568C24.439 33.3205 24.3642 33.6356 24.2744 33.9967C24.1558 34.2117 24.1558 34.2117 24.0127 34.3167C23.8532 34.3317 23.8532 34.3317 23.6855 34.2367C23.5607 34.0615 23.4577 33.8746 23.3584 33.6767C23.38 33.624 23.4016 33.5712 23.4238 33.5168C23.4373 33.5679 23.4508 33.6191 23.4647 33.6717C23.5478 33.8647 23.5478 33.8647 23.7592 33.8967C23.8212 33.9033 23.8833 33.9099 23.9473 33.9167C23.9473 33.8375 23.9473 33.7583 23.9473 33.6767C23.8825 33.6504 23.8177 33.624 23.751 33.5968C23.7996 33.5654 23.8481 33.5341 23.8982 33.5018C24.0911 33.3463 24.2045 33.1836 24.3398 32.9568Z" fill="#FFFEC7"/>
<path id="Vector_39" d="M30.4904 30.4771C30.5336 30.5034 30.5768 30.5298 30.6213 30.557C30.5835 30.6049 30.5457 30.6527 30.5068 30.702C29.9794 31.6155 30.0244 32.6689 30.0465 33.7366C30.0474 33.8269 30.0483 33.9171 30.0493 34.0101C30.0507 34.092 30.0522 34.1739 30.0537 34.2583C30.0295 34.5068 29.972 34.6136 29.8361 34.7966C29.7704 34.5555 29.7639 34.3933 29.7666 34.1417C29.7672 34.0696 29.7678 33.9975 29.7684 33.9233C29.7691 33.8683 29.7699 33.8134 29.7707 33.7567C29.7923 33.7567 29.8139 33.7567 29.8361 33.7567C29.8371 33.7076 29.838 33.6585 29.839 33.6079C29.8439 33.3808 29.8502 33.1538 29.8566 32.9268C29.858 32.8496 29.8595 32.7723 29.861 32.6928C29.8809 32.035 29.9603 31.3877 30.2696 30.832C30.2974 30.7808 30.3253 30.7295 30.3539 30.6767C30.425 30.557 30.425 30.557 30.4904 30.4771Z" fill="#FFFEC7"/>
<path id="Vector_40" d="M29.7706 31.437C29.8138 31.4633 29.857 31.4897 29.9015 31.5169C29.9659 31.8493 29.9714 32.1589 29.959 32.4987C29.9558 32.591 29.9527 32.6833 29.9494 32.7784C29.9457 32.8736 29.9421 32.9687 29.9383 33.0668C29.9349 33.1638 29.9314 33.2609 29.9279 33.3608C29.9195 33.5995 29.9106 33.8381 29.9015 34.0767C29.8367 34.0767 29.7719 34.0767 29.7052 34.0767C29.7033 33.7117 29.7021 33.3468 29.7011 32.9818C29.7005 32.8783 29.7 32.7748 29.6994 32.6682C29.6992 32.5685 29.699 32.4687 29.6988 32.3659C29.6983 32.2283 29.6983 32.2283 29.6978 32.0879C29.7045 31.8607 29.7279 31.6577 29.7706 31.437Z" fill="#FFFEC7"/>
<path id="Vector_41" d="M28.5928 25.9175C28.6582 25.9975 28.6582 25.9975 28.6623 26.2024C28.6609 26.2668 28.6596 26.3311 28.6582 26.3974C28.5273 26.1575 28.5273 26.1575 28.5273 25.9975C28.3119 26.022 28.0966 26.0471 27.8812 26.0725C27.8199 26.0794 27.7586 26.0864 27.6954 26.0936C27.6368 26.1005 27.5782 26.1075 27.5178 26.1146C27.4366 26.1241 27.4366 26.1241 27.3537 26.1337C27.2149 26.1493 27.2149 26.1493 27.0879 26.2374C26.9571 26.2406 26.8261 26.2409 26.6953 26.2374C26.6953 26.2902 26.6953 26.343 26.6953 26.3974C26.9328 26.3974 27.1703 26.3974 27.415 26.3974C27.415 26.4238 27.415 26.4502 27.415 26.4774C26.9832 26.4774 26.5514 26.4774 26.1064 26.4774C26.1064 26.4246 26.1064 26.3718 26.1064 26.3174C26.9304 25.9443 27.7205 25.8684 28.5928 25.9175Z" fill="#FFFEC7"/>
<path id="Vector_42" d="M34.416 36.7964C34.5987 36.821 34.7814 36.8461 34.964 36.8714C35.0159 36.8784 35.0679 36.8853 35.1214 36.8925C35.5135 36.9473 35.5135 36.9473 35.6592 37.0364C35.6592 36.9836 35.6592 36.9308 35.6592 36.8764C35.79 36.9564 35.79 36.9564 35.8555 37.1164C35.8339 37.1692 35.8123 37.222 35.79 37.2764C35.898 37.2764 36.006 37.2764 36.1172 37.2764C36.1172 37.3028 36.1172 37.3292 36.1172 37.3564C36.0001 37.3741 35.8828 37.3905 35.7655 37.4064C35.7002 37.4156 35.6349 37.4249 35.5677 37.4345C35.5115 37.4351 35.4553 37.4357 35.3975 37.4364C35.3543 37.3836 35.3111 37.3308 35.2666 37.2764C35.0825 37.2326 34.8986 37.2051 34.7125 37.177C34.5469 37.1164 34.5469 37.1164 34.459 36.9508C34.4448 36.8998 34.4306 36.8489 34.416 36.7964ZM34.6777 36.9564C34.8073 37.0356 34.8073 37.0356 34.9395 37.1164C34.961 37.0636 34.9826 37.0108 35.0049 36.9564C34.8969 36.9564 34.789 36.9564 34.6777 36.9564Z" fill="#FFFEC7"/>
<path id="Vector_43" d="M31.5371 31.9169C31.5587 31.9169 31.5803 31.9169 31.6025 31.9169C31.741 33.1078 31.7376 34.2386 31.668 35.4366C31.6032 35.4366 31.5384 35.4366 31.4717 35.4366C31.4501 35.1198 31.4285 34.803 31.4062 34.4767C31.4494 34.4767 31.4926 34.4767 31.5371 34.4767C31.5371 33.6319 31.5371 32.7872 31.5371 31.9169Z" fill="#FFFEC7"/>
<path id="Vector_44" d="M22.9658 30.2371C23.063 30.3163 23.063 30.3163 23.1621 30.397C23.1844 30.5914 23.1844 30.5914 23.1813 30.8326C23.1806 30.9187 23.18 31.0048 23.1794 31.0935C23.1777 31.1838 23.1761 31.274 23.1744 31.367C23.1735 31.4578 23.1726 31.5486 23.1717 31.6422C23.1694 31.8671 23.1661 32.092 23.1621 32.3169C23.0973 32.3169 23.0326 32.3169 22.9658 32.3169C22.9658 31.6305 22.9658 30.9442 22.9658 30.2371Z" fill="#FFFEC7"/>
<path id="Vector_45" d="M44.4268 27.9973C44.881 28.0626 45.1695 28.4048 45.4736 28.7972C45.5168 28.85 45.56 28.9028 45.6045 28.9572C45.6045 29.0364 45.6045 29.1156 45.6045 29.1972C45.1942 29.1972 44.784 29.1972 44.3613 29.1972C44.3613 29.1708 44.3613 29.1444 44.3613 29.1172C44.7284 29.1172 45.0954 29.1172 45.4736 29.1172C45.4116 29.0264 45.3495 28.9357 45.2855 28.8422C45.2506 28.7912 45.2157 28.7401 45.1797 28.6875C45.0861 28.5486 45.0861 28.5486 44.9502 28.4772C44.9502 28.4244 44.9502 28.3716 44.9502 28.3173C44.9003 28.309 44.8503 28.3008 44.7989 28.2923C44.6119 28.2338 44.5473 28.1757 44.4268 27.9973Z" fill="#FFFEC7"/>
<path id="Vector_46" d="M45.7354 29.3571C45.9231 29.5738 46.0279 29.7837 46.1279 30.0771C46.1063 30.1563 46.0847 30.2355 46.0625 30.3171C46.0193 30.2379 45.9761 30.1587 45.9316 30.0771C45.8885 30.0243 45.8453 29.9715 45.8008 29.9171C45.7657 29.9699 45.7306 30.0227 45.6945 30.0771C45.5391 30.2371 45.5391 30.2371 45.3469 30.2871C45.0571 30.2148 44.9876 30.0476 44.8193 29.7571C44.9808 29.8492 45.0842 29.9209 45.2119 30.0771C45.3775 30.1021 45.3775 30.1021 45.5391 29.9971C45.6287 29.7922 45.6842 29.5805 45.7354 29.3571Z" fill="#FFFEC7"/>
<path id="Vector_47" d="M25.7793 24.6376C25.8225 24.7168 25.8657 24.796 25.9102 24.8776C25.7145 25.1444 25.5244 25.2948 25.2559 25.4375C25.2127 25.4375 25.1695 25.4375 25.125 25.4375C25.125 25.3847 25.125 25.3319 25.125 25.2775C25.0818 25.2511 25.0386 25.2247 24.9941 25.1975C25.0453 25.1638 25.0965 25.1301 25.1493 25.0954C25.2155 25.0515 25.2817 25.0077 25.3499 24.9626C25.416 24.919 25.482 24.8753 25.55 24.8304C25.7051 24.7354 25.7051 24.7354 25.7793 24.6376Z" fill="#FFFEC7"/>
<path id="Vector_48" d="M24.4706 30.717C24.6148 31.001 24.619 31.2367 24.6178 31.5669C24.6182 31.6587 24.6185 31.7505 24.6188 31.845C24.6015 32.0769 24.6015 32.0769 24.4706 32.2369C24.4444 32.4227 24.4222 32.6094 24.4052 32.7968C24.3836 32.7968 24.362 32.7968 24.3397 32.7968C24.3148 32.0931 24.3916 31.412 24.4706 30.717Z" fill="#FFFEC7"/>
<path id="Vector_49" d="M25.8447 27.6773C25.9311 27.7301 26.0175 27.7829 26.1064 27.8373C26.0849 28.0749 26.0633 28.3124 26.041 28.5572C25.7793 28.4772 25.7793 28.4772 25.6484 28.3172C25.6743 28.0802 25.753 27.8866 25.8447 27.6773Z" fill="#180F00"/>
<path id="Vector_50" d="M38.9307 37.3564C39.5451 37.3484 40.1514 37.346 40.7627 37.4364C40.7627 37.4628 40.7627 37.4892 40.7627 37.5164C40.2661 37.5428 39.7695 37.5692 39.2578 37.5963C39.2578 37.57 39.2578 37.5436 39.2578 37.5164C39.1499 37.49 39.0419 37.4636 38.9307 37.4364C38.9307 37.41 38.9307 37.3836 38.9307 37.3564Z" fill="#FFFEC7"/>
<path id="Vector_51" d="M20.8723 28.4772C20.8938 28.53 20.9154 28.5828 20.9377 28.6372C20.9174 28.6966 20.8972 28.756 20.8763 28.8172C20.795 29.0352 20.795 29.0352 20.8068 29.2772C20.8068 29.5171 20.8068 29.5171 20.7455 29.6971C20.6411 30.0274 20.6317 30.3659 20.6105 30.717C20.5889 30.717 20.5674 30.717 20.5451 30.717C20.4993 29.1612 20.4993 29.1612 20.8723 28.4772Z" fill="#FFFEC7"/>
<path id="Vector_52" d="M23.293 31.9969C23.3146 31.9969 23.3362 31.9969 23.3585 31.9969C23.3704 32.0722 23.3822 32.1474 23.3945 32.225C23.4109 32.3246 23.4274 32.4242 23.4443 32.5268C23.4603 32.6252 23.4762 32.7236 23.4926 32.8249C23.5797 33.2341 23.6549 33.5183 23.9473 33.7567C23.7162 33.741 23.6361 33.6978 23.4771 33.4867C23.2903 33.1044 23.1873 32.5687 23.2575 32.13C23.2692 32.0861 23.281 32.0421 23.293 31.9969Z" fill="#201700"/>
<path id="Vector_53" d="M37.5566 37.1164C37.5782 37.1956 37.5998 37.2748 37.6221 37.3564C37.8164 37.396 37.8164 37.396 38.0146 37.4364C38.0146 37.4628 38.0146 37.4892 38.0146 37.5164C37.626 37.5164 37.2373 37.5164 36.8369 37.5164C37.0214 37.0652 37.173 37.106 37.5566 37.1164Z" fill="#FFFEC7"/>
<path id="Vector_54" d="M23.4893 28.9572C23.6324 28.9272 23.6324 28.9272 23.8164 28.9572C24.014 29.1987 24.1761 29.4084 24.209 29.7571C24.1698 29.7208 24.1307 29.6845 24.0904 29.6471C23.7883 29.3651 23.7883 29.3651 23.4238 29.2772C23.4454 29.1716 23.467 29.066 23.4893 28.9572Z" fill="#FFFEC7"/>
<path id="Vector_55" d="M26.6953 23.9977C26.8985 23.9977 26.9801 24.0408 27.1533 24.1577C26.957 24.3176 26.957 24.3176 26.8308 24.3548C26.6709 24.4053 26.5624 24.4909 26.4254 24.6026C26.186 24.7976 26.186 24.7976 26.041 24.7976C26.1135 24.5405 26.1709 24.4783 26.3682 24.3376C26.5645 24.2377 26.5645 24.2377 26.6953 24.2377C26.6953 24.1585 26.6953 24.0793 26.6953 23.9977Z" fill="#FFFEC7"/>
<path id="Vector_56" d="M15.3105 36.9564C15.3537 36.9828 15.3969 37.0092 15.4414 37.0364C15.1175 37.4324 14.7937 37.8283 14.46 38.2363C14.46 37.9112 14.5601 37.8322 14.738 37.5964C14.7897 37.5271 14.8413 37.4578 14.8945 37.3864C15.0269 37.2234 15.1568 37.0875 15.3105 36.9564Z" fill="#1B1B1B"/>
<path id="Vector_57" d="M23.0311 31.7569C23.2017 31.9987 23.2577 32.1697 23.2806 32.4869C23.2864 32.5564 23.2922 32.6259 23.2982 32.6975C23.2928 32.8768 23.2928 32.8768 23.162 33.0368C23.162 32.984 23.162 32.9312 23.162 32.8768C23.1188 32.8768 23.0756 32.8768 23.0311 32.8768C22.9714 32.4792 22.9714 32.1545 23.0311 31.7569Z" fill="#FFFEC7"/>
<path id="Vector_58" d="M33.958 28.8772C34.2688 28.9372 34.2688 28.9372 34.416 29.1172C34.4242 29.3671 34.4242 29.3671 34.416 29.5971C34.3296 29.6235 34.2433 29.6499 34.1543 29.6771C34.1543 29.4659 34.1543 29.2548 34.1543 29.0372C34.0895 29.0372 34.0247 29.0372 33.958 29.0372C33.958 28.9844 33.958 28.9316 33.958 28.8772Z" fill="#C0B3A9"/>
<path id="Vector_59" d="M24.3398 32.9568C24.4282 33.2808 24.3805 33.5001 24.3398 33.8367C24.2751 33.8103 24.2103 33.7839 24.1436 33.7567C24.0788 33.8095 24.014 33.8623 23.9473 33.9167C23.9473 33.8375 23.9473 33.7583 23.9473 33.6767C23.8825 33.6504 23.8177 33.624 23.751 33.5968C23.8238 33.5497 23.8238 33.5497 23.8982 33.5018C24.0911 33.3463 24.2045 33.1836 24.3398 32.9568Z" fill="#FFFEC7"/>
<path id="Vector_60" d="M21.8535 32.8768C22.2422 32.9956 22.2422 32.9956 22.6387 33.1168C22.6603 33.2224 22.6819 33.328 22.7041 33.4367C22.0682 33.3105 22.0682 33.3105 21.8535 32.9568C21.8535 32.9304 21.8535 32.904 21.8535 32.8768Z" fill="#FFFEC7"/>
<path id="Vector_61" d="M30.4248 34.7966C30.5575 34.9532 30.6794 35.1047 30.7888 35.2866C30.8853 35.4572 30.8853 35.4572 31.0791 35.5966C30.9319 35.6565 30.9319 35.6565 30.752 35.6765C30.5652 35.5005 30.4385 35.3093 30.3594 35.0366C30.381 34.9574 30.4026 34.8782 30.4248 34.7966Z" fill="#FFFEC7"/>
<path id="Vector_62" d="M27.0879 32.9568C27.2822 32.9832 27.4765 33.0096 27.6768 33.0368C27.6983 33.1688 27.7199 33.3008 27.7422 33.4368C27.6558 33.4368 27.5695 33.4368 27.4805 33.4368C27.4805 33.384 27.4805 33.3312 27.4805 33.2768C27.2861 33.2372 27.2861 33.2372 27.0879 33.1968C27.0879 33.1176 27.0879 33.0384 27.0879 32.9568Z" fill="#FFFEC7"/>
<path id="Vector_63" d="M22.1807 26.3974C22.2238 26.4238 22.267 26.4502 22.3115 26.4774C22.2461 26.7174 22.2461 26.7174 22.1178 26.7961C22.0657 26.8164 22.0135 26.8366 21.9598 26.8574C21.8822 26.8889 21.8822 26.8889 21.8029 26.9211C21.6572 26.9574 21.6572 26.9574 21.4609 26.8774C21.5778 26.795 21.6951 26.7135 21.8126 26.6324C21.8779 26.5869 21.9432 26.5415 22.0104 26.4946C22.0666 26.4625 22.1228 26.4305 22.1807 26.3974Z" fill="#FFFEC7"/>
<path id="Vector_64" d="M25.125 32.3969C25.4358 32.4568 25.4358 32.4568 25.583 32.6368C25.3887 32.5972 25.3887 32.5972 25.1904 32.5568C25.3297 32.7441 25.4597 32.8534 25.6484 32.9568C25.6268 33.0096 25.6053 33.0624 25.583 33.1168C25.4103 32.9848 25.2375 32.8528 25.0596 32.7168C25.0812 32.6112 25.1028 32.5056 25.125 32.3969Z" fill="#FFFEC7"/>
<path id="Vector_65" d="M46.4551 33.3568C46.4767 33.3568 46.4983 33.3568 46.5205 33.3568C46.5205 33.5152 46.5205 33.6736 46.5205 33.8367C46.1966 34.0347 46.1966 34.0347 45.8662 34.2367C45.8446 34.1839 45.823 34.1311 45.8008 34.0767C45.8898 34.0322 45.8898 34.0322 45.9807 33.9867C46.2231 33.8158 46.313 33.6463 46.4551 33.3568Z" fill="#FFFEC7"/>
<path id="Vector_66" d="M23.5547 29.3571C23.6195 29.3835 23.6842 29.4099 23.751 29.4371C23.7064 29.4817 23.7064 29.4817 23.661 29.5271C23.5395 29.6787 23.5395 29.6787 23.4893 29.9271C23.4677 30.003 23.4461 30.0789 23.4238 30.1571C23.3591 30.1835 23.2943 30.2099 23.2275 30.2371C23.2672 29.8976 23.3521 29.6048 23.5547 29.3571Z" fill="#1C1300"/>
<path id="Vector_67" d="M26.5767 32.7468C26.6374 32.7633 26.6982 32.7798 26.7607 32.7968C26.7607 32.876 26.7607 32.9552 26.7607 33.0368C26.4693 32.9576 26.4693 32.9576 26.1719 32.8768C26.3682 32.7168 26.3682 32.7168 26.5767 32.7468Z" fill="#FFFEC7"/>
<path id="Vector_68" d="M23.2275 29.7571C23.2993 30.0203 23.2799 30.1341 23.2275 30.397C23.1844 30.397 23.1412 30.397 23.0967 30.397C23.0967 30.5818 23.0967 30.7666 23.0967 30.957C23.0751 30.957 23.0535 30.957 23.0312 30.957C23.0312 30.693 23.0312 30.429 23.0312 30.1571C23.0744 30.1571 23.1176 30.1571 23.1621 30.1571C23.1837 30.0251 23.2053 29.8931 23.2275 29.7571Z" fill="#FFFEC7"/>
<path id="Vector_69" d="M28.5273 26.2375C28.4701 26.6274 28.4701 26.6274 28.3965 26.7174C28.2875 26.7207 28.1783 26.7208 28.0693 26.7174C28.1658 26.4452 28.2562 26.2375 28.5273 26.2375Z" fill="#FFFEC7"/>
<path id="Vector_70" d="M33.4346 36.7164C33.5857 36.7428 33.7369 36.7692 33.8926 36.7964C33.8926 36.8756 33.8926 36.9548 33.8926 37.0364C33.7414 37.01 33.5903 36.9836 33.4346 36.9564C33.4346 36.8772 33.4346 36.798 33.4346 36.7164Z" fill="#FFFEC7"/>
<path id="Vector_71" d="M30.6865 30.637C30.7945 30.637 30.9024 30.637 31.0137 30.637C31.0137 30.7162 31.0137 30.7954 31.0137 30.877C30.8841 30.9034 30.7546 30.9298 30.6211 30.957C30.6427 30.8514 30.6643 30.7458 30.6865 30.637Z" fill="#FFFEC7"/>
<path id="Vector_72" d="M32.3877 43.5158C32.5604 43.5158 32.7332 43.5158 32.9111 43.5158C32.9111 43.5426 32.9111 43.5694 32.9111 43.5971C32.7384 43.5971 32.5657 43.5971 32.3877 43.5971C32.3877 43.5702 32.3877 43.5434 32.3877 43.5158Z" fill="#131212"/>
<path id="Vector_73" d="M41.0898 42.0759C41.133 42.1287 41.1762 42.1815 41.2207 42.2359C41.0696 42.2359 40.9184 42.2359 40.7627 42.2359C40.7627 42.2095 40.7627 42.1831 40.7627 42.1559C40.9181 42.1059 40.9181 42.1059 41.0898 42.0759Z" fill="#1A1819"/>
<path id="Vector_74" d="M18.3857 31.357C18.4074 31.357 18.4291 31.357 18.4514 31.357C18.4514 31.5681 18.4514 31.7793 18.4514 31.9969C18.4297 31.9969 18.4081 31.9969 18.3857 31.9969C18.3857 31.7857 18.3857 31.5745 18.3857 31.357Z" fill="#1F1E1D"/>
<path id="Vector_75" d="M26.1719 50.5551C26.2367 50.5947 26.2367 50.5947 26.3027 50.6351C26.2811 50.7143 26.2596 50.7935 26.2373 50.8751C26.2157 50.7695 26.1941 50.6639 26.1719 50.5551Z" fill="#1B1A1B"/>
<path id="Vector_76" d="M41.5479 42.8759C41.6126 42.9023 41.6774 42.9286 41.7441 42.9558C41.6578 42.9822 41.5714 43.0086 41.4824 43.0358C41.504 42.983 41.5256 42.9302 41.5479 42.8759Z" fill="#161514"/>
<path id="Vector_77" d="M30.6865 42.4759C30.8161 42.4759 30.9456 42.4759 31.0791 42.4759C31.0791 42.5027 31.0791 42.5295 31.0791 42.5572C30.9496 42.5572 30.82 42.5572 30.6865 42.5572C30.6865 42.5304 30.6865 42.5035 30.6865 42.4759Z" fill="#181718"/>
<path id="Vector_78" d="M23.5547 45.7556C23.6195 45.7952 23.6195 45.7952 23.6855 45.8355C23.6855 45.8883 23.6855 45.9411 23.6855 45.9955C23.6424 45.9955 23.5992 45.9955 23.5547 45.9955C23.5547 45.9163 23.5547 45.8371 23.5547 45.7556Z" fill="#1B1A1A"/>
<path id="Vector_79" d="M41.875 42.8759C41.983 42.8759 42.0909 42.8759 42.2021 42.8759C42.2021 42.9027 42.2021 42.9295 42.2021 42.9571C42.0942 42.9571 41.9862 42.9571 41.875 42.9571C41.875 42.9303 41.875 42.9035 41.875 42.8759Z" fill="#181516"/>
<path id="Vector_80" d="M25.125 42.8759C25.1898 42.8759 25.2546 42.8759 25.3213 42.8759C25.2997 42.9286 25.2781 42.9814 25.2559 43.0358C25.2127 43.0358 25.1695 43.0358 25.125 43.0358C25.125 42.983 25.125 42.9302 25.125 42.8759Z" fill="#171615"/>
<path id="Vector_81" d="M41.3516 42.0759C41.4595 42.0759 41.5675 42.0759 41.6787 42.0759C41.6787 42.1028 41.6787 42.1296 41.6787 42.1572C41.5708 42.1572 41.4628 42.1572 41.3516 42.1572C41.3516 42.1304 41.3516 42.1036 41.3516 42.0759Z" fill="#181717"/>
<path id="Vector_82" d="M25.6484 42.0759C25.7564 42.0759 25.8644 42.0759 25.9756 42.0759C25.9756 42.1028 25.9756 42.1296 25.9756 42.1572C25.8676 42.1572 25.7597 42.1572 25.6484 42.1572C25.6484 42.1304 25.6484 42.1036 25.6484 42.0759Z" fill="#181717"/>
<path id="Vector_83" d="M44.623 41.436C44.7094 41.4624 44.7958 41.4888 44.8848 41.516C44.82 41.5556 44.82 41.5556 44.7539 41.596C44.7107 41.5432 44.6675 41.4904 44.623 41.436Z" fill="#1A1919"/>
<path id="Vector_84" d="M19.4326 24.3177C19.4542 24.3705 19.4758 24.4232 19.498 24.4776C19.4549 24.5304 19.4117 24.5832 19.3672 24.6376C19.3888 24.532 19.4104 24.4264 19.4326 24.3177Z" fill="#1E1E1E"/>
<path id="Vector_85" d="M38.2109 14.0786C38.2757 14.0786 38.3405 14.0786 38.4072 14.0786C38.4072 14.1314 38.4072 14.1842 38.4072 14.2386C38.3425 14.2386 38.2777 14.2386 38.2109 14.2386C38.2109 14.1858 38.2109 14.133 38.2109 14.0786Z" fill="#1F1F1D"/>
<path id="Vector_86" d="M30.3594 13.4387C30.4673 13.4387 30.5753 13.4387 30.6865 13.4387C30.6865 13.4655 30.6865 13.4923 30.6865 13.52C30.5786 13.52 30.4706 13.52 30.3594 13.52C30.3594 13.4932 30.3594 13.4663 30.3594 13.4387Z" fill="#1F1E1F"/>
<path id="Vector_87" d="M28.8545 55.6746C28.9193 55.7142 28.9193 55.7142 28.9854 55.7546C28.9638 55.8074 28.9422 55.8602 28.9199 55.9146C28.8983 55.8354 28.8767 55.7562 28.8545 55.6746Z" fill="#1A1A1A"/>
<path id="Vector_88" d="M22.1152 42.3159C22.377 42.3972 22.377 42.3972 22.377 42.3972L22.1152 42.3159Z" fill="#171717"/>
<path id="Vector_89" d="M24.0781 16.8784C24.1429 16.9048 24.2077 16.9312 24.2744 16.9583C24.2096 16.9847 24.1449 17.0111 24.0781 17.0383C24.0781 16.9855 24.0781 16.9328 24.0781 16.8784Z" fill="#1E1C1D"/>
<path id="Vector_90" d="M28.2656 14.0786C28.3088 14.0786 28.352 14.0786 28.3965 14.0786C28.3965 14.1314 28.3965 14.1842 28.3965 14.2386C28.3533 14.2386 28.3101 14.2386 28.2656 14.2386C28.2656 14.1858 28.2656 14.133 28.2656 14.0786Z" fill="#1E1F1D"/>
<path id="Vector_91" d="M31.5371 61.1141C31.5587 61.1669 31.5803 61.2197 31.6025 61.2741C31.5594 61.2477 31.5162 61.2213 31.4717 61.1941C31.4933 61.1677 31.5149 61.1413 31.5371 61.1141Z" fill="#211F20"/>
<path id="Vector_92" d="M22.2461 45.2756C22.2893 45.3284 22.3325 45.3812 22.377 45.4356C22.3338 45.4356 22.2906 45.4356 22.2461 45.4356C22.2461 45.3828 22.2461 45.33 22.2461 45.2756Z" fill="#1D1C1D"/>
<path id="Vector_93" d="M22.4424 45.2756C22.6387 45.3569 22.6387 45.3569 22.6387 45.3569L22.4424 45.2756Z" fill="#1F1C1E"/>
<path id="Vector_94" d="M44.5576 45.1956C44.7539 45.2769 44.7539 45.2769 44.7539 45.2769L44.5576 45.1956Z" fill="#1D1D1E"/>
<path id="Vector_95" d="M21.5264 45.0356C21.7227 45.1169 21.7227 45.1169 21.7227 45.1169L21.5264 45.0356Z" fill="#1D1D1C"/>
<path id="Vector_96" d="M40.3047 43.1158C40.501 43.1971 40.501 43.1971 40.501 43.1971L40.3047 43.1158Z" fill="#161615"/>
<path id="Vector_97" d="M40.8936 42.8759C40.9583 42.9155 40.9583 42.9155 41.0244 42.9558C40.9596 42.9954 40.9596 42.9954 40.8936 43.0358C40.8936 42.983 40.8936 42.9302 40.8936 42.8759Z" fill="#171615"/>
<path id="Vector_98" d="M31.2754 42.4759C31.3402 42.5155 31.3402 42.5155 31.4062 42.5559C31.3415 42.5955 31.3415 42.5955 31.2754 42.6359C31.2754 42.5831 31.2754 42.5303 31.2754 42.4759Z" fill="#161616"/>
<path id="Vector_99" d="M44.7539 42.2359C44.7971 42.2887 44.8403 42.3415 44.8848 42.3959C44.8416 42.3959 44.7984 42.3959 44.7539 42.3959C44.7539 42.3431 44.7539 42.2903 44.7539 42.2359Z" fill="#171818"/>
<path id="Vector_100" d="M44.4268 42.3159C44.4483 42.3687 44.4699 42.4215 44.4922 42.4759C44.449 42.4495 44.4058 42.4231 44.3613 42.3959C44.3829 42.3695 44.4045 42.3431 44.4268 42.3159Z" fill="#191818"/>
<path id="Vector_101" d="M19.8252 41.596C20.0215 41.6773 20.0215 41.6773 20.0215 41.6773L19.8252 41.596Z" fill="#161616"/>
<path id="Vector_102" d="M17.7314 35.2766C17.9277 35.3579 17.9277 35.3579 17.9277 35.3579L17.7314 35.2766Z" fill="#1D1E1E"/>
<path id="Vector_103" d="M32.5186 63.0339C32.6494 63.1152 32.6494 63.1152 32.6494 63.1152L32.5186 63.0339Z" fill="#222224"/>
<path id="Vector_104" d="M30.0322 58.0744C30.1631 58.1557 30.1631 58.1557 30.1631 58.1557L30.0322 58.0744Z" fill="#1D1B1B"/>
<path id="Vector_105" d="M28.2656 54.6347C28.3965 54.716 28.3965 54.716 28.3965 54.716L28.2656 54.6347Z" fill="#1E1B1A"/>
<path id="Vector_106" d="M22.1152 45.1956C22.2461 45.2769 22.2461 45.2769 22.2461 45.2769L22.1152 45.1956Z" fill="#1E1E1D"/>
<path id="Vector_107" d="M20.0869 44.6357C20.2178 44.717 20.2178 44.717 20.2178 44.717L20.0869 44.6357Z" fill="#1F1F1F"/>
<path id="Vector_108" d="M19.8252 44.5557C19.9561 44.637 19.9561 44.637 19.9561 44.637L19.8252 44.5557Z" fill="#212121"/>
<path id="Vector_109" d="M48.3525 43.9957C48.4834 44.077 48.4834 44.077 48.4834 44.077L48.3525 43.9957Z" fill="#222324"/>
<path id="Vector_110" d="M35.79 43.5158C35.9209 43.5971 35.9209 43.5971 35.9209 43.5971L35.79 43.5158Z" fill="#121113"/>
<path id="Vector_111" d="M34.0234 43.5158C34.1543 43.5971 34.1543 43.5971 34.1543 43.5971L34.0234 43.5158Z" fill="#151512"/>
<path id="Vector_112" d="M33.5 43.5158C33.6309 43.5971 33.6309 43.5971 33.6309 43.5971L33.5 43.5158Z" fill="#161313"/>
<path id="Vector_113" d="M38.9307 43.2758C39.0615 43.3571 39.0615 43.3571 39.0615 43.3571L38.9307 43.2758Z" fill="#161616"/>
<path id="Vector_114" d="M24.7979 42.8759C24.9287 42.9571 24.9287 42.9571 24.9287 42.9571L24.7979 42.8759Z" fill="#161616"/>
<path id="Vector_115" d="M35.3975 42.5559C35.5283 42.6372 35.5283 42.6372 35.5283 42.6372L35.3975 42.5559Z" fill="#191819"/>
<path id="Vector_116" d="M43.9033 42.4759C44.0342 42.5572 44.0342 42.5572 44.0342 42.5572L43.9033 42.4759Z" fill="#191A18"/>
<path id="Vector_117" d="M22.377 42.3959C22.5078 42.4772 22.5078 42.4772 22.5078 42.4772L22.377 42.3959Z" fill="#161613"/>
<path id="Vector_118" d="M26.7607 42.1559C26.8916 42.2372 26.8916 42.2372 26.8916 42.2372L26.7607 42.1559Z" fill="#171616"/>
<path id="Vector_119" d="M26.4336 42.1559C26.5645 42.2372 26.5645 42.2372 26.5645 42.2372L26.4336 42.1559Z" fill="#181818"/>
<path id="Vector_120" d="M42.0059 41.9959C42.1367 42.0772 42.1367 42.0772 42.1367 42.0772L42.0059 41.9959Z" fill="#191919"/>
<path id="Vector_121" d="M24.7324 41.9159C24.8633 41.9972 24.8633 41.9972 24.8633 41.9972L24.7324 41.9159Z" fill="#181718"/>
<path id="Vector_122" d="M20.8066 41.9159C20.9375 41.9972 20.9375 41.9972 20.9375 41.9972L20.8066 41.9159Z" fill="#191818"/>
<path id="Vector_123" d="M42.791 41.8359C42.9219 41.9172 42.9219 41.9172 42.9219 41.9172L42.791 41.8359Z" fill="#191818"/>
<path id="Vector_124" d="M24.1436 41.8359C24.2744 41.9172 24.2744 41.9172 24.2744 41.9172L24.1436 41.8359Z" fill="#181716"/>
<path id="Vector_125" d="M20.2832 41.756C20.4141 41.8372 20.4141 41.8372 20.4141 41.8372L20.2832 41.756Z" fill="#1A1818"/>
<path id="Vector_126" d="M20.1523 41.676C20.2832 41.7573 20.2832 41.7573 20.2832 41.7573L20.1523 41.676Z" fill="#191718"/>
<path id="Vector_127" d="M22.1807 41.436C22.3115 41.5173 22.3115 41.5173 22.3115 41.5173L22.1807 41.436Z" fill="#191719"/>
<path id="Vector_128" d="M48.1562 40.956C48.2871 41.0373 48.2871 41.0373 48.2871 41.0373L48.1562 40.956Z" fill="#1C1B1D"/>
<path id="Vector_129" d="M49.0723 38.3163C49.2031 38.3976 49.2031 38.3976 49.2031 38.3976L49.0723 38.3163Z" fill="#1E1E1D"/>
<path id="Vector_130" d="M18.9746 37.3564C19.1055 37.4377 19.1055 37.4377 19.1055 37.4377L18.9746 37.3564Z" fill="#1A1A1A"/>
<path id="Vector_131" d="M15.7031 36.4765C15.834 36.5578 15.834 36.5578 15.834 36.5578L15.7031 36.4765Z" fill="#272525"/>
<path id="Vector_132" d="M18.9092 25.9975C19.04 26.0788 19.04 26.0788 19.04 26.0788L18.9092 25.9975Z" fill="#201F21"/>
<path id="Vector_133" d="M42.9219 17.2783C43.0527 17.3596 43.0527 17.3596 43.0527 17.3596L42.9219 17.2783Z" fill="#1C1B19"/>
<path id="Vector_134" d="M27.2188 14.7186C27.3496 14.7999 27.3496 14.7999 27.3496 14.7999L27.2188 14.7186Z" fill="#201F1F"/>
<path id="Vector_135" d="M36.1172 13.4387C36.248 13.52 36.248 13.52 36.248 13.52L36.1172 13.4387Z" fill="#1F1E1D"/>
<path id="Vector_136" d="M35.79 13.4387C35.9209 13.52 35.9209 13.52 35.9209 13.52L35.79 13.4387Z" fill="#1E1D1D"/>
</g>
</svg>
