<svg width="22" height="22" viewBox="0 0 22 22" fill="none" xmlns="http://www.w3.org/2000/svg">
<g id="mdi:map-add">
<path id="Vector" d="M8.25 2.75L3.08 4.49167C2.89667 4.55583 2.75 4.72083 2.75 4.93167V18.7917C2.75 18.9132 2.79829 19.0298 2.88424 19.1158C2.9702 19.2017 3.08678 19.25 3.20833 19.25C3.25417 19.25 3.3 19.25 3.355 19.2225L8.25 17.325L12.0633 18.6633C11.9717 18.26 11.9167 17.8383 11.9167 17.4167C11.9167 17.2058 11.9167 16.995 11.9533 16.775L8.25 15.4917V4.58333L13.75 6.50833V13.3467C14.7308 12.4667 16.0142 11.9167 17.4167 11.9167C18.0583 11.9167 18.6725 12.0358 19.25 12.2467V3.20833C19.25 3.08678 19.2017 2.9702 19.1158 2.88424C19.0298 2.79829 18.9132 2.75 18.7917 2.75H18.645L13.75 4.675L8.25 2.75ZM16.5 13.75V16.5H13.75V18.3333H16.5V21.0833H18.3333V18.3333H21.0833V16.5H18.3333V13.75H16.5Z" fill="black"/>
</g>
</svg>
