<svg width="293" height="119" viewBox="0 0 293 119" fill="none" xmlns="http://www.w3.org/2000/svg">
<g id="Group 236">
<path id="EasyPark" d="M105.25 61.625V65H93.1562V61.625H105.25ZM94.4688 42.25V65H90.1719V42.25H94.4688ZM103.672 51.6406V54.9375H93.1562V51.6406H103.672ZM105.203 42.25V45.6406H93.1562V42.25H105.203ZM117.234 61.4062V53.6094C117.234 53.0365 117.135 52.5417 116.938 52.125C116.74 51.7083 116.438 51.3854 116.031 51.1562C115.625 50.9271 115.109 50.8125 114.484 50.8125C113.932 50.8125 113.448 50.9062 113.031 51.0938C112.625 51.2812 112.312 51.5469 112.094 51.8906C111.875 52.224 111.766 52.6094 111.766 53.0469H107.625C107.625 52.349 107.792 51.6875 108.125 51.0625C108.458 50.4271 108.932 49.8646 109.547 49.375C110.172 48.875 110.917 48.4844 111.781 48.2031C112.656 47.9219 113.635 47.7812 114.719 47.7812C116 47.7812 117.141 48 118.141 48.4375C119.151 48.8646 119.943 49.5104 120.516 50.375C121.099 51.2396 121.391 52.3281 121.391 53.6406V61.0156C121.391 61.8594 121.443 62.5833 121.547 63.1875C121.661 63.7812 121.828 64.2969 122.047 64.7344V65H117.844C117.646 64.5729 117.495 64.0312 117.391 63.375C117.286 62.7083 117.234 62.0521 117.234 61.4062ZM117.812 54.7031L117.844 57.1562H115.234C114.589 57.1562 114.021 57.224 113.531 57.3594C113.042 57.4844 112.641 57.6719 112.328 57.9219C112.016 58.1615 111.781 58.4531 111.625 58.7969C111.469 59.1302 111.391 59.5104 111.391 59.9375C111.391 60.3542 111.484 60.7292 111.672 61.0625C111.87 61.3958 112.151 61.6615 112.516 61.8594C112.891 62.0469 113.328 62.1406 113.828 62.1406C114.557 62.1406 115.193 61.9948 115.734 61.7031C116.276 61.401 116.698 61.0365 117 60.6094C117.302 60.1823 117.464 59.776 117.484 59.3906L118.672 61.1719C118.526 61.599 118.307 62.0521 118.016 62.5312C117.724 63.0104 117.349 63.4583 116.891 63.875C116.432 64.2917 115.88 64.6354 115.234 64.9062C114.589 65.1771 113.839 65.3125 112.984 65.3125C111.891 65.3125 110.911 65.0938 110.047 64.6562C109.182 64.2188 108.5 63.6198 108 62.8594C107.5 62.099 107.25 61.2344 107.25 60.2656C107.25 59.3698 107.417 58.5781 107.75 57.8906C108.083 57.2031 108.578 56.625 109.234 56.1562C109.891 55.6771 110.703 55.3177 111.672 55.0781C112.651 54.8281 113.771 54.7031 115.031 54.7031H117.812ZM134.406 60.375C134.406 60.0208 134.312 59.7031 134.125 59.4219C133.938 59.1406 133.583 58.8854 133.062 58.6562C132.552 58.4167 131.802 58.1927 130.812 57.9844C129.938 57.7969 129.13 57.5625 128.391 57.2812C127.651 57 127.016 56.6615 126.484 56.2656C125.953 55.8594 125.536 55.3854 125.234 54.8438C124.943 54.2917 124.797 53.6562 124.797 52.9375C124.797 52.2396 124.948 51.5833 125.25 50.9688C125.552 50.3438 125.99 49.7969 126.562 49.3281C127.135 48.849 127.833 48.474 128.656 48.2031C129.479 47.9219 130.406 47.7812 131.438 47.7812C132.875 47.7812 134.109 48.0156 135.141 48.4844C136.182 48.9531 136.979 49.599 137.531 50.4219C138.083 51.2344 138.359 52.151 138.359 53.1719H134.234C134.234 52.724 134.13 52.3177 133.922 51.9531C133.724 51.5885 133.417 51.2969 133 51.0781C132.583 50.849 132.057 50.7344 131.422 50.7344C130.849 50.7344 130.365 50.8281 129.969 51.0156C129.583 51.2031 129.292 51.4479 129.094 51.75C128.896 52.0521 128.797 52.3854 128.797 52.75C128.797 53.0208 128.849 53.2656 128.953 53.4844C129.068 53.6927 129.25 53.8854 129.5 54.0625C129.75 54.2396 130.089 54.401 130.516 54.5469C130.953 54.6927 131.49 54.8333 132.125 54.9688C133.385 55.2188 134.484 55.5521 135.422 55.9688C136.37 56.375 137.109 56.9167 137.641 57.5938C138.172 58.2708 138.438 59.1354 138.438 60.1875C138.438 60.9375 138.276 61.625 137.953 62.25C137.63 62.8646 137.161 63.401 136.547 63.8594C135.932 64.3177 135.198 64.6771 134.344 64.9375C133.49 65.1875 132.526 65.3125 131.453 65.3125C129.901 65.3125 128.589 65.0365 127.516 64.4844C126.443 63.9219 125.63 63.2135 125.078 62.3594C124.526 61.4948 124.25 60.599 124.25 59.6719H128.203C128.234 60.3281 128.411 60.8542 128.734 61.25C129.057 61.6458 129.464 61.9323 129.953 62.1094C130.453 62.276 130.979 62.3594 131.531 62.3594C132.156 62.3594 132.682 62.276 133.109 62.1094C133.536 61.9323 133.859 61.6979 134.078 61.4062C134.297 61.1042 134.406 60.7604 134.406 60.375ZM146.531 63.125L151.062 48.0938H155.484L148.703 67.5625C148.547 67.9792 148.344 68.4323 148.094 68.9219C147.854 69.4115 147.531 69.875 147.125 70.3125C146.719 70.7604 146.208 71.125 145.594 71.4062C144.99 71.6875 144.255 71.8281 143.391 71.8281C143.016 71.8281 142.682 71.8021 142.391 71.75C142.099 71.6979 141.792 71.6302 141.469 71.5469V68.4531C141.573 68.4635 141.693 68.4688 141.828 68.4688C141.974 68.4792 142.099 68.4844 142.203 68.4844C142.807 68.4844 143.307 68.4115 143.703 68.2656C144.099 68.1302 144.417 67.9062 144.656 67.5938C144.906 67.2917 145.115 66.8958 145.281 66.4062L146.531 63.125ZM144.297 48.0938L148.125 60.5469L148.797 64.9062L145.953 65.4219L139.844 48.0938H144.297ZM166.547 56.7031H160.688V53.3281H166.547C167.505 53.3281 168.281 53.1719 168.875 52.8594C169.479 52.5365 169.922 52.099 170.203 51.5469C170.484 50.9844 170.625 50.3438 170.625 49.625C170.625 48.9271 170.484 48.276 170.203 47.6719C169.922 47.0677 169.479 46.5781 168.875 46.2031C168.281 45.8281 167.505 45.6406 166.547 45.6406H162.094V65H157.797V42.25H166.547C168.318 42.25 169.828 42.5677 171.078 43.2031C172.339 43.8281 173.297 44.6979 173.953 45.8125C174.62 46.9167 174.953 48.1771 174.953 49.5938C174.953 51.0625 174.62 52.3281 173.953 53.3906C173.297 54.4531 172.339 55.2708 171.078 55.8438C169.828 56.4167 168.318 56.7031 166.547 56.7031ZM187.141 61.4062V53.6094C187.141 53.0365 187.042 52.5417 186.844 52.125C186.646 51.7083 186.344 51.3854 185.938 51.1562C185.531 50.9271 185.016 50.8125 184.391 50.8125C183.839 50.8125 183.354 50.9062 182.938 51.0938C182.531 51.2812 182.219 51.5469 182 51.8906C181.781 52.224 181.672 52.6094 181.672 53.0469H177.531C177.531 52.349 177.698 51.6875 178.031 51.0625C178.365 50.4271 178.839 49.8646 179.453 49.375C180.078 48.875 180.823 48.4844 181.688 48.2031C182.562 47.9219 183.542 47.7812 184.625 47.7812C185.906 47.7812 187.047 48 188.047 48.4375C189.057 48.8646 189.849 49.5104 190.422 50.375C191.005 51.2396 191.297 52.3281 191.297 53.6406V61.0156C191.297 61.8594 191.349 62.5833 191.453 63.1875C191.568 63.7812 191.734 64.2969 191.953 64.7344V65H187.75C187.552 64.5729 187.401 64.0312 187.297 63.375C187.193 62.7083 187.141 62.0521 187.141 61.4062ZM187.719 54.7031L187.75 57.1562H185.141C184.495 57.1562 183.927 57.224 183.438 57.3594C182.948 57.4844 182.547 57.6719 182.234 57.9219C181.922 58.1615 181.688 58.4531 181.531 58.7969C181.375 59.1302 181.297 59.5104 181.297 59.9375C181.297 60.3542 181.391 60.7292 181.578 61.0625C181.776 61.3958 182.057 61.6615 182.422 61.8594C182.797 62.0469 183.234 62.1406 183.734 62.1406C184.464 62.1406 185.099 61.9948 185.641 61.7031C186.182 61.401 186.604 61.0365 186.906 60.6094C187.208 60.1823 187.37 59.776 187.391 59.3906L188.578 61.1719C188.432 61.599 188.214 62.0521 187.922 62.5312C187.63 63.0104 187.255 63.4583 186.797 63.875C186.339 64.2917 185.786 64.6354 185.141 64.9062C184.495 65.1771 183.745 65.3125 182.891 65.3125C181.797 65.3125 180.818 65.0938 179.953 64.6562C179.089 64.2188 178.406 63.6198 177.906 62.8594C177.406 62.099 177.156 61.2344 177.156 60.2656C177.156 59.3698 177.323 58.5781 177.656 57.8906C177.99 57.2031 178.484 56.625 179.141 56.1562C179.797 55.6771 180.609 55.3177 181.578 55.0781C182.557 54.8281 183.677 54.7031 184.938 54.7031H187.719ZM199.141 51.5469V65H195.016V48.0938H198.922L199.141 51.5469ZM204.281 47.9844L204.219 51.8281C203.99 51.7865 203.729 51.7552 203.438 51.7344C203.156 51.7135 202.891 51.7031 202.641 51.7031C202.005 51.7031 201.448 51.7917 200.969 51.9688C200.49 52.1354 200.089 52.3802 199.766 52.7031C199.453 53.026 199.214 53.4219 199.047 53.8906C198.88 54.349 198.786 54.8698 198.766 55.4531L197.875 55.3438C197.875 54.2708 197.984 53.276 198.203 52.3594C198.422 51.4427 198.74 50.6406 199.156 49.9531C199.573 49.2656 200.094 48.7344 200.719 48.3594C201.354 47.974 202.083 47.7812 202.906 47.7812C203.135 47.7812 203.38 47.8021 203.641 47.8438C203.911 47.875 204.125 47.9219 204.281 47.9844ZM210.672 40.9844V65H206.547V40.9844H210.672ZM221.266 48.0938L213.906 56.3594L209.922 60.4062L208.609 57.2031L211.688 53.3281L216.281 48.0938H221.266ZM217.047 65L211.812 57.125L214.562 54.4531L221.828 65H217.047Z" fill="black"/>
<g id="Black Logo 1">
<path id="Vector" d="M54.7663 19.4073C55.0328 19.4292 55.2993 19.4509 55.5657 19.4726C55.682 19.4824 55.7982 19.4921 55.918 19.5021C56.1182 19.5168 56.319 19.5235 56.5196 19.5235C56.5196 19.6002 56.5196 19.6769 56.5196 19.7559C56.7395 19.7785 56.9595 19.8001 57.1795 19.8213C57.302 19.8334 57.4245 19.8455 57.5507 19.858C57.8569 19.9002 57.8569 19.9002 58.0723 19.7559C58.1065 19.8326 58.1407 19.9093 58.1759 19.9883C58.4117 20.0881 58.4117 20.0881 58.7027 20.1694C58.8148 20.2041 58.9269 20.2388 59.0424 20.2745C59.1642 20.3119 59.286 20.3493 59.4116 20.3878C60.7939 20.8272 62.0888 21.4072 63.4007 22.0674C63.6583 22.1944 63.9185 22.3117 64.1798 22.4288C64.5402 22.6311 64.8745 22.8846 65.2149 23.126C65.3201 23.1993 65.4252 23.2725 65.5336 23.348C66.9005 24.3085 68.1749 25.3777 69.3556 26.6123C69.4996 26.7534 69.6441 26.8938 69.789 27.0336C71.4207 28.6383 72.7169 30.6761 73.8067 32.7715C73.8888 32.929 73.8888 32.929 73.9725 33.0897C74.3243 33.7814 74.3243 33.7814 74.3243 34.0498C74.3926 34.0882 74.4609 34.1265 74.5313 34.1661C74.6051 34.3966 74.6726 34.6297 74.7384 34.8633C74.8727 35.2524 75.0123 35.639 75.1524 36.0254C75.2207 36.0254 75.2891 36.0254 75.3595 36.0254C75.3759 36.2191 75.3759 36.2191 75.3926 36.4167C75.4586 37.0082 75.6068 37.5626 75.7606 38.1318C76.1798 39.688 76.4435 41.2251 76.5693 42.8456C76.5758 42.9269 76.5823 43.0082 76.589 43.092C76.7559 45.1946 76.7112 47.2016 76.5261 49.3016C76.4796 49.8343 76.4373 50.3674 76.3946 50.9004C76.4648 50.9289 76.5349 50.9574 76.6072 50.9868C82.0817 53.231 82.0817 53.231 83.4357 56.0005C83.7427 56.7433 83.7425 57.631 83.5736 58.4183C82.8587 60.6098 80.8719 61.8175 79.0846 62.7537C75.9998 64.3078 72.3543 65.5102 68.9834 65.8743C68.742 65.9005 68.742 65.9005 68.4239 66.0079C68.3139 66.2721 68.3139 66.2721 68.2169 66.5889C68.1041 66.8116 67.9871 67.0316 67.8671 67.2494C67.7979 67.3755 67.7286 67.5015 67.6572 67.6314C67.5829 67.7657 67.5085 67.9 67.434 68.0343C67.3576 68.1729 67.2812 68.3115 67.2048 68.4501C66.7328 69.305 66.2549 70.1551 65.7667 70.9985C65.4494 71.5489 65.1351 72.1015 64.8203 72.6537C64.7122 72.8432 64.7122 72.8432 64.602 73.0365C64.1289 73.8669 63.6584 74.699 63.1902 75.5329C62.3667 76.9991 61.5399 78.463 60.6991 79.9168C60.2561 80.6828 59.82 81.4535 59.3863 82.2261C58.5165 83.7756 57.6418 85.3214 56.7518 86.8564C56.3489 87.554 55.959 88.2603 55.5686 88.9668C54.7756 90.4003 53.9448 91.8029 53.1036 93.2012C52.5373 92.9106 52.2784 92.4196 51.9843 91.8212C51.4301 90.7346 50.8042 89.6981 50.1906 88.653C49.932 88.206 49.6829 87.7524 49.4351 87.2976C49.2762 87.0141 49.2762 87.0141 48.963 86.8096C48.963 86.6946 48.963 86.5795 48.963 86.461C48.8539 86.2407 48.7363 86.0256 48.6136 85.8146C48.5488 85.7018 48.4839 85.589 48.4171 85.4727C48.2476 85.1792 48.2476 85.1792 48.0313 84.9502C47.7208 84.4139 47.7208 84.4139 47.7208 84.1368C47.6183 84.1368 47.5158 84.1368 47.4102 84.1368C47.4038 84.0577 47.3974 83.9786 47.3908 83.8971C47.2917 83.4946 47.1256 83.2478 46.8987 82.9224C46.7891 82.7422 46.7891 82.7422 46.7891 82.5098C46.6867 82.5098 46.5842 82.5098 46.4786 82.5098C46.4669 82.424 46.4552 82.3382 46.4431 82.2497C46.3731 81.9194 46.2816 81.7214 46.1143 81.4412C46.0603 81.3496 46.0063 81.258 45.9507 81.1636C45.8922 81.0662 45.8337 80.9687 45.7734 80.8683C45.6498 80.6588 45.5264 80.4493 45.403 80.2396C45.309 80.0805 45.309 80.0805 45.2132 79.9182C44.9371 79.4471 44.669 78.9706 44.4018 78.4933C44.3517 78.4041 44.3017 78.315 44.2501 78.2231C43.9804 77.7427 43.712 77.2614 43.4443 76.7796C43.388 76.6786 43.3317 76.5777 43.2737 76.4737C43.1657 76.28 43.058 76.0861 42.9508 75.8919C42.8778 75.7612 42.8778 75.7612 42.8034 75.6279C42.7609 75.5513 42.7184 75.4747 42.6746 75.3957C42.5491 75.1824 42.5491 75.1824 42.379 75.0023C42.2345 74.8399 42.2345 74.8399 42.1483 74.5916C41.969 74.0979 41.7012 73.6775 41.4387 73.2347C40.9178 72.3456 40.4069 71.4504 39.9054 70.5473C39.841 70.4317 39.7766 70.3161 39.7103 70.1969C39.3843 69.6102 39.0614 69.0217 38.7424 68.4301C38.6811 68.317 38.6198 68.2039 38.5566 68.0874C38.4403 67.8725 38.3248 67.6572 38.2101 67.4412C38.1325 67.2982 38.1325 67.2982 38.0534 67.1523C38.0085 67.0684 37.9637 66.9845 37.9174 66.8981C37.7842 66.6697 37.7842 66.6697 37.4727 66.5889C37.4727 66.4355 37.4727 66.2821 37.4727 66.1241C37.3605 66.0999 37.2483 66.0758 37.1327 66.051C25.4733 63.5096 25.4733 63.5096 22.6069 59.4061C22.4637 59.1528 22.407 58.9787 22.3595 58.6866C22.3284 58.5479 22.3284 58.5479 22.2968 58.4065C22.0802 57.2984 22.1607 56.4403 22.6894 55.4617C24.1583 53.0873 26.9755 51.7417 29.3985 51.0166C29.501 51.0166 29.6035 51.0166 29.7091 51.0166C29.6879 50.8845 29.6666 50.7524 29.6448 50.6163C29.6166 50.435 29.5884 50.2537 29.5603 50.0724C29.5463 49.9863 29.5324 49.9002 29.518 49.8114C29.297 48.3712 29.2704 46.9113 29.2691 45.453C29.269 45.3701 29.2689 45.2872 29.2688 45.2017C29.2707 42.9438 29.5342 40.7728 30.0196 38.5821C29.9513 38.5437 29.883 38.5054 29.8126 38.4659C29.8809 38.3508 29.9492 38.2358 30.0196 38.1172C30.1968 37.7692 30.2954 37.4104 30.3971 37.0273C31.1696 34.1819 32.5013 31.5894 34.1602 29.2852C34.2774 29.1139 34.3939 28.942 34.5096 28.7695C34.5595 28.6954 34.6094 28.6212 34.6608 28.5448C34.7883 28.355 34.7883 28.355 34.8849 28.1231C35.0479 27.9685 35.2111 27.8141 35.3749 27.6605C35.6038 27.4315 35.8176 27.1905 36.0308 26.9434C36.7356 26.1287 37.491 25.4315 38.3009 24.753C38.3571 24.7048 38.4133 24.6566 38.4713 24.607C41.4229 22.0804 44.8502 20.5465 48.4605 19.6929C48.6604 19.6458 48.6604 19.6458 48.8595 19.5235C49.0776 19.4974 49.2964 19.4778 49.5153 19.4613C49.6492 19.4512 49.783 19.4411 49.9209 19.4306C49.9911 19.4256 50.0613 19.4206 50.1336 19.4154C50.3431 19.4003 50.5525 19.3842 50.762 19.368C52.1109 19.2686 53.4187 19.2935 54.7663 19.4073ZM29.3662 54.5248C29.2888 54.5698 29.2115 54.6148 29.1319 54.6612C28.4238 55.0834 27.8114 55.5415 27.4317 56.3623C27.3059 56.8916 27.3016 57.3001 27.4317 57.8295C28.6309 60.1012 31.6167 60.804 33.7267 61.4113C33.8015 61.4326 33.8762 61.4538 33.9532 61.4756C34.017 61.4943 34.0807 61.513 34.1464 61.5322C34.6591 61.6706 35.1783 61.7779 35.6956 61.8921C35.8393 61.924 35.9829 61.9562 36.1265 61.9888C37.0561 62.1998 37.9727 62.3523 38.922 62.4053C38.922 62.4437 38.922 62.482 38.922 62.5215C39.1613 62.5409 39.4007 62.5603 39.6401 62.5796C39.7734 62.5904 39.9067 62.6012 40.0441 62.6123C40.2592 62.6306 40.2592 62.6306 40.4747 62.6377C40.5089 62.6761 40.543 62.7144 40.5782 62.7539C40.8561 62.7964 41.1323 62.8319 41.4112 62.8629C41.4972 62.8727 41.5831 62.8826 41.6717 62.8928C41.9541 62.9247 42.2366 62.9557 42.5191 62.9864C42.615 62.9969 42.7109 63.0074 42.8098 63.0183C44.4819 63.2002 46.144 63.3098 47.8243 63.335C47.9093 63.3368 47.9943 63.3385 48.0819 63.3403C48.9 63.3568 49.7028 63.325 50.5157 63.2188C50.5157 63.2955 50.5157 63.3722 50.5157 63.4512C52.1212 63.4512 53.7268 63.4512 55.3809 63.4512C55.3809 63.4129 55.3809 63.3745 55.3809 63.335C55.6884 63.335 55.9958 63.335 56.3126 63.335C56.3126 63.3734 56.3126 63.4117 56.3126 63.4512C56.5859 63.4512 56.8591 63.4512 57.1407 63.4512C57.1407 63.3745 57.1407 63.2978 57.1407 63.2188C57.209 63.2571 57.2774 63.2955 57.3477 63.335C57.6229 63.3476 57.8946 63.3528 58.1698 63.3513C58.2529 63.351 58.336 63.3507 58.4217 63.3504C59.3412 63.3416 60.255 63.2714 61.1713 63.1897C61.2599 63.182 61.3485 63.1743 61.4398 63.1664C64.6918 62.8823 67.9186 62.4488 71.1153 61.708C71.1153 61.6313 71.1153 61.5546 71.1153 61.4756C71.2267 61.4828 71.3382 61.49 71.453 61.4974C72.0499 61.4962 72.5962 61.3116 73.1662 61.127C73.2799 61.0904 73.3937 61.0539 73.5108 61.0162C76.3128 60.0929 76.3128 60.0929 78.3727 57.9035C78.5879 57.2901 78.5336 56.791 78.3226 56.188C78.1794 55.887 78.1794 55.887 77.9474 55.7813C77.879 55.6758 77.8107 55.5704 77.7403 55.4617C77.4338 55.0315 77.0527 54.8425 76.613 54.6169C76.3946 54.503 76.3946 54.503 76.2911 54.3868C76.152 54.3231 76.0117 54.263 75.8706 54.2052C75.7946 54.1739 75.7187 54.1426 75.6405 54.1103C75.5819 54.0865 75.5233 54.0627 75.463 54.0381C75.428 54.125 75.3931 54.2119 75.357 54.3014C75.3109 54.4159 75.2647 54.5303 75.2171 54.6482C75.1487 54.8181 75.1487 54.8181 75.0788 54.9914C75.0044 55.1728 74.9287 55.3537 74.8488 55.5321C74.7489 55.7575 74.6552 55.9846 74.5625 56.2139C73.3805 59.1221 73.3805 59.1221 72.5836 59.4646C67.4541 61.3316 61.6501 61.445 56.3126 61.5918C56.1612 61.5961 56.1612 61.5961 56.0069 61.6004C55.3051 61.6199 54.6033 61.6383 53.9015 61.6556C53.6633 61.6615 53.4251 61.6676 53.1869 61.6738C52.8513 61.6825 52.5157 61.6904 52.18 61.6981C52.0778 61.7008 51.9755 61.7036 51.8701 61.7065C51.7764 61.7084 51.6827 61.7104 51.5861 61.7124C51.504 61.7144 51.4219 61.7164 51.3373 61.7184C51.1368 61.708 51.1368 61.708 50.9298 61.5918C50.7839 61.5772 50.6374 61.5692 50.491 61.5647C50.3991 61.5615 50.3072 61.5584 50.2125 61.5551C50.1116 61.5521 50.0107 61.5491 49.9067 61.546C49.6879 61.5383 49.469 61.5305 49.2501 61.5227C49.0757 61.5166 49.0757 61.5166 48.8978 61.5104C44.1492 61.3397 39.3272 61.0162 34.6778 59.8487C34.5872 59.8295 34.4966 59.8103 34.4033 59.7906C34.1224 59.7234 33.8564 59.6327 33.5844 59.5291C33.4882 59.4937 33.392 59.4584 33.2929 59.422C32.7131 59.0921 32.4497 58.4033 32.1482 57.7859C32.1076 57.7039 32.067 57.6219 32.0253 57.5374C31.9084 57.3009 31.7921 57.0641 31.6759 56.8272C31.5703 56.6141 31.4646 56.401 31.3589 56.188C31.2919 56.0525 31.2251 55.9169 31.1583 55.7813C31.09 55.7813 31.0216 55.7813 30.9513 55.7813C30.8546 55.4315 30.8431 55.332 30.9513 54.9678C30.8738 54.7235 30.8738 54.7235 30.7507 54.4812C30.7113 54.398 30.672 54.3149 30.6314 54.2292C30.6003 54.1662 30.5692 54.1031 30.5372 54.0381C30.0797 54.0381 29.7635 54.2856 29.3662 54.5248ZM30.9513 55.3164C31.0548 55.5489 31.0548 55.5489 31.0548 55.5489L30.9513 55.3164Z" fill="#010100"/>
<path id="Vector_2" d="M50.6029 33.315C50.9601 33.3166 51.3173 33.316 51.6745 33.3154C55.9541 33.3101 59.8098 33.5623 63.2306 36.7594C63.6166 37.0958 64.0374 37.3088 64.4882 37.5125C64.8493 37.6763 64.9917 37.7415 65.2148 38.1171C65.2278 38.4876 65.2278 38.4876 65.2148 38.8144C64.8111 39.1166 64.4411 39.0644 63.9726 39.0468C63.9726 39.1235 63.9726 39.2002 63.9726 39.2792C64.0931 39.2756 64.0931 39.2756 64.2161 39.2719C64.5835 39.2622 64.9509 39.2561 65.3183 39.2502C65.4447 39.2463 65.5711 39.2424 65.7013 39.2384C66.3611 39.2304 66.8449 39.2486 67.4155 39.6328C67.7113 39.8155 68.0211 39.8406 68.3526 39.8894C69.0406 40.0112 69.6584 40.2407 70.3 40.543C70.3821 40.5811 70.4642 40.6192 70.5488 40.6585C71.1926 40.9735 71.7789 41.3732 72.1504 42.0683C72.1504 42.1834 72.1504 42.2984 72.1504 42.4169C71.5355 42.4169 70.9206 42.4169 70.2871 42.4169C70.9467 43.2676 70.9467 43.2676 71.8139 43.7388C72.1797 43.4879 72.2455 43.0976 72.3574 42.6494C73.2087 43.4717 73.4788 45.2842 73.5996 46.4843C73.7344 49.493 73.7344 49.493 73.289 50.6679C72.5854 51.1945 71.575 51.1792 70.7472 51.2571C70.5891 51.2722 70.5891 51.2722 70.4278 51.2875C70.0748 51.3199 69.7216 51.3502 69.3684 51.3797C69.2445 51.3901 69.1207 51.4004 68.9931 51.4111C66.5558 51.6066 64.1211 51.6426 61.6783 51.6413C61.3956 51.6412 61.113 51.6415 60.8304 51.6418C58.954 51.6425 57.082 51.6153 55.2086 51.49C55.1026 51.483 55.1026 51.483 54.9944 51.4758C51.6491 51.247 51.6491 51.247 50.7226 50.9003C50.7217 50.791 50.7207 50.6816 50.7197 50.569C50.7775 46.5287 50.7775 46.5287 49.2107 43.0207C48.8464 42.6457 48.6948 42.5302 48.193 42.5404C47.6315 42.7063 47.4408 42.9878 47.1477 43.5178C46.0357 45.7968 46.302 48.4196 46.582 50.9003C44.0874 50.6545 41.2834 50.1923 39.0254 48.9248C39.0328 48.8481 39.0403 48.7714 39.048 48.6923C39.2559 46.2035 39.3805 43.5487 38.0937 41.371C37.8207 41.0942 37.6999 41.0266 37.3303 40.9498C36.8777 41.0374 36.7454 41.1646 36.4739 41.5649C35.9651 42.5504 35.8021 43.6606 35.8063 44.7838C35.8065 44.9023 35.8065 44.9023 35.8067 45.0232C35.8073 45.273 35.8086 45.5227 35.8099 45.7725C35.8104 45.9429 35.8109 46.1133 35.8113 46.2837C35.8125 46.6992 35.8142 47.1147 35.8164 47.5302C35.3002 47.4768 34.9201 47.4237 34.4707 47.1162C34.3917 47.0633 34.3127 47.0105 34.2313 46.956C34.1737 46.9154 34.116 46.8748 34.0566 46.833C34.1296 47.2046 34.1296 47.2046 34.4238 47.36C34.5332 47.4186 34.6426 47.4771 34.7553 47.5375C34.8637 47.5964 34.972 47.6552 35.0837 47.7159C35.3599 47.8572 35.6369 47.9883 35.9199 48.1113C35.9199 48.2647 35.9199 48.4181 35.9199 48.5761C34.8254 48.3779 34.0216 47.849 33.3069 46.8924C32.4818 45.5689 32.3437 44.0885 32.5516 42.5223C32.8049 41.4653 33.325 40.6517 34.1601 40.0927C34.2285 40.0927 34.2968 40.0927 34.3672 40.0927C34.3459 40.1769 34.3247 40.2611 34.3029 40.3478C34.275 40.4602 34.2471 40.5725 34.2184 40.6883C34.1907 40.7989 34.1631 40.9094 34.1347 41.0233C33.8671 42.2152 33.757 43.6869 34.1601 44.8574C34.3412 45.2115 34.3412 45.2115 34.5742 45.4384C34.6767 45.4384 34.7792 45.4384 34.8847 45.4384C34.8894 45.3542 34.894 45.27 34.8988 45.1832C34.921 44.7936 34.9449 44.4043 34.9688 44.0148C34.9761 43.8824 34.9834 43.75 34.9909 43.6136C35.0963 41.9472 35.3789 40.4632 36.4876 39.2779C37.1495 38.6906 37.9256 38.2151 38.7148 37.8847C38.1744 37.8578 37.7286 37.9432 37.2203 38.1348C37.1495 38.1604 37.0788 38.1859 37.0058 38.2122C36.7815 38.2932 36.5577 38.3757 36.334 38.4585C36.1101 38.5407 35.8862 38.6225 35.6621 38.7036C35.5233 38.7539 35.3847 38.8048 35.2463 38.8565C34.8135 39.0139 34.4028 39.1036 33.9531 39.163C34.2271 38.7961 34.5746 38.6217 34.9547 38.4267C35.0231 38.3913 35.0915 38.3559 35.162 38.3194C35.9206 37.9355 36.7023 37.6388 37.492 37.3472C39.4148 36.6346 39.4148 36.6346 41.1891 35.556C44.1811 33.4296 47.1638 33.2947 50.6029 33.315Z" fill="white"/>
<path id="Vector_3" d="M48.8969 34.3789C49.0018 34.3785 49.1066 34.378 49.2146 34.3775C49.5555 34.3764 49.8965 34.3764 50.2374 34.3767C50.3534 34.3767 50.4694 34.3767 50.5889 34.3767C52.0395 34.3779 53.4864 34.3975 54.9344 34.5002C55.0641 34.5093 55.1938 34.5184 55.3274 34.5278C58.2975 34.7642 60.5281 35.7259 62.8479 37.8302C63.1459 38.0938 63.4549 38.3377 63.7656 38.5821C63.7314 38.7738 63.6973 38.9656 63.6621 39.1631C63.5434 39.1597 63.4248 39.1562 63.3026 39.1527C61.0013 39.087 58.701 39.039 56.3988 39.0389C56.056 39.0387 55.7132 39.038 55.3704 39.037C55.2003 39.0366 55.2003 39.0366 55.0268 39.0361C54.798 39.0354 54.5692 39.0348 54.3404 39.0341C53.7563 39.0325 53.1723 39.0326 52.5882 39.0353C52.0081 39.0379 51.428 39.0366 50.8478 39.0327C50.6302 39.0319 50.4126 39.0325 50.195 39.0347C49.8948 39.0375 49.595 39.0353 49.2948 39.0319C49.2069 39.0339 49.119 39.0359 49.0285 39.038C48.6678 39.0295 48.4349 39.0171 48.1508 38.7535C47.7167 38.1957 47.4423 37.5637 47.1643 36.897C47.1177 36.7911 47.0711 36.6852 47.0231 36.5761C46.7713 35.9806 46.6015 35.5249 46.6855 34.8633C47.2802 34.2742 48.1501 34.38 48.8969 34.3789Z" fill="#010000"/>
<path id="Vector_4" d="M59.528 45.9978C59.6611 45.9953 59.6611 45.9953 59.7969 45.9928C60.0844 46.0151 60.32 46.065 60.5985 46.1366C61.4394 46.3102 62.285 46.2778 63.1367 46.2695C63.4473 46.2665 63.758 46.265 64.0686 46.2639C64.7267 46.2612 65.3849 46.2567 66.043 46.252C66.8088 46.2465 67.5747 46.2418 68.3405 46.239C68.6467 46.2375 68.9528 46.2346 69.259 46.2316C69.4457 46.2308 69.6325 46.23 69.8193 46.2293C69.947 46.2275 69.947 46.2275 70.0774 46.2257C70.4787 46.2256 70.6697 46.2285 71.0117 46.4844C71.162 47.2817 70.9311 48.0322 70.5677 48.7083C70.2245 49.2657 69.8979 49.5618 69.3555 49.8545C69.253 49.9121 69.253 49.9121 69.1484 49.9708C66.7063 50.4141 62.6502 50.9852 60.5518 49.3398C59.7613 48.5867 58.9478 47.535 58.4863 46.4844C58.5205 46.3694 58.5546 46.2543 58.5898 46.1358C58.8961 46.0027 59.2022 46.0005 59.528 45.9978Z" fill="#080604"/>
<path id="Vector_5" d="M48.963 43.6953C49.8006 44.4051 50.1009 45.7245 50.2685 46.8292C50.3387 47.4452 50.3438 48.0576 50.341 48.6779C50.3404 48.8773 50.3404 48.8773 50.3397 49.0807C50.3239 50.4048 50.2291 51.8446 49.3965 52.876C49.0529 53.0523 48.8189 53.05 48.4454 52.9922C47.6239 52.4573 47.3561 51.4274 47.1191 50.4428C46.7893 48.5215 46.6623 45.9631 47.6201 44.2496C48.0195 43.6201 48.2756 43.4558 48.963 43.6953Z" fill="#FFFEC7"/>
<path id="Vector_6" d="M44.8223 34.856C45.8226 35.6281 46.3948 36.804 46.6252 38.1337C46.6755 38.5239 46.6964 38.7806 46.5756 39.1558C46.3157 39.4664 46.1254 39.4839 45.7539 39.5117C45.4688 38.9444 45.3428 38.4014 45.2363 37.7685C43.868 37.7017 42.635 37.8837 41.3027 38.2334C41.3027 38.3101 41.3027 38.3868 41.3027 38.4658C42.4642 38.4658 43.6256 38.4658 44.8223 38.4658C44.4429 38.8917 43.9428 38.8282 43.4341 38.8306C43.3498 38.8303 43.2654 38.8301 43.1786 38.8299C43.0907 38.83 43.0028 38.8301 42.9122 38.8302C42.727 38.8303 42.5417 38.8301 42.3565 38.8296C42.0732 38.829 41.79 38.8296 41.5067 38.8303C41.3265 38.8302 41.1462 38.8301 40.9659 38.8299C40.8814 38.8301 40.7968 38.8303 40.7097 38.8306C40.3378 38.8289 40.0043 38.811 39.6465 38.6982C39.6371 38.5764 39.6371 38.5764 39.6275 38.4522C39.6188 38.3464 39.6101 38.2407 39.6012 38.1317C39.5928 38.0265 39.5844 37.9214 39.5757 37.813C39.5564 37.5348 39.5564 37.5348 39.4395 37.3037C39.4931 37.2727 39.5467 37.2418 39.6019 37.2099C40.8392 36.5026 40.8392 36.5026 42.0273 35.6985C42.916 35.0458 43.7497 34.4797 44.8223 34.856Z" fill="#040300"/>
<path id="Vector_7" d="M37.4984 41.8359C37.9396 42.016 38.1593 42.323 38.4042 42.7656C39.0952 44.5576 39.208 46.9638 38.6112 48.8086C38.3015 49.6344 38.3015 49.6344 37.9901 49.8545C37.6706 49.8704 37.4692 49.8171 37.2053 49.6094C36.3226 48.636 36.3103 47.1654 36.291 45.8707C36.29 45.7145 36.2892 45.5583 36.2886 45.4022C36.287 45.1778 36.287 45.1778 36.2854 44.9489C36.2943 43.8624 36.3375 42.7616 37.0585 41.9521C37.2655 41.8359 37.2655 41.8359 37.4984 41.8359Z" fill="#FFFEC7"/>
<path id="Vector_8" d="M52.1719 41.3711C53.5758 41.4608 54.9714 41.8373 56.3457 42.1481C56.7352 42.2359 57.125 42.3221 57.5149 42.4081C57.7644 42.4641 58.014 42.5202 58.2635 42.5763C58.3791 42.6018 58.4947 42.6272 58.6138 42.6534C59.1942 42.786 59.713 42.9388 60.2461 43.2305C60.1426 43.5791 60.1426 43.5791 59.9646 43.7154C59.6823 43.8303 59.4599 43.8397 59.1596 43.8383C59.0455 43.8382 58.9314 43.838 58.8138 43.8379C58.6908 43.8364 58.5678 43.8349 58.441 43.8333C58.3138 43.8324 58.1865 43.8315 58.0553 43.8305C57.1076 43.821 56.16 43.7991 55.2126 43.7679C55.028 43.7626 55.028 43.7626 54.8397 43.7571C53.0336 43.6875 53.0336 43.6875 52.5924 43.2756C52.3027 42.9215 52.0645 42.5406 51.9648 42.0684C52.0179 41.5439 52.0179 41.5439 52.1719 41.3711Z" fill="#030301"/>
<path id="Vector_9" d="M48.6523 44.9736C48.8852 44.9736 48.8852 44.9736 49.1699 45.0898C50.0764 46.6165 50.0501 48.7408 49.761 50.4809C49.6567 50.9108 49.4963 51.2306 49.2734 51.5977C48.922 51.5757 48.7837 51.5137 48.5358 51.2272C47.8147 49.8319 47.8502 47.6787 48.1671 46.1503C48.2752 45.7095 48.4329 45.3586 48.6523 44.9736Z" fill="#030200"/>
<path id="Vector_10" d="M34.0567 40.4414C34.035 40.5427 34.035 40.5427 34.0128 40.6461C33.8553 41.4402 33.8118 42.2005 33.8108 43.0126C33.8083 43.1326 33.8058 43.2526 33.8032 43.3762C33.8009 44.0537 33.854 44.5459 34.1644 45.1334C34.2637 45.3223 34.2637 45.3223 34.3672 45.6709C34.6995 45.7123 34.8424 45.7053 35.1177 45.4821C35.3325 45.1549 35.37 44.9094 35.4024 44.5088C35.4366 44.5088 35.4707 44.5088 35.5059 44.5088C35.5401 45.4675 35.5742 46.4263 35.6094 47.4141C34.4708 46.9492 34.4708 46.9492 34.2637 46.7168C34.0496 46.6421 34.0496 46.6421 33.8497 46.6006C33.8838 46.8307 33.918 47.0608 33.9532 47.2979C33.3122 46.64 32.9252 45.8747 32.6075 44.9736C32.5733 44.9736 32.5392 44.9736 32.504 44.9736C32.4611 43.3365 32.4592 41.9984 33.4356 40.6738C33.7462 40.4414 33.7462 40.4414 34.0567 40.4414Z" fill="white"/>
<path id="Vector_11" d="M54.488 53.1447C56.7893 53.6681 59.105 53.886 61.4421 54.0943C62.1393 54.1565 62.836 54.2235 63.5327 54.2923C63.6319 54.302 63.731 54.3118 63.8332 54.3218C64.0522 54.3434 64.2712 54.365 64.4902 54.3867C64.4902 54.425 64.4902 54.4634 64.4902 54.5029C60.4211 54.8894 56.5412 54.8168 52.5859 53.5732C52.4923 53.5446 52.3986 53.5161 52.3021 53.4866C52.2079 53.4568 52.1137 53.4269 52.0166 53.3962C51.9301 53.369 51.8437 53.3418 51.7546 53.3138C51.5508 53.2246 51.5508 53.2246 51.4473 52.9922C52.4305 52.6242 53.5036 52.9203 54.488 53.1447Z" fill="#FFFEC7"/>
<path id="Vector_12" d="M55.9824 47.8426C56.087 47.8488 56.1915 47.855 56.2992 47.8614C56.7905 47.9033 57.0655 47.9325 57.468 48.2688C57.7182 48.6734 57.7297 48.9076 57.6581 49.3896C57.3399 49.7492 57.0892 49.7829 56.6476 49.7846C56.5317 49.785 56.4158 49.7855 56.2964 49.7859C56.1757 49.7846 56.055 49.7832 55.9307 49.7819C55.812 49.7832 55.6933 49.7845 55.571 49.7859C54.8318 49.7831 54.0441 49.7747 53.4436 49.2282C53.3104 49.041 53.3104 49.041 53.2651 48.6415C53.3104 48.2275 53.3104 48.2275 53.4528 47.9443C54.1223 47.4969 55.2284 47.7803 55.9824 47.8426Z" fill="#030200"/>
<path id="Vector_13" d="M37.6797 42.7656C38.262 43.3631 38.4699 44.0665 38.5289 44.9364C38.5413 45.288 38.5461 45.6385 38.5466 45.9905C38.5469 46.1617 38.5469 46.1617 38.5471 46.3363C38.5362 47.1424 38.5023 47.8882 38.0937 48.5762C37.8543 48.5762 37.8543 48.5762 37.5761 48.46C36.931 47.2313 36.9812 45.1782 37.251 43.8329C37.3461 43.5424 37.4468 43.271 37.5761 42.998C37.6103 42.9213 37.6445 42.8446 37.6797 42.7656Z" fill="#030200"/>
<path id="Vector_14" d="M48.8594 43.8116C49.4103 44.3057 49.7119 45.0371 49.8946 45.7872C49.9051 46.1131 49.9051 46.1131 49.8946 46.3682C49.6743 45.9972 49.4865 45.6152 49.2961 45.2243C49.1929 45.0193 49.0793 44.821 48.9629 44.6251C48.716 44.6102 48.716 44.6102 48.4453 44.7413C47.825 45.6879 47.7839 46.8676 47.7854 47.9952C47.7857 48.187 47.7857 48.187 47.7859 48.3827C47.8049 49.8119 47.9224 51.1268 48.8594 52.1788C48.5226 52.1473 48.3709 52.0933 48.1219 51.8301C47.238 50.2424 47.2323 47.977 47.5331 46.1866C47.6737 45.5288 47.8809 45.0511 48.2383 44.5088C47.958 44.7831 47.8398 45.0434 47.7078 45.4313C47.6562 45.5803 47.6562 45.5803 47.6035 45.7322C47.4485 46.2284 47.3936 46.6634 47.3774 47.1908C47.3731 47.3256 47.3688 47.4604 47.3643 47.5993C47.3602 47.7395 47.3562 47.8798 47.352 48.0242C47.3475 48.1662 47.343 48.3083 47.3384 48.4546C47.3274 48.805 47.3169 49.1555 47.3067 49.5059C47.2042 49.5059 47.1017 49.5059 46.9961 49.5059C46.9931 48.9757 46.9913 48.4455 46.9897 47.9153C46.9888 47.765 46.9879 47.6146 46.987 47.4597C46.9867 47.3148 46.9864 47.1699 46.986 47.0205C46.9852 46.8206 46.9852 46.8206 46.9844 46.6167C46.9951 46.2838 47.0176 45.9909 47.0996 45.671C47.168 45.6326 47.2363 45.5943 47.3067 45.5547C47.4208 45.2363 47.5124 44.9124 47.6071 44.586C47.7193 44.2804 47.8013 44.1284 48.0313 43.9278C48.5272 43.7422 48.5272 43.7422 48.8594 43.8116Z" fill="#FFFEC7"/>
<path id="Vector_15" d="M45.0293 33.7012C45.0293 33.7779 45.0293 33.8546 45.0293 33.9336C44.8854 33.9799 44.8854 33.9799 44.7386 34.0271C44.6146 34.0682 44.4906 34.1092 44.3629 34.1515C44.2392 34.1919 44.1155 34.2324 43.9881 34.2741C43.6715 34.359 43.6715 34.359 43.5801 34.6309C43.6551 34.6255 43.7301 34.6201 43.8073 34.6145C44.4493 34.5876 44.8442 34.5898 45.3398 35.0957C45.7688 35.5846 46.1589 36.0706 46.375 36.7227C46.3238 36.8952 46.3238 36.8952 46.2715 37.0713C46.2363 36.9884 46.201 36.9056 46.1647 36.8203C45.783 35.9734 45.3505 35.1772 44.5117 34.8633C43.8588 34.8077 43.458 34.9224 42.8878 35.27C42.8164 35.3118 42.745 35.3536 42.6714 35.3966C42.0979 35.7372 41.5469 36.1128 40.9987 36.502C40.5248 36.8318 40.0356 37.1273 39.543 37.4199C39.5771 37.4583 39.6113 37.4966 39.6465 37.5361C39.6539 37.7321 39.6552 37.9283 39.653 38.1245C39.652 38.2313 39.6511 38.3381 39.6501 38.4481C39.6489 38.5307 39.6477 38.6132 39.6465 38.6982C39.7471 38.6976 39.8478 38.697 39.9515 38.6964C40.3302 38.6943 40.7089 38.693 41.0876 38.6919C41.2506 38.6913 41.4135 38.6905 41.5764 38.6895C42.4917 38.6839 43.3943 38.6904 44.3047 38.8145C44.3047 38.8528 44.3047 38.8912 44.3047 38.9307C43.6598 38.9336 43.015 38.9356 42.3701 38.937C42.1506 38.9376 41.9311 38.9384 41.7116 38.9394C41.3966 38.9408 41.0816 38.9415 40.7666 38.942C40.668 38.9426 40.5694 38.9432 40.4679 38.9438C40.3767 38.9438 40.2855 38.9438 40.1916 38.9439C40.1112 38.9441 40.0307 38.9444 39.9478 38.9446C39.75 38.9307 39.75 38.9307 39.543 38.8145C39.5037 38.5947 39.5037 38.5947 39.4847 38.3206C39.4541 37.9356 39.4119 37.5652 39.3359 37.1875C39.4043 37.1875 39.4726 37.1875 39.543 37.1875C39.543 37.1108 39.543 37.0341 39.543 36.9551C39.6141 36.9256 39.6852 36.8961 39.7585 36.8656C39.8518 36.8257 39.945 36.7857 40.0411 36.7444C40.1336 36.7053 40.2261 36.6662 40.3214 36.626C40.5766 36.491 40.718 36.3913 40.8887 36.1416C40.899 36.0678 40.9094 35.9941 40.9201 35.9181C41.0214 35.579 41.1697 35.5167 41.4459 35.3467C41.5405 35.2882 41.635 35.2297 41.7325 35.1694C41.834 35.1091 41.9356 35.0488 42.0403 34.9868C42.1429 34.9248 42.2456 34.8629 42.3513 34.7992C44.214 33.7012 44.214 33.7012 45.0293 33.7012Z" fill="#FFFEC7"/>
<path id="Vector_16" d="M37.2656 42.6494C37.3681 42.6878 37.4705 42.7261 37.5761 42.7656C37.5285 42.8136 37.4808 42.8615 37.4318 42.9109C36.8036 43.6796 36.9023 44.9536 36.9243 45.9278C36.9645 46.8858 37.1383 47.8079 37.4726 48.6924C37.6263 48.6349 37.6263 48.6349 37.7832 48.5762C37.9369 48.5186 37.9369 48.5186 38.0937 48.46C38.3272 48.076 38.3584 47.6662 38.4115 47.2125C38.4385 46.9867 38.4385 46.9867 38.4661 46.7563C38.4843 46.5979 38.5025 46.4394 38.5207 46.281C38.5396 46.1208 38.5586 45.9605 38.5777 45.8003C38.6241 45.4086 38.6697 45.0169 38.7148 44.625C38.9788 45.147 38.9574 45.606 38.9542 46.1938C38.9536 46.3498 38.9536 46.3498 38.9531 46.5089C38.9362 47.6694 38.7682 48.7664 38.1584 49.731C37.9902 49.8545 37.9902 49.8545 37.7443 49.869C37.344 49.6764 37.1778 49.3325 36.955 48.9248C36.9892 48.8481 37.0234 48.7714 37.0585 48.6924C37.0906 48.8038 37.0906 48.8038 37.1232 48.9175C37.2547 49.1978 37.2547 49.1978 37.5891 49.2444C37.6873 49.254 37.7855 49.2636 37.8867 49.2734C37.8867 49.1967 37.8867 49.12 37.8867 49.041C37.8098 49.0362 37.733 49.0314 37.6538 49.0265C37.3393 48.9142 37.2143 48.7973 37.0497 48.4772C36.6702 47.4761 36.6148 46.4243 36.6057 45.3513C36.6042 45.2511 36.6028 45.1509 36.6013 45.0476C36.6062 44.2945 36.6532 43.3749 37.1211 42.7907C37.1688 42.7441 37.2164 42.6975 37.2656 42.6494Z" fill="#FFFEC7"/>
<path id="Vector_17" d="M48.8335 44.4724C48.9488 44.4904 48.9488 44.4904 49.0664 44.5087C49.1079 44.6029 49.1079 44.6029 49.1501 44.6989C49.24 44.899 49.3322 45.0976 49.4259 45.2954C49.4802 45.4121 49.5345 45.5288 49.5905 45.649C49.645 45.7648 49.6996 45.8806 49.7559 46C50.0742 46.8449 50.017 47.7609 50.0175 48.6633C50.0187 48.7952 50.02 48.9272 50.0213 49.0632C50.0216 49.2526 50.0216 49.2526 50.0219 49.4459C50.0223 49.5606 50.0228 49.6753 50.0232 49.7935C49.9981 50.0869 49.9981 50.0869 49.791 50.4355C49.7927 50.3595 49.7943 50.2835 49.796 50.2053C49.8537 47.6879 49.8537 47.6879 49.1699 45.3222C49.1699 45.2455 49.1699 45.1688 49.1699 45.0898C48.9991 45.0898 48.8283 45.0898 48.6524 45.0898C48.5847 45.2686 48.518 45.4478 48.4518 45.6273C48.4146 45.727 48.3773 45.8268 48.339 45.9296C48.1269 46.6085 48.1115 47.2832 48.1089 47.9951C48.1085 48.0917 48.1081 48.1883 48.1077 48.2879C48.114 49.0512 48.2128 49.7325 48.3875 50.4718C48.4453 50.7841 48.4453 50.7841 48.3418 51.1328C47.6798 50.3896 47.6942 49.4708 47.6814 48.4471C47.6816 48.3243 47.6817 48.2015 47.6819 48.075C47.6821 47.9472 47.6822 47.8195 47.6824 47.6878C47.695 46.7538 47.7322 44.6129 48.8335 44.4724Z" fill="#FFFEC7"/>
<path id="Vector_18" d="M39.8535 46.6006C40.3604 46.6742 40.8139 46.8433 41.2898 47.0436C42.749 47.6369 44.2223 47.9649 45.7539 48.2275C45.7539 48.2659 45.7539 48.3042 45.7539 48.3438C45.4465 48.3438 45.139 48.3438 44.8223 48.3438C44.8223 48.4204 44.8223 48.4971 44.8223 48.5762C44.9247 48.5762 45.0272 48.5762 45.1328 48.5762C45.1328 48.6912 45.1328 48.8063 45.1328 48.9248C44.4695 48.8561 43.8434 48.7324 43.1984 48.5471C43.109 48.5217 43.0196 48.4962 42.9275 48.47C42.1673 48.2483 41.3986 48.0112 40.6816 47.6465C40.6475 47.5698 40.6133 47.4931 40.5781 47.4141C41.0698 47.5157 41.0698 47.5157 41.3027 47.6465C41.3027 47.5314 41.3027 47.4164 41.3027 47.2979C41.2415 47.2754 41.1802 47.2529 41.1171 47.2298C40.6905 47.0719 40.2681 46.912 39.8535 46.7168C39.8535 46.6784 39.8535 46.6401 39.8535 46.6006Z" fill="#FFFEC7"/>
<path id="Vector_19" d="M36.0233 42.0684C36.1494 42.4931 36.0861 42.6494 35.9793 43.0757C35.7789 43.9978 35.7813 44.8832 35.7969 45.8234C35.7985 45.9901 35.7999 46.1568 35.8011 46.3235C35.8045 46.7258 35.8098 47.128 35.8163 47.5303C35.3001 47.4769 34.92 47.4237 34.4706 47.1163C34.3521 47.037 34.3521 47.037 34.2312 46.956C34.1447 46.8951 34.1447 46.8951 34.0565 46.833C34.1295 47.2047 34.1295 47.2047 34.4237 47.36C34.5331 47.4186 34.6425 47.4772 34.7553 47.5375C34.8636 47.5964 34.972 47.6553 35.0836 47.7159C35.3598 47.8572 35.6368 47.9884 35.9198 48.1113C35.9198 48.2647 35.9198 48.4181 35.9198 48.5762C34.8262 48.3782 34.0194 47.85 33.3073 46.8916C32.8972 46.2373 32.5656 45.5555 32.6073 44.7412C32.7264 45.0061 32.8423 45.2722 32.9559 45.5402C33.0074 45.66 33.0589 45.7798 33.112 45.9033C33.1884 46.0831 33.1884 46.0831 33.2664 46.2665C33.4318 46.5934 33.6019 46.8152 33.8495 47.0654C33.8495 46.912 33.8495 46.7586 33.8495 46.6006C34.2847 46.6617 34.6197 46.8456 35.0019 47.0727C35.2098 47.1963 35.2098 47.1963 35.5058 47.2979C35.5041 47.2272 35.5025 47.1566 35.5008 47.0838C35.4311 43.5773 35.4311 43.5773 36.0233 42.0684Z" fill="#FFFEC7"/>
<path id="Vector_20" d="M54.9021 53.2246C55.0501 53.2584 55.1981 53.292 55.3461 53.3254C55.703 53.4064 56.0596 53.4893 56.416 53.5733C56.416 53.65 56.416 53.7267 56.416 53.8057C55.8011 53.729 55.1862 53.6523 54.5527 53.5733C54.5869 53.65 54.6211 53.7267 54.6562 53.8057C54.9355 53.8799 55.2084 53.9414 55.4908 53.9945C55.5694 54.0101 55.6479 54.0257 55.7288 54.0417C55.9232 54.0802 56.1178 54.1174 56.3125 54.1543C56.3125 54.1927 56.3125 54.231 56.3125 54.2705C55.5638 54.3019 54.8949 54.1886 54.1646 54.009C54.0009 53.9697 54.0009 53.9697 53.834 53.9295C52.1671 53.5197 52.1671 53.5197 51.5508 53.2246C51.5166 53.1479 51.4825 53.0712 51.4473 52.9922C52.537 52.5844 53.8111 52.9669 54.9021 53.2246ZM54.8633 53.6895C55.0341 53.6895 55.2049 53.6895 55.3809 53.6895C55.3125 53.7662 55.2442 53.8429 55.1738 53.9219C55.0713 53.8452 54.9689 53.7685 54.8633 53.6895Z" fill="#FFFEC7"/>
<path id="Vector_21" d="M72.8363 47.3995C73.0092 47.4067 73.0092 47.4067 73.1857 47.4141C73.4279 47.8389 73.4314 48.1964 73.3927 48.6924C73.1848 49.2828 72.8518 49.48 72.3575 49.7383C72.0535 49.7673 72.0535 49.7673 71.84 49.7383C71.7878 48.9481 71.9334 48.3531 72.254 47.6465C72.461 47.4141 72.461 47.4141 72.8363 47.3995Z" fill="#040300"/>
<path id="Vector_22" d="M72.3574 42.6494C73.2087 43.4717 73.4788 45.2843 73.5996 46.4844C73.7344 49.4931 73.7344 49.4931 73.2891 50.668C72.1584 51.5142 70.2585 51.2674 68.9414 51.249C68.9414 51.2107 68.9414 51.1723 68.9414 51.1328C69.0374 51.1235 69.1334 51.1141 69.2323 51.1045C69.592 51.0691 69.9516 51.0331 70.3112 50.9966C70.4662 50.981 70.6212 50.9657 70.7762 50.9507C71.0003 50.9289 71.2244 50.9061 71.4484 50.8831C71.5829 50.8698 71.7173 50.8564 71.8558 50.8426C72.2793 50.7805 72.6701 50.6764 73.082 50.5518C73.1504 50.1299 73.2187 49.7081 73.2891 49.2734C73.0841 49.4268 72.8791 49.5802 72.668 49.7383C72.5996 49.6616 72.5313 49.5849 72.4609 49.5059C72.5591 49.4579 72.6574 49.41 72.7585 49.3606C73.1091 49.1402 73.159 49.0984 73.2891 48.6924C73.5312 46.8184 73.2232 45.1964 72.5645 43.4629C72.4855 43.5381 72.4065 43.6133 72.3251 43.6908C72.0469 43.9277 72.0469 43.9277 71.7363 44.0004C71.284 43.8946 71.1713 43.6474 70.9082 43.2305C71.1637 43.3643 71.3272 43.4684 71.5293 43.6953C71.7913 43.7316 71.7913 43.7316 72.0469 43.5791C72.1887 43.2814 72.2765 42.9738 72.3574 42.6494Z" fill="#FFFEC7"/>
<path id="Vector_23" d="M54.4492 53.457C54.7383 53.4928 55.0272 53.5292 55.3162 53.566C55.3984 53.5761 55.4806 53.5862 55.5652 53.5966C56.1855 53.6763 56.1855 53.6763 56.416 53.8057C56.416 53.729 56.416 53.6523 56.416 53.5732C56.7353 53.6056 57.0544 53.6401 57.3735 53.6749C57.509 53.6886 57.509 53.6886 57.6473 53.7026C57.7347 53.7124 57.8221 53.7221 57.9121 53.7321C57.9924 53.7406 58.0726 53.7492 58.1553 53.7579C58.3992 53.8091 58.5812 53.9026 58.7969 54.0381C58.6944 54.0764 58.5919 54.1148 58.4863 54.1543C58.418 54.2693 58.3497 54.3844 58.2793 54.5029C57.7489 54.6431 57.2823 54.6082 56.746 54.5247C56.6108 54.5048 56.4756 54.4849 56.3364 54.4643C56.002 54.3867 56.002 54.3867 55.7949 54.1543C55.5037 54.0907 55.2126 54.0508 54.9183 54.0099C54.6562 53.9219 54.6562 53.9219 54.5172 53.6813C54.4947 53.6073 54.4723 53.5333 54.4492 53.457ZM54.8633 53.6895C55.0682 53.8045 55.0682 53.8045 55.2773 53.9219C55.3115 53.8452 55.3457 53.7685 55.3809 53.6895C55.2101 53.6895 55.0393 53.6895 54.8633 53.6895Z" fill="#FFFEC7"/>
<path id="Vector_24" d="M39.957 46.252C40.5006 46.4115 41.041 46.5803 41.5777 46.7667C42.9209 47.2327 44.244 47.6242 45.6504 47.7627C45.6162 47.9161 45.5821 48.0695 45.5469 48.2275C43.5851 47.9755 41.7826 47.4458 39.957 46.6006C39.957 46.4855 39.957 46.3705 39.957 46.252Z" fill="#0F0A00"/>
<path id="Vector_25" d="M48.3418 44.3926C48.5553 44.4434 48.5553 44.4434 48.7559 44.5088C48.679 44.5735 48.6022 44.6382 48.523 44.7049C47.6984 45.6728 47.7671 47.1681 47.7749 48.4134C47.8084 49.8292 47.9319 51.1374 48.8594 52.1787C48.5226 52.1472 48.3709 52.0933 48.1219 51.8301C47.2379 50.2424 47.2323 47.9769 47.5331 46.1866C47.6795 45.5041 47.8902 44.8995 48.3418 44.3926Z" fill="#160F00"/>
<path id="Vector_26" d="M39.8535 47.2979C40.2084 47.3696 40.5354 47.4702 40.8741 47.6084C42.3787 48.2062 43.8713 48.6187 45.4434 48.9248C45.4092 49.0399 45.375 49.1549 45.3398 49.2734C44.6479 49.3109 44.0588 49.1784 43.3925 48.9756C43.2892 48.9448 43.186 48.914 43.0796 48.8822C40.6729 48.1435 40.6729 48.1435 39.8535 47.5303C39.8535 47.4536 39.8535 47.3769 39.8535 47.2979Z" fill="#0F0B00"/>
<path id="Vector_27" d="M60.7637 51.1328C61.0199 51.1903 61.0199 51.1903 61.2812 51.249C61.2812 51.2107 61.2812 51.1723 61.2812 51.1328C61.862 51.1328 62.4427 51.1328 63.041 51.1328C63.041 51.1712 63.041 51.2095 63.041 51.249C63.4851 51.3257 63.9292 51.4024 64.3867 51.4814C64.3867 51.5198 64.3867 51.5581 64.3867 51.5977C61.9955 51.5977 59.6043 51.5977 57.1406 51.5977C57.1406 51.5593 57.1406 51.521 57.1406 51.4814C57.9406 51.3688 58.7289 51.3511 59.5344 51.358C59.6532 51.3585 59.7719 51.359 59.8943 51.3596C60.1841 51.3609 60.4739 51.3628 60.7637 51.3652C60.7637 51.2885 60.7637 51.2118 60.7637 51.1328Z" fill="#FFFEC7"/>
<path id="Vector_28" d="M39.4395 36.8389C39.3391 36.8916 39.2388 36.9443 39.1354 36.9986C38.811 37.1477 38.811 37.1477 38.7148 37.4199C38.4953 37.4453 38.2756 37.4702 38.0558 37.4925C37.5789 37.5688 37.1399 37.7629 36.6898 37.9501C36.548 38.0075 36.548 38.0075 36.4033 38.0661C36.1728 38.1596 35.9427 38.2541 35.7129 38.3496C35.8812 38.299 36.0494 38.2481 36.2175 38.1971C36.3215 38.1656 36.4254 38.1342 36.5325 38.1017C36.8208 38.0107 37.104 37.9092 37.3885 37.8049C37.8479 37.6464 38.2363 37.6225 38.7148 37.6523C38.7148 37.6907 38.7148 37.729 38.7148 37.7685C38.6578 37.7792 38.6007 37.7898 38.5419 37.8007C37.6569 37.9811 36.8125 38.2947 35.9581 38.604C35.7618 38.6748 35.5653 38.7449 35.3688 38.8149C35.2534 38.8566 35.138 38.8984 35.0191 38.9413C34.6645 39.0509 34.3179 39.1132 33.9531 39.1631C34.2265 38.7973 34.572 38.6236 34.9511 38.4295C35.0534 38.3766 35.0534 38.3766 35.1578 38.3226C35.8676 37.9633 36.5947 37.6673 37.3317 37.3871C37.555 37.3019 37.7774 37.2146 37.9999 37.1271C38.1428 37.0721 38.2856 37.0171 38.4286 36.9623C38.5558 36.9133 38.6831 36.8644 38.8142 36.8139C39.1289 36.7226 39.1289 36.7226 39.4395 36.8389Z" fill="#FFFEC7"/>
<path id="Vector_29" d="M37.3692 42.7656C37.4716 42.7656 37.5741 42.7656 37.6797 42.7656C37.6585 42.8357 37.6373 42.9058 37.6154 42.9781C37.5875 43.071 37.5596 43.1638 37.5309 43.2595C37.5033 43.3512 37.4757 43.4429 37.4472 43.5373C37.0467 44.9444 37.0889 46.8498 37.5762 48.2275C37.784 48.5774 37.8701 48.6494 38.1973 48.8086C37.9582 48.8086 37.719 48.8086 37.4727 48.8086C36.7935 47.3096 36.6125 45.4753 36.9409 43.8283C37.1946 42.9616 37.1946 42.9616 37.3692 42.7656Z" fill="#FFFEC7"/>
<path id="Vector_30" d="M49.2346 63.2115C49.4202 63.2123 49.4202 63.2123 49.6095 63.2131C49.9115 63.2144 50.2136 63.2163 50.5156 63.2187C50.5156 63.2954 50.5156 63.3721 50.5156 63.4512C50.5749 63.4476 50.6341 63.4441 50.6951 63.4405C52.0168 63.3635 53.3328 63.3184 54.6562 63.3349C54.6562 63.2966 54.6562 63.2582 54.6562 63.2187C55.2711 63.2187 55.886 63.2187 56.5195 63.2187C56.5195 63.2571 56.5195 63.2954 56.5195 63.3349C56.827 63.3925 56.827 63.3925 57.1406 63.4512C57.1406 63.4895 57.1406 63.5279 57.1406 63.5674C56.1272 63.5701 55.1138 63.5721 54.1004 63.5734C53.6295 63.574 53.1587 63.5748 52.6879 63.5761C48.6876 63.5872 48.6876 63.5872 46.7891 63.4512C46.7891 63.4128 46.7891 63.3745 46.7891 63.3349C47.606 63.2187 48.412 63.2048 49.2346 63.2115Z" fill="#202020"/>
<path id="Vector_31" d="M48.6006 43.55C49.1988 43.7899 49.4449 44.2056 49.7304 44.8279C50.2347 46.101 50.3431 47.3247 50.3345 48.7069C50.3353 48.8365 50.3361 48.9661 50.3369 49.0996C50.3353 49.8528 50.2744 50.5209 50.1016 51.249C50.0674 51.249 50.0333 51.249 49.9981 51.249C50.0055 51.1478 50.013 51.0465 50.0207 50.9422C50.1744 48.7281 50.3311 45.898 48.9807 44.078C48.9407 44.0284 48.9006 43.9788 48.8594 43.9277C48.664 43.9421 48.664 43.9421 48.4647 43.9568C48.3915 43.9622 48.3182 43.9676 48.2427 43.9731C47.9476 44.0719 47.8767 44.2142 47.7207 44.5088C47.6389 44.7287 47.5635 44.9517 47.4943 45.177C47.4408 45.3487 47.4408 45.3487 47.3863 45.5238C47.36 45.6107 47.3337 45.6976 47.3067 45.7871C47.1429 45.2669 47.2953 44.9292 47.483 44.4416C47.7483 43.8853 48.0149 43.597 48.6006 43.55Z" fill="#FFFEC7"/>
<path id="Vector_32" d="M34.1603 40.0928C34.2286 40.0928 34.2969 40.0928 34.3673 40.0928C34.3355 40.2191 34.3355 40.2191 34.303 40.3479C34.2751 40.4602 34.2472 40.5726 34.2185 40.6884C34.1909 40.7989 34.1632 40.9095 34.1348 41.0234C33.8673 42.2153 33.7572 43.6869 34.1603 44.8574C34.3413 45.2116 34.3413 45.2116 34.5743 45.4385C34.6768 45.4385 34.7793 45.4385 34.8849 45.4385C34.89 45.3488 34.8952 45.2591 34.9006 45.1666C34.9246 44.7609 34.95 44.3552 34.9754 43.9495C34.9836 43.8083 34.9917 43.6671 35.0001 43.5217C35.0088 43.3865 35.0175 43.2513 35.0264 43.112C35.034 42.9872 35.0416 42.8625 35.0494 42.7339C35.0919 42.417 35.0919 42.417 35.2989 42.0684C35.2906 42.6011 35.2789 43.1336 35.2666 43.6663C35.2631 43.8932 35.2631 43.8932 35.2595 44.1247C35.2558 44.2701 35.2522 44.4154 35.2484 44.5651C35.2457 44.699 35.243 44.8329 35.2402 44.9708C35.1922 45.3477 35.1118 45.5107 34.8849 45.7871C34.6584 45.7871 34.6584 45.7871 34.3673 45.6709C33.7651 44.8357 33.7273 44.0946 33.7268 43.0562C33.7249 42.875 33.7249 42.875 33.7229 42.6903C33.7216 41.8907 33.7539 41.0978 33.9532 40.3252C34.0215 40.2485 34.0899 40.1718 34.1603 40.0928Z" fill="#FFFEC7"/>
<path id="Vector_33" d="M56.0169 38.9193C56.0966 38.9194 56.1763 38.9196 56.2584 38.9198C56.5115 38.9204 56.7646 38.9219 57.0177 38.9233C57.1899 38.9239 57.3621 38.9245 57.5343 38.9249C57.9551 38.9262 58.376 38.9282 58.7969 38.9306C58.7969 38.969 58.7969 39.0073 58.7969 39.0468C58.3357 39.1043 58.3357 39.1043 57.8652 39.163C57.8652 39.2014 57.8652 39.2397 57.8652 39.2792C55.5082 39.2792 53.1511 39.2792 50.7227 39.2792C50.7227 39.2409 50.7227 39.2025 50.7227 39.163C50.8391 39.1601 50.9556 39.1572 51.0755 39.1542C51.5086 39.1432 51.9417 39.1316 52.3748 39.1198C52.5621 39.1147 52.7493 39.1099 52.9366 39.1052C53.2062 39.0985 53.4757 39.0911 53.7452 39.0836C53.8286 39.0816 53.912 39.0797 53.9979 39.0777C54.3132 39.0684 54.6096 39.0574 54.9193 38.9871C55.2843 38.9061 55.6465 38.9164 56.0169 38.9193Z" fill="#FFFEC7"/>
<path id="Vector_34" d="M65.0078 39.2793C65.4478 39.2591 65.8869 39.2455 66.3272 39.2498C66.4013 39.2504 66.4755 39.2509 66.5518 39.2514C66.8676 39.2923 67.1056 39.4307 67.3709 39.6212C67.6892 39.7954 68.0031 39.8301 68.3527 39.8894C69.0406 40.0131 69.658 40.2406 70.3 40.5431C70.4232 40.6003 70.4232 40.6003 70.5489 40.6586C71.1926 40.9736 71.7789 41.3733 72.1504 42.0684C72.1504 42.1835 72.1504 42.2985 72.1504 42.417C71.5013 42.417 70.8523 42.417 70.1836 42.417C70.1836 42.3787 70.1836 42.3403 70.1836 42.3008C70.7643 42.3008 71.345 42.3008 71.9434 42.3008C71.8451 42.169 71.7469 42.0372 71.6458 41.9014C71.5905 41.8272 71.5353 41.753 71.4783 41.6766C71.3303 41.4748 71.3303 41.4748 71.1152 41.3711C71.1152 41.2944 71.1152 41.2177 71.1152 41.1387C71.0413 41.1254 70.9674 41.1121 70.8912 41.0983C70.5804 41.018 70.3281 40.8947 70.0413 40.7392C69.2991 40.3531 68.5968 40.1746 67.789 40.0533C67.4657 39.9698 67.2538 39.8248 66.9746 39.628C66.5846 39.4718 66.1685 39.4729 65.7583 39.4464C65.6861 39.4414 65.6139 39.4364 65.5395 39.4312C65.3623 39.4189 65.1851 39.4072 65.0078 39.3956C65.0078 39.3572 65.0078 39.3189 65.0078 39.2793Z" fill="#FFFEC7"/>
<path id="Vector_35" d="M39.8535 46.6006C40.3521 46.6734 40.7963 46.8378 41.2639 47.0364C42.258 47.4463 43.2746 47.7249 44.3047 47.9951C44.3047 48.0335 44.3047 48.0718 44.3047 48.1113C43.6623 48.0552 43.0626 47.9564 42.4414 47.7627C42.4072 47.9161 42.3731 48.0695 42.3379 48.2275C41.7183 48.053 41.1358 47.8856 40.5781 47.5303C40.8887 47.4141 40.8887 47.4141 41.1151 47.523C41.177 47.5638 41.2389 47.6045 41.3027 47.6465C41.3027 47.5314 41.3027 47.4164 41.3027 47.2979C41.2415 47.2754 41.1802 47.2529 41.1171 47.2298C40.6905 47.0719 40.2681 46.912 39.8535 46.7168C39.8535 46.6784 39.8535 46.6401 39.8535 46.6006Z" fill="#FFFEC7"/>
<path id="Vector_36" d="M37.2656 42.6494C37.3681 42.6878 37.4705 42.7261 37.5761 42.7656C37.5285 42.8136 37.4808 42.8615 37.4318 42.9109C36.8036 43.6796 36.9021 44.954 36.9247 45.9283C36.9672 46.9373 37.1213 47.9247 37.5761 48.8086C37.6786 48.8853 37.7811 48.962 37.8867 49.041C37.5352 49.0191 37.397 48.957 37.1491 48.6706C36.6392 47.6793 36.6152 46.4657 36.6057 45.3513C36.6042 45.2511 36.6028 45.1509 36.6013 45.0476C36.6062 44.2945 36.6532 43.3749 37.1211 42.7907C37.1688 42.7441 37.2164 42.6975 37.2656 42.6494Z" fill="#0B0800"/>
<path id="Vector_37" d="M49.377 51.5977C49.4794 51.636 49.5819 51.6744 49.6875 51.7139C49.6567 52.1168 49.5852 52.2931 49.3575 52.6145C49.0386 52.9009 48.8473 52.9607 48.4453 52.9922C48.2404 52.6854 48.0354 52.3786 47.8242 52.0625C47.8584 51.9858 47.8925 51.9091 47.9277 51.8301C48.0046 51.8852 48.0815 51.9403 48.1606 51.9971C48.405 52.153 48.5868 52.2382 48.8594 52.2949C48.8594 52.2182 48.8594 52.1415 48.8594 52.0625C48.7911 52.0242 48.7227 51.9858 48.6523 51.9463C48.8029 51.8924 48.8029 51.8924 48.9564 51.8373C49.2569 51.7493 49.2569 51.7493 49.377 51.5977Z" fill="#FFFEC7"/>
<path id="Vector_38" d="M38.5078 47.8789C38.6647 48.4072 38.5463 48.865 38.4043 49.3896C38.2167 49.702 38.2167 49.702 37.9902 49.8545C37.7379 49.8763 37.7379 49.8763 37.4727 49.7383C37.2751 49.4837 37.1122 49.2123 36.9551 48.9248C36.9892 48.8481 37.0234 48.7714 37.0586 48.6924C37.0799 48.7667 37.1013 48.841 37.1233 48.9175C37.2548 49.1978 37.2548 49.1978 37.5891 49.2444C37.6873 49.254 37.7855 49.2636 37.8867 49.2734C37.8867 49.1584 37.8867 49.0433 37.8867 48.9248C37.7842 48.8865 37.6818 48.8481 37.5762 48.8086C37.653 48.7631 37.7299 48.7175 37.8091 48.6706C38.1142 48.4448 38.2936 48.2084 38.5078 47.8789Z" fill="#FFFEC7"/>
<path id="Vector_39" d="M48.2382 44.2764C48.3065 44.3147 48.3748 44.3531 48.4452 44.3926C48.3854 44.4621 48.3257 44.5316 48.2641 44.6032C47.4297 45.9302 47.501 47.4607 47.5358 49.0117C47.5373 49.1429 47.5388 49.274 47.5403 49.4092C47.5426 49.5281 47.5448 49.6471 47.5472 49.7697C47.5089 50.1307 47.418 50.2858 47.203 50.5518C47.099 50.2014 47.0888 49.9658 47.0931 49.6003C47.094 49.4956 47.0949 49.3909 47.0959 49.283C47.0971 49.2031 47.0983 49.1233 47.0995 49.041C47.1337 49.041 47.1678 49.041 47.203 49.041C47.2045 48.9697 47.2061 48.8983 47.2076 48.8248C47.2154 48.4949 47.2254 48.1651 47.2354 47.8353C47.2377 47.7231 47.2401 47.6109 47.2425 47.4953C47.2739 46.5397 47.3994 45.5993 47.8888 44.7921C47.9329 44.7176 47.9769 44.6431 48.0223 44.5664C48.1347 44.3926 48.1347 44.3926 48.2382 44.2764Z" fill="#FFFEC7"/>
<path id="Vector_40" d="M47.0996 45.6709C47.168 45.7092 47.2363 45.7476 47.3067 45.7871C47.4085 46.2699 47.4172 46.7197 47.3977 47.2134C47.3927 47.3475 47.3876 47.4816 47.3825 47.6197C47.3767 47.758 47.3709 47.8962 47.3649 48.0387C47.3595 48.1797 47.3541 48.3206 47.3485 48.4659C47.3352 48.8126 47.3212 49.1592 47.3067 49.5059C47.2042 49.5059 47.1017 49.5059 46.9961 49.5059C46.9931 48.9756 46.9913 48.4454 46.9897 47.9152C46.9888 47.7649 46.9879 47.6146 46.987 47.4597C46.9867 47.3147 46.9864 47.1698 46.986 47.0205C46.9852 46.8206 46.9852 46.8206 46.9844 46.6166C46.995 46.2865 47.032 45.9916 47.0996 45.6709Z" fill="#FFFEC7"/>
<path id="Vector_41" d="M45.2363 37.6523C45.3398 37.7686 45.3398 37.7686 45.3463 38.0664C45.3442 38.1598 45.342 38.2533 45.3398 38.3496C45.1328 38.001 45.1328 38.001 45.1328 37.7686C44.792 37.8041 44.4513 37.8407 44.1106 37.8775C44.0136 37.8876 43.9166 37.8977 43.8166 37.9081C43.7239 37.9183 43.6311 37.9284 43.5356 37.9388C43.4071 37.9525 43.4071 37.9525 43.2761 37.9665C43.0565 37.9891 43.0565 37.9891 42.8555 38.1172C42.6485 38.1218 42.4414 38.1222 42.2344 38.1172C42.2344 38.1939 42.2344 38.2706 42.2344 38.3496C42.6101 38.3496 42.9859 38.3496 43.373 38.3496C43.373 38.388 43.373 38.4263 43.373 38.4658C42.6898 38.4658 42.0066 38.4658 41.3027 38.4658C41.3027 38.3891 41.3027 38.3124 41.3027 38.2334C42.6063 37.6914 43.8563 37.581 45.2363 37.6523Z" fill="#FFFEC7"/>
<path id="Vector_42" d="M54.4492 53.457C54.7383 53.4928 55.0272 53.5292 55.3162 53.566C55.3984 53.5761 55.4806 53.5862 55.5652 53.5966C56.1855 53.6763 56.1855 53.6763 56.416 53.8057C56.416 53.729 56.416 53.6523 56.416 53.5732C56.623 53.6895 56.623 53.6895 56.7266 53.9219C56.6924 53.9986 56.6582 54.0753 56.623 54.1543C56.7938 54.1543 56.9646 54.1543 57.1406 54.1543C57.1406 54.1926 57.1406 54.231 57.1406 54.2705C56.9553 54.2963 56.7698 54.3201 56.5842 54.3431C56.4809 54.3566 56.3777 54.3701 56.2713 54.384C56.1824 54.3849 56.0935 54.3858 56.002 54.3867C55.9336 54.31 55.8653 54.2333 55.7949 54.1543C55.5037 54.0907 55.2126 54.0508 54.9183 54.0099C54.6562 53.9219 54.6562 53.9219 54.5172 53.6813C54.4947 53.6073 54.4723 53.5333 54.4492 53.457ZM54.8633 53.6895C55.0682 53.8045 55.0682 53.8045 55.2773 53.9219C55.3115 53.8452 55.3457 53.7685 55.3809 53.6895C55.2101 53.6895 55.0393 53.6895 54.8633 53.6895Z" fill="#FFFEC7"/>
<path id="Vector_43" d="M49.8945 46.3682C49.9287 46.3682 49.9629 46.3682 49.998 46.3682C50.2171 48.0983 50.2117 49.741 50.1016 51.4814C49.9991 51.4814 49.8966 51.4814 49.791 51.4814C49.7569 51.0212 49.7227 50.5611 49.6875 50.0869C49.7558 50.0869 49.8241 50.0869 49.8945 50.0869C49.8945 48.8597 49.8945 47.6325 49.8945 46.3682Z" fill="#FFFEC7"/>
<path id="Vector_44" d="M36.334 43.9277C36.4877 44.0428 36.4877 44.0428 36.6445 44.1602C36.6798 44.4426 36.6798 44.4426 36.6749 44.793C36.6739 44.918 36.6729 45.0431 36.6718 45.172C36.6692 45.3031 36.6666 45.4342 36.6639 45.5692C36.6625 45.7012 36.6611 45.8332 36.6597 45.9691C36.656 46.2959 36.6509 46.6225 36.6445 46.9492C36.5421 46.9492 36.4396 46.9492 36.334 46.9492C36.334 45.9521 36.334 44.955 36.334 43.9277Z" fill="#FFFEC7"/>
<path id="Vector_45" d="M70.2871 40.6738C71.0057 40.7687 71.4622 41.2658 71.9434 41.8359C72.0117 41.9126 72.08 41.9893 72.1504 42.0684C72.1504 42.1834 72.1504 42.2985 72.1504 42.417C71.5013 42.417 70.8523 42.417 70.1836 42.417C70.1836 42.3786 70.1836 42.3403 70.1836 42.3008C70.7643 42.3008 71.345 42.3008 71.9434 42.3008C71.8451 42.169 71.7469 42.0371 71.6458 41.9013C71.5905 41.8272 71.5353 41.753 71.4783 41.6766C71.3303 41.4747 71.3303 41.4747 71.1152 41.3711C71.1152 41.2944 71.1152 41.2177 71.1152 41.1387C71.0362 41.1267 70.9572 41.1147 70.8759 41.1024C70.58 41.0174 70.4778 40.933 70.2871 40.6738Z" fill="#FFFEC7"/>
<path id="Vector_46" d="M72.3574 42.6494C72.6545 42.9642 72.8203 43.2691 72.9785 43.6953C72.9444 43.8104 72.9102 43.9254 72.875 44.0439C72.8067 43.9289 72.7384 43.8138 72.668 43.6953C72.5996 43.6186 72.5313 43.5419 72.4609 43.4629C72.4054 43.5396 72.3499 43.6163 72.2927 43.6953C72.0469 43.9277 72.0469 43.9277 71.7428 44.0004C71.2844 43.8953 71.1744 43.6524 70.9082 43.2305C71.1637 43.3643 71.3272 43.4684 71.5293 43.6953C71.7913 43.7316 71.7913 43.7316 72.0469 43.5791C72.1887 43.2814 72.2765 42.9738 72.3574 42.6494Z" fill="#FFFEC7"/>
<path id="Vector_47" d="M40.7852 35.793C40.8535 35.908 40.9218 36.0231 40.9922 36.1416C40.6827 36.5292 40.382 36.7477 39.957 36.9551C39.8887 36.9551 39.8204 36.9551 39.75 36.9551C39.75 36.8784 39.75 36.8017 39.75 36.7227C39.6817 36.6843 39.6134 36.646 39.543 36.6064C39.624 36.5575 39.705 36.5085 39.7884 36.458C39.8932 36.3943 39.9979 36.3307 40.1058 36.2651C40.2103 36.2017 40.3148 36.1383 40.4224 36.0731C40.6678 35.9351 40.6678 35.9351 40.7852 35.793Z" fill="#FFFEC7"/>
<path id="Vector_48" d="M38.7148 44.625C38.9429 45.0375 38.9497 45.38 38.9477 45.8597C38.9483 45.9931 38.9488 46.1264 38.9494 46.2638C38.9219 46.6006 38.9219 46.6006 38.7148 46.833C38.6734 47.1029 38.6383 47.3742 38.6113 47.6465C38.5772 47.6465 38.543 47.6465 38.5078 47.6465C38.4684 46.6242 38.5899 45.6347 38.7148 44.625Z" fill="#FFFEC7"/>
<path id="Vector_49" d="M40.8887 40.209C41.0253 40.2857 41.162 40.3624 41.3027 40.4414C41.2686 40.7866 41.2344 41.1317 41.1992 41.4873C40.7852 41.3711 40.7852 41.3711 40.5781 41.1387C40.619 40.7944 40.7436 40.5131 40.8887 40.209Z" fill="#180F00"/>
<path id="Vector_50" d="M61.5918 54.2706C62.564 54.259 63.5231 54.2554 64.4902 54.3868C64.4902 54.4251 64.4902 54.4635 64.4902 54.503C63.7046 54.5413 62.9189 54.5797 62.1094 54.6192C62.1094 54.5808 62.1094 54.5425 62.1094 54.503C61.9386 54.4646 61.7678 54.4263 61.5918 54.3868C61.5918 54.3484 61.5918 54.3101 61.5918 54.2706Z" fill="#FFFEC7"/>
<path id="Vector_51" d="M33.0215 41.3711C33.0557 41.4478 33.0898 41.5245 33.125 41.6035C33.093 41.6898 33.061 41.7761 33.028 41.865C32.8993 42.1817 32.8993 42.1817 32.918 42.5332C32.918 42.8818 32.918 42.8818 32.8209 43.1433C32.6558 43.6231 32.641 44.1149 32.6074 44.625C32.5733 44.625 32.5391 44.625 32.5039 44.625C32.4314 42.3647 32.4314 42.3647 33.0215 41.3711Z" fill="#FFFEC7"/>
<path id="Vector_52" d="M36.8515 46.4844C36.8857 46.4844 36.9198 46.4844 36.955 46.4844C36.9738 46.5937 36.9927 46.7031 37.012 46.8158C37.0381 46.9605 37.0641 47.1052 37.0909 47.2543C37.1161 47.3972 37.1413 47.5401 37.1673 47.6873C37.3051 48.2818 37.4239 48.6947 37.8867 49.041C37.521 49.0182 37.3942 48.9554 37.1426 48.6488C36.8472 48.0933 36.6842 47.3151 36.7953 46.6778C36.8139 46.6139 36.8324 46.5501 36.8515 46.4844Z" fill="#201700"/>
<path id="Vector_53" d="M59.418 53.9219C59.4521 54.037 59.4863 54.152 59.5215 54.2706C59.8289 54.3281 59.8289 54.3281 60.1426 54.3868C60.1426 54.4251 60.1426 54.4635 60.1426 54.503C59.5277 54.503 58.9128 54.503 58.2793 54.503C58.5712 53.8475 58.8111 53.9068 59.418 53.9219Z" fill="#FFFEC7"/>
<path id="Vector_54" d="M37.1621 42.0683C37.3885 42.0247 37.3885 42.0247 37.6797 42.0683C37.9922 42.4192 38.2487 42.7239 38.3008 43.2304C38.2389 43.1777 38.177 43.125 38.1132 43.0706C37.6352 42.661 37.6352 42.661 37.0586 42.5332C37.0928 42.3798 37.1269 42.2264 37.1621 42.0683Z" fill="#FFFEC7"/>
<path id="Vector_55" d="M42.2344 34.8633C42.5558 34.8633 42.6849 34.926 42.959 35.0957C42.6484 35.3281 42.6484 35.3281 42.4487 35.3821C42.1958 35.4555 42.0241 35.5798 41.8074 35.7421C41.4285 36.0254 41.4285 36.0254 41.1992 36.0254C41.3139 35.6519 41.4047 35.5615 41.7168 35.3572C42.0273 35.2119 42.0273 35.2119 42.2344 35.2119C42.2344 35.0969 42.2344 34.9818 42.2344 34.8633Z" fill="#FFFEC7"/>
<path id="Vector_56" d="M24.2227 53.6895C24.291 53.7278 24.3593 53.7662 24.4297 53.8057C23.9173 54.3809 23.4049 54.9562 22.877 55.5488C22.877 55.0766 23.0353 54.9618 23.3169 54.6191C23.3986 54.5185 23.4802 54.4178 23.5644 54.3141C23.7739 54.0773 23.9794 53.8799 24.2227 53.6895Z" fill="#1B1B1B"/>
<path id="Vector_57" d="M36.4376 46.1357C36.7075 46.4869 36.7961 46.7354 36.8322 47.1962C36.8414 47.2971 36.8506 47.3981 36.8601 47.5021C36.8516 47.7627 36.8516 47.7627 36.6446 47.9951C36.6446 47.9184 36.6446 47.8417 36.6446 47.7627C36.5763 47.7627 36.508 47.7627 36.4376 47.7627C36.3431 47.1851 36.3431 46.7134 36.4376 46.1357Z" fill="#FFFEC7"/>
<path id="Vector_58" d="M53.7246 41.9521C54.2163 42.0393 54.2163 42.0393 54.4492 42.3008C54.4622 42.6639 54.4622 42.6639 54.4492 42.998C54.3126 43.0364 54.1759 43.0747 54.0352 43.1143C54.0352 42.8075 54.0352 42.5007 54.0352 42.1846C53.9327 42.1846 53.8302 42.1846 53.7246 42.1846C53.7246 42.1079 53.7246 42.0312 53.7246 41.9521Z" fill="#C0B3A9"/>
<path id="Vector_59" d="M38.5078 47.8789C38.6476 48.3496 38.5721 48.6682 38.5078 49.1572C38.4053 49.1189 38.3029 49.0805 38.1973 49.041C38.0948 49.1177 37.9923 49.1944 37.8867 49.2734C37.8867 49.1584 37.8867 49.0433 37.8867 48.9248C37.7842 48.8865 37.6818 48.8481 37.5762 48.8086C37.6915 48.7403 37.6915 48.7403 37.8091 48.6706C38.1142 48.4448 38.2936 48.2084 38.5078 47.8789Z" fill="#FFFEC7"/>
<path id="Vector_60" d="M34.5742 47.7627C35.1891 47.9353 35.1891 47.9353 35.8164 48.1113C35.8506 48.2647 35.8847 48.4181 35.9199 48.5762C34.9138 48.3927 34.9138 48.3927 34.5742 47.8789C34.5742 47.8406 34.5742 47.8022 34.5742 47.7627Z" fill="#FFFEC7"/>
<path id="Vector_61" d="M48.1348 50.5518C48.3446 50.7792 48.5375 50.9993 48.7106 51.2635C48.8633 51.5115 48.8633 51.5115 49.1699 51.7139C48.937 51.801 48.937 51.801 48.6523 51.8301C48.357 51.5743 48.1565 51.2965 48.0312 50.9004C48.0654 50.7853 48.0996 50.6703 48.1348 50.5518Z" fill="#FFFEC7"/>
<path id="Vector_62" d="M42.8555 47.8789C43.1629 47.9173 43.4704 47.9556 43.7871 47.9951C43.8213 48.1869 43.8554 48.3786 43.8906 48.5762C43.754 48.5762 43.6173 48.5762 43.4766 48.5762C43.4766 48.4995 43.4766 48.4228 43.4766 48.3438C43.1691 48.2862 43.1691 48.2862 42.8555 48.2275C42.8555 48.1125 42.8555 47.9974 42.8555 47.8789Z" fill="#FFFEC7"/>
<path id="Vector_63" d="M35.0918 38.3496C35.1601 38.388 35.2284 38.4263 35.2988 38.4658C35.1953 38.8145 35.1953 38.8145 34.9923 38.9288C34.9099 38.9582 34.8274 38.9876 34.7424 39.0178C34.6195 39.0637 34.6195 39.0637 34.4942 39.1104C34.2637 39.1631 34.2637 39.1631 33.9531 39.0469C34.138 38.9271 34.3236 38.8087 34.5095 38.691C34.6128 38.6249 34.7161 38.5589 34.8225 38.4908C34.9114 38.4442 35.0002 38.3976 35.0918 38.3496Z" fill="#FFFEC7"/>
<path id="Vector_64" d="M39.75 47.0654C40.2417 47.1526 40.2417 47.1526 40.4746 47.4141C40.1672 47.3565 40.1672 47.3565 39.8535 47.2979C40.0738 47.5699 40.2795 47.7286 40.5781 47.8789C40.544 47.9556 40.5098 48.0323 40.4746 48.1113C40.2013 47.9196 39.928 47.7278 39.6465 47.5303C39.6806 47.3769 39.7148 47.2235 39.75 47.0654Z" fill="#FFFEC7"/>
<path id="Vector_65" d="M73.4961 48.46C73.5303 48.46 73.5644 48.46 73.5996 48.46C73.5996 48.6901 73.5996 48.9202 73.5996 49.1572C73.0872 49.4448 73.0872 49.4448 72.5645 49.7383C72.5303 49.6616 72.4961 49.5849 72.4609 49.5059C72.6018 49.4411 72.6018 49.4411 72.7456 49.3751C73.129 49.1268 73.2713 48.8806 73.4961 48.46Z" fill="#FFFEC7"/>
<path id="Vector_66" d="M37.2656 42.6494C37.3681 42.6878 37.4706 42.7261 37.5762 42.7656C37.5057 42.8303 37.5057 42.8303 37.4338 42.8964C37.2416 43.1165 37.2416 43.1165 37.1621 43.4774C37.1279 43.5877 37.0938 43.6979 37.0586 43.8115C36.9561 43.8499 36.8536 43.8882 36.748 43.9277C36.8108 43.4346 36.9451 43.0092 37.2656 42.6494Z" fill="#1C1300"/>
<path id="Vector_67" d="M42.0468 47.5739C42.1428 47.5978 42.2389 47.6218 42.3379 47.6465C42.3379 47.7616 42.3379 47.8766 42.3379 47.9951C41.8767 47.8801 41.8767 47.8801 41.4062 47.7627C41.7168 47.5303 41.7168 47.5303 42.0468 47.5739Z" fill="#FFFEC7"/>
<path id="Vector_68" d="M36.748 43.2305C36.8616 43.6128 36.8308 43.7782 36.748 44.1602C36.6797 44.1602 36.6114 44.1602 36.541 44.1602C36.541 44.4286 36.541 44.6971 36.541 44.9736C36.5069 44.9736 36.4727 44.9736 36.4375 44.9736C36.4375 44.5901 36.4375 44.2066 36.4375 43.8115C36.5058 43.8115 36.5741 43.8115 36.6445 43.8115C36.6787 43.6198 36.7129 43.428 36.748 43.2305Z" fill="#FFFEC7"/>
<path id="Vector_69" d="M45.1328 38.1172C45.0422 38.6837 45.0422 38.6837 44.9258 38.8145C44.7533 38.8192 44.5807 38.8194 44.4082 38.8145C44.5609 38.419 44.7039 38.1172 45.1328 38.1172Z" fill="#FFFEC7"/>
<path id="Vector_70" d="M52.8965 53.3408C53.1356 53.3792 53.3747 53.4175 53.6211 53.457C53.6211 53.5721 53.6211 53.6871 53.6211 53.8057C53.382 53.7673 53.1429 53.729 52.8965 53.6895C52.8965 53.5744 52.8965 53.4594 52.8965 53.3408Z" fill="#FFFEC7"/>
<path id="Vector_71" d="M48.5488 44.5088C48.7196 44.5088 48.8904 44.5088 49.0664 44.5088C49.0664 44.6238 49.0664 44.7389 49.0664 44.8574C48.8614 44.8958 48.6565 44.9341 48.4453 44.9736C48.4795 44.8202 48.5136 44.6668 48.5488 44.5088Z" fill="#FFFEC7"/>
<path id="Vector_72" d="M51.2402 63.2188C51.5135 63.2188 51.7868 63.2188 52.0684 63.2188C52.0684 63.2577 52.0684 63.2967 52.0684 63.3369C51.7951 63.3369 51.5218 63.3369 51.2402 63.3369C51.2402 63.2979 51.2402 63.2589 51.2402 63.2188Z" fill="#131212"/>
<path id="Vector_73" d="M65.0078 61.127C65.0761 61.2037 65.1445 61.2804 65.2148 61.3594C64.9757 61.3594 64.7366 61.3594 64.4902 61.3594C64.4902 61.321 64.4902 61.2827 64.4902 61.2432C64.7361 61.1705 64.7361 61.1705 65.0078 61.127Z" fill="#1A1819"/>
<path id="Vector_74" d="M29.0879 45.5547C29.1221 45.5547 29.1563 45.5547 29.1915 45.5547C29.1915 45.8615 29.1915 46.1683 29.1915 46.4844C29.1573 46.4844 29.1231 46.4844 29.0879 46.4844C29.0879 46.1776 29.0879 45.8708 29.0879 45.5547Z" fill="#1F1E1D"/>
<path id="Vector_75" d="M41.4062 73.4453C41.5087 73.5028 41.5087 73.5028 41.6133 73.5615C41.5791 73.6766 41.545 73.7916 41.5098 73.9102C41.4756 73.7568 41.4414 73.6034 41.4062 73.4453Z" fill="#1B1A1B"/>
<path id="Vector_76" d="M65.7324 62.2891C65.8349 62.3274 65.9374 62.3658 66.043 62.4053C65.9063 62.4436 65.7697 62.482 65.6289 62.5215C65.6631 62.4448 65.6972 62.3681 65.7324 62.2891Z" fill="#161514"/>
<path id="Vector_77" d="M48.5488 61.708C48.7538 61.708 48.9588 61.708 49.1699 61.708C49.1699 61.747 49.1699 61.786 49.1699 61.8261C48.965 61.8261 48.76 61.8261 48.5488 61.8261C48.5488 61.7871 48.5488 61.7482 48.5488 61.708Z" fill="#181718"/>
<path id="Vector_78" d="M37.2656 66.4727C37.3681 66.5302 37.3681 66.5302 37.4727 66.5889C37.4727 66.6656 37.4727 66.7423 37.4727 66.8213C37.4043 66.8213 37.336 66.8213 37.2656 66.8213C37.2656 66.7062 37.2656 66.5912 37.2656 66.4727Z" fill="#1B1A1A"/>
<path id="Vector_79" d="M66.25 62.2891C66.4208 62.2891 66.5916 62.2891 66.7676 62.2891C66.7676 62.328 66.7676 62.367 66.7676 62.4072C66.5968 62.4072 66.426 62.4072 66.25 62.4072C66.25 62.3682 66.25 62.3292 66.25 62.2891Z" fill="#181516"/>
<path id="Vector_80" d="M39.75 62.2891C39.8525 62.2891 39.955 62.2891 40.0605 62.2891C40.0264 62.3658 39.9922 62.4425 39.957 62.5215C39.8887 62.5215 39.8204 62.5215 39.75 62.5215C39.75 62.4448 39.75 62.3681 39.75 62.2891Z" fill="#171615"/>
<path id="Vector_81" d="M65.4219 61.127C65.5927 61.127 65.7635 61.127 65.9395 61.127C65.9395 61.1659 65.9395 61.2049 65.9395 61.2451C65.7687 61.2451 65.5979 61.2451 65.4219 61.2451C65.4219 61.2061 65.4219 61.1671 65.4219 61.127Z" fill="#181717"/>
<path id="Vector_82" d="M40.5781 61.127C40.7489 61.127 40.9197 61.127 41.0957 61.127C41.0957 61.1659 41.0957 61.2049 41.0957 61.2451C40.9249 61.2451 40.7541 61.2451 40.5781 61.2451C40.5781 61.2061 40.5781 61.1671 40.5781 61.127Z" fill="#181717"/>
<path id="Vector_83" d="M70.5977 60.1973C70.7343 60.2356 70.8709 60.274 71.0117 60.3135C70.9092 60.371 70.9092 60.371 70.8047 60.4297C70.7364 60.353 70.668 60.2763 70.5977 60.1973Z" fill="#1A1919"/>
<path id="Vector_84" d="M30.7441 35.3281C30.7783 35.4048 30.8125 35.4815 30.8477 35.5605C30.7793 35.6372 30.711 35.7139 30.6406 35.793C30.6748 35.6396 30.7089 35.4862 30.7441 35.3281Z" fill="#1E1E1E"/>
<path id="Vector_85" d="M60.4531 20.4531C60.5556 20.4531 60.6581 20.4531 60.7637 20.4531C60.7637 20.5298 60.7637 20.6065 60.7637 20.6855C60.6612 20.6855 60.5587 20.6855 60.4531 20.6855C60.4531 20.6088 60.4531 20.5321 60.4531 20.4531Z" fill="#1F1F1D"/>
<path id="Vector_86" d="M48.0312 19.5234C48.2021 19.5234 48.3729 19.5234 48.5488 19.5234C48.5488 19.5624 48.5488 19.6014 48.5488 19.6415C48.378 19.6415 48.2072 19.6415 48.0312 19.6415C48.0312 19.6026 48.0312 19.5636 48.0312 19.5234Z" fill="#1F1E1F"/>
<path id="Vector_87" d="M45.6504 80.8828C45.7529 80.9403 45.7529 80.9403 45.8574 80.999C45.8233 81.0757 45.7891 81.1524 45.7539 81.2314C45.7197 81.1164 45.6856 81.0013 45.6504 80.8828Z" fill="#1A1A1A"/>
<path id="Vector_88" d="M34.9883 61.4756C35.4023 61.5937 35.4023 61.5937 35.4023 61.5937L34.9883 61.4756Z" fill="#171717"/>
<path id="Vector_89" d="M38.0938 24.5205C38.1962 24.5589 38.2987 24.5972 38.4043 24.6367C38.3018 24.6751 38.1993 24.7134 38.0938 24.7529C38.0938 24.6762 38.0938 24.5995 38.0938 24.5205Z" fill="#1E1C1D"/>
<path id="Vector_90" d="M44.7188 20.4531C44.7871 20.4531 44.8554 20.4531 44.9258 20.4531C44.9258 20.5298 44.9258 20.6065 44.9258 20.6855C44.8575 20.6855 44.7891 20.6855 44.7188 20.6855C44.7188 20.6088 44.7188 20.5321 44.7188 20.4531Z" fill="#1E1F1D"/>
<path id="Vector_91" d="M49.8945 88.7852C49.9287 88.8619 49.9629 88.9386 49.998 89.0176C49.9297 88.9792 49.8614 88.9409 49.791 88.9014C49.8252 88.863 49.8593 88.8247 49.8945 88.7852Z" fill="#211F20"/>
<path id="Vector_92" d="M35.1953 65.7754C35.2636 65.8521 35.332 65.9288 35.4023 66.0078C35.334 66.0078 35.2657 66.0078 35.1953 66.0078C35.1953 65.9311 35.1953 65.8544 35.1953 65.7754Z" fill="#1D1C1D"/>
<path id="Vector_93" d="M35.5059 65.7754C35.8164 65.8935 35.8164 65.8935 35.8164 65.8935L35.5059 65.7754Z" fill="#1F1C1E"/>
<path id="Vector_94" d="M70.4941 65.6592C70.8047 65.7773 70.8047 65.7773 70.8047 65.7773L70.4941 65.6592Z" fill="#1D1D1E"/>
<path id="Vector_95" d="M34.0566 65.4268C34.3672 65.5449 34.3672 65.5449 34.3672 65.5449L34.0566 65.4268Z" fill="#1D1D1C"/>
<path id="Vector_96" d="M63.7656 62.6377C64.0762 62.7558 64.0762 62.7558 64.0762 62.7558L63.7656 62.6377Z" fill="#161615"/>
<path id="Vector_97" d="M64.6973 62.2891C64.7997 62.3466 64.7997 62.3466 64.9043 62.4053C64.8018 62.4628 64.8018 62.4628 64.6973 62.5215C64.6973 62.4448 64.6973 62.3681 64.6973 62.2891Z" fill="#171615"/>
<path id="Vector_98" d="M49.4805 61.708C49.5829 61.7655 49.5829 61.7655 49.6875 61.8242C49.585 61.8817 49.585 61.8817 49.4805 61.9404C49.4805 61.8637 49.4805 61.787 49.4805 61.708Z" fill="#161616"/>
<path id="Vector_99" d="M70.8047 61.3594C70.873 61.4361 70.9413 61.5128 71.0117 61.5918C70.9434 61.5918 70.8751 61.5918 70.8047 61.5918C70.8047 61.5151 70.8047 61.4384 70.8047 61.3594Z" fill="#171818"/>
<path id="Vector_100" d="M70.2871 61.4756C70.3213 61.5523 70.3554 61.629 70.3906 61.708C70.3223 61.6697 70.254 61.6313 70.1836 61.5918C70.2178 61.5534 70.2519 61.5151 70.2871 61.4756Z" fill="#191818"/>
<path id="Vector_101" d="M31.3652 60.4297C31.6758 60.5478 31.6758 60.5478 31.6758 60.5478L31.3652 60.4297Z" fill="#161616"/>
<path id="Vector_102" d="M28.0527 51.249C28.3633 51.3671 28.3633 51.3671 28.3633 51.3671L28.0527 51.249Z" fill="#1D1E1E"/>
<path id="Vector_103" d="M51.4473 91.5742C51.6543 91.6923 51.6543 91.6923 51.6543 91.6923L51.4473 91.5742Z" fill="#222224"/>
<path id="Vector_104" d="M47.5137 84.3691C47.7207 84.4872 47.7207 84.4872 47.7207 84.4872L47.5137 84.3691Z" fill="#1D1B1B"/>
<path id="Vector_105" d="M44.7188 79.3721C44.9258 79.4902 44.9258 79.4902 44.9258 79.4902L44.7188 79.3721Z" fill="#1E1B1A"/>
<path id="Vector_106" d="M34.9883 65.6592C35.1953 65.7773 35.1953 65.7773 35.1953 65.7773L34.9883 65.6592Z" fill="#1E1E1D"/>
<path id="Vector_107" d="M31.7793 64.8457C31.9863 64.9638 31.9863 64.9638 31.9863 64.9638L31.7793 64.8457Z" fill="#1F1F1F"/>
<path id="Vector_108" d="M31.3652 64.7295C31.5723 64.8476 31.5723 64.8476 31.5723 64.8476L31.3652 64.7295Z" fill="#212121"/>
<path id="Vector_109" d="M76.498 63.916C76.7051 64.0341 76.7051 64.0341 76.7051 64.0341L76.498 63.916Z" fill="#222324"/>
<path id="Vector_110" d="M56.623 63.2188C56.8301 63.3369 56.8301 63.3369 56.8301 63.3369L56.623 63.2188Z" fill="#121113"/>
<path id="Vector_111" d="M53.8281 63.2188C54.0352 63.3369 54.0352 63.3369 54.0352 63.3369L53.8281 63.2188Z" fill="#151512"/>
<path id="Vector_112" d="M53 63.2188C53.207 63.3369 53.207 63.3369 53.207 63.3369L53 63.2188Z" fill="#161313"/>
<path id="Vector_113" d="M61.5918 62.8701C61.7988 62.9882 61.7988 62.9882 61.7988 62.9882L61.5918 62.8701Z" fill="#161616"/>
<path id="Vector_114" d="M39.2324 62.2891C39.4395 62.4072 39.4395 62.4072 39.4395 62.4072L39.2324 62.2891Z" fill="#161616"/>
<path id="Vector_115" d="M56.002 61.8242C56.209 61.9423 56.209 61.9423 56.209 61.9423L56.002 61.8242Z" fill="#191819"/>
<path id="Vector_116" d="M69.459 61.708C69.666 61.8261 69.666 61.8261 69.666 61.8261L69.459 61.708Z" fill="#191A18"/>
<path id="Vector_117" d="M35.4023 61.5918C35.6094 61.7099 35.6094 61.7099 35.6094 61.7099L35.4023 61.5918Z" fill="#161613"/>
<path id="Vector_118" d="M42.3379 61.2432C42.5449 61.3613 42.5449 61.3613 42.5449 61.3613L42.3379 61.2432Z" fill="#171616"/>
<path id="Vector_119" d="M41.8203 61.2432C42.0273 61.3613 42.0273 61.3613 42.0273 61.3613L41.8203 61.2432Z" fill="#181818"/>
<path id="Vector_120" d="M66.457 61.0107C66.6641 61.1288 66.6641 61.1288 66.6641 61.1288L66.457 61.0107Z" fill="#191919"/>
<path id="Vector_121" d="M39.1289 60.8945C39.3359 61.0126 39.3359 61.0126 39.3359 61.0126L39.1289 60.8945Z" fill="#181718"/>
<path id="Vector_122" d="M32.918 60.8945C33.125 61.0126 33.125 61.0126 33.125 61.0126L32.918 60.8945Z" fill="#191818"/>
<path id="Vector_123" d="M67.6992 60.7783C67.9062 60.8964 67.9062 60.8964 67.9062 60.8964L67.6992 60.7783Z" fill="#191818"/>
<path id="Vector_124" d="M38.1973 60.7783C38.4043 60.8964 38.4043 60.8964 38.4043 60.8964L38.1973 60.7783Z" fill="#181716"/>
<path id="Vector_125" d="M32.0898 60.6621C32.2969 60.7802 32.2969 60.7802 32.2969 60.7802L32.0898 60.6621Z" fill="#1A1818"/>
<path id="Vector_126" d="M31.8828 60.5459C32.0898 60.664 32.0898 60.664 32.0898 60.664L31.8828 60.5459Z" fill="#191718"/>
<path id="Vector_127" d="M35.0918 60.1973C35.2988 60.3154 35.2988 60.3154 35.2988 60.3154L35.0918 60.1973Z" fill="#191719"/>
<path id="Vector_128" d="M76.1875 59.5C76.3945 59.6181 76.3945 59.6181 76.3945 59.6181L76.1875 59.5Z" fill="#1C1B1D"/>
<path id="Vector_129" d="M77.6367 55.665C77.8438 55.7831 77.8438 55.7831 77.8438 55.7831L77.6367 55.665Z" fill="#1E1E1D"/>
<path id="Vector_130" d="M30.0195 54.2705C30.2266 54.3886 30.2266 54.3886 30.2266 54.3886L30.0195 54.2705Z" fill="#1A1A1A"/>
<path id="Vector_131" d="M24.8438 52.9922C25.0508 53.1103 25.0508 53.1103 25.0508 53.1103L24.8438 52.9922Z" fill="#272525"/>
<path id="Vector_132" d="M29.916 37.7686C30.123 37.8867 30.123 37.8867 30.123 37.8867L29.916 37.7686Z" fill="#201F21"/>
<path id="Vector_133" d="M67.9062 25.1016C68.1133 25.2197 68.1133 25.2197 68.1133 25.2197L67.9062 25.1016Z" fill="#1C1B19"/>
<path id="Vector_134" d="M43.0625 21.3828C43.2695 21.5009 43.2695 21.5009 43.2695 21.5009L43.0625 21.3828Z" fill="#201F1F"/>
<path id="Vector_135" d="M57.1406 19.5234C57.3477 19.6415 57.3477 19.6415 57.3477 19.6415L57.1406 19.5234Z" fill="#1F1E1D"/>
<path id="Vector_136" d="M56.623 19.5234C56.8301 19.6415 56.8301 19.6415 56.8301 19.6415L56.623 19.5234Z" fill="#1E1D1D"/>
</g>
</g>
</svg>
