<svg width="307" height="119" viewBox="0 0 307 119" fill="none" xmlns="http://www.w3.org/2000/svg">
<g id="Group 236">
<path id="EasyPark" d="M111.25 60.625V64H99.1562V60.625H111.25ZM100.469 41.25V64H96.1719V41.25H100.469ZM109.672 50.6406V53.9375H99.1562V50.6406H109.672ZM111.203 41.25V44.6406H99.1562V41.25H111.203ZM123.234 60.4062V52.6094C123.234 52.0365 123.135 51.5417 122.938 51.125C122.74 50.7083 122.438 50.3854 122.031 50.1562C121.625 49.9271 121.109 49.8125 120.484 49.8125C119.932 49.8125 119.448 49.9062 119.031 50.0938C118.625 50.2812 118.312 50.5469 118.094 50.8906C117.875 51.224 117.766 51.6094 117.766 52.0469H113.625C113.625 51.349 113.792 50.6875 114.125 50.0625C114.458 49.4271 114.932 48.8646 115.547 48.375C116.172 47.875 116.917 47.4844 117.781 47.2031C118.656 46.9219 119.635 46.7812 120.719 46.7812C122 46.7812 123.141 47 124.141 47.4375C125.151 47.8646 125.943 48.5104 126.516 49.375C127.099 50.2396 127.391 51.3281 127.391 52.6406V60.0156C127.391 60.8594 127.443 61.5833 127.547 62.1875C127.661 62.7812 127.828 63.2969 128.047 63.7344V64H123.844C123.646 63.5729 123.495 63.0312 123.391 62.375C123.286 61.7083 123.234 61.0521 123.234 60.4062ZM123.812 53.7031L123.844 56.1562H121.234C120.589 56.1562 120.021 56.224 119.531 56.3594C119.042 56.4844 118.641 56.6719 118.328 56.9219C118.016 57.1615 117.781 57.4531 117.625 57.7969C117.469 58.1302 117.391 58.5104 117.391 58.9375C117.391 59.3542 117.484 59.7292 117.672 60.0625C117.87 60.3958 118.151 60.6615 118.516 60.8594C118.891 61.0469 119.328 61.1406 119.828 61.1406C120.557 61.1406 121.193 60.9948 121.734 60.7031C122.276 60.401 122.698 60.0365 123 59.6094C123.302 59.1823 123.464 58.776 123.484 58.3906L124.672 60.1719C124.526 60.599 124.307 61.0521 124.016 61.5312C123.724 62.0104 123.349 62.4583 122.891 62.875C122.432 63.2917 121.88 63.6354 121.234 63.9062C120.589 64.1771 119.839 64.3125 118.984 64.3125C117.891 64.3125 116.911 64.0938 116.047 63.6562C115.182 63.2188 114.5 62.6198 114 61.8594C113.5 61.099 113.25 60.2344 113.25 59.2656C113.25 58.3698 113.417 57.5781 113.75 56.8906C114.083 56.2031 114.578 55.625 115.234 55.1562C115.891 54.6771 116.703 54.3177 117.672 54.0781C118.651 53.8281 119.771 53.7031 121.031 53.7031H123.812ZM140.406 59.375C140.406 59.0208 140.312 58.7031 140.125 58.4219C139.938 58.1406 139.583 57.8854 139.062 57.6562C138.552 57.4167 137.802 57.1927 136.812 56.9844C135.938 56.7969 135.13 56.5625 134.391 56.2812C133.651 56 133.016 55.6615 132.484 55.2656C131.953 54.8594 131.536 54.3854 131.234 53.8438C130.943 53.2917 130.797 52.6562 130.797 51.9375C130.797 51.2396 130.948 50.5833 131.25 49.9688C131.552 49.3438 131.99 48.7969 132.562 48.3281C133.135 47.849 133.833 47.474 134.656 47.2031C135.479 46.9219 136.406 46.7812 137.438 46.7812C138.875 46.7812 140.109 47.0156 141.141 47.4844C142.182 47.9531 142.979 48.599 143.531 49.4219C144.083 50.2344 144.359 51.151 144.359 52.1719H140.234C140.234 51.724 140.13 51.3177 139.922 50.9531C139.724 50.5885 139.417 50.2969 139 50.0781C138.583 49.849 138.057 49.7344 137.422 49.7344C136.849 49.7344 136.365 49.8281 135.969 50.0156C135.583 50.2031 135.292 50.4479 135.094 50.75C134.896 51.0521 134.797 51.3854 134.797 51.75C134.797 52.0208 134.849 52.2656 134.953 52.4844C135.068 52.6927 135.25 52.8854 135.5 53.0625C135.75 53.2396 136.089 53.401 136.516 53.5469C136.953 53.6927 137.49 53.8333 138.125 53.9688C139.385 54.2188 140.484 54.5521 141.422 54.9688C142.37 55.375 143.109 55.9167 143.641 56.5938C144.172 57.2708 144.438 58.1354 144.438 59.1875C144.438 59.9375 144.276 60.625 143.953 61.25C143.63 61.8646 143.161 62.401 142.547 62.8594C141.932 63.3177 141.198 63.6771 140.344 63.9375C139.49 64.1875 138.526 64.3125 137.453 64.3125C135.901 64.3125 134.589 64.0365 133.516 63.4844C132.443 62.9219 131.63 62.2135 131.078 61.3594C130.526 60.4948 130.25 59.599 130.25 58.6719H134.203C134.234 59.3281 134.411 59.8542 134.734 60.25C135.057 60.6458 135.464 60.9323 135.953 61.1094C136.453 61.276 136.979 61.3594 137.531 61.3594C138.156 61.3594 138.682 61.276 139.109 61.1094C139.536 60.9323 139.859 60.6979 140.078 60.4062C140.297 60.1042 140.406 59.7604 140.406 59.375ZM152.531 62.125L157.062 47.0938H161.484L154.703 66.5625C154.547 66.9792 154.344 67.4323 154.094 67.9219C153.854 68.4115 153.531 68.875 153.125 69.3125C152.719 69.7604 152.208 70.125 151.594 70.4062C150.99 70.6875 150.255 70.8281 149.391 70.8281C149.016 70.8281 148.682 70.8021 148.391 70.75C148.099 70.6979 147.792 70.6302 147.469 70.5469V67.4531C147.573 67.4635 147.693 67.4688 147.828 67.4688C147.974 67.4792 148.099 67.4844 148.203 67.4844C148.807 67.4844 149.307 67.4115 149.703 67.2656C150.099 67.1302 150.417 66.9062 150.656 66.5938C150.906 66.2917 151.115 65.8958 151.281 65.4062L152.531 62.125ZM150.297 47.0938L154.125 59.5469L154.797 63.9062L151.953 64.4219L145.844 47.0938H150.297ZM172.547 55.7031H166.688V52.3281H172.547C173.505 52.3281 174.281 52.1719 174.875 51.8594C175.479 51.5365 175.922 51.099 176.203 50.5469C176.484 49.9844 176.625 49.3438 176.625 48.625C176.625 47.9271 176.484 47.276 176.203 46.6719C175.922 46.0677 175.479 45.5781 174.875 45.2031C174.281 44.8281 173.505 44.6406 172.547 44.6406H168.094V64H163.797V41.25H172.547C174.318 41.25 175.828 41.5677 177.078 42.2031C178.339 42.8281 179.297 43.6979 179.953 44.8125C180.62 45.9167 180.953 47.1771 180.953 48.5938C180.953 50.0625 180.62 51.3281 179.953 52.3906C179.297 53.4531 178.339 54.2708 177.078 54.8438C175.828 55.4167 174.318 55.7031 172.547 55.7031ZM193.141 60.4062V52.6094C193.141 52.0365 193.042 51.5417 192.844 51.125C192.646 50.7083 192.344 50.3854 191.938 50.1562C191.531 49.9271 191.016 49.8125 190.391 49.8125C189.839 49.8125 189.354 49.9062 188.938 50.0938C188.531 50.2812 188.219 50.5469 188 50.8906C187.781 51.224 187.672 51.6094 187.672 52.0469H183.531C183.531 51.349 183.698 50.6875 184.031 50.0625C184.365 49.4271 184.839 48.8646 185.453 48.375C186.078 47.875 186.823 47.4844 187.688 47.2031C188.562 46.9219 189.542 46.7812 190.625 46.7812C191.906 46.7812 193.047 47 194.047 47.4375C195.057 47.8646 195.849 48.5104 196.422 49.375C197.005 50.2396 197.297 51.3281 197.297 52.6406V60.0156C197.297 60.8594 197.349 61.5833 197.453 62.1875C197.568 62.7812 197.734 63.2969 197.953 63.7344V64H193.75C193.552 63.5729 193.401 63.0312 193.297 62.375C193.193 61.7083 193.141 61.0521 193.141 60.4062ZM193.719 53.7031L193.75 56.1562H191.141C190.495 56.1562 189.927 56.224 189.438 56.3594C188.948 56.4844 188.547 56.6719 188.234 56.9219C187.922 57.1615 187.688 57.4531 187.531 57.7969C187.375 58.1302 187.297 58.5104 187.297 58.9375C187.297 59.3542 187.391 59.7292 187.578 60.0625C187.776 60.3958 188.057 60.6615 188.422 60.8594C188.797 61.0469 189.234 61.1406 189.734 61.1406C190.464 61.1406 191.099 60.9948 191.641 60.7031C192.182 60.401 192.604 60.0365 192.906 59.6094C193.208 59.1823 193.37 58.776 193.391 58.3906L194.578 60.1719C194.432 60.599 194.214 61.0521 193.922 61.5312C193.63 62.0104 193.255 62.4583 192.797 62.875C192.339 63.2917 191.786 63.6354 191.141 63.9062C190.495 64.1771 189.745 64.3125 188.891 64.3125C187.797 64.3125 186.818 64.0938 185.953 63.6562C185.089 63.2188 184.406 62.6198 183.906 61.8594C183.406 61.099 183.156 60.2344 183.156 59.2656C183.156 58.3698 183.323 57.5781 183.656 56.8906C183.99 56.2031 184.484 55.625 185.141 55.1562C185.797 54.6771 186.609 54.3177 187.578 54.0781C188.557 53.8281 189.677 53.7031 190.938 53.7031H193.719ZM205.141 50.5469V64H201.016V47.0938H204.922L205.141 50.5469ZM210.281 46.9844L210.219 50.8281C209.99 50.7865 209.729 50.7552 209.438 50.7344C209.156 50.7135 208.891 50.7031 208.641 50.7031C208.005 50.7031 207.448 50.7917 206.969 50.9688C206.49 51.1354 206.089 51.3802 205.766 51.7031C205.453 52.026 205.214 52.4219 205.047 52.8906C204.88 53.349 204.786 53.8698 204.766 54.4531L203.875 54.3438C203.875 53.2708 203.984 52.276 204.203 51.3594C204.422 50.4427 204.74 49.6406 205.156 48.9531C205.573 48.2656 206.094 47.7344 206.719 47.3594C207.354 46.974 208.083 46.7812 208.906 46.7812C209.135 46.7812 209.38 46.8021 209.641 46.8438C209.911 46.875 210.125 46.9219 210.281 46.9844ZM216.672 39.9844V64H212.547V39.9844H216.672ZM227.266 47.0938L219.906 55.3594L215.922 59.4062L214.609 56.2031L217.688 52.3281L222.281 47.0938H227.266ZM223.047 64L217.812 56.125L220.562 53.4531L227.828 64H223.047Z" fill="black"/>
<g id="Black Logo 1">
<path id="Vector" d="M56.8223 19.4073C57.0988 19.4292 57.3752 19.4509 57.6517 19.4726C57.7723 19.4824 57.8929 19.4921 58.0172 19.5021C58.2249 19.5168 58.4332 19.5235 58.6414 19.5235C58.6414 19.6002 58.6414 19.6769 58.6414 19.7559C58.8696 19.7785 59.0978 19.8001 59.3261 19.8213C59.4532 19.8334 59.5803 19.8455 59.7112 19.858C60.0289 19.9002 60.0289 19.9002 60.2524 19.7559C60.2879 19.8326 60.3233 19.9093 60.3598 19.9883C60.6045 20.0881 60.6045 20.0881 60.9065 20.1694C61.0228 20.2041 61.139 20.2388 61.2588 20.2745C61.3853 20.3119 61.5117 20.3493 61.6419 20.3878C63.0762 20.8272 64.4197 21.4072 65.7808 22.0674C66.0481 22.1944 66.3181 22.3117 66.5891 22.4288C66.9631 22.6311 67.31 22.8846 67.6632 23.126C67.7723 23.1993 67.8814 23.2725 67.9938 23.348C69.412 24.3085 70.7343 25.3777 71.9592 26.6123C72.1087 26.7534 72.2586 26.8938 72.409 27.0336C74.102 28.6383 75.4468 30.6761 76.5775 32.7715C76.6627 32.929 76.6627 32.929 76.7495 33.0897C77.1145 33.7814 77.1145 33.7814 77.1145 34.0498C77.1854 34.0882 77.2563 34.1265 77.3293 34.1661C77.4058 34.3966 77.4759 34.6297 77.5441 34.8633C77.6835 35.2524 77.8283 35.639 77.9737 36.0254C78.0446 36.0254 78.1155 36.0254 78.1885 36.0254C78.2056 36.2191 78.2056 36.2191 78.2229 36.4167C78.2914 37.0082 78.4452 37.5626 78.6047 38.1318C79.0397 39.688 79.3132 41.2251 79.4438 42.8456C79.4506 42.9269 79.4573 43.0082 79.4643 43.092C79.6374 45.1946 79.591 47.2016 79.399 49.3016C79.3508 49.8343 79.3068 50.3674 79.2626 50.9004C79.3353 50.9289 79.4081 50.9574 79.4831 50.9868C85.1631 53.231 85.1631 53.231 86.568 56.0005C86.8865 56.7433 86.8863 57.631 86.711 58.4183C85.9694 60.6098 83.908 61.8175 82.0535 62.7537C78.853 64.3078 75.0705 65.5102 71.5731 65.8743C71.3226 65.9005 71.3226 65.9005 70.9926 66.0079C70.8784 66.2721 70.8784 66.2721 70.7778 66.5889C70.6608 66.8116 70.5395 67.0316 70.4149 67.2494C70.3431 67.3755 70.2712 67.5015 70.1972 67.6314C70.12 67.7657 70.0428 67.9 69.9656 68.0343C69.8863 68.1729 69.807 68.3115 69.7277 68.4501C69.2381 69.305 68.7422 70.1551 68.2357 70.9985C67.9064 71.5489 67.5803 72.1015 67.2537 72.6537C67.1416 72.8432 67.1416 72.8432 67.0272 73.0365C66.5363 73.8669 66.0482 74.699 65.5624 75.5329C64.708 76.9991 63.8501 78.463 62.9778 79.9168C62.5181 80.6828 62.0657 81.4535 61.6157 82.2261C60.7132 83.7756 59.8057 85.3214 58.8823 86.8564C58.4643 87.554 58.0597 88.2603 57.6546 88.9668C56.8319 90.4003 55.9699 91.8029 55.0971 93.2012C54.5096 92.9106 54.241 92.4196 53.9359 91.8212C53.3608 90.7346 52.7114 89.6981 52.0748 88.653C51.8064 88.206 51.548 87.7524 51.2909 87.2976C51.1261 87.0141 51.1261 87.0141 50.8011 86.8096C50.8011 86.6946 50.8011 86.5795 50.8011 86.461C50.6879 86.2407 50.5659 86.0256 50.4386 85.8146C50.3713 85.7018 50.304 85.589 50.2347 85.4727C50.0589 85.1792 50.0589 85.1792 49.8344 84.9502C49.5122 84.4139 49.5122 84.4139 49.5122 84.1368C49.4059 84.1368 49.2996 84.1368 49.19 84.1368C49.1834 84.0577 49.1767 83.9786 49.1699 83.8971C49.067 83.4946 48.8947 83.2478 48.6593 82.9224C48.5456 82.7422 48.5456 82.7422 48.5456 82.5098C48.4393 82.5098 48.333 82.5098 48.2234 82.5098C48.2113 82.424 48.1991 82.3382 48.1866 82.2497C48.114 81.9194 48.019 81.7214 47.8454 81.4412C47.7894 81.3496 47.7334 81.258 47.6757 81.1636C47.615 81.0662 47.5543 80.9687 47.4917 80.8683C47.3635 80.6588 47.2354 80.4493 47.1074 80.2396C47.0099 80.0805 47.0099 80.0805 46.9105 79.9182C46.6241 79.4471 46.3459 78.9706 46.0687 78.4933C46.0167 78.4041 45.9648 78.315 45.9112 78.2231C45.6314 77.7427 45.353 77.2614 45.0752 76.7796C45.0168 76.6786 44.9584 76.5777 44.8982 76.4737C44.7861 76.28 44.6744 76.0861 44.5631 75.8919C44.4874 75.7612 44.4874 75.7612 44.4102 75.6279C44.3661 75.5513 44.322 75.4747 44.2766 75.3957C44.1464 75.1824 44.1464 75.1824 43.9699 75.0023C43.8199 74.8399 43.8199 74.8399 43.7306 74.5916C43.5445 74.0979 43.2666 73.6775 42.9943 73.2347C42.4538 72.3456 41.9238 71.4504 41.4034 70.5473C41.3366 70.4317 41.2698 70.3161 41.201 70.197C40.8628 69.6102 40.5277 69.0217 40.1968 68.4301C40.1332 68.317 40.0696 68.2039 40.004 68.0874C39.8834 67.8725 39.7635 67.6572 39.6445 67.4412C39.564 67.2982 39.564 67.2982 39.4819 67.1523C39.4354 67.0684 39.3888 66.9845 39.3408 66.8981C39.2026 66.6697 39.2026 66.6697 38.8795 66.5889C38.8795 66.4355 38.8795 66.2821 38.8795 66.1241C38.763 66.0999 38.6466 66.0758 38.5266 66.051C26.4296 63.5096 26.4296 63.5096 23.4555 59.4061C23.307 59.1528 23.2481 58.9787 23.1988 58.6866C23.1666 58.5479 23.1666 58.5479 23.1338 58.4065C22.909 57.2984 22.9926 56.4403 23.5411 55.4617C25.0651 53.0873 27.9881 51.7417 30.5021 51.0166C30.6084 51.0166 30.7148 51.0166 30.8243 51.0166C30.8023 50.8845 30.7803 50.7524 30.7576 50.6163C30.7283 50.435 30.6991 50.2537 30.6699 50.0724C30.6555 49.9863 30.641 49.9002 30.6261 49.8114C30.3968 48.3712 30.3692 46.9113 30.3679 45.453C30.3677 45.3701 30.3676 45.2872 30.3675 45.2017C30.3695 42.9438 30.6429 40.7728 31.1465 38.5821C31.0756 38.5437 31.0048 38.5054 30.9317 38.4659C31.0026 38.3508 31.0735 38.2358 31.1465 38.1172C31.3304 37.7692 31.4327 37.4104 31.5382 37.0273C32.3397 34.1819 33.7214 31.5894 35.4426 29.2852C35.5642 29.1139 35.685 28.942 35.8051 28.7695C35.8569 28.6954 35.9086 28.6212 35.962 28.5448C36.0943 28.355 36.0943 28.355 36.1944 28.1231C36.3636 27.9685 36.5329 27.8141 36.7029 27.6605C36.9403 27.4315 37.1621 27.1905 37.3834 26.9434C38.1147 26.1287 38.8984 25.4315 39.7387 24.753C39.797 24.7048 39.8553 24.6566 39.9155 24.607C42.9779 22.0804 46.5339 20.5465 50.2797 19.6929C50.4871 19.6458 50.4871 19.6458 50.6937 19.5235C50.92 19.4974 51.147 19.4778 51.3742 19.4613C51.513 19.4512 51.6519 19.4411 51.795 19.4306C51.8678 19.4256 51.9406 19.4206 52.0157 19.4154C52.233 19.4003 52.4503 19.3842 52.6676 19.368C54.0672 19.2686 55.424 19.2935 56.8223 19.4073ZM30.4685 54.5248C30.3883 54.5698 30.3081 54.6148 30.2254 54.6612C29.4908 55.0834 28.8554 55.5415 28.4615 56.3623C28.3309 56.8916 28.3265 57.3001 28.4615 57.8295C29.7056 60.1012 32.8035 60.804 34.9928 61.4113C35.0703 61.4326 35.1479 61.4538 35.2278 61.4756C35.2939 61.4943 35.3601 61.513 35.4282 61.5322C35.9602 61.6706 36.4988 61.7779 37.0356 61.8921C37.1847 61.924 37.3337 61.9562 37.4826 61.9888C38.4471 62.1998 39.3982 62.3523 40.3831 62.4053C40.3831 62.4437 40.3831 62.482 40.3831 62.5215C40.6314 62.5409 40.8798 62.5603 41.1282 62.5796C41.2665 62.5904 41.4048 62.6012 41.5473 62.6123C41.7705 62.6306 41.7705 62.6306 41.9941 62.6377C42.0296 62.6761 42.065 62.7144 42.1015 62.7539C42.3898 62.7964 42.6764 62.8319 42.9658 62.8629C43.055 62.8728 43.1442 62.8826 43.2361 62.8928C43.5291 62.9247 43.8222 62.9557 44.1153 62.9864C44.2148 62.9969 44.3143 63.0074 44.4168 63.0183C46.1517 63.2002 47.8763 63.3098 49.6196 63.335C49.7078 63.3368 49.796 63.3385 49.8869 63.3403C50.7357 63.3568 51.5686 63.325 52.4121 63.2188C52.4121 63.2955 52.4121 63.3722 52.4121 63.4512C54.0779 63.4512 55.7437 63.4512 57.46 63.4512C57.46 63.4129 57.46 63.3745 57.46 63.335C57.779 63.335 58.0979 63.335 58.4266 63.335C58.4266 63.3734 58.4266 63.4117 58.4266 63.4512C58.7101 63.4512 58.9937 63.4512 59.2858 63.4512C59.2858 63.3745 59.2858 63.2978 59.2858 63.2188C59.3567 63.2571 59.4276 63.2955 59.5006 63.335C59.7862 63.3476 60.068 63.3528 60.3535 63.3513C60.4398 63.351 60.526 63.3507 60.6148 63.3504C61.569 63.3416 62.517 63.2714 63.4678 63.1897C63.5597 63.182 63.6516 63.1743 63.7463 63.1664C67.1203 62.8823 70.4683 62.4488 73.7851 61.708C73.7851 61.6313 73.7851 61.5546 73.7851 61.4756C73.9007 61.4828 74.0163 61.49 74.1354 61.4974C74.7548 61.4962 75.3216 61.3116 75.913 61.127C76.031 61.0904 76.1489 61.0539 76.2705 61.0162C79.1776 60.0929 79.1776 60.0929 81.3149 57.9035C81.5382 57.2901 81.4819 56.791 81.2629 56.188C81.1143 55.887 81.1143 55.887 80.8736 55.7813C80.8027 55.6758 80.7318 55.5704 80.6588 55.4617C80.3407 55.0315 79.9453 54.8425 79.4891 54.6169C79.2626 54.503 79.2626 54.503 79.1552 54.3868C79.0109 54.3231 78.8652 54.263 78.7188 54.2052C78.6401 54.1739 78.5613 54.1426 78.4801 54.1103C78.4193 54.0865 78.3586 54.0627 78.2959 54.0381C78.2597 54.125 78.2234 54.2119 78.186 54.3014C78.1381 54.4159 78.0902 54.5303 78.0409 54.6482C77.9698 54.8181 77.9698 54.8181 77.8974 54.9914C77.8201 55.1728 77.7416 55.3537 77.6587 55.5321C77.555 55.7575 77.4578 55.9846 77.3616 56.2139C76.1353 59.1221 76.1353 59.1221 75.3085 59.4646C69.9863 61.3316 63.9645 61.445 58.4266 61.5918C58.2696 61.5961 58.2696 61.5961 58.1094 61.6004C57.3813 61.6199 56.6531 61.6383 55.925 61.6556C55.6778 61.6615 55.4307 61.6676 55.1835 61.6738C54.8353 61.6825 54.4871 61.6904 54.1389 61.6981C54.0328 61.7008 53.9267 61.7036 53.8173 61.7065C53.7201 61.7084 53.6229 61.7104 53.5227 61.7124C53.4375 61.7144 53.3523 61.7164 53.2645 61.7184C53.0565 61.708 53.0565 61.708 52.8417 61.5918C52.6903 61.5772 52.5384 61.5692 52.3864 61.5647C52.2911 61.5615 52.1957 61.5584 52.0975 61.5551C51.9928 61.5521 51.8881 61.5491 51.7803 61.546C51.5532 61.5383 51.3261 61.5305 51.099 61.5227C50.918 61.5166 50.918 61.5166 50.7334 61.5104C45.8065 61.3397 40.8036 61.0162 35.9796 59.8487C35.8856 59.8295 35.7916 59.8103 35.6947 59.7906C35.4033 59.7234 35.1273 59.6327 34.8452 59.5291C34.7454 59.4937 34.6455 59.4584 34.5427 59.422C33.9411 59.0921 33.6679 58.4033 33.355 57.7859C33.3129 57.7039 33.2708 57.6219 33.2275 57.5374C33.1062 57.3009 32.9856 57.0641 32.865 56.8272C32.7554 56.6141 32.6457 56.401 32.536 56.188C32.4666 56.0525 32.3972 55.9169 32.3279 55.7813C32.2571 55.7813 32.1862 55.7813 32.1131 55.7813C32.0128 55.4315 32.001 55.332 32.1131 54.9678C32.0327 54.7235 32.0327 54.7235 31.905 54.4812C31.8642 54.398 31.8234 54.3149 31.7813 54.2292C31.749 54.1662 31.7168 54.1031 31.6835 54.0381C31.2089 54.0381 30.8808 54.2856 30.4685 54.5248ZM32.1131 55.3164C32.2205 55.5489 32.2205 55.5489 32.2205 55.5489L32.1131 55.3164Z" fill="#010100"/>
<path id="Vector_2" d="M52.5026 33.315C52.8732 33.3166 53.2438 33.316 53.6144 33.3154C58.0546 33.3101 62.0552 33.5623 65.6044 36.7594C66.0048 37.0958 66.4414 37.3088 66.9091 37.5125C67.2838 37.6763 67.4316 37.7415 67.6631 38.1171C67.6765 38.4876 67.6765 38.4876 67.6631 38.8144C67.2442 39.1166 66.8603 39.0644 66.3742 39.0468C66.3742 39.1235 66.3742 39.2002 66.3742 39.2792C66.4993 39.2756 66.4993 39.2756 66.6268 39.2719C67.008 39.2622 67.3892 39.2561 67.7705 39.2502C67.9016 39.2463 68.0327 39.2424 68.1678 39.2384C68.8524 39.2304 69.3544 39.2486 69.9463 39.6328C70.2533 39.8155 70.5747 39.8406 70.9187 39.8894C71.6325 40.0112 72.2735 40.2407 72.9392 40.543C73.0244 40.5811 73.1096 40.6192 73.1973 40.6585C73.8652 40.9735 74.4735 41.3732 74.859 42.0683C74.859 42.1834 74.859 42.2984 74.859 42.4169C74.221 42.4169 73.583 42.4169 72.9258 42.4169C73.6102 43.2676 73.6102 43.2676 74.5099 43.7388C74.8894 43.4879 74.9577 43.0976 75.0738 42.6494C75.957 43.4717 76.2373 45.2842 76.3626 46.4843C76.5025 49.493 76.5025 49.493 76.0404 50.6679C75.3104 51.1945 74.2621 51.1792 73.4032 51.2571C73.2391 51.2722 73.2391 51.2722 73.0718 51.2875C72.7055 51.3199 72.3391 51.3502 71.9726 51.3797C71.8441 51.3901 71.7156 51.4004 71.5832 51.4111C69.0544 51.6066 66.5283 51.6426 63.9937 51.6413C63.7005 51.6412 63.4073 51.6415 63.114 51.6418C61.1672 51.6425 59.2249 51.6153 57.2812 51.49C57.1712 51.483 57.1712 51.483 57.0589 51.4758C53.588 51.247 53.588 51.247 52.6268 50.9003C52.6258 50.791 52.6248 50.6816 52.6238 50.569C52.6837 46.5287 52.6837 46.5287 51.0581 43.0207C50.6801 42.6457 50.5229 42.5302 50.0022 42.5404C49.4196 42.7063 49.2217 42.9878 48.9177 43.5178C47.7639 45.7968 48.0402 48.4196 48.3307 50.9003C45.7424 50.6545 42.8332 50.1923 40.4904 48.9248C40.4981 48.8481 40.5059 48.7714 40.5139 48.6923C40.7295 46.2035 40.8588 43.5487 39.5238 41.371C39.2405 41.0942 39.1151 41.0266 38.7317 40.9498C38.2621 41.0374 38.1249 41.1646 37.8431 41.5649C37.3152 42.5504 37.1462 43.6606 37.1504 44.7838C37.1507 44.9023 37.1507 44.9023 37.1509 45.0232C37.1515 45.273 37.1528 45.5227 37.1542 45.7725C37.1548 45.9429 37.1552 46.1133 37.1557 46.2837C37.1569 46.6992 37.1587 47.1147 37.1609 47.5302C36.6254 47.4768 36.231 47.4237 35.7647 47.1162C35.6827 47.0633 35.6008 47.0105 35.5163 46.956C35.4565 46.9154 35.3967 46.8748 35.3351 46.833C35.4109 47.2046 35.4109 47.2046 35.716 47.36C35.8296 47.4186 35.9431 47.4771 36.0601 47.5375C36.1725 47.5964 36.2849 47.6552 36.4007 47.7159C36.6873 47.8572 36.9747 47.9883 37.2683 48.1113C37.2683 48.2647 37.2683 48.4181 37.2683 48.5761C36.1327 48.3779 35.2988 47.849 34.5573 46.8924C33.7012 45.5689 33.5579 44.0885 33.7736 42.5223C34.0363 41.4653 34.576 40.6517 35.4425 40.0927C35.5134 40.0927 35.5843 40.0927 35.6573 40.0927C35.6353 40.1769 35.6133 40.2611 35.5906 40.3478C35.5617 40.4602 35.5327 40.5725 35.5029 40.6883C35.4743 40.7989 35.4456 40.9094 35.4161 41.0233C35.1385 42.2152 35.0243 43.6869 35.4425 44.8574C35.6304 45.2115 35.6304 45.2115 35.8721 45.4384C35.9784 45.4384 36.0848 45.4384 36.1943 45.4384C36.1991 45.3542 36.204 45.27 36.2089 45.1832C36.2319 44.7936 36.2567 44.4043 36.2816 44.0148C36.2891 43.8824 36.2967 43.75 36.3044 43.6136C36.4138 41.9472 36.7071 40.4632 37.8574 39.2779C38.5441 38.6906 39.3493 38.2151 40.1682 37.8847C39.6074 37.8578 39.145 37.9432 38.6176 38.1348C38.5441 38.1604 38.4707 38.1859 38.395 38.2122C38.1623 38.2932 37.9301 38.3757 37.6979 38.4585C37.4657 38.5407 37.2334 38.6225 37.0008 38.7036C36.8568 38.7539 36.713 38.8048 36.5694 38.8565C36.1204 39.0139 35.6943 39.1036 35.2277 39.163C35.512 38.7961 35.8726 38.6217 36.2669 38.4267C36.3379 38.3913 36.4088 38.3559 36.4819 38.3194C37.2691 37.9355 38.0801 37.6388 38.8995 37.3472C40.8944 36.6346 40.8944 36.6346 42.7353 35.556C45.8397 33.4296 48.9344 33.2947 52.5026 33.315Z" fill="#FFFEC7"/>
<path id="Vector_3" d="M50.7327 34.3789C50.8415 34.3785 50.9503 34.378 51.0623 34.3775C51.416 34.3764 51.7698 34.3764 52.1235 34.3767C52.2439 34.3767 52.3642 34.3767 52.4882 34.3767C53.9933 34.3779 55.4945 34.3975 56.9969 34.5002C57.1314 34.5093 57.266 34.5184 57.4046 34.5278C60.4862 34.7642 62.8006 35.7259 65.2074 37.8302C65.5166 38.0938 65.8372 38.3377 66.1596 38.5821C66.1241 38.7738 66.0887 38.9656 66.0522 39.1631C65.9291 39.1597 65.806 39.1562 65.6792 39.1527C63.2915 39.087 60.9048 39.039 58.5163 39.0389C58.1606 39.0387 57.8049 39.038 57.4493 39.037C57.2728 39.0366 57.2728 39.0366 57.0927 39.0361C56.8553 39.0354 56.6179 39.0348 56.3806 39.0341C55.7746 39.0325 55.1686 39.0326 54.5626 39.0353C53.9607 39.0379 53.3588 39.0366 52.7569 39.0327C52.5311 39.0319 52.3053 39.0325 52.0795 39.0347C51.768 39.0375 51.457 39.0353 51.1455 39.0319C51.0543 39.0339 50.9632 39.0359 50.8692 39.038C50.495 39.0295 50.2533 39.0171 49.9586 38.7535C49.5082 38.1957 49.2235 37.5637 48.935 36.897C48.8867 36.7911 48.8384 36.6852 48.7886 36.5761C48.5273 35.9806 48.3512 35.5249 48.4383 34.8633C49.0553 34.2742 49.9578 34.38 50.7327 34.3789Z" fill="#010000"/>
<path id="Vector_4" d="M61.7629 45.9978C61.901 45.9953 61.901 45.9953 62.0419 45.9928C62.3402 46.0151 62.5847 46.065 62.8736 46.1366C63.746 46.3102 64.6234 46.2778 65.5071 46.2695C65.8294 46.2665 66.1517 46.265 66.474 46.2639C67.1568 46.2612 67.8396 46.2567 68.5225 46.252C69.3171 46.2465 70.1117 46.2418 70.9063 46.239C71.2239 46.2375 71.5416 46.2346 71.8592 46.2316C72.053 46.2308 72.2468 46.23 72.4405 46.2293C72.5731 46.2275 72.5731 46.2275 72.7083 46.2257C73.1248 46.2256 73.3229 46.2285 73.6778 46.4844C73.8337 47.2817 73.5941 48.0322 73.2171 48.7083C72.861 49.2657 72.5221 49.5618 71.9593 49.8545C71.853 49.9121 71.853 49.9121 71.7445 49.9708C69.2107 50.4141 65.0024 50.9852 62.8251 49.3398C62.005 48.5867 61.1609 47.535 60.6821 46.4844C60.7176 46.3694 60.753 46.2543 60.7895 46.1358C61.1073 46.0027 61.4249 46.0005 61.7629 45.9978Z" fill="#080604"/>
<path id="Vector_5" d="M50.8011 43.6953C51.6701 44.4051 51.9817 45.7245 52.1556 46.8292C52.2285 47.4452 52.2338 48.0576 52.2309 48.6779C52.2302 48.8773 52.2302 48.8773 52.2295 49.0807C52.2131 50.4048 52.1147 51.8446 51.2508 52.876C50.8944 53.0523 50.6516 53.05 50.2641 52.9922C49.4117 52.4573 49.1339 51.4274 48.888 50.4428C48.5459 48.5215 48.414 45.9631 49.4078 44.2496C49.8222 43.6201 50.0879 43.4558 50.8011 43.6953Z" fill="#FFFEC7"/>
<path id="Vector_6" d="M46.5051 34.856C47.543 35.6281 48.1366 36.804 48.3757 38.1337C48.4279 38.5239 48.4496 38.7806 48.3242 39.1558C48.0546 39.4664 47.8571 39.4839 47.4717 39.5117C47.1759 38.9444 47.0451 38.4014 46.9347 37.7685C45.515 37.7017 44.2356 37.8837 42.8534 38.2334C42.8534 38.3101 42.8534 38.3868 42.8534 38.4658C44.0584 38.4658 45.2635 38.4658 46.5051 38.4658C46.1114 38.8917 45.5926 38.8282 45.0648 38.8306C44.9773 38.8303 44.8898 38.8301 44.7996 38.8299C44.7084 38.83 44.6173 38.8301 44.5233 38.8302C44.3311 38.8303 44.1389 38.8301 43.9467 38.8296C43.6528 38.829 43.359 38.8296 43.0651 38.8303C42.878 38.8302 42.691 38.8301 42.5039 38.8299C42.4162 38.8301 42.3285 38.8303 42.2381 38.8306C41.8523 38.8289 41.5062 38.811 41.135 38.6982C41.1252 38.5764 41.1252 38.5764 41.1153 38.4522C41.1063 38.3464 41.0973 38.2407 41.088 38.1317C41.0793 38.0265 41.0705 37.9214 41.0616 37.813C41.0415 37.5348 41.0415 37.5348 40.9202 37.3037C40.9758 37.2727 41.0314 37.2418 41.0887 37.2099C42.3725 36.5026 42.3725 36.5026 43.6052 35.6985C44.5273 35.0458 45.3922 34.4797 46.5051 34.856Z" fill="#040300"/>
<path id="Vector_7" d="M38.9063 41.8359C39.364 42.016 39.592 42.323 39.846 42.7656C40.563 44.5576 40.68 46.9638 40.0608 48.8086C39.7395 49.6344 39.7395 49.6344 39.4164 49.8545C39.085 49.8704 38.876 49.8171 38.6021 49.6094C37.6863 48.636 37.6736 47.1654 37.6535 45.8707C37.6525 45.7145 37.6517 45.5583 37.651 45.4022C37.6494 45.1778 37.6494 45.1778 37.6477 44.9489C37.6569 43.8624 37.7017 42.7616 38.4498 41.9521C38.6646 41.8359 38.6646 41.8359 38.9063 41.8359Z" fill="#FFFEC7"/>
<path id="Vector_8" d="M54.1306 41.3711C55.5873 41.4608 57.0352 41.8373 58.4611 42.1481C58.8653 42.2359 59.2697 42.3221 59.6741 42.4081C59.9331 42.4641 60.192 42.5202 60.4509 42.5763C60.5709 42.6018 60.6908 42.6272 60.8144 42.6534C61.4166 42.786 61.9548 42.9388 62.5079 43.2305C62.4005 43.5791 62.4005 43.5791 62.2159 43.7154C61.923 43.8303 61.6922 43.8397 61.3806 43.8383C61.2622 43.8382 61.1438 43.838 61.0219 43.8379C60.8942 43.8364 60.7666 43.8349 60.6351 43.8333C60.503 43.8324 60.371 43.8315 60.2349 43.8305C59.2516 43.821 58.2685 43.7991 57.2855 43.7679C57.0939 43.7626 57.0939 43.7626 56.8985 43.7571C55.0247 43.6875 55.0247 43.6875 54.5669 43.2756C54.2663 42.9215 54.0191 42.5406 53.9158 42.0684C53.9708 41.5439 53.9708 41.5439 54.1306 41.3711Z" fill="#030301"/>
<path id="Vector_9" d="M50.4789 44.9736C50.7205 44.9736 50.7205 44.9736 51.0159 45.0898C51.9565 46.6165 51.9292 48.7408 51.6293 50.4809C51.521 50.9108 51.3546 51.2306 51.1233 51.5977C50.7587 51.5757 50.6152 51.5137 50.3581 51.2272C49.6098 49.8319 49.6467 47.6787 49.9754 46.1503C50.0877 45.7095 50.2513 45.3586 50.4789 44.9736Z" fill="#030200"/>
<path id="Vector_10" d="M35.3352 40.4414C35.3127 40.5427 35.3127 40.5427 35.2897 40.6461C35.1263 41.4402 35.0811 42.2005 35.0802 43.0126C35.0775 43.1326 35.0749 43.2526 35.0722 43.3762C35.0698 44.0537 35.1249 44.5459 35.447 45.1334C35.55 45.3223 35.55 45.3223 35.6574 45.6709C36.0021 45.7123 36.1504 45.7053 36.4361 45.4821C36.6589 45.1549 36.6978 44.9094 36.7315 44.5088C36.7669 44.5088 36.8023 44.5088 36.8389 44.5088C36.8743 45.4675 36.9097 46.4263 36.9463 47.4141C35.7648 46.9492 35.7648 46.9492 35.55 46.7168C35.3278 46.6421 35.3278 46.6421 35.1204 46.6006C35.1559 46.8307 35.1913 47.0608 35.2278 47.2979C34.5628 46.64 34.1612 45.8747 33.8316 44.9736C33.7962 44.9736 33.7607 44.9736 33.7242 44.9736C33.6797 43.3365 33.6777 41.9984 34.6908 40.6738C35.013 40.4414 35.013 40.4414 35.3352 40.4414Z" fill="#FFFEC7"/>
<path id="Vector_11" d="M56.5336 53.1447C58.9213 53.6681 61.3239 53.886 63.7487 54.0943C64.4721 54.1565 65.195 54.2235 65.9178 54.2923C66.0207 54.302 66.1236 54.3118 66.2296 54.3218C66.4568 54.3434 66.6841 54.365 66.9113 54.3867C66.9113 54.425 66.9113 54.4634 66.9113 54.5029C62.6894 54.8894 58.6638 54.8168 54.5601 53.5732C54.4629 53.5446 54.3657 53.5161 54.2656 53.4866C54.1678 53.4568 54.0701 53.4269 53.9694 53.3962C53.8797 53.369 53.7899 53.3418 53.6975 53.3138C53.4861 53.2246 53.4861 53.2246 53.3787 52.9922C54.3988 52.6242 55.5122 52.9203 56.5336 53.1447Z" fill="#FFFEC7"/>
<path id="Vector_12" d="M58.0842 47.8426C58.1927 47.8488 58.3011 47.855 58.4129 47.8614C58.9226 47.9033 59.208 47.9325 59.6256 48.2688C59.8851 48.6734 59.897 48.9076 59.8228 49.3896C59.4927 49.7492 59.2325 49.7829 58.7743 49.7846C58.6541 49.785 58.5338 49.7855 58.41 49.7859C58.2847 49.7846 58.1595 49.7832 58.0305 49.7819C57.9073 49.7832 57.7842 49.7845 57.6573 49.7859C56.8903 49.7831 56.0731 49.7747 55.45 49.2282C55.3119 49.041 55.3119 49.041 55.2649 48.6415C55.3119 48.2275 55.3119 48.2275 55.4596 47.9443C56.1542 47.4969 57.3018 47.7803 58.0842 47.8426Z" fill="#030200"/>
<path id="Vector_13" d="M39.0942 42.7656C39.6984 43.3631 39.9141 44.0665 39.9753 44.9364C39.9882 45.288 39.9932 45.6385 39.9937 45.9905C39.9939 46.1617 39.9939 46.1617 39.9942 46.3363C39.9828 47.1424 39.9477 47.8882 39.5238 48.5762C39.2754 48.5762 39.2754 48.5762 38.9868 48.46C38.3174 47.2313 38.3695 45.1782 38.6495 43.8329C38.7481 43.5424 38.8526 43.271 38.9868 42.998C39.0222 42.9213 39.0577 42.8446 39.0942 42.7656Z" fill="#030200"/>
<path id="Vector_14" d="M50.6937 43.8116C51.2653 44.3057 51.5783 45.0371 51.7677 45.7872C51.7786 46.1131 51.7786 46.1131 51.7677 46.3682C51.5392 45.9972 51.3443 45.6152 51.1468 45.2243C51.0397 45.0193 50.9218 44.821 50.8011 44.6251C50.5449 44.6102 50.5449 44.6102 50.2641 44.7413C49.6205 45.6879 49.5778 46.8676 49.5794 47.9952C49.5797 48.187 49.5797 48.187 49.5799 48.3827C49.5997 49.8119 49.7215 51.1268 50.6937 52.1788C50.3442 52.1473 50.1869 52.0933 49.9285 51.8301C49.0114 50.2424 49.0055 47.977 49.3176 46.1866C49.4635 45.5288 49.6785 45.0511 50.0493 44.5088C49.7584 44.7831 49.6358 45.0434 49.4989 45.4313C49.4453 45.5803 49.4453 45.5803 49.3906 45.7322C49.2298 46.2284 49.1728 46.6634 49.1561 47.1908C49.1516 47.3256 49.1471 47.4604 49.1425 47.5993C49.1383 47.7395 49.134 47.8798 49.1297 48.0242C49.125 48.1662 49.1204 48.3083 49.1156 48.4546C49.1042 48.805 49.0933 49.1555 49.0827 49.5059C48.9764 49.5059 48.87 49.5059 48.7605 49.5059C48.7574 48.9757 48.7555 48.4455 48.7538 47.9153C48.7529 47.765 48.752 47.6146 48.751 47.4597C48.7507 47.3148 48.7504 47.1699 48.75 47.0205C48.7492 46.8206 48.7492 46.8206 48.7483 46.6167C48.7594 46.2838 48.7827 45.9909 48.8679 45.671C48.9388 45.6326 49.0097 45.5943 49.0827 45.5547C49.2011 45.2363 49.2961 44.9124 49.3944 44.586C49.5108 44.2804 49.5958 44.1284 49.8345 43.9278C50.3491 43.7422 50.3491 43.7422 50.6937 43.8116Z" fill="#FFFEC7"/>
<path id="Vector_15" d="M46.7198 33.7012C46.7198 33.7779 46.7198 33.8546 46.7198 33.9336C46.5705 33.9799 46.5705 33.9799 46.4182 34.0271C46.2896 34.0682 46.161 34.1092 46.0284 34.1515C45.9001 34.1919 45.7718 34.2324 45.6395 34.2741C45.3111 34.359 45.3111 34.359 45.2162 34.6309C45.294 34.6255 45.3718 34.6201 45.452 34.6145C46.1181 34.5876 46.5278 34.5898 47.0421 35.0957C47.4871 35.5846 47.8918 36.0706 48.1161 36.7227C48.0629 36.8952 48.0629 36.8952 48.0087 37.0713C47.9721 36.9884 47.9356 36.9056 47.8979 36.8203C47.5019 35.9734 47.0531 35.1772 46.1828 34.8633C45.5054 34.8077 45.0896 34.9224 44.498 35.27C44.4239 35.3118 44.3498 35.3536 44.2734 35.3966C43.6784 35.7372 43.1067 36.1128 42.5379 36.502C42.0463 36.8318 41.5387 37.1273 41.0275 37.4199C41.063 37.4583 41.0984 37.4966 41.1349 37.5361C41.1427 37.7321 41.144 37.9283 41.1417 38.1245C41.1407 38.2313 41.1397 38.3381 41.1387 38.4481C41.1375 38.5307 41.1362 38.6132 41.1349 38.6982C41.2394 38.6976 41.3438 38.697 41.4514 38.6964C41.8443 38.6943 42.2373 38.693 42.6302 38.6919C42.7993 38.6913 42.9683 38.6905 43.1373 38.6895C44.087 38.6839 45.0234 38.6904 45.968 38.8145C45.968 38.8528 45.968 38.8912 45.968 38.9307C45.299 38.9336 44.6299 38.9356 43.9608 38.937C43.7331 38.9376 43.5053 38.9384 43.2776 38.9394C42.9507 38.9408 42.6239 38.9415 42.2971 38.942C42.1948 38.9426 42.0926 38.9432 41.9872 38.9438C41.8926 38.9438 41.798 38.9438 41.7005 38.9439C41.6171 38.9441 41.5336 38.9444 41.4476 38.9446C41.2424 38.9307 41.2424 38.9307 41.0275 38.8145C40.9869 38.5947 40.9869 38.5947 40.9671 38.3206C40.9354 37.9356 40.8916 37.5652 40.8127 37.1875C40.8836 37.1875 40.9545 37.1875 41.0275 37.1875C41.0275 37.1108 41.0275 37.0341 41.0275 36.9551C41.1013 36.9256 41.1751 36.8961 41.2512 36.8656C41.3479 36.8257 41.4447 36.7857 41.5444 36.7444C41.6404 36.7053 41.7363 36.6662 41.8352 36.626C42.1 36.491 42.2467 36.3913 42.4238 36.1416C42.4345 36.0678 42.4453 35.9941 42.4564 35.9181C42.5615 35.579 42.7153 35.5167 43.0019 35.3467C43.1 35.2882 43.1981 35.2297 43.2992 35.1694C43.4046 35.1091 43.51 35.0488 43.6186 34.9868C43.7251 34.9248 43.8316 34.8629 43.9413 34.7992C45.874 33.7012 45.874 33.7012 46.7198 33.7012Z" fill="#FFFEC7"/>
<path id="Vector_16" d="M38.6648 42.6494C38.7711 42.6878 38.8774 42.7261 38.987 42.7656C38.9376 42.8136 38.8881 42.8615 38.8372 42.9109C38.1855 43.6796 38.2879 44.9536 38.3107 45.9278C38.3524 46.8858 38.5327 47.8079 38.8796 48.6924C39.0391 48.6349 39.0391 48.6349 39.2018 48.5762C39.3613 48.5186 39.3613 48.5186 39.524 48.46C39.7662 48.076 39.7986 47.6662 39.8538 47.2125C39.8818 46.9867 39.8818 46.9867 39.9104 46.7563C39.9293 46.5979 39.9482 46.4394 39.967 46.281C39.9867 46.1208 40.0064 45.9605 40.0262 45.8003C40.0743 45.4086 40.1217 45.0169 40.1684 44.625C40.4423 45.147 40.4201 45.606 40.4168 46.1938C40.4162 46.3498 40.4162 46.3498 40.4156 46.5089C40.3981 47.6694 40.2238 48.7664 39.5911 49.731C39.4166 49.8545 39.4166 49.8545 39.1615 49.869C38.7461 49.6764 38.5737 49.3325 38.3426 48.9248C38.378 48.8481 38.4135 48.7714 38.45 48.6924C38.4832 48.8038 38.4832 48.8038 38.5171 48.9175C38.6535 49.1978 38.6535 49.1978 39.0004 49.2444C39.1023 49.254 39.2042 49.2636 39.3092 49.2734C39.3092 49.1967 39.3092 49.12 39.3092 49.041C39.2294 49.0362 39.1497 49.0314 39.0675 49.0265C38.7413 48.9142 38.6116 48.7973 38.4407 48.4772C38.0471 47.4761 37.9896 46.4243 37.9801 45.3513C37.9786 45.2511 37.9771 45.1509 37.9756 45.0476C37.9806 44.2945 38.0294 43.3749 38.5149 42.7907C38.5643 42.7441 38.6138 42.6975 38.6648 42.6494Z" fill="#FFFEC7"/>
<path id="Vector_17" d="M50.6668 44.4724C50.7864 44.4904 50.7864 44.4904 50.9085 44.5087C50.9514 44.6029 50.9514 44.6029 50.9953 44.6989C51.0885 44.899 51.1842 45.0976 51.2814 45.2954C51.3378 45.4121 51.3941 45.5288 51.4522 45.649C51.5088 45.7648 51.5654 45.8806 51.6238 46C51.954 46.8449 51.8947 47.7609 51.8952 48.6633C51.8965 48.7952 51.8978 48.9272 51.8992 49.0632C51.8995 49.2526 51.8995 49.2526 51.8998 49.4459C51.9003 49.5606 51.9007 49.6753 51.9012 49.7935C51.8751 50.0869 51.8751 50.0869 51.6603 50.4355C51.662 50.3595 51.6636 50.2835 51.6654 50.2053C51.7253 47.6879 51.7253 47.6879 51.0159 45.3222C51.0159 45.2455 51.0159 45.1688 51.0159 45.0898C50.8386 45.0898 50.6614 45.0898 50.4789 45.0898C50.4086 45.2686 50.3395 45.4478 50.2708 45.6273C50.2321 45.727 50.1935 45.8268 50.1537 45.9296C49.9337 46.6085 49.9177 47.2832 49.915 47.9951C49.9146 48.0917 49.9141 48.1883 49.9137 48.2879C49.9203 49.0512 50.0228 49.7325 50.2041 50.4718C50.264 50.7841 50.264 50.7841 50.1566 51.1328C49.4698 50.3896 49.4848 49.4708 49.4714 48.4471C49.4716 48.3243 49.4718 48.2015 49.472 48.075C49.4721 47.9472 49.4723 47.8195 49.4725 47.6878C49.4855 46.7538 49.5242 44.6129 50.6668 44.4724Z" fill="#FFFEC7"/>
<path id="Vector_18" d="M41.3496 46.6006C41.8755 46.6742 42.3461 46.8433 42.8398 47.0436C44.3538 47.6369 45.8825 47.9649 47.4715 48.2275C47.4715 48.2659 47.4715 48.3042 47.4715 48.3438C47.1525 48.3438 46.8335 48.3438 46.5049 48.3438C46.5049 48.4204 46.5049 48.4971 46.5049 48.5762C46.6112 48.5762 46.7176 48.5762 46.8271 48.5762C46.8271 48.6912 46.8271 48.8063 46.8271 48.9248C46.1388 48.8561 45.4892 48.7324 44.82 48.5471C44.7273 48.5217 44.6346 48.4962 44.539 48.47C43.7503 48.2483 42.9527 48.0112 42.2088 47.6465C42.1734 47.5698 42.1379 47.4931 42.1014 47.4141C42.6116 47.5157 42.6116 47.5157 42.8532 47.6465C42.8532 47.5314 42.8532 47.4164 42.8532 47.2979C42.7897 47.2754 42.7261 47.2529 42.6607 47.2298C42.218 47.0719 41.7797 46.912 41.3496 46.7168C41.3496 46.6784 41.3496 46.6401 41.3496 46.6006Z" fill="#FFFEC7"/>
<path id="Vector_19" d="M37.3758 42.0684C37.5067 42.4931 37.441 42.6494 37.3301 43.0757C37.1222 43.9978 37.1247 44.8832 37.1409 45.8234C37.1425 45.9901 37.144 46.1568 37.1453 46.3235C37.1488 46.7258 37.1543 47.128 37.161 47.5303C36.6255 47.4769 36.2311 47.4237 35.7648 47.1163C35.6419 47.037 35.6419 47.037 35.5164 46.956C35.4267 46.8951 35.4267 46.8951 35.3352 46.833C35.4109 47.2047 35.411 47.2047 35.7161 47.36C35.8297 47.4186 35.9432 47.4772 36.0602 47.5375C36.1726 47.5964 36.285 47.6553 36.4008 47.7159C36.6874 47.8572 36.9748 47.9884 37.2684 48.1113C37.2684 48.2647 37.2684 48.4181 37.2684 48.5762C36.1338 48.3782 35.2967 47.85 34.5578 46.8916C34.1323 46.2373 33.7883 45.5555 33.8316 44.7412C33.9552 45.0061 34.0754 45.2722 34.1932 45.5402C34.2467 45.66 34.3001 45.7798 34.3552 45.9033C34.4345 46.0831 34.4345 46.0831 34.5154 46.2665C34.687 46.5934 34.8635 46.8152 35.1204 47.0654C35.1204 46.912 35.1204 46.7586 35.1204 46.6006C35.5719 46.6617 35.9195 46.8456 36.3161 47.0727C36.5317 47.1963 36.5317 47.1963 36.8388 47.2979C36.8371 47.2272 36.8354 47.1566 36.8337 47.0838C36.7614 43.5773 36.7614 43.5773 37.3758 42.0684Z" fill="#FFFEC7"/>
<path id="Vector_20" d="M56.9632 53.2246C57.1167 53.2584 57.2703 53.292 57.4239 53.3254C57.7942 53.4064 58.1642 53.4893 58.534 53.5733C58.534 53.65 58.534 53.7267 58.534 53.8057C57.896 53.729 57.258 53.6523 56.6007 53.5733C56.6362 53.65 56.6716 53.7267 56.7081 53.8057C56.9979 53.8799 57.281 53.9414 57.574 53.9945C57.6555 54.0101 57.737 54.0257 57.8209 54.0417C58.0227 54.0802 58.2246 54.1174 58.4266 54.1543C58.4266 54.1927 58.4266 54.231 58.4266 54.2705C57.6497 54.3019 56.9558 54.1886 56.198 54.009C56.0282 53.9697 56.0282 53.9697 55.855 53.9295C54.1256 53.5197 54.1256 53.5197 53.4861 53.2246C53.4506 53.1479 53.4152 53.0712 53.3787 52.9922C54.5093 52.5844 55.8313 52.9669 56.9632 53.2246ZM56.9229 53.6895C57.1001 53.6895 57.2774 53.6895 57.4599 53.6895C57.389 53.7662 57.3182 53.8429 57.2451 53.9219C57.1388 53.8452 57.0325 53.7685 56.9229 53.6895Z" fill="#FFFEC7"/>
<path id="Vector_21" d="M75.5706 47.3995C75.75 47.4067 75.75 47.4067 75.9331 47.4141C76.1844 47.8389 76.1881 48.1964 76.1479 48.6924C75.9322 49.2828 75.5867 49.48 75.0739 49.7383C74.7584 49.7673 74.7584 49.7673 74.5369 49.7383C74.4828 48.9481 74.6339 48.3531 74.9665 47.6465C75.1813 47.4141 75.1813 47.4141 75.5706 47.3995Z" fill="#040300"/>
<path id="Vector_22" d="M75.0738 42.6494C75.957 43.4717 76.2373 45.2843 76.3626 46.4844C76.5025 49.4931 76.5025 49.4931 76.0404 50.668C74.8673 51.5142 72.8961 51.2674 71.5295 51.249C71.5295 51.2107 71.5295 51.1723 71.5295 51.1328C71.6292 51.1235 71.7288 51.1141 71.8314 51.1045C72.2046 51.0691 72.5777 51.0331 72.9507 50.9966C73.1115 50.981 73.2724 50.9657 73.4332 50.9507C73.6658 50.9289 73.8982 50.9061 74.1307 50.8831C74.2702 50.8698 74.4097 50.8564 74.5534 50.8426C74.9928 50.7805 75.3982 50.6764 75.8256 50.5518C75.8965 50.1299 75.9674 49.7081 76.0404 49.2734C75.8278 49.4268 75.6151 49.5802 75.396 49.7383C75.3251 49.6616 75.2542 49.5849 75.1812 49.5059C75.2831 49.4579 75.385 49.41 75.49 49.3606C75.8537 49.1402 75.9055 49.0984 76.0404 48.6924C76.2916 46.8184 75.9721 45.1964 75.2886 43.4629C75.2066 43.5381 75.1247 43.6133 75.0402 43.6908C74.7516 43.9277 74.7516 43.9277 74.4294 44.0004C73.96 43.8946 73.8431 43.6474 73.5702 43.2305C73.8352 43.3643 74.0049 43.4684 74.2146 43.6953C74.4864 43.7316 74.4864 43.7316 74.7516 43.5791C74.8987 43.2814 74.9898 42.9738 75.0738 42.6494Z" fill="#FFFEC7"/>
<path id="Vector_23" d="M56.4934 53.457C56.7933 53.4928 57.0931 53.5292 57.3929 53.566C57.4782 53.5761 57.5635 53.5862 57.6513 53.5966C58.2949 53.6763 58.2949 53.6763 58.534 53.8057C58.534 53.729 58.534 53.6523 58.534 53.5732C58.8653 53.6056 59.1964 53.6401 59.5275 53.6749C59.6681 53.6886 59.6681 53.6886 59.8115 53.7026C59.9022 53.7124 59.9929 53.7221 60.0863 53.7321C60.1696 53.7406 60.2528 53.7492 60.3386 53.7579C60.5917 53.8091 60.7805 53.9026 61.0043 54.0381C60.898 54.0764 60.7916 54.1148 60.6821 54.1543C60.6112 54.2693 60.5403 54.3844 60.4673 54.5029C59.917 54.6431 59.4329 54.6082 58.8764 54.5247C58.7361 54.5048 58.5959 54.4849 58.4514 54.4643C58.1044 54.3867 58.1044 54.3867 57.8896 54.1543C57.5875 54.0907 57.2855 54.0508 56.9801 54.0099C56.7082 53.9219 56.7082 53.9219 56.5639 53.6813C56.5406 53.6073 56.5174 53.5333 56.4934 53.457ZM56.923 53.6895C57.1357 53.8045 57.1357 53.8045 57.3526 53.9219C57.3881 53.8452 57.4235 53.7685 57.46 53.6895C57.2828 53.6895 57.1056 53.6895 56.923 53.6895Z" fill="#FFFEC7"/>
<path id="Vector_24" d="M41.457 46.252C42.021 46.4115 42.5817 46.5803 43.1385 46.7667C44.5322 47.2327 45.905 47.6242 47.3641 47.7627C47.3287 47.9161 47.2932 48.0695 47.2567 48.2275C45.2213 47.9755 43.3512 47.4458 41.457 46.6006C41.457 46.4855 41.457 46.3705 41.457 46.252Z" fill="#0F0A00"/>
<path id="Vector_25" d="M50.1567 44.3926C50.3783 44.4434 50.3783 44.4434 50.5864 44.5088C50.5066 44.5735 50.4269 44.6382 50.3447 44.7049C49.4892 45.6728 49.5604 47.1681 49.5685 48.4134C49.6032 49.8292 49.7314 51.1374 50.6938 52.1787C50.3443 52.1472 50.187 52.0933 49.9285 51.8301C49.0114 50.2424 49.0055 47.9769 49.3177 46.1866C49.4695 45.5041 49.6882 44.8995 50.1567 44.3926Z" fill="#160F00"/>
<path id="Vector_26" d="M41.3496 47.2979C41.7178 47.3696 42.0571 47.4702 42.4085 47.6084C43.9696 48.2062 45.5183 48.6187 47.1493 48.9248C47.1139 49.0399 47.0784 49.1549 47.0419 49.2734C46.324 49.3109 45.7128 49.1784 45.0214 48.9756C44.9143 48.9448 44.8072 48.914 44.6968 48.8822C42.1997 48.1435 42.1997 48.1435 41.3496 47.5303C41.3496 47.4536 41.3496 47.3769 41.3496 47.2979Z" fill="#0F0B00"/>
<path id="Vector_27" d="M63.045 51.1328C63.3108 51.1903 63.3108 51.1903 63.582 51.249C63.582 51.2107 63.582 51.1723 63.582 51.1328C64.1845 51.1328 64.787 51.1328 65.4078 51.1328C65.4078 51.1712 65.4078 51.2095 65.4078 51.249C65.8685 51.3257 66.3293 51.4024 66.804 51.4814C66.804 51.5198 66.804 51.5581 66.804 51.5977C64.323 51.5977 61.8421 51.5977 59.2859 51.5977C59.2859 51.5593 59.2859 51.521 59.2859 51.4814C60.1159 51.3688 60.9338 51.3511 61.7696 51.358C61.8928 51.3585 62.016 51.359 62.1429 51.3596C62.4436 51.3609 62.7443 51.3628 63.045 51.3652C63.045 51.2885 63.045 51.2118 63.045 51.1328Z" fill="#FFFEC7"/>
<path id="Vector_28" d="M40.9201 36.8389C40.816 36.8916 40.7119 36.9443 40.6046 36.9986C40.2681 37.1477 40.2681 37.1477 40.1683 37.4199C39.9405 37.4453 39.7126 37.4702 39.4845 37.4925C38.9897 37.5688 38.5342 37.7629 38.0672 37.9501C37.9201 38.0075 37.9201 38.0075 37.77 38.0661C37.5308 38.1596 37.2921 38.2541 37.0536 38.3496C37.2282 38.299 37.4027 38.2481 37.5772 38.1971C37.6851 38.1656 37.7929 38.1342 37.904 38.1017C38.2031 38.0107 38.4969 37.9092 38.7922 37.8049C39.2688 37.6464 39.6717 37.6225 40.1683 37.6523C40.1683 37.6907 40.1683 37.729 40.1683 37.7685C40.109 37.7792 40.0498 37.7898 39.9888 37.8007C39.0706 37.9811 38.1945 38.2947 37.308 38.604C37.1044 38.6748 36.9005 38.7449 36.6966 38.8149C36.5769 38.8566 36.4572 38.8984 36.3338 38.9413C35.9659 39.0509 35.6062 39.1132 35.2278 39.1631C35.5114 38.7973 35.8699 38.6236 36.2632 38.4295C36.3694 38.3766 36.3694 38.3766 36.4776 38.3226C37.2141 37.9633 37.9685 37.6673 38.7332 37.3871C38.9648 37.3019 39.1957 37.2146 39.4265 37.1271C39.5747 37.0721 39.723 37.0171 39.8712 36.9623C40.0033 36.9133 40.1353 36.8644 40.2714 36.8139C40.5979 36.7226 40.5979 36.7226 40.9201 36.8389Z" fill="#FFFEC7"/>
<path id="Vector_29" d="M38.7721 42.7656C38.8784 42.7656 38.9847 42.7656 39.0943 42.7656C39.0723 42.8357 39.0502 42.9058 39.0276 42.9781C38.9986 43.071 38.9697 43.1638 38.9399 43.2595C38.9112 43.3512 38.8826 43.4429 38.853 43.5373C38.4375 44.9444 38.4813 46.8498 38.9869 48.2275C39.2025 48.5774 39.2918 48.6494 39.6313 48.8086C39.3832 48.8086 39.1351 48.8086 38.8795 48.8086C38.1748 47.3096 37.987 45.4753 38.3278 43.8283C38.591 42.9616 38.591 42.9616 38.7721 42.7656Z" fill="#FFFEC7"/>
<path id="Vector_30" d="M51.083 63.2115C51.2755 63.2123 51.2755 63.2123 51.4719 63.2131C51.7853 63.2144 52.0987 63.2163 52.4121 63.2187C52.4121 63.2954 52.4121 63.3721 52.4121 63.4512C52.4736 63.4476 52.535 63.4441 52.5983 63.4405C53.9696 63.3635 55.3351 63.3184 56.7082 63.3349C56.7082 63.2966 56.7082 63.2582 56.7082 63.2187C57.3462 63.2187 57.9841 63.2187 58.6414 63.2187C58.6414 63.2571 58.6414 63.2954 58.6414 63.3349C58.9604 63.3925 58.9604 63.3925 59.2858 63.4512C59.2858 63.4895 59.2858 63.5279 59.2858 63.5674C58.2344 63.5701 57.1829 63.5721 56.1315 63.5734C55.6429 63.574 55.1544 63.5748 54.6659 63.5761C50.5155 63.5872 50.5155 63.5872 48.5457 63.4512C48.5457 63.4128 48.5457 63.3745 48.5457 63.3349C49.3932 63.2187 50.2295 63.2048 51.083 63.2115Z" fill="#202020"/>
<path id="Vector_31" d="M50.4252 43.55C51.0459 43.7899 51.3012 44.2056 51.5974 44.8279C52.1207 46.101 52.2331 47.3247 52.2242 48.7069C52.225 48.8365 52.2259 48.9661 52.2267 49.0996C52.2251 49.8528 52.1618 50.5209 51.9826 51.249C51.9471 51.249 51.9117 51.249 51.8752 51.249C51.8829 51.1478 51.8907 51.0465 51.8986 50.9422C52.0581 48.7281 52.2207 45.898 50.8196 44.078C50.7781 44.0284 50.7365 43.9788 50.6937 43.9277C50.491 43.9421 50.491 43.9421 50.2843 43.9568C50.2083 43.9622 50.1322 43.9676 50.0539 43.9731C49.7478 44.0719 49.6742 44.2142 49.5123 44.5088C49.4274 44.7287 49.3492 44.9517 49.2774 45.177C49.2219 45.3487 49.2219 45.3487 49.1654 45.5238C49.1381 45.6107 49.1108 45.6976 49.0827 45.7871C48.9128 45.2669 49.071 44.9292 49.2656 44.4416C49.5409 43.8853 49.8175 43.597 50.4252 43.55Z" fill="#FFFEC7"/>
<path id="Vector_32" d="M35.4425 40.0928C35.5134 40.0928 35.5843 40.0928 35.6573 40.0928C35.6243 40.2191 35.6243 40.2191 35.5906 40.3479C35.5617 40.4602 35.5328 40.5726 35.503 40.6884C35.4743 40.7989 35.4456 40.9095 35.4161 41.0234C35.1386 42.2153 35.0243 43.6869 35.4425 44.8574C35.6304 45.2116 35.6304 45.2116 35.8721 45.4385C35.9785 45.4385 36.0848 45.4385 36.1944 45.4385C36.1997 45.3488 36.2051 45.2591 36.2107 45.1666C36.2356 44.7609 36.2619 44.3552 36.2883 43.9495C36.2968 43.8083 36.3052 43.6671 36.3139 43.5217C36.3229 43.3865 36.3319 43.2513 36.3412 43.112C36.3491 42.9872 36.3569 42.8625 36.3651 42.7339C36.4092 42.417 36.4092 42.417 36.624 42.0684C36.6153 42.6011 36.6032 43.1336 36.5904 43.6663C36.5868 43.8932 36.5868 43.8932 36.5831 44.1247C36.5792 44.2701 36.5754 44.4154 36.5715 44.5651C36.5687 44.699 36.5659 44.8329 36.563 44.9708C36.5132 45.3477 36.4298 45.5107 36.1944 45.7871C35.9594 45.7871 35.9594 45.7871 35.6573 45.6709C35.0326 44.8357 34.9934 44.0946 34.9928 43.0562C34.9908 42.875 34.9908 42.875 34.9888 42.6903C34.9874 41.8907 35.0209 41.0978 35.2277 40.3252C35.2986 40.2485 35.3695 40.1718 35.4425 40.0928Z" fill="#FFFEC7"/>
<path id="Vector_33" d="M58.12 38.9193C58.2026 38.9194 58.2853 38.9196 58.3705 38.9198C58.6331 38.9204 58.8957 38.9219 59.1583 38.9233C59.337 38.9239 59.5156 38.9245 59.6943 38.9249C60.131 38.9262 60.5676 38.9282 61.0043 38.9306C61.0043 38.969 61.0043 39.0073 61.0043 39.0468C60.5258 39.1043 60.5258 39.1043 60.0377 39.163C60.0377 39.2014 60.0377 39.2397 60.0377 39.2792C57.5921 39.2792 55.1466 39.2792 52.627 39.2792C52.627 39.2409 52.627 39.2025 52.627 39.163C52.7478 39.1601 52.8686 39.1572 52.9931 39.1542C53.4425 39.1432 53.8918 39.1316 54.3412 39.1198C54.5354 39.1147 54.7297 39.1099 54.924 39.1052C55.2037 39.0985 55.4833 39.0911 55.763 39.0836C55.8495 39.0816 55.936 39.0797 56.0251 39.0777C56.3523 39.0684 56.6598 39.0574 56.9811 38.9871C57.3598 38.9061 57.7357 38.9164 58.12 38.9193Z" fill="#FFFEC7"/>
<path id="Vector_34" d="M67.4485 39.2793C67.905 39.2591 68.3606 39.2455 68.8174 39.2498C68.8943 39.2504 68.9712 39.2509 69.0505 39.2514C69.3781 39.2923 69.625 39.4307 69.9003 39.6212C70.2306 39.7954 70.5562 39.8301 70.9189 39.8894C71.6327 40.0131 72.2733 40.2406 72.9394 40.5431C73.0672 40.6003 73.0672 40.6003 73.1976 40.6586C73.8655 40.9736 74.4738 41.3733 74.8592 42.0684C74.8592 42.1835 74.8592 42.2985 74.8592 42.417C74.1858 42.417 73.5124 42.417 72.8186 42.417C72.8186 42.3787 72.8186 42.3403 72.8186 42.3008C73.4211 42.3008 74.0236 42.3008 74.6444 42.3008C74.5425 42.169 74.4406 42.0372 74.3356 41.9014C74.2783 41.8272 74.221 41.753 74.1619 41.6766C74.0083 41.4748 74.0083 41.4748 73.7852 41.3711C73.7852 41.2944 73.7852 41.2177 73.7852 41.1387C73.7085 41.1254 73.6318 41.1121 73.5528 41.0983C73.2302 41.018 72.9686 40.8947 72.6709 40.7392C71.9008 40.3531 71.1722 40.1746 70.3341 40.0533C69.9987 39.9698 69.7788 39.8248 69.4891 39.628C69.0845 39.4718 68.6528 39.4729 68.2271 39.4464C68.1522 39.4414 68.0773 39.4364 68.0002 39.4312C67.8163 39.4189 67.6324 39.4072 67.4485 39.3956C67.4485 39.3572 67.4485 39.3189 67.4485 39.2793Z" fill="#FFFEC7"/>
<path id="Vector_35" d="M41.3496 46.6006C41.867 46.6734 42.3278 46.8378 42.813 47.0364C43.8443 47.4463 44.8991 47.7249 45.9679 47.9951C45.9679 48.0335 45.9679 48.0718 45.9679 48.1113C45.3014 48.0552 44.6791 47.9564 44.0347 47.7627C43.9992 47.9161 43.9638 48.0695 43.9273 48.2275C43.2844 48.053 42.68 47.8856 42.1014 47.5303C42.4236 47.4141 42.4236 47.4141 42.6586 47.523C42.7228 47.5638 42.787 47.6045 42.8532 47.6465C42.8532 47.5314 42.8532 47.4164 42.8532 47.2979C42.7897 47.2754 42.7261 47.2529 42.6607 47.2298C42.218 47.0719 41.7797 46.912 41.3496 46.7168C41.3496 46.6784 41.3496 46.6401 41.3496 46.6006Z" fill="#FFFEC7"/>
<path id="Vector_36" d="M38.6648 42.6494C38.7711 42.6878 38.8774 42.7261 38.987 42.7656C38.9376 42.8136 38.8881 42.8615 38.8372 42.9109C38.1854 43.6796 38.2877 44.954 38.3111 45.9283C38.3553 46.9373 38.5151 47.9247 38.987 48.8086C39.0933 48.8853 39.1996 48.962 39.3092 49.041C38.9446 49.0191 38.8011 48.957 38.544 48.6706C38.0149 47.6793 37.9899 46.4657 37.9801 45.3513C37.9786 45.2511 37.9771 45.1509 37.9756 45.0476C37.9806 44.2945 38.0294 43.3749 38.5149 42.7907C38.5643 42.7441 38.6138 42.6975 38.6648 42.6494Z" fill="#0B0800"/>
<path id="Vector_37" d="M51.2307 51.5977C51.337 51.636 51.4433 51.6744 51.5529 51.7139C51.5209 52.1168 51.4468 52.2931 51.2105 52.6145C50.8796 52.9009 50.6812 52.9607 50.264 52.9922C50.0514 52.6854 49.8387 52.3786 49.6196 52.0625C49.6551 51.9858 49.6905 51.9091 49.727 51.8301C49.8068 51.8852 49.8865 51.9403 49.9687 51.9971C50.2222 52.153 50.4108 52.2382 50.6936 52.2949C50.6936 52.2182 50.6936 52.1415 50.6936 52.0625C50.6228 52.0242 50.5519 51.9858 50.4788 51.9463C50.635 51.8924 50.635 51.8924 50.7943 51.8373C51.1061 51.7493 51.1061 51.7493 51.2307 51.5977Z" fill="#FFFEC7"/>
<path id="Vector_38" d="M39.9536 47.8789C40.1163 48.4072 39.9935 48.865 39.8462 49.3896C39.6515 49.702 39.6515 49.702 39.4165 49.8545C39.1548 49.8763 39.1548 49.8763 38.8795 49.7383C38.6745 49.4837 38.5056 49.2123 38.3425 48.9248C38.378 48.8481 38.4134 48.7714 38.4499 48.6924C38.4721 48.7667 38.4942 48.841 38.5171 48.9175C38.6535 49.1978 38.6535 49.1978 39.0004 49.2444C39.1023 49.254 39.2042 49.2636 39.3091 49.2734C39.3091 49.1584 39.3091 49.0433 39.3091 48.9248C39.2028 48.8865 39.0965 48.8481 38.9869 48.8086C39.0667 48.7631 39.1464 48.7175 39.2286 48.6706C39.5452 48.4448 39.7313 48.2084 39.9536 47.8789Z" fill="#FFFEC7"/>
<path id="Vector_39" d="M50.0493 44.2764C50.1202 44.3147 50.1911 44.3531 50.2641 44.3926C50.2021 44.4621 50.14 44.5316 50.0761 44.6032C49.2104 45.9302 49.2844 47.4607 49.3205 49.0117C49.3221 49.1429 49.3236 49.274 49.3252 49.4092C49.3275 49.5281 49.3299 49.6471 49.3323 49.7697C49.2927 50.1307 49.1983 50.2858 48.9753 50.5518C48.8673 50.2014 48.8568 49.9658 48.8611 49.6003C48.8621 49.4956 48.8631 49.3909 48.8641 49.283C48.8653 49.2031 48.8666 49.1233 48.8679 49.041C48.9033 49.041 48.9387 49.041 48.9753 49.041C48.9768 48.9697 48.9784 48.8983 48.98 48.8248C48.9881 48.4949 48.9985 48.1651 49.0088 47.8353C49.0112 47.7231 49.0137 47.6109 49.0162 47.4953C49.0488 46.5397 49.179 45.5993 49.6868 44.7921C49.7325 44.7176 49.7782 44.6431 49.8252 44.5664C49.9419 44.3926 49.9419 44.3926 50.0493 44.2764Z" fill="#FFFEC7"/>
<path id="Vector_40" d="M48.8679 45.6709C48.9388 45.7092 49.0097 45.7476 49.0827 45.7871C49.1884 46.2699 49.1974 46.7197 49.1771 47.2134C49.1719 47.3475 49.1667 47.4816 49.1614 47.6197C49.1553 47.758 49.1493 47.8962 49.1431 48.0387C49.1375 48.1797 49.1319 48.3206 49.1261 48.4659C49.1122 48.8126 49.0977 49.1592 49.0827 49.5059C48.9764 49.5059 48.87 49.5059 48.7605 49.5059C48.7574 48.9756 48.7555 48.4454 48.7538 47.9152C48.7529 47.7649 48.752 47.6146 48.751 47.4597C48.7507 47.3147 48.7504 47.1698 48.75 47.0205C48.7492 46.8206 48.7492 46.8206 48.7483 46.6166C48.7593 46.2865 48.7977 45.9916 48.8679 45.6709Z" fill="#FFFEC7"/>
<path id="Vector_41" d="M46.9345 37.6523C47.0419 37.7686 47.0419 37.7686 47.0487 38.0664C47.0464 38.1598 47.0442 38.2533 47.0419 38.3496C46.8271 38.001 46.8271 38.001 46.8271 37.7686C46.4735 37.8041 46.12 37.8407 45.7665 37.8775C45.6659 37.8876 45.5652 37.8977 45.4615 37.9081C45.3653 37.9183 45.2691 37.9284 45.17 37.9388C45.0367 37.9525 45.0367 37.9525 44.9007 37.9665C44.6729 37.9891 44.6729 37.9891 44.4643 38.1172C44.2495 38.1218 44.0346 38.1222 43.8199 38.1172C43.8199 38.1939 43.8199 38.2706 43.8199 38.3496C44.2098 38.3496 44.5996 38.3496 45.0013 38.3496C45.0013 38.388 45.0013 38.4263 45.0013 38.4658C44.2925 38.4658 43.5836 38.4658 42.8533 38.4658C42.8533 38.3891 42.8533 38.3124 42.8533 38.2334C44.2058 37.6914 45.5027 37.581 46.9345 37.6523Z" fill="#FFFEC7"/>
<path id="Vector_42" d="M56.4934 53.457C56.7933 53.4928 57.0931 53.5292 57.3929 53.566C57.4782 53.5761 57.5635 53.5862 57.6513 53.5966C58.2949 53.6763 58.2949 53.6763 58.534 53.8057C58.534 53.729 58.534 53.6523 58.534 53.5732C58.7488 53.6895 58.7488 53.6895 58.8562 53.9219C58.8208 53.9986 58.7854 54.0753 58.7488 54.1543C58.9261 54.1543 59.1033 54.1543 59.2859 54.1543C59.2859 54.1926 59.2859 54.231 59.2859 54.2705C59.0936 54.2963 58.9011 54.3201 58.7086 54.3431C58.6014 54.3566 58.4943 54.3701 58.3838 54.384C58.2916 54.3849 58.1994 54.3858 58.1044 54.3867C58.0336 54.31 57.9627 54.2333 57.8896 54.1543C57.5875 54.0907 57.2855 54.0508 56.9801 54.0099C56.7082 53.9219 56.7082 53.9219 56.5639 53.6813C56.5406 53.6073 56.5174 53.5333 56.4934 53.457ZM56.923 53.6895C57.1357 53.8045 57.1357 53.8045 57.3526 53.9219C57.3881 53.8452 57.4235 53.7685 57.46 53.6895C57.2828 53.6895 57.1056 53.6895 56.923 53.6895Z" fill="#FFFEC7"/>
<path id="Vector_43" d="M51.7678 46.3682C51.8032 46.3682 51.8387 46.3682 51.8752 46.3682C52.1025 48.0983 52.0969 49.741 51.9826 51.4814C51.8763 51.4814 51.7699 51.4814 51.6604 51.4814C51.6249 51.0212 51.5895 50.5611 51.553 50.0869C51.6239 50.0869 51.6947 50.0869 51.7678 50.0869C51.7678 48.8597 51.7678 47.6325 51.7678 46.3682Z" fill="#FFFEC7"/>
<path id="Vector_44" d="M37.698 43.9277C37.8575 44.0428 37.8575 44.0428 38.0202 44.1602C38.0568 44.4426 38.0568 44.4426 38.0517 44.793C38.0506 44.918 38.0496 45.0431 38.0485 45.172C38.0458 45.3031 38.0431 45.4342 38.0403 45.5692C38.0389 45.7012 38.0374 45.8332 38.0359 45.9691C38.0321 46.2959 38.0268 46.6225 38.0202 46.9492C37.9139 46.9492 37.8075 46.9492 37.698 46.9492C37.698 45.9521 37.698 44.955 37.698 43.9277Z" fill="#FFFEC7"/>
<path id="Vector_45" d="M72.9258 40.6738C73.6714 40.7687 74.145 41.2658 74.6442 41.8359C74.7151 41.9126 74.786 41.9893 74.859 42.0684C74.859 42.1834 74.859 42.2985 74.859 42.417C74.1856 42.417 73.5122 42.417 72.8184 42.417C72.8184 42.3786 72.8184 42.3403 72.8184 42.3008C73.4209 42.3008 74.0234 42.3008 74.6442 42.3008C74.5423 42.169 74.4404 42.0371 74.3354 41.9013C74.2781 41.8272 74.2208 41.753 74.1617 41.6766C74.0081 41.4747 74.0081 41.4747 73.785 41.3711C73.785 41.2944 73.785 41.2177 73.785 41.1387C73.703 41.1267 73.6211 41.1147 73.5366 41.1024C73.2296 41.0174 73.1237 40.933 72.9258 40.6738Z" fill="#FFFEC7"/>
<path id="Vector_46" d="M75.0739 42.6494C75.3822 42.9642 75.5542 43.2691 75.7183 43.6953C75.6829 43.8104 75.6475 43.9254 75.6109 44.0439C75.5401 43.9289 75.4692 43.8138 75.3961 43.6953C75.3253 43.6186 75.2544 43.5419 75.1813 43.4629C75.1237 43.5396 75.0662 43.6163 75.0068 43.6953C74.7517 43.9277 74.7517 43.9277 74.4362 44.0004C73.9606 43.8953 73.8465 43.6524 73.5703 43.2305C73.8354 43.3643 74.0051 43.4684 74.2147 43.6953C74.4865 43.7316 74.4865 43.7316 74.7517 43.5791C74.8989 43.2814 74.9899 42.9738 75.0739 42.6494Z" fill="#FFFEC7"/>
<path id="Vector_47" d="M42.3164 35.793C42.3873 35.908 42.4582 36.0231 42.5312 36.1416C42.2101 36.5292 41.8981 36.7477 41.4572 36.9551C41.3863 36.9551 41.3154 36.9551 41.2424 36.9551C41.2424 36.8784 41.2424 36.8017 41.2424 36.7227C41.1715 36.6843 41.1006 36.646 41.0276 36.6064C41.1116 36.5575 41.1957 36.5085 41.2822 36.458C41.3909 36.3943 41.4996 36.3307 41.6116 36.2651C41.72 36.2017 41.8284 36.1383 41.9401 36.0731C42.1947 35.9351 42.1947 35.9351 42.3164 35.793Z" fill="#FFFEC7"/>
<path id="Vector_48" d="M40.1682 44.625C40.4048 45.0375 40.4119 45.38 40.4099 45.8597C40.4104 45.9931 40.411 46.1264 40.4115 46.2638C40.383 46.6006 40.383 46.6006 40.1682 46.833C40.1252 47.1029 40.0888 47.3742 40.0608 47.6465C40.0254 47.6465 39.9899 47.6465 39.9534 47.6465C39.9125 46.6242 40.0385 45.6347 40.1682 44.625Z" fill="#FFFEC7"/>
<path id="Vector_49" d="M42.4238 40.209C42.5655 40.2857 42.7073 40.3624 42.8534 40.4414C42.8179 40.7866 42.7825 41.1317 42.746 41.4873C42.3164 41.3711 42.3164 41.3711 42.1016 41.1387C42.144 40.7944 42.2732 40.5131 42.4238 40.209Z" fill="#180F00"/>
<path id="Vector_50" d="M63.9041 54.2706C64.9127 54.259 65.9079 54.2554 66.9113 54.3868C66.9113 54.4251 66.9113 54.4635 66.9113 54.503C66.0961 54.5413 65.2809 54.5797 64.4411 54.6192C64.4411 54.5808 64.4411 54.5425 64.4411 54.503C64.2638 54.4646 64.0866 54.4263 63.9041 54.3868C63.9041 54.3484 63.9041 54.3101 63.9041 54.2706Z" fill="#FFFEC7"/>
<path id="Vector_51" d="M34.2612 41.3711C34.2966 41.4478 34.332 41.5245 34.3686 41.6035C34.3353 41.6898 34.3021 41.7761 34.2679 41.865C34.1344 42.1817 34.1344 42.1817 34.1538 42.5332C34.1538 42.8818 34.1538 42.8818 34.0531 43.1433C33.8817 43.6231 33.8663 44.1149 33.8316 44.625C33.7961 44.625 33.7607 44.625 33.7242 44.625C33.649 42.3647 33.649 42.3647 34.2612 41.3711Z" fill="#FFFEC7"/>
<path id="Vector_52" d="M38.2351 46.4844C38.2705 46.4844 38.3059 46.4844 38.3425 46.4844C38.362 46.5937 38.3815 46.7031 38.4016 46.8158C38.4286 46.9605 38.4556 47.1052 38.4834 47.2543C38.5096 47.3972 38.5358 47.5401 38.5627 47.6873C38.7056 48.2818 38.829 48.6947 39.3091 49.041C38.9297 49.0182 38.7981 48.9554 38.5371 48.6488C38.2306 48.0933 38.0615 47.3151 38.1767 46.6778C38.196 46.6139 38.2152 46.5501 38.2351 46.4844Z" fill="#201700"/>
<path id="Vector_53" d="M61.6487 53.9219C61.6841 54.037 61.7196 54.152 61.7561 54.2706C62.0751 54.3281 62.0751 54.3281 62.4005 54.3868C62.4005 54.4251 62.4005 54.4635 62.4005 54.503C61.7626 54.503 61.1246 54.503 60.4673 54.503C60.7702 53.8475 61.019 53.9068 61.6487 53.9219Z" fill="#FFFEC7"/>
<path id="Vector_54" d="M38.5574 42.0683C38.7923 42.0247 38.7923 42.0247 39.0944 42.0683C39.4187 42.4192 39.6848 42.7239 39.7388 43.2304C39.6745 43.1777 39.6103 43.125 39.5441 43.0706C39.0482 42.661 39.0482 42.661 38.45 42.5332C38.4854 42.3798 38.5208 42.2264 38.5574 42.0683Z" fill="#FFFEC7"/>
<path id="Vector_55" d="M43.8199 34.8633C44.1534 34.8633 44.2873 34.926 44.5717 35.0957C44.2495 35.3281 44.2495 35.3281 44.0422 35.3821C43.7799 35.4555 43.6017 35.5798 43.3768 35.7421C42.9838 36.0254 42.9838 36.0254 42.7458 36.0254C42.8649 35.6519 42.9591 35.5615 43.2829 35.3572C43.6051 35.2119 43.6051 35.2119 43.8199 35.2119C43.8199 35.0969 43.8199 34.9818 43.8199 34.8633Z" fill="#FFFEC7"/>
<path id="Vector_56" d="M25.1321 53.6895C25.2029 53.7278 25.2738 53.7662 25.3469 53.8057C24.8152 54.3809 24.2836 54.9562 23.7358 55.5488C23.7358 55.0766 23.9001 54.9618 24.1923 54.6191C24.277 54.5185 24.3618 54.4178 24.4491 54.3141C24.6665 54.0773 24.8797 53.8799 25.1321 53.6895Z" fill="#1B1B1B"/>
<path id="Vector_57" d="M37.8055 46.1357C38.0855 46.4869 38.1774 46.7354 38.2149 47.1962C38.2245 47.2971 38.2341 47.3981 38.2439 47.5021C38.2351 47.7627 38.2351 47.7627 38.0203 47.9951C38.0203 47.9184 38.0203 47.8417 38.0203 47.7627C37.9494 47.7627 37.8785 47.7627 37.8055 47.7627C37.7074 47.1851 37.7074 46.7134 37.8055 46.1357Z" fill="#FFFEC7"/>
<path id="Vector_58" d="M55.7415 41.9521C56.2516 42.0393 56.2516 42.0393 56.4933 42.3008C56.5067 42.6639 56.5067 42.6639 56.4933 42.998C56.3515 43.0364 56.2097 43.0747 56.0637 43.1143C56.0637 42.8075 56.0637 42.5007 56.0637 42.1846C55.9573 42.1846 55.851 42.1846 55.7415 42.1846C55.7415 42.1079 55.7415 42.0312 55.7415 41.9521Z" fill="#C0B3A9"/>
<path id="Vector_59" d="M39.9534 47.8789C40.0984 48.3496 40.0201 48.6682 39.9534 49.1572C39.8471 49.1189 39.7408 49.0805 39.6312 49.041C39.5249 49.1177 39.4186 49.1944 39.309 49.2734C39.309 49.1584 39.309 49.0433 39.309 48.9248C39.2027 48.8865 39.0964 48.8481 38.9868 48.8086C39.1064 48.7403 39.1064 48.7403 39.2285 48.6706C39.5451 48.4448 39.7312 48.2084 39.9534 47.8789Z" fill="#FFFEC7"/>
<path id="Vector_60" d="M35.8723 47.7627C36.5103 47.9353 36.5103 47.9353 37.1611 48.1113C37.1966 48.2647 37.232 48.4181 37.2685 48.5762C36.2247 48.3927 36.2247 48.3927 35.8723 47.8789C35.8723 47.8406 35.8723 47.8022 35.8723 47.7627Z" fill="#FFFEC7"/>
<path id="Vector_61" d="M49.9419 50.5518C50.1596 50.7792 50.3597 50.9993 50.5393 51.2635C50.6978 51.5115 50.6978 51.5115 51.0159 51.7139C50.7742 51.801 50.7742 51.801 50.4789 51.8301C50.1724 51.5743 49.9644 51.2965 49.8345 50.9004C49.8699 50.7853 49.9054 50.6703 49.9419 50.5518Z" fill="#FFFEC7"/>
<path id="Vector_62" d="M44.4644 47.8789C44.7833 47.9173 45.1023 47.9556 45.431 47.9951C45.4664 48.1869 45.5019 48.3786 45.5384 48.5762C45.3966 48.5762 45.2548 48.5762 45.1088 48.5762C45.1088 48.4995 45.1088 48.4228 45.1088 48.3438C44.7898 48.2862 44.7898 48.2862 44.4644 48.2275C44.4644 48.1125 44.4644 47.9974 44.4644 47.8789Z" fill="#FFFEC7"/>
<path id="Vector_63" d="M36.4092 38.3496C36.4801 38.388 36.551 38.4263 36.624 38.4658C36.5166 38.8145 36.5166 38.8145 36.306 38.9288C36.2204 38.9582 36.1349 38.9876 36.0467 39.0178C35.9192 39.0637 35.9192 39.0637 35.7891 39.1104C35.55 39.1631 35.55 39.1631 35.2278 39.0469C35.4196 38.9271 35.6122 38.8087 35.8051 38.691C35.9122 38.6249 36.0194 38.5589 36.1298 38.4908C36.222 38.4442 36.3142 38.3976 36.4092 38.3496Z" fill="#FFFEC7"/>
<path id="Vector_64" d="M41.2424 47.0654C41.7526 47.1526 41.7526 47.1526 41.9942 47.4141C41.6752 47.3565 41.6752 47.3565 41.3498 47.2979C41.5783 47.5699 41.7918 47.7286 42.1016 47.8789C42.0662 47.9556 42.0307 48.0323 41.9942 48.1113C41.7107 47.9196 41.4271 47.7278 41.135 47.5303C41.1705 47.3769 41.2059 47.2235 41.2424 47.0654Z" fill="#FFFEC7"/>
<path id="Vector_65" d="M76.2554 48.46C76.2909 48.46 76.3263 48.46 76.3628 48.46C76.3628 48.6901 76.3628 48.9202 76.3628 49.1572C75.8312 49.4448 75.8312 49.4448 75.2888 49.7383C75.2534 49.6616 75.2179 49.5849 75.1814 49.5059C75.3276 49.4411 75.3276 49.4411 75.4768 49.3751C75.8746 49.1268 76.0222 48.8806 76.2554 48.46Z" fill="#FFFEC7"/>
<path id="Vector_66" d="M38.6647 42.6494C38.771 42.6878 38.8774 42.7261 38.9869 42.7656C38.9138 42.8303 38.9138 42.8303 38.8392 42.8964C38.6398 43.1165 38.6398 43.1165 38.5573 43.4774C38.5219 43.5877 38.4864 43.6979 38.4499 43.8115C38.3436 43.8499 38.2372 43.8882 38.1277 43.9277C38.1928 43.4346 38.3322 43.0092 38.6647 42.6494Z" fill="#1C1300"/>
<path id="Vector_67" d="M43.6252 47.5739C43.7249 47.5978 43.8246 47.6218 43.9273 47.6465C43.9273 47.7616 43.9273 47.8766 43.9273 47.9951C43.4488 47.8801 43.4488 47.8801 42.9607 47.7627C43.2829 47.5303 43.2829 47.5303 43.6252 47.5739Z" fill="#FFFEC7"/>
<path id="Vector_68" d="M38.1276 43.2305C38.2454 43.6128 38.2135 43.7782 38.1276 44.1602C38.0567 44.1602 37.9859 44.1602 37.9128 44.1602C37.9128 44.4286 37.9128 44.6971 37.9128 44.9736C37.8774 44.9736 37.8419 44.9736 37.8054 44.9736C37.8054 44.5901 37.8054 44.2066 37.8054 43.8115C37.8763 43.8115 37.9472 43.8115 38.0202 43.8115C38.0557 43.6198 38.0911 43.428 38.1276 43.2305Z" fill="#FFFEC7"/>
<path id="Vector_69" d="M46.8273 38.1172C46.7333 38.6837 46.7333 38.6837 46.6124 38.8145C46.4335 38.8192 46.2544 38.8194 46.0754 38.8145C46.2338 38.419 46.3822 38.1172 46.8273 38.1172Z" fill="#FFFEC7"/>
<path id="Vector_70" d="M54.8823 53.3408C55.1304 53.3792 55.3785 53.4175 55.6341 53.457C55.6341 53.5721 55.6341 53.6871 55.6341 53.8057C55.386 53.7673 55.1379 53.729 54.8823 53.6895C54.8823 53.5744 54.8823 53.4594 54.8823 53.3408Z" fill="#FFFEC7"/>
<path id="Vector_71" d="M50.3716 44.5088C50.5488 44.5088 50.726 44.5088 50.9086 44.5088C50.9086 44.6238 50.9086 44.7389 50.9086 44.8574C50.6959 44.8958 50.4833 44.9341 50.2642 44.9736C50.2996 44.8202 50.335 44.6668 50.3716 44.5088Z" fill="#FFFEC7"/>
<path id="Vector_72" d="M53.1638 63.2188C53.4474 63.2188 53.7309 63.2188 54.023 63.2188C54.023 63.2577 54.023 63.2967 54.023 63.3369C53.7395 63.3369 53.456 63.3369 53.1638 63.3369C53.1638 63.2979 53.1638 63.2589 53.1638 63.2188Z" fill="#131212"/>
<path id="Vector_73" d="M67.4484 61.127C67.5193 61.2037 67.5902 61.2804 67.6632 61.3594C67.4151 61.3594 67.167 61.3594 66.9114 61.3594C66.9114 61.321 66.9114 61.2827 66.9114 61.2432C67.1665 61.1705 67.1665 61.1705 67.4484 61.127Z" fill="#1A1819"/>
<path id="Vector_74" d="M30.1799 45.5547C30.2158 45.5547 30.2517 45.5547 30.2886 45.5547C30.2886 45.8615 30.2886 46.1683 30.2886 46.4844C30.2527 46.4844 30.2169 46.4844 30.1799 46.4844C30.1799 46.1776 30.1799 45.8708 30.1799 45.5547Z" fill="#1F1E1D"/>
<path id="Vector_75" d="M42.9607 73.4453C43.067 73.5028 43.067 73.5028 43.1755 73.5615C43.1401 73.6766 43.1046 73.7916 43.0681 73.9102C43.0327 73.7568 42.9972 73.6034 42.9607 73.4453Z" fill="#1B1A1B"/>
<path id="Vector_76" d="M68.2002 62.2891C68.3065 62.3274 68.4128 62.3658 68.5224 62.4053C68.3806 62.4436 68.2388 62.482 68.0928 62.5215C68.1282 62.4448 68.1637 62.3681 68.2002 62.2891Z" fill="#161514"/>
<path id="Vector_77" d="M50.3716 61.708C50.5842 61.708 50.7969 61.708 51.016 61.708C51.016 61.747 51.016 61.786 51.016 61.8261C50.8033 61.8261 50.5907 61.8261 50.3716 61.8261C50.3716 61.7871 50.3716 61.7482 50.3716 61.708Z" fill="#181718"/>
<path id="Vector_78" d="M38.6646 66.4727C38.7709 66.5302 38.7709 66.5302 38.8794 66.5889C38.8794 66.6656 38.8794 66.7423 38.8794 66.8213C38.8085 66.8213 38.7376 66.8213 38.6646 66.8213C38.6646 66.7062 38.6646 66.5912 38.6646 66.4727Z" fill="#1B1A1A"/>
<path id="Vector_79" d="M68.7373 62.2891C68.9145 62.2891 69.0917 62.2891 69.2743 62.2891C69.2743 62.328 69.2743 62.367 69.2743 62.4072C69.0971 62.4072 68.9199 62.4072 68.7373 62.4072C68.7373 62.3682 68.7373 62.3292 68.7373 62.2891Z" fill="#181516"/>
<path id="Vector_80" d="M41.2424 62.2891C41.3488 62.2891 41.4551 62.2891 41.5646 62.2891C41.5292 62.3658 41.4938 62.4425 41.4572 62.5215C41.3864 62.5215 41.3155 62.5215 41.2424 62.5215C41.2424 62.4448 41.2424 62.3681 41.2424 62.2891Z" fill="#171615"/>
<path id="Vector_81" d="M67.8779 61.127C68.0551 61.127 68.2324 61.127 68.4149 61.127C68.4149 61.1659 68.4149 61.2049 68.4149 61.2451C68.2377 61.2451 68.0605 61.2451 67.8779 61.2451C67.8779 61.2061 67.8779 61.1671 67.8779 61.127Z" fill="#181717"/>
<path id="Vector_82" d="M42.1016 61.127C42.2788 61.127 42.456 61.127 42.6386 61.127C42.6386 61.1659 42.6386 61.2049 42.6386 61.2451C42.4614 61.2451 42.2841 61.2451 42.1016 61.2451C42.1016 61.2061 42.1016 61.1671 42.1016 61.127Z" fill="#181717"/>
<path id="Vector_83" d="M73.248 60.1973C73.3898 60.2356 73.5316 60.274 73.6777 60.3135C73.5713 60.371 73.5713 60.371 73.4629 60.4297C73.392 60.353 73.3211 60.2763 73.248 60.1973Z" fill="#1A1919"/>
<path id="Vector_84" d="M31.8984 35.3281C31.9339 35.4048 31.9693 35.4815 32.0058 35.5605C31.9349 35.6372 31.864 35.7139 31.791 35.793C31.8265 35.6396 31.8619 35.4862 31.8984 35.3281Z" fill="#1E1E1E"/>
<path id="Vector_85" d="M62.7227 20.4531C62.829 20.4531 62.9353 20.4531 63.0449 20.4531C63.0449 20.5298 63.0449 20.6065 63.0449 20.6855C62.9385 20.6855 62.8322 20.6855 62.7227 20.6855C62.7227 20.6088 62.7227 20.5321 62.7227 20.4531Z" fill="#1F1F1D"/>
<path id="Vector_86" d="M49.8345 19.5234C50.0117 19.5234 50.1889 19.5234 50.3715 19.5234C50.3715 19.5624 50.3715 19.6014 50.3715 19.6415C50.1943 19.6415 50.0171 19.6415 49.8345 19.6415C49.8345 19.6026 49.8345 19.5636 49.8345 19.5234Z" fill="#1F1E1F"/>
<path id="Vector_87" d="M47.3643 80.8828C47.4706 80.9403 47.4706 80.9403 47.5791 80.999C47.5436 81.0757 47.5082 81.1524 47.4717 81.2314C47.4362 81.1164 47.4008 81.0013 47.3643 80.8828Z" fill="#1A1A1A"/>
<path id="Vector_88" d="M36.3018 61.4756C36.7314 61.5937 36.7314 61.5937 36.7314 61.5937L36.3018 61.4756Z" fill="#171717"/>
<path id="Vector_89" d="M39.5239 24.5205C39.6303 24.5589 39.7366 24.5972 39.8461 24.6367C39.7398 24.6751 39.6335 24.7134 39.5239 24.7529C39.5239 24.6762 39.5239 24.5995 39.5239 24.5205Z" fill="#1E1C1D"/>
<path id="Vector_90" d="M46.3977 20.4531C46.4686 20.4531 46.5395 20.4531 46.6125 20.4531C46.6125 20.5298 46.6125 20.6065 46.6125 20.6855C46.5416 20.6855 46.4707 20.6855 46.3977 20.6855C46.3977 20.6088 46.3977 20.5321 46.3977 20.4531Z" fill="#1E1F1D"/>
<path id="Vector_91" d="M51.7678 88.7852C51.8032 88.8619 51.8387 88.9386 51.8752 89.0176C51.8043 88.9792 51.7334 88.9409 51.6604 88.9014C51.6958 88.863 51.7313 88.8247 51.7678 88.7852Z" fill="#211F20"/>
<path id="Vector_92" d="M36.5166 65.7754C36.5875 65.8521 36.6584 65.9288 36.7314 66.0078C36.6605 66.0078 36.5896 66.0078 36.5166 66.0078C36.5166 65.9311 36.5166 65.8544 36.5166 65.7754Z" fill="#1D1C1D"/>
<path id="Vector_93" d="M36.8389 65.7754C37.1611 65.8935 37.1611 65.8935 37.1611 65.8935L36.8389 65.7754Z" fill="#1F1C1E"/>
<path id="Vector_94" d="M73.1406 65.6592C73.4628 65.7773 73.4628 65.7773 73.4628 65.7773L73.1406 65.6592Z" fill="#1D1D1E"/>
<path id="Vector_95" d="M35.3352 65.4268C35.6574 65.5449 35.6574 65.5449 35.6574 65.5449L35.3352 65.4268Z" fill="#1D1D1C"/>
<path id="Vector_96" d="M66.1597 62.6377C66.4819 62.7558 66.4819 62.7558 66.4819 62.7558L66.1597 62.6377Z" fill="#161615"/>
<path id="Vector_97" d="M67.1262 62.2891C67.2325 62.3466 67.2325 62.3466 67.341 62.4053C67.2347 62.4628 67.2347 62.4628 67.1262 62.5215C67.1262 62.4448 67.1262 62.3681 67.1262 62.2891Z" fill="#171615"/>
<path id="Vector_98" d="M51.3381 61.708C51.4445 61.7655 51.4445 61.7655 51.5529 61.8242C51.4466 61.8817 51.4466 61.8817 51.3381 61.9404C51.3381 61.8637 51.3381 61.787 51.3381 61.708Z" fill="#161616"/>
<path id="Vector_99" d="M73.4629 61.3594C73.5338 61.4361 73.6047 61.5128 73.6777 61.5918C73.6068 61.5918 73.5359 61.5918 73.4629 61.5918C73.4629 61.5151 73.4629 61.4384 73.4629 61.3594Z" fill="#171818"/>
<path id="Vector_100" d="M72.9258 61.4756C72.9612 61.5523 72.9966 61.629 73.0332 61.708C72.9623 61.6697 72.8914 61.6313 72.8184 61.5918C72.8538 61.5534 72.8892 61.5151 72.9258 61.4756Z" fill="#191818"/>
<path id="Vector_101" d="M32.5427 60.4297C32.8649 60.5478 32.8649 60.5478 32.8649 60.5478L32.5427 60.4297Z" fill="#161616"/>
<path id="Vector_102" d="M29.106 51.249C29.4282 51.3671 29.4282 51.3671 29.4282 51.3671L29.106 51.249Z" fill="#1D1E1E"/>
<path id="Vector_103" d="M53.3787 91.5742C53.5935 91.6923 53.5935 91.6923 53.5935 91.6923L53.3787 91.5742Z" fill="#222224"/>
<path id="Vector_104" d="M49.2974 84.3691C49.5122 84.4872 49.5122 84.4872 49.5122 84.4872L49.2974 84.3691Z" fill="#1D1B1B"/>
<path id="Vector_105" d="M46.3977 79.3721C46.6125 79.4902 46.6125 79.4902 46.6125 79.4902L46.3977 79.3721Z" fill="#1E1B1A"/>
<path id="Vector_106" d="M36.3018 65.6592C36.5166 65.7773 36.5166 65.7773 36.5166 65.7773L36.3018 65.6592Z" fill="#1E1E1D"/>
<path id="Vector_107" d="M32.9724 64.8457C33.1872 64.9638 33.1872 64.9638 33.1872 64.9638L32.9724 64.8457Z" fill="#1F1F1F"/>
<path id="Vector_108" d="M32.5427 64.7295C32.7575 64.8476 32.7575 64.8476 32.7575 64.8476L32.5427 64.7295Z" fill="#212121"/>
<path id="Vector_109" d="M79.3699 63.916C79.5847 64.0341 79.5847 64.0341 79.5847 64.0341L79.3699 63.916Z" fill="#222324"/>
<path id="Vector_110" d="M58.7488 63.2188C58.9636 63.3369 58.9636 63.3369 58.9636 63.3369L58.7488 63.2188Z" fill="#121113"/>
<path id="Vector_111" d="M55.8489 63.2188C56.0637 63.3369 56.0637 63.3369 56.0637 63.3369L55.8489 63.2188Z" fill="#151512"/>
<path id="Vector_112" d="M54.9897 63.2188C55.2045 63.3369 55.2045 63.3369 55.2045 63.3369L54.9897 63.2188Z" fill="#161313"/>
<path id="Vector_113" d="M63.9041 62.8701C64.1189 62.9882 64.1189 62.9882 64.1189 62.9882L63.9041 62.8701Z" fill="#161616"/>
<path id="Vector_114" d="M40.7053 62.2891C40.9201 62.4072 40.9201 62.4072 40.9201 62.4072L40.7053 62.2891Z" fill="#161616"/>
<path id="Vector_115" d="M58.1045 61.8242C58.3193 61.9423 58.3193 61.9423 58.3193 61.9423L58.1045 61.8242Z" fill="#191819"/>
<path id="Vector_116" d="M72.0667 61.708C72.2815 61.8261 72.2815 61.8261 72.2815 61.8261L72.0667 61.708Z" fill="#191A18"/>
<path id="Vector_117" d="M36.7314 61.5918C36.9462 61.7099 36.9462 61.7099 36.9462 61.7099L36.7314 61.5918Z" fill="#161613"/>
<path id="Vector_118" d="M43.9272 61.2432C44.142 61.3613 44.142 61.3613 44.142 61.3613L43.9272 61.2432Z" fill="#171616"/>
<path id="Vector_119" d="M43.3904 61.2432C43.6052 61.3613 43.6052 61.3613 43.6052 61.3613L43.3904 61.2432Z" fill="#181818"/>
<path id="Vector_120" d="M68.9519 61.0107C69.1667 61.1288 69.1667 61.1288 69.1667 61.1288L68.9519 61.0107Z" fill="#191919"/>
<path id="Vector_121" d="M40.5979 60.8945C40.8127 61.0126 40.8127 61.0126 40.8127 61.0126L40.5979 60.8945Z" fill="#181718"/>
<path id="Vector_122" d="M34.1538 60.8945C34.3686 61.0126 34.3686 61.0126 34.3686 61.0126L34.1538 60.8945Z" fill="#191818"/>
<path id="Vector_123" d="M70.2407 60.7783C70.4555 60.8964 70.4555 60.8964 70.4555 60.8964L70.2407 60.7783Z" fill="#191818"/>
<path id="Vector_124" d="M39.6313 60.7783C39.8462 60.8964 39.8462 60.8964 39.8462 60.8964L39.6313 60.7783Z" fill="#181716"/>
<path id="Vector_125" d="M33.2947 60.6621C33.5095 60.7802 33.5095 60.7802 33.5095 60.7802L33.2947 60.6621Z" fill="#1A1818"/>
<path id="Vector_126" d="M33.0798 60.5459C33.2946 60.664 33.2946 60.664 33.2946 60.664L33.0798 60.5459Z" fill="#191718"/>
<path id="Vector_127" d="M36.4092 60.1973C36.624 60.3154 36.624 60.3154 36.624 60.3154L36.4092 60.1973Z" fill="#191719"/>
<path id="Vector_128" d="M79.0479 59.5C79.2627 59.6181 79.2627 59.6181 79.2627 59.6181L79.0479 59.5Z" fill="#1C1B1D"/>
<path id="Vector_129" d="M80.5515 55.665C80.7663 55.7831 80.7663 55.7831 80.7663 55.7831L80.5515 55.665Z" fill="#1E1E1D"/>
<path id="Vector_130" d="M31.1465 54.2705C31.3613 54.3886 31.3613 54.3886 31.3613 54.3886L31.1465 54.2705Z" fill="#1A1A1A"/>
<path id="Vector_131" d="M25.7764 52.9922C25.9912 53.1103 25.9912 53.1103 25.9912 53.1103L25.7764 52.9922Z" fill="#272525"/>
<path id="Vector_132" d="M31.0391 37.7686C31.2539 37.8867 31.2539 37.8867 31.2539 37.8867L31.0391 37.7686Z" fill="#201F21"/>
<path id="Vector_133" d="M70.4556 25.1016C70.6704 25.2197 70.6704 25.2197 70.6704 25.2197L70.4556 25.1016Z" fill="#1C1B19"/>
<path id="Vector_134" d="M44.6792 21.3828C44.894 21.5009 44.894 21.5009 44.894 21.5009L44.6792 21.3828Z" fill="#201F1F"/>
<path id="Vector_135" d="M59.2859 19.5234C59.5007 19.6415 59.5007 19.6415 59.5007 19.6415L59.2859 19.5234Z" fill="#1F1E1D"/>
<path id="Vector_136" d="M58.7488 19.5234C58.9636 19.6415 58.9636 19.6415 58.9636 19.6415L58.7488 19.5234Z" fill="#1E1D1D"/>
</g>
</g>
</svg>
