<svg width="20" height="20" viewBox="0 0 20 20" fill="none" xmlns="http://www.w3.org/2000/svg">
<g id="ic:twotone-manage-history" clip-path="url(#clip0_1095_5887)">
<path id="Vector" d="M18.9083 15.3083L19.8583 14.475L19.025 13.0333L17.8167 13.4417C17.55 13.2167 17.25 13.0417 16.9167 12.9167L16.6667 11.6667H15L14.75 12.9083C14.4167 13.0333 14.1167 13.2083 13.85 13.4333L12.6417 13.025L11.8083 14.4667L12.7583 15.3C12.6917 15.7167 12.6917 15.9333 12.7583 16.35L11.8083 17.1833L12.6417 18.625L13.85 18.2167C14.1167 18.4417 14.4167 18.6167 14.75 18.7417L15 20H16.6667L16.9167 18.7583C17.25 18.6333 17.55 18.4583 17.8167 18.2333L19.025 18.6417L19.8583 17.2L18.9083 16.3667C18.975 15.9417 18.975 15.725 18.9083 15.3083ZM15.8333 17.5C14.9167 17.5 14.1667 16.75 14.1667 15.8333C14.1667 14.9167 14.9167 14.1667 15.8333 14.1667C16.75 14.1667 17.5 14.9167 17.5 15.8333C17.5 16.75 16.75 17.5 15.8333 17.5ZM9.16667 5.83333V10.3417L11.1333 12.3083L12 10.8167L10.8333 9.65833V5.83333H9.16667ZM17.5 10C17.5 8.01088 16.7098 6.10322 15.3033 4.6967C13.8968 3.29018 11.9891 2.5 10 2.5C7.64167 2.5 5.54167 3.6 4.16667 5.3V3.33333H2.5V8.33333H7.5V6.66667H5.21667C5.75415 5.89599 6.46959 5.26634 7.3023 4.83113C8.13501 4.39591 9.06042 4.16798 10 4.16667C13.2167 4.16667 15.8333 6.78333 15.8333 10H17.5ZM9.05 15.7583C6.55833 15.35 4.59167 13.3417 4.23333 10.8333H2.55C2.96667 14.5833 6.14167 17.5 10 17.5H10.0583L9.05 15.7583Z" fill="black" stroke="black" stroke-width="0.3"/>
</g>
<defs>
<clipPath id="clip0_1095_5887">
<rect width="20" height="20" fill="white"/>
</clipPath>
</defs>
</svg>
