<svg width="34" height="34" viewBox="0 0 34 34" fill="none" xmlns="http://www.w3.org/2000/svg">
<g id="streamline-ultimate:task-list-pin" clip-path="url(#clip0_1094_5837)">
<g id="Group">
<path id="Vector" d="M22.3125 9.5625H27.625C28.1886 9.5625 28.7291 9.78638 29.1276 10.1849C29.5261 10.5834 29.75 11.1239 29.75 11.6875V25.6827C29.7499 26.2459 29.5262 26.7861 29.1281 27.1844L23.9969 32.3156C23.5986 32.7137 23.0584 32.9374 22.4952 32.9375H6.375C5.81141 32.9375 5.27091 32.7136 4.8724 32.3151C4.47388 31.9166 4.25 31.3761 4.25 30.8125V11.6875C4.25 11.1239 4.47388 10.5834 4.8724 10.1849C5.27091 9.78638 5.81141 9.5625 6.375 9.5625H11.6875" stroke="#FFFC35" stroke-width="2.5" stroke-linecap="round" stroke-linejoin="round"/>
<path id="Vector_2" d="M21.25 32.9375V26.5625C21.25 25.9989 21.4739 25.4584 21.8724 25.0599C22.2709 24.6614 22.8114 24.4375 23.375 24.4375H29.75M17 7.4375C16.1546 7.4375 15.3439 7.10167 14.7461 6.5039C14.1483 5.90613 13.8125 5.09538 13.8125 4.25C13.8125 3.40462 14.1483 2.59387 14.7461 1.9961C15.3439 1.39832 16.1546 1.0625 17 1.0625C17.8454 1.0625 18.6561 1.39832 19.2539 1.9961C19.8517 2.59387 20.1875 3.40462 20.1875 4.25C20.1875 5.09538 19.8517 5.90613 19.2539 6.5039C18.6561 7.10167 17.8454 7.4375 17 7.4375ZM17 7.4375V14.875M9.5625 20.1875H24.4375M9.5625 26.5625H15.9375" stroke="#FFFC35" stroke-width="2.5" stroke-linecap="round" stroke-linejoin="round"/>
</g>
</g>
<defs>
<clipPath id="clip0_1094_5837">
<rect width="34" height="34" fill="white"/>
</clipPath>
</defs>
</svg>
