<svg width="20" height="20" viewBox="0 0 20 20" fill="none" xmlns="http://www.w3.org/2000/svg">
<path d="M14.5832 10.0001C15.7987 10.0001 16.9645 10.483 17.8241 11.3425C18.6836 12.2021 19.1665 13.3679 19.1665 14.5834C19.1665 15.799 18.6836 16.9648 17.8241 17.8243C16.9645 18.6839 15.7987 19.1668 14.5832 19.1668C13.3676 19.1668 12.2018 18.6839 11.3423 17.8243C10.4827 16.9648 9.99984 15.799 9.99984 14.5834C9.99984 13.3679 10.4827 12.2021 11.3423 11.3425C12.2018 10.483 13.3676 10.0001 14.5832 10.0001ZM14.5832 11.6668L14.5082 11.6734C14.4249 11.6886 14.3483 11.7288 14.2884 11.7887C14.2286 11.8485 14.1884 11.9252 14.1732 12.0084L14.1665 12.0834V14.1668H12.0815L12.0065 14.1743C11.9233 14.1895 11.8466 14.2297 11.7868 14.2895C11.7269 14.3494 11.6867 14.426 11.6715 14.5093L11.6648 14.5843L11.6715 14.6593C11.6867 14.7425 11.7269 14.8192 11.7868 14.879C11.8466 14.9389 11.9233 14.9791 12.0065 14.9943L12.0815 15.0009H14.1665V17.0868L14.1732 17.1618C14.1884 17.245 14.2286 17.3217 14.2884 17.3815C14.3483 17.4414 14.4249 17.4816 14.5082 17.4968L14.5832 17.5034L14.6582 17.4968C14.7414 17.4816 14.8181 17.4414 14.8779 17.3815C14.9378 17.3217 14.978 17.245 14.9932 17.1618L14.9998 17.0868V15.0001H17.0865L17.1615 14.9943C17.2448 14.9791 17.3214 14.9389 17.3812 14.879C17.4411 14.8192 17.4813 14.7425 17.4965 14.6593L17.5032 14.5843L17.4965 14.5093C17.4812 14.4259 17.4409 14.3492 17.3809 14.2893C17.3209 14.2295 17.2441 14.1893 17.1607 14.1743L17.0857 14.1676H14.9998V12.0843L14.9932 12.0093C14.9781 11.9259 14.938 11.849 14.8781 11.789C14.8183 11.729 14.7415 11.6887 14.6582 11.6734L14.5832 11.6668ZM11.604 2.08677C11.9307 2.08674 12.2517 2.17208 12.5353 2.33433C12.8189 2.49658 13.0551 2.73011 13.2207 3.01177L13.899 4.1676H15.6248C16.343 4.1676 17.0317 4.45283 17.5396 4.96056C18.0475 5.46829 18.3329 6.15695 18.3332 6.8751V10.6751C17.9616 10.318 17.541 10.0158 17.084 9.7776L17.0832 6.8751C17.0832 6.48833 16.9295 6.1174 16.656 5.84391C16.3825 5.57042 16.0116 5.41677 15.6248 5.41677H13.5415C13.4326 5.41683 13.3255 5.3884 13.2309 5.33432C13.1363 5.28023 13.0575 5.20237 13.0023 5.10844L12.1423 3.64427C12.0872 3.55046 12.0085 3.47267 11.9141 3.4186C11.8197 3.36452 11.7128 3.33603 11.604 3.33594H8.43484C8.34364 3.33601 8.25357 3.35604 8.17093 3.39462C8.0883 3.4332 8.01511 3.4894 7.9565 3.55927L7.90234 3.63427L6.9915 5.11844C6.93565 5.20954 6.85737 5.2848 6.76415 5.33703C6.67092 5.38926 6.56586 5.41671 6.459 5.41677H4.37567C4.18409 5.41666 3.99436 5.4543 3.81733 5.52754C3.64031 5.60078 3.47944 5.70818 3.34393 5.84361C3.20843 5.97904 3.10093 6.13984 3.02759 6.31683C2.95425 6.49382 2.9165 6.68352 2.9165 6.8751V14.7918C2.9165 15.5968 3.56984 16.2501 4.37484 16.2501H9.42734C9.5715 16.6943 9.77067 17.1143 10.0182 17.5001H4.37484C3.65654 17.5001 2.96767 17.2148 2.45976 16.7069C1.95185 16.1989 1.6665 15.5101 1.6665 14.7918V6.8751C1.6665 6.15681 1.95185 5.46793 2.45976 4.96002C2.96767 4.45211 3.65654 4.16677 4.37484 4.16677H6.10817L6.83734 2.9801C7.00499 2.70695 7.23987 2.48134 7.51954 2.3248C7.79921 2.16826 8.11434 2.08602 8.43484 2.08594L11.604 2.08677ZM9.99984 6.66677C10.7927 6.66646 11.5652 6.91746 12.2065 7.3837C12.8478 7.84995 13.3248 8.50746 13.569 9.26177C13.1512 9.34177 12.7532 9.46649 12.3748 9.63594C12.1902 9.07006 11.8096 8.58869 11.3016 8.27845C10.7936 7.9682 10.1915 7.84947 9.60374 7.94361C9.01599 8.03775 8.48113 8.33859 8.09544 8.79197C7.70974 9.24536 7.49854 9.82152 7.49984 10.4168C7.49984 11.6084 8.33317 12.6043 9.44817 12.8559C9.31519 13.2521 9.2285 13.6623 9.18984 14.0784C8.28974 13.8767 7.49556 13.3503 6.95906 12.6C6.42256 11.8496 6.18138 10.9279 6.2816 10.0109C6.38183 9.09392 6.81643 8.24604 7.50235 7.62928C8.18827 7.01253 9.07741 6.67016 9.99984 6.6676" fill="black"/>
</svg>
