<svg width="22" height="22" viewBox="0 0 22 22" fill="none" xmlns="http://www.w3.org/2000/svg">
<path d="M13.75 0.6875C13.75 0.505164 13.8224 0.330295 13.9514 0.201364C14.0803 0.0724328 14.2552 0 14.4375 0L19.9375 0C20.1198 0 20.2947 0.0724328 20.4236 0.201364C20.5526 0.330295 20.625 0.505164 20.625 0.6875V7.5625C20.625 7.74484 20.5526 7.9197 20.4236 8.04864C20.2947 8.17757 20.1198 8.25 19.9375 8.25H17.875V19.9375C17.875 20.1198 17.8026 20.2947 17.6736 20.4236C17.5447 20.5526 17.3698 20.625 17.1875 20.625C17.0052 20.625 16.8303 20.5526 16.7014 20.4236C16.5724 20.2947 16.5 20.1198 16.5 19.9375V8.25H14.4375C14.2552 8.25 14.0803 8.17757 13.9514 8.04864C13.8224 7.9197 13.75 7.74484 13.75 7.5625V0.6875ZM7.31362 2.75H12.375V4.125H7.31362C6.97938 4.12492 6.65656 4.2466 6.40551 4.46727C6.15447 4.68795 5.99241 4.99251 5.94963 5.324L5.5715 8.25H12.4919C12.6341 8.6523 12.8976 9.00057 13.2461 9.24684C13.5945 9.4931 14.0108 9.62522 14.4375 9.625H4.8125C4.63016 9.625 4.4553 9.69743 4.32636 9.82636C4.19743 9.9553 4.125 10.1302 4.125 10.3125V14.4375C4.125 14.6198 4.19743 14.7947 4.32636 14.9236C4.4553 15.0526 4.63016 15.125 4.8125 15.125H15.125V16.5H6.875V18.2188C6.875 18.4923 6.76635 18.7546 6.57295 18.948C6.37956 19.1413 6.11725 19.25 5.84375 19.25C5.57025 19.25 5.30794 19.1413 5.11455 18.948C4.92115 18.7546 4.8125 18.4923 4.8125 18.2188V16.5C4.26549 16.5 3.74089 16.2827 3.35409 15.8959C2.9673 15.5091 2.75 14.9845 2.75 14.4375V10.3125C2.74994 9.8775 2.88741 9.45362 3.14276 9.10146C3.39812 8.7493 3.75828 8.48689 4.17175 8.35175L4.1855 8.25H3.4375C3.25516 8.25 3.0803 8.17757 2.95136 8.04864C2.82243 7.9197 2.75 7.74484 2.75 7.5625C2.75 7.38016 2.82243 7.2053 2.95136 7.07636C3.0803 6.94743 3.25516 6.875 3.4375 6.875H4.36288L4.58563 5.148C4.67122 4.48478 4.99555 3.87547 5.49792 3.43409C6.00029 2.99272 6.64628 2.74951 7.315 2.75M14.7812 11.3451C14.9023 11.3451 15.0173 11.3648 15.1264 11.4042V13.3458C14.9709 13.4016 14.8042 13.4192 14.6405 13.3971C14.4767 13.3749 14.3207 13.3136 14.1857 13.2184C14.0507 13.1231 13.9406 12.9968 13.8647 12.8499C13.7889 12.7031 13.7495 12.5402 13.75 12.375C13.75 11.8057 14.2106 11.3451 14.7799 11.3451M8.25 12.375C8.25 12.5102 8.22336 12.6442 8.17161 12.7691C8.11985 12.8941 8.04399 13.0076 7.94836 13.1032C7.85272 13.1989 7.73919 13.2747 7.61424 13.3265C7.48929 13.3782 7.35537 13.4049 7.22012 13.4049C7.08488 13.4049 6.95096 13.3782 6.82601 13.3265C6.70106 13.2747 6.58753 13.1989 6.49189 13.1032C6.39626 13.0076 6.3204 12.8941 6.26864 12.7691C6.21689 12.6442 6.19025 12.5102 6.19025 12.375C6.19025 12.1019 6.29875 11.8399 6.49189 11.6468C6.68503 11.4536 6.94699 11.3451 7.22012 11.3451C7.49326 11.3451 7.75522 11.4536 7.94836 11.6468C8.1415 11.8399 8.25 12.1019 8.25 12.375Z" fill="black"/>
</svg>
