<svg width="50" height="50" viewBox="0 0 50 50" fill="none" xmlns="http://www.w3.org/2000/svg">
<path d="M26.5625 4.6875C26.5625 4.2731 26.3979 3.87567 26.1049 3.58265C25.8118 3.28962 25.4144 3.125 25 3.125C24.5856 3.125 24.1882 3.28962 23.8951 3.58265C23.6021 3.87567 23.4375 4.2731 23.4375 4.6875V6.25H16.0156C14.6688 6.25 13.3772 6.78502 12.4248 7.73735C11.4725 8.68968 10.9375 9.98132 10.9375 11.3281V19.9219C10.9375 21.2687 11.4725 22.5603 12.4248 23.5127C13.3772 24.465 14.6688 25 16.0156 25H27.0984C29.5981 22.9734 32.7196 21.8699 35.9375 21.875C36.8365 21.876 37.7115 21.9578 38.5625 22.1203C38.8828 21.4547 39.0625 20.7094 39.0625 19.9219V11.3281C39.0625 9.98132 38.5275 8.68968 37.5752 7.73735C36.6228 6.78502 35.3312 6.25 33.9844 6.25H26.5625V4.6875ZM12.8906 29.6875H23.3359C22.8431 30.6816 22.4697 31.7306 22.2234 32.8125H12.8906C11.8125 32.8125 10.9375 33.6875 10.9375 34.7656V35.4688C10.9375 37.7031 12 39.6984 14.2531 41.2C16.4312 42.65 19.75 43.6406 24.2375 43.7422C25.0103 44.9002 25.9508 45.937 27.0281 46.8188C26.3708 46.8563 25.6948 46.875 25 46.875C19.7406 46.875 15.5 45.7844 12.5203 43.8C9.49531 41.7844 7.8125 38.8609 7.8125 35.4688V34.7656C7.8125 33.4188 8.34751 32.1272 9.29985 31.1748C10.2522 30.2225 11.5438 29.6875 12.8906 29.6875ZM14.0625 11.3281C14.0625 10.25 14.9375 9.375 16.0156 9.375H33.9844C35.0625 9.375 35.9375 10.25 35.9375 11.3281V19.9219C35.9375 21 35.0625 21.875 33.9844 21.875H16.0156C14.9375 21.875 14.0625 21 14.0625 19.9219V11.3281ZM22.2656 15.625C22.2656 16.3502 21.9775 17.0457 21.4647 17.5585C20.952 18.0713 20.2565 18.3594 19.5312 18.3594C18.806 18.3594 18.1105 18.0713 17.5978 17.5585C17.085 17.0457 16.7969 16.3502 16.7969 15.625C16.7969 14.8998 17.085 14.2043 17.5978 13.6915C18.1105 13.1787 18.806 12.8906 19.5312 12.8906C20.2565 12.8906 20.952 13.1787 21.4647 13.6915C21.9775 14.2043 22.2656 14.8998 22.2656 15.625ZM30.4688 18.3594C30.8278 18.3594 31.1834 18.2886 31.5152 18.1512C31.8469 18.0138 32.1483 17.8124 32.4022 17.5585C32.6562 17.3046 32.8576 17.0031 32.995 16.6714C33.1324 16.3397 33.2031 15.9841 33.2031 15.625C33.2031 15.2659 33.1324 14.9103 32.995 14.5786C32.8576 14.2469 32.6562 13.9454 32.4022 13.6915C32.1483 13.4376 31.8469 13.2362 31.5152 13.0988C31.1834 12.9614 30.8278 12.8906 30.4688 12.8906C29.7435 12.8906 29.048 13.1787 28.5353 13.6915C28.0225 14.2043 27.7344 14.8998 27.7344 15.625C27.7344 16.3502 28.0225 17.0457 28.5353 17.5585C29.048 18.0713 29.7435 18.3594 30.4688 18.3594ZM35.9375 47.6562C39.0455 47.6562 42.0262 46.4216 44.2239 44.2239C46.4216 42.0262 47.6562 39.0455 47.6562 35.9375C47.6562 32.8295 46.4216 29.8488 44.2239 27.6511C42.0262 25.4534 39.0455 24.2188 35.9375 24.2188C32.8295 24.2188 29.8488 25.4534 27.6511 27.6511C25.4534 29.8488 24.2188 32.8295 24.2188 35.9375C24.2188 39.0455 25.4534 42.0262 27.6511 44.2239C29.8488 46.4216 32.8295 47.6562 35.9375 47.6562ZM37.5 28.5156V34.375H43.3594C43.6702 34.375 43.9682 34.4985 44.188 34.7182C44.4078 34.938 44.5312 35.2361 44.5312 35.5469C44.5312 35.8577 44.4078 36.1557 44.188 36.3755C43.9682 36.5953 43.6702 36.7188 43.3594 36.7188H37.5V42.5781C37.5 42.8889 37.3765 43.187 37.1568 43.4068C36.937 43.6265 36.6389 43.75 36.3281 43.75C36.0173 43.75 35.7193 43.6265 35.4995 43.4068C35.2797 43.187 35.1562 42.8889 35.1562 42.5781V36.7188H29.2969C28.9861 36.7188 28.688 36.5953 28.4682 36.3755C28.2485 36.1557 28.125 35.8577 28.125 35.5469C28.125 35.2361 28.2485 34.938 28.4682 34.7182C28.688 34.4985 28.9861 34.375 29.2969 34.375H35.1562V28.5156C35.1562 28.2048 35.2797 27.9068 35.4995 27.687C35.7193 27.4672 36.0173 27.3438 36.3281 27.3438C36.6389 27.3438 36.937 27.4672 37.1568 27.687C37.3765 27.9068 37.5 28.2048 37.5 28.5156Z" fill="#FFFC35"/>
</svg>
