<svg width="20" height="25" viewBox="0 0 20 25" fill="none" xmlns="http://www.w3.org/2000/svg">
<path d="M10 23.5C10 23.5 19 16.75 19 9.4375C19 4.77775 14.9708 1 10 1C5.02919 1 1 4.77775 1 9.4375C1 16.75 10 23.5 10 23.5Z" stroke="black" stroke-width="1.66667" stroke-linejoin="round"/>
<path d="M8.3125 6.625V15.625" stroke="black" stroke-width="1.66667" stroke-linecap="round" stroke-linejoin="round"/>
<path d="M8.3125 6.625H11.6875C12.2842 6.625 12.8565 6.86205 13.2785 7.28401C13.7004 7.70597 13.9375 8.27826 13.9375 8.875C13.9375 9.47174 13.7004 10.044 13.2785 10.466C12.8565 10.8879 12.2842 11.125 11.6875 11.125H8.3125V6.625Z" stroke="black" stroke-width="1.66667" stroke-linejoin="round"/>
</svg>
