<svg width="22" height="22" viewBox="0 0 22 22" fill="none" xmlns="http://www.w3.org/2000/svg">
<path d="M13.0496 4.85103C13.0496 4.37436 13.0496 4.13603 12.9974 3.94078C12.9273 3.68021 12.79 3.44262 12.5992 3.25182C12.4084 3.06102 12.1708 2.9237 11.9102 2.85361C11.3951 2.71611 10.6049 2.71611 10.0897 2.85361C9.82898 2.92356 9.5912 3.06081 9.40023 3.25162C9.20926 3.44244 9.0718 3.6801 9.00164 3.94078C8.94939 4.13603 8.94939 4.37436 8.94939 4.85103C8.94939 5.8172 8.94939 8.34995 8.64872 8.6497C8.34897 8.95036 5.81622 8.95036 4.85005 8.95036C4.37339 8.95036 4.13505 8.95036 3.9398 9.00261C3.67923 9.0727 3.44164 9.21002 3.25084 9.40082C3.06004 9.59162 2.92272 9.82921 2.85264 10.0898C2.71514 10.6049 2.71514 11.396 2.85264 11.9103C2.99472 12.441 3.40905 12.8544 3.9398 12.9974C4.13505 13.0497 4.37339 13.0497 4.85005 13.0497C5.81622 13.0497 8.34897 13.0497 8.64872 13.3494C8.94939 13.6501 8.94939 14.1332 8.94939 15.1003C8.94939 15.576 8.94939 17.864 9.00164 18.0593C9.07172 18.3199 9.20904 18.5574 9.39984 18.7482C9.59064 18.939 9.82823 19.0764 10.0888 19.1464C10.604 19.2839 11.3951 19.2839 11.9093 19.1464C12.1699 19.0764 12.4075 18.939 12.5983 18.7482C12.7891 18.5574 12.9264 18.3199 12.9965 18.0593C13.0487 17.864 13.0487 15.576 13.0487 15.0994C13.0487 14.1332 13.0487 13.6501 13.3485 13.3494C13.6491 13.0497 16.1819 13.0497 17.1481 13.0497C17.6247 13.0497 17.8631 13.0497 18.0583 12.9974C18.3189 12.9274 18.5565 12.79 18.7473 12.5992C18.9381 12.4084 19.0754 12.1709 19.1455 11.9103C19.283 11.3951 19.283 10.6049 19.1455 10.0898C19.0754 9.82921 18.9381 9.59162 18.7473 9.40082C18.5565 9.21002 18.3189 9.0727 18.0583 9.00261C17.8631 8.95036 17.6247 8.95036 17.1481 8.95036C16.1819 8.95036 13.6491 8.95036 13.3494 8.6497C13.0487 8.34995 13.0487 5.8172 13.0487 4.85103" stroke="black" stroke-width="1.5" stroke-linecap="round" stroke-linejoin="round"/>
</svg>
