<svg width="440" height="504" viewBox="0 0 440 504" fill="none" xmlns="http://www.w3.org/2000/svg">
<g id="Black Logo 1">
<path id="Vector" d="M227.815 82.1953C229.069 82.288 230.323 82.3803 231.578 82.4722C232.125 82.5134 232.672 82.5547 233.236 82.5972C234.179 82.6593 235.124 82.6875 236.068 82.6875C236.068 83.0124 236.068 83.3372 236.068 83.6719C237.104 83.7676 238.139 83.8591 239.175 83.9488C239.752 84.0001 240.328 84.0515 240.922 84.1045C242.364 84.283 242.364 84.283 243.378 83.6719C243.539 83.9967 243.7 84.3216 243.865 84.6563C244.975 85.0787 244.975 85.0787 246.346 85.4234C246.873 85.5702 247.401 85.717 247.944 85.8682C248.518 86.0266 249.091 86.185 249.682 86.3482C256.19 88.2091 262.286 90.6657 268.462 93.4616C269.674 93.9997 270.899 94.4963 272.129 94.9922C273.826 95.8491 275.4 96.9228 277.002 97.9453C277.497 98.2556 277.992 98.5658 278.502 98.8855C284.937 102.953 290.936 107.482 296.494 112.711C297.172 113.308 297.852 113.903 298.535 114.495C306.216 121.291 312.318 129.922 317.448 138.797C317.835 139.464 317.835 139.464 318.229 140.145C319.885 143.074 319.885 143.074 319.885 144.211C320.206 144.373 320.528 144.536 320.859 144.703C321.206 145.68 321.525 146.667 321.834 147.656C322.466 149.304 323.123 150.941 323.783 152.578C324.105 152.578 324.426 152.578 324.758 152.578C324.835 153.399 324.835 153.399 324.914 154.235C325.225 156.74 325.922 159.088 326.646 161.499C328.62 168.09 329.861 174.6 330.453 181.463C330.484 181.808 330.514 182.152 330.546 182.507C331.331 191.412 331.121 199.912 330.25 208.807C330.031 211.063 329.832 213.32 329.631 215.578C329.961 215.699 330.291 215.82 330.632 215.944C356.403 225.449 356.403 225.449 362.777 237.179C364.222 240.325 364.222 244.084 363.426 247.418C360.061 256.7 350.708 261.815 342.294 265.78C327.772 272.362 310.611 277.455 294.742 278.997C293.606 279.108 293.606 279.108 292.108 279.563C291.59 280.682 291.59 280.682 291.134 282.023C290.603 282.967 290.052 283.898 289.487 284.821C289.161 285.355 288.835 285.889 288.499 286.439C288.149 287.008 287.799 287.576 287.449 288.145C287.089 288.732 286.729 289.319 286.369 289.906C284.148 293.527 281.898 297.127 279.6 300.699C278.106 303.03 276.626 305.371 275.144 307.709C274.635 308.512 274.635 308.512 274.116 309.331C271.889 312.848 269.675 316.372 267.47 319.904C263.594 326.114 259.701 332.314 255.743 338.471C253.658 341.715 251.605 344.979 249.563 348.252C245.469 354.814 241.351 361.361 237.161 367.862C235.265 370.817 233.429 373.808 231.591 376.8C227.858 382.872 223.947 388.812 219.987 394.734C217.321 393.504 216.103 391.424 214.718 388.89C212.109 384.288 209.163 379.898 206.274 375.472C205.057 373.578 203.884 371.657 202.718 369.731C201.97 368.53 201.97 368.53 200.495 367.664C200.495 367.177 200.495 366.69 200.495 366.188C199.982 365.254 199.428 364.344 198.85 363.45C198.545 362.972 198.24 362.494 197.925 362.002C197.128 360.759 197.128 360.759 196.109 359.789C194.647 357.517 194.647 357.517 194.647 356.344C194.165 356.344 193.683 356.344 193.186 356.344C193.155 356.009 193.125 355.674 193.094 355.329C192.627 353.624 191.846 352.579 190.778 351.201C190.262 350.438 190.262 350.438 190.262 349.453C189.779 349.453 189.297 349.453 188.8 349.453C188.745 349.09 188.69 348.726 188.633 348.352C188.303 346.953 187.872 346.114 187.085 344.927C186.831 344.539 186.576 344.151 186.315 343.752C186.039 343.339 185.764 342.926 185.48 342.501C184.898 341.614 184.317 340.726 183.736 339.838C183.294 339.164 183.294 339.164 182.843 338.477C181.543 336.482 180.281 334.464 179.023 332.442C178.788 332.064 178.552 331.687 178.309 331.298C177.04 329.263 175.776 327.225 174.516 325.184C174.251 324.756 173.986 324.329 173.713 323.888C173.204 323.068 172.697 322.247 172.192 321.424C171.849 320.871 171.849 320.871 171.499 320.306C171.298 319.982 171.098 319.657 170.892 319.323C170.302 318.419 170.302 318.419 169.501 317.656C168.82 316.969 168.82 316.969 168.415 315.917C167.57 313.826 166.31 312.046 165.074 310.17C162.622 306.405 160.217 302.613 157.856 298.789C157.553 298.299 157.25 297.809 156.938 297.305C155.403 294.82 153.883 292.327 152.381 289.822C152.093 289.342 151.804 288.863 151.507 288.37C150.959 287.46 150.415 286.548 149.875 285.633C149.51 285.027 149.51 285.027 149.138 284.409C148.927 284.054 148.715 283.699 148.498 283.333C147.87 282.366 147.87 282.366 146.404 282.023C146.404 281.374 146.404 280.724 146.404 280.055C145.876 279.953 145.348 279.85 144.803 279.745C89.9166 268.982 89.9166 268.982 76.4228 251.602C75.7487 250.529 75.4816 249.792 75.2578 248.555C75.1118 247.968 75.1118 247.968 74.9628 247.368C73.9431 242.675 74.3221 239.041 76.8111 234.897C83.7258 224.84 96.9879 219.141 108.395 216.07C108.877 216.07 109.359 216.07 109.856 216.07C109.757 215.511 109.657 214.951 109.554 214.375C109.421 213.607 109.288 212.839 109.156 212.071C109.09 211.706 109.025 211.342 108.957 210.966C107.917 204.866 107.791 198.683 107.785 192.507C107.785 192.156 107.784 191.804 107.784 191.442C107.793 181.879 109.033 172.685 111.318 163.406C110.997 163.244 110.675 163.081 110.344 162.914C110.665 162.427 110.987 161.94 111.318 161.438C112.153 159.964 112.617 158.444 113.096 156.821C116.732 144.77 123.001 133.79 130.811 124.031C131.362 123.306 131.91 122.578 132.455 121.847C132.69 121.533 132.925 121.219 133.167 120.895C133.767 120.091 133.767 120.091 134.222 119.109C134.989 118.455 135.758 117.801 136.529 117.15C137.606 116.18 138.612 115.159 139.616 114.113C142.934 110.663 146.49 107.71 150.303 104.836C150.567 104.632 150.832 104.428 151.105 104.218C165 93.517 181.134 87.0204 198.13 83.4053C199.071 83.2058 199.071 83.2058 200.008 82.6875C201.035 82.5771 202.065 82.494 203.095 82.4241C203.725 82.3813 204.355 82.3385 205.005 82.2943C205.335 82.2731 205.666 82.2518 206.006 82.2298C206.992 82.1659 207.978 82.0977 208.964 82.029C215.314 81.608 221.47 81.7137 227.815 82.1953ZM108.242 230.928C107.878 231.119 107.514 231.31 107.139 231.506C103.806 233.294 100.923 235.234 99.1358 238.711C98.5434 240.953 98.5234 242.683 99.1358 244.925C104.781 254.546 118.837 257.523 128.77 260.095C129.122 260.185 129.473 260.275 129.836 260.367C130.136 260.446 130.436 260.525 130.745 260.607C133.159 261.193 135.603 261.648 138.038 262.131C138.715 262.266 139.391 262.403 140.067 262.541C144.443 263.434 148.758 264.08 153.227 264.305C153.227 264.467 153.227 264.63 153.227 264.797C154.353 264.879 155.48 264.961 156.607 265.043C157.235 265.089 157.862 265.134 158.509 265.181C159.522 265.259 159.522 265.259 160.536 265.289C160.697 265.452 160.858 265.614 161.023 265.781C162.331 265.961 163.632 266.111 164.945 266.243C165.349 266.284 165.754 266.326 166.171 266.369C167.501 266.505 168.83 266.636 170.16 266.766C170.612 266.81 171.063 266.855 171.529 266.901C179.4 267.671 187.225 268.135 195.135 268.242C195.535 268.25 195.935 268.257 196.347 268.265C200.198 268.335 203.978 268.2 207.805 267.75C207.805 268.075 207.805 268.4 207.805 268.734C215.363 268.734 222.921 268.734 230.708 268.734C230.708 268.572 230.708 268.41 230.708 268.242C232.155 268.242 233.603 268.242 235.094 268.242C235.094 268.405 235.094 268.567 235.094 268.734C236.38 268.734 237.667 268.734 238.992 268.734C238.992 268.41 238.992 268.085 238.992 267.75C239.314 267.912 239.635 268.075 239.967 268.242C241.262 268.296 242.541 268.318 243.837 268.311C244.228 268.31 244.619 268.309 245.022 268.308C249.351 268.27 253.653 267.973 257.967 267.627C258.384 267.594 258.801 267.562 259.23 267.528C274.539 266.325 289.73 264.489 304.778 261.352C304.778 261.027 304.778 260.702 304.778 260.367C305.303 260.398 305.827 260.428 306.368 260.459C309.178 260.455 311.75 259.672 314.433 258.891C314.968 258.736 315.504 258.581 316.055 258.421C329.246 254.511 329.246 254.511 338.943 245.238C339.956 242.64 339.7 240.526 338.707 237.973C338.033 236.698 338.033 236.698 336.94 236.25C336.619 235.803 336.297 235.357 335.966 234.897C334.523 233.074 332.729 232.274 330.659 231.319C329.631 230.836 329.631 230.836 329.144 230.344C328.489 230.074 327.828 229.82 327.164 229.575C326.806 229.442 326.449 229.31 326.081 229.173C325.805 229.072 325.529 228.971 325.245 228.867C325.081 229.235 324.916 229.603 324.746 229.982C324.529 230.467 324.312 230.952 324.088 231.451C323.766 232.171 323.766 232.171 323.437 232.905C323.086 233.673 322.73 234.439 322.354 235.195C321.884 236.149 321.442 237.111 321.006 238.082C315.442 250.399 315.442 250.399 311.69 251.85C287.543 259.757 260.221 260.238 235.094 260.859C234.381 260.877 234.381 260.877 233.655 260.896C230.351 260.978 227.047 261.056 223.743 261.129C222.622 261.154 221.501 261.18 220.379 261.207C218.799 261.243 217.22 261.277 215.64 261.309C215.158 261.321 214.677 261.333 214.18 261.345C213.739 261.353 213.298 261.362 212.844 261.37C212.457 261.378 212.071 261.387 211.672 261.395C210.729 261.352 210.729 261.352 209.754 260.859C209.067 260.797 208.378 260.763 207.688 260.744C207.256 260.731 206.823 260.718 206.377 260.704C205.902 260.691 205.427 260.678 204.938 260.665C203.908 260.633 202.877 260.6 201.847 260.567C201.026 260.541 201.026 260.541 200.188 260.515C177.834 259.792 155.134 258.421 133.247 253.477C132.821 253.395 132.394 253.314 131.955 253.23C130.632 252.946 129.38 252.562 128.1 252.123C127.647 251.973 127.194 251.824 126.727 251.669C123.998 250.272 122.758 247.355 121.339 244.74C121.148 244.393 120.957 244.046 120.76 243.688C120.21 242.686 119.663 241.683 119.115 240.68C118.618 239.777 118.121 238.875 117.623 237.973C117.308 237.399 116.993 236.824 116.679 236.25C116.357 236.25 116.035 236.25 115.704 236.25C115.249 234.768 115.195 234.347 115.704 232.805C115.339 231.77 115.339 231.77 114.76 230.744C114.575 230.392 114.389 230.039 114.198 229.677C114.052 229.41 113.906 229.142 113.755 228.867C111.601 228.867 110.113 229.915 108.242 230.928ZM115.704 234.281C116.191 235.266 116.191 235.266 116.191 235.266L115.704 234.281Z" fill="#010100"/>
<path id="Vector_2" d="M208.216 141.099C209.897 141.106 211.579 141.103 213.26 141.101C233.407 141.078 251.558 142.146 267.661 155.687C269.478 157.112 271.459 158.014 273.581 158.877C275.281 159.57 275.952 159.846 277.002 161.437C277.063 163.006 277.063 163.006 277.002 164.391C275.101 165.67 273.36 165.449 271.154 165.375C271.154 165.7 271.154 166.025 271.154 166.359C271.722 166.344 271.722 166.344 272.3 166.328C274.03 166.287 275.759 166.262 277.489 166.236C278.084 166.22 278.679 166.203 279.292 166.186C282.398 166.152 284.676 166.229 287.362 167.857C288.754 168.631 290.213 168.737 291.773 168.943C295.012 169.46 297.92 170.431 300.941 171.712C301.327 171.873 301.714 172.035 302.112 172.201C305.143 173.535 307.903 175.228 309.651 178.172C309.651 178.659 309.651 179.146 309.651 179.648C306.757 179.648 303.862 179.648 300.88 179.648C303.985 183.251 303.985 183.251 308.068 185.247C309.79 184.184 310.099 182.531 310.626 180.633C314.633 184.116 315.905 191.792 316.474 196.875C317.108 209.618 317.108 209.618 315.012 214.594C311.7 216.824 306.943 216.759 303.046 217.089C302.302 217.153 302.302 217.153 301.542 217.218C299.88 217.355 298.218 217.483 296.555 217.608C295.972 217.652 295.389 217.696 294.788 217.741C283.315 218.569 271.853 218.722 260.354 218.716C259.023 218.716 257.693 218.717 256.362 218.718C247.529 218.721 238.716 218.606 229.897 218.076C229.398 218.046 229.398 218.046 228.889 218.015C213.141 217.046 213.141 217.046 208.779 215.578C208.775 215.115 208.77 214.652 208.766 214.175C209.038 197.063 209.038 197.063 201.662 182.205C199.947 180.617 199.233 180.128 196.871 180.171C194.227 180.874 193.33 182.066 191.95 184.311C186.715 193.963 187.969 205.072 189.287 215.578C177.544 214.537 164.344 212.579 153.714 207.211C153.749 206.886 153.784 206.561 153.82 206.227C154.799 195.685 155.386 184.442 149.328 175.219C148.043 174.046 147.474 173.76 145.734 173.435C143.604 173.806 142.981 174.345 141.703 176.04C139.308 180.214 138.54 184.916 138.56 189.673C138.561 190.175 138.561 190.175 138.562 190.686C138.565 191.744 138.571 192.802 138.577 193.86C138.579 194.582 138.582 195.304 138.584 196.025C138.589 197.785 138.597 199.545 138.607 201.305C136.178 201.078 134.388 200.853 132.272 199.551C131.901 199.327 131.529 199.103 131.146 198.873C130.874 198.701 130.603 198.529 130.323 198.352C130.667 199.926 130.667 199.926 132.052 200.584C132.567 200.832 133.082 201.08 133.613 201.335C134.123 201.585 134.633 201.834 135.158 202.091C136.459 202.689 137.763 203.245 139.095 203.766C139.095 204.415 139.095 205.065 139.095 205.734C133.942 204.895 130.158 202.655 126.794 198.603C122.91 192.998 122.26 186.728 123.238 180.094C124.431 175.618 126.879 172.172 130.811 169.805C131.132 169.805 131.454 169.805 131.785 169.805C131.685 170.161 131.585 170.518 131.483 170.885C131.351 171.361 131.22 171.837 131.085 172.327C130.955 172.795 130.825 173.264 130.691 173.746C129.431 178.794 128.913 185.027 130.811 189.984C131.663 191.484 131.663 191.484 132.76 192.445C133.242 192.445 133.725 192.445 134.222 192.445C134.244 192.089 134.265 191.732 134.288 191.364C134.392 189.714 134.505 188.065 134.618 186.416C134.652 185.855 134.686 185.294 134.721 184.716C135.218 177.659 136.548 171.374 141.767 166.354C144.883 163.866 148.537 161.852 152.252 160.453C149.708 160.339 147.609 160.701 145.217 161.512C144.883 161.621 144.55 161.729 144.207 161.84C143.151 162.183 142.097 162.533 141.044 162.883C139.99 163.231 138.936 163.578 137.881 163.921C137.228 164.134 136.575 164.35 135.924 164.569C133.886 165.236 131.953 165.616 129.836 165.867C131.126 164.313 132.762 163.574 134.551 162.749C134.873 162.599 135.195 162.449 135.527 162.294C139.098 160.668 142.778 159.412 146.496 158.177C155.547 155.159 155.547 155.159 163.9 150.59C177.985 141.584 192.026 141.013 208.216 141.099Z" fill="#FFFEC7"/>
<path id="Vector_3" d="M200.185 145.605C200.678 145.603 201.172 145.601 201.68 145.599C203.285 145.594 204.89 145.594 206.495 145.595C207.041 145.595 207.587 145.595 208.15 145.595C214.979 145.6 221.79 145.683 228.607 146.118C229.217 146.157 229.827 146.195 230.456 146.235C244.439 147.237 254.939 151.31 265.86 160.222C267.262 161.338 268.717 162.371 270.18 163.406C270.019 164.218 269.858 165.03 269.692 165.867C269.134 165.853 268.576 165.838 268 165.823C257.167 165.545 246.338 165.341 235.5 165.341C233.887 165.34 232.273 165.337 230.659 165.333C229.858 165.331 229.858 165.331 229.041 165.329C227.964 165.326 226.887 165.324 225.81 165.321C223.061 165.314 220.311 165.314 217.562 165.326C214.831 165.337 212.1 165.331 209.369 165.315C208.344 165.311 207.32 165.314 206.295 165.323C204.882 165.335 203.471 165.326 202.058 165.311C201.644 165.32 201.23 165.328 200.804 165.337C199.106 165.301 198.01 165.249 196.672 164.132C194.629 161.77 193.337 159.093 192.028 156.269C191.809 155.821 191.59 155.372 191.364 154.91C190.178 152.388 189.379 150.458 189.774 147.656C192.574 145.161 196.669 145.609 200.185 145.605Z" fill="#010000"/>
<path id="Vector_4" d="M250.231 194.814C250.857 194.804 250.857 194.804 251.497 194.793C252.85 194.887 253.959 195.098 255.27 195.402C259.229 196.137 263.21 196 267.219 195.965C268.681 195.952 270.144 195.946 271.606 195.941C274.704 195.93 277.802 195.911 280.9 195.891C284.506 195.867 288.111 195.847 291.716 195.836C293.157 195.829 294.599 195.817 296.04 195.804C296.919 195.801 297.798 195.798 298.677 195.795C299.279 195.787 299.279 195.787 299.893 195.779C301.782 195.779 302.681 195.791 304.291 196.875C304.998 200.252 303.911 203.43 302.201 206.294C300.585 208.655 299.048 209.909 296.494 211.148C296.012 211.392 296.012 211.392 295.52 211.641C284.023 213.518 264.929 215.937 255.05 208.968C251.329 205.779 247.499 201.325 245.327 196.875C245.488 196.388 245.649 195.9 245.814 195.398C247.256 194.835 248.697 194.825 250.231 194.814Z" fill="#080604"/>
<path id="Vector_5" d="M200.495 185.063C204.438 188.069 205.852 193.657 206.641 198.335C206.971 200.944 206.995 203.538 206.982 206.165C206.979 207.01 206.979 207.01 206.976 207.871C206.902 213.479 206.455 219.577 202.536 223.945C200.918 224.692 199.817 224.682 198.059 224.438C194.191 222.172 192.931 217.81 191.815 213.64C190.263 205.503 189.664 194.667 194.173 187.41C196.054 184.744 197.259 184.048 200.495 185.063Z" fill="#FFFEC7"/>
<path id="Vector_6" d="M181.003 147.626C185.712 150.896 188.406 155.876 189.49 161.508C189.727 163.16 189.826 164.247 189.257 165.836C188.033 167.152 187.138 167.226 185.389 167.344C184.047 164.941 183.453 162.641 182.952 159.961C176.511 159.678 170.706 160.449 164.435 161.93C164.435 162.255 164.435 162.579 164.435 162.914C169.902 162.914 175.37 162.914 181.003 162.914C179.217 164.718 176.863 164.449 174.468 164.459C174.071 164.458 173.674 164.457 173.265 164.456C172.851 164.456 172.438 164.457 172.011 164.457C171.139 164.458 170.267 164.457 169.395 164.455C168.062 164.452 166.728 164.455 165.395 164.458C164.546 164.458 163.698 164.457 162.849 164.456C162.451 164.457 162.053 164.458 161.643 164.459C159.892 164.452 158.322 164.376 156.638 163.898C156.593 163.383 156.593 163.383 156.548 162.856C156.507 162.408 156.467 161.961 156.424 161.499C156.385 161.054 156.345 160.608 156.305 160.149C156.214 158.971 156.214 158.971 155.663 157.992C155.915 157.861 156.168 157.73 156.428 157.595C162.253 154.599 162.253 154.599 167.846 151.194C172.029 148.429 175.954 146.032 181.003 147.626Z" fill="#040300"/>
<path id="Vector_7" d="M146.526 177.188C148.603 177.95 149.637 179.25 150.79 181.125C154.043 188.715 154.574 198.906 151.765 206.719C150.307 210.216 150.307 210.216 148.841 211.148C147.337 211.216 146.389 210.99 145.146 210.11C140.991 205.988 140.933 199.759 140.842 194.276C140.838 193.614 140.834 192.953 140.831 192.292C140.823 191.341 140.823 191.341 140.816 190.372C140.858 185.77 141.061 181.108 144.455 177.68C145.43 177.188 145.43 177.188 146.526 177.188Z" fill="#FFFEC7"/>
<path id="Vector_8" d="M215.602 175.219C222.211 175.599 228.78 177.193 235.25 178.509C237.084 178.882 238.919 179.246 240.754 179.611C241.929 179.848 243.104 180.085 244.278 180.323C244.822 180.431 245.367 180.539 245.927 180.65C248.66 181.211 251.102 181.858 253.611 183.094C253.124 184.57 253.124 184.57 252.286 185.148C250.957 185.634 249.91 185.674 248.497 185.668C247.959 185.668 247.422 185.667 246.869 185.666C246.29 185.66 245.711 185.654 245.114 185.647C244.515 185.643 243.916 185.639 243.298 185.635C238.837 185.595 234.376 185.502 229.916 185.37C229.047 185.347 229.047 185.347 228.16 185.324C219.658 185.03 219.658 185.03 217.581 183.285C216.218 181.785 215.096 180.172 214.627 178.172C214.877 175.951 214.877 175.951 215.602 175.219Z" fill="#030301"/>
<path id="Vector_9" d="M199.033 190.477C200.13 190.477 200.13 190.477 201.47 190.969C205.737 197.434 205.613 206.432 204.253 213.802C203.762 215.622 203.006 216.977 201.957 218.531C200.303 218.438 199.652 218.176 198.485 216.962C195.09 211.053 195.257 201.933 196.749 195.46C197.258 193.593 198 192.107 199.033 190.477Z" fill="#030200"/>
<path id="Vector_10" d="M130.323 171.281C130.221 171.71 130.221 171.71 130.117 172.148C129.375 175.512 129.17 178.731 129.166 182.171C129.154 182.679 129.142 183.187 129.13 183.711C129.119 186.58 129.369 188.665 130.83 191.153C131.298 191.953 131.298 191.953 131.785 193.43C133.349 193.605 134.022 193.575 135.318 192.63C136.329 191.244 136.506 190.205 136.658 188.508C136.819 188.508 136.98 188.508 137.146 188.508C137.306 192.568 137.467 196.629 137.633 200.812C132.273 198.844 132.273 198.844 131.298 197.859C130.29 197.543 130.29 197.543 129.349 197.367C129.509 198.342 129.67 199.316 129.836 200.32C126.819 197.534 124.997 194.293 123.501 190.477C123.34 190.477 123.179 190.477 123.014 190.477C122.812 183.543 122.803 177.876 127.399 172.266C128.861 171.281 128.861 171.281 130.323 171.281Z" fill="#FFFEC7"/>
<path id="Vector_11" d="M226.505 225.084C237.338 227.3 248.239 228.223 259.242 229.105C262.524 229.369 265.804 229.653 269.083 229.944C269.55 229.985 270.017 230.026 270.498 230.069C271.529 230.16 272.56 230.252 273.591 230.344C273.591 230.506 273.591 230.669 273.591 230.836C254.435 232.473 236.17 232.165 217.551 226.898C217.11 226.777 216.669 226.656 216.215 226.532C215.771 226.405 215.328 226.279 214.871 226.149C214.464 226.034 214.057 225.918 213.637 225.8C212.678 225.422 212.678 225.422 212.19 224.438C216.819 222.879 221.871 224.133 226.505 225.084Z" fill="#FFFEC7"/>
<path id="Vector_12" d="M233.541 202.627C234.033 202.654 234.525 202.68 235.032 202.707C237.344 202.884 238.639 203.008 240.534 204.433C241.712 206.146 241.766 207.138 241.429 209.18C239.931 210.702 238.751 210.845 236.672 210.852C236.126 210.854 235.581 210.856 235.019 210.858C234.45 210.852 233.882 210.847 233.297 210.841C232.738 210.847 232.179 210.852 231.604 210.858C228.124 210.846 224.416 210.81 221.589 208.496C220.962 207.703 220.962 207.703 220.749 206.011C220.962 204.258 220.962 204.258 221.632 203.058C224.784 201.163 229.991 202.364 233.541 202.627Z" fill="#030200"/>
<path id="Vector_13" d="M147.379 181.125C150.121 183.656 151.099 186.635 151.377 190.319C151.435 191.808 151.458 193.293 151.46 194.783C151.461 195.508 151.461 195.508 151.462 196.248C151.411 199.662 151.251 202.82 149.328 205.734C148.201 205.734 148.201 205.734 146.892 205.242C143.854 200.038 144.091 191.343 145.361 185.645C145.809 184.415 146.283 183.265 146.892 182.109C147.052 181.785 147.213 181.46 147.379 181.125Z" fill="#030200"/>
<path id="Vector_14" d="M200.008 185.555C202.601 187.647 204.021 190.745 204.881 193.922C204.93 195.302 204.93 195.302 204.881 196.383C203.844 194.812 202.96 193.193 202.064 191.538C201.578 190.67 201.043 189.83 200.495 189C199.333 188.937 199.333 188.937 198.059 189.492C195.138 193.502 194.945 198.498 194.952 203.273C194.953 204.086 194.953 204.086 194.954 204.915C195.044 210.968 195.597 216.537 200.008 220.992C198.422 220.859 197.708 220.63 196.536 219.516C192.375 212.791 192.348 203.196 193.764 195.614C194.426 192.827 195.402 190.804 197.084 188.508C195.764 189.669 195.208 190.772 194.587 192.415C194.343 193.046 194.343 193.046 194.095 193.689C193.366 195.791 193.107 197.633 193.031 199.867C193.011 200.438 192.991 201.009 192.97 201.597C192.95 202.191 192.931 202.785 192.911 203.397C192.89 203.998 192.869 204.599 192.848 205.219C192.796 206.703 192.746 208.188 192.698 209.672C192.216 209.672 191.733 209.672 191.236 209.672C191.222 207.426 191.214 205.181 191.206 202.935C191.202 202.298 191.198 201.662 191.194 201.006C191.192 200.392 191.19 199.778 191.189 199.146C191.185 198.299 191.185 198.299 191.181 197.435C191.232 196.025 191.337 194.785 191.724 193.43C192.045 193.267 192.367 193.105 192.698 192.938C193.236 191.589 193.667 190.217 194.113 188.835C194.641 187.54 195.027 186.897 196.109 186.047C198.444 185.261 198.444 185.261 200.008 185.555Z" fill="#FFFEC7"/>
<path id="Vector_15" d="M181.978 142.734C181.978 143.059 181.978 143.384 181.978 143.719C181.3 143.915 181.3 143.915 180.609 144.115C180.025 144.289 179.442 144.462 178.841 144.642C178.258 144.813 177.676 144.984 177.076 145.161C175.586 145.521 175.586 145.521 175.155 146.672C175.508 146.649 175.861 146.626 176.225 146.603C179.247 146.489 181.106 146.498 183.439 148.641C185.459 150.711 187.295 152.77 188.312 155.531C188.071 156.262 188.071 156.262 187.825 157.008C187.659 156.657 187.494 156.306 187.323 155.945C185.526 152.358 183.49 148.986 179.541 147.656C176.467 147.421 174.581 147.907 171.896 149.379C171.56 149.556 171.224 149.733 170.878 149.915C168.178 151.357 165.584 152.948 163.003 154.597C160.773 155.993 158.469 157.245 156.15 158.484C156.311 158.647 156.472 158.809 156.638 158.977C156.673 159.806 156.679 160.638 156.668 161.468C156.664 161.921 156.659 162.373 156.655 162.839C156.649 163.189 156.644 163.538 156.638 163.898C157.112 163.896 157.585 163.893 158.074 163.891C159.856 163.882 161.639 163.876 163.422 163.871C164.189 163.869 164.956 163.866 165.723 163.861C170.032 163.838 174.281 163.865 178.566 164.391C178.566 164.553 178.566 164.715 178.566 164.883C175.531 164.895 172.495 164.904 169.459 164.91C168.426 164.912 167.393 164.916 166.359 164.92C164.876 164.926 163.393 164.929 161.91 164.931C161.447 164.933 160.983 164.936 160.505 164.939C160.075 164.939 159.646 164.939 159.204 164.939C158.825 164.94 158.446 164.941 158.056 164.942C157.125 164.883 157.125 164.883 156.15 164.391C155.966 163.46 155.966 163.46 155.876 162.299C155.732 160.668 155.533 159.1 155.176 157.5C155.497 157.5 155.819 157.5 156.15 157.5C156.15 157.175 156.15 156.85 156.15 156.516C156.485 156.391 156.82 156.266 157.165 156.137C157.604 155.967 158.043 155.798 158.496 155.624C158.931 155.458 159.366 155.292 159.815 155.122C161.016 154.55 161.682 154.128 162.485 153.07C162.534 152.758 162.583 152.446 162.633 152.124C163.11 150.688 163.808 150.424 165.108 149.704C165.554 149.456 165.999 149.208 166.458 148.953C166.936 148.697 167.414 148.442 167.907 148.179C168.39 147.917 168.873 147.655 169.371 147.385C178.14 142.734 178.14 142.734 181.978 142.734Z" fill="#FFFEC7"/>
<path id="Vector_16" d="M145.43 180.633C145.912 180.795 146.395 180.958 146.892 181.125C146.667 181.328 146.443 181.531 146.212 181.74C143.255 184.996 143.72 190.392 143.823 194.518C144.012 198.575 144.83 202.48 146.404 206.227C147.128 205.983 147.128 205.983 147.866 205.734C148.59 205.491 148.59 205.491 149.328 205.242C150.427 203.616 150.574 201.88 150.824 199.959C150.951 199.002 150.951 199.002 151.081 198.027C151.167 197.356 151.253 196.685 151.338 196.014C151.427 195.335 151.517 194.656 151.607 193.978C151.825 192.319 152.04 190.66 152.252 189C153.495 191.211 153.394 193.155 153.379 195.645C153.376 196.305 153.376 196.305 153.374 196.979C153.294 201.894 152.503 206.54 149.633 210.625C148.841 211.148 148.841 211.148 147.683 211.21C145.799 210.394 145.017 208.937 143.968 207.211C144.129 206.886 144.289 206.561 144.455 206.227C144.606 206.699 144.606 206.699 144.76 207.18C145.379 208.367 145.379 208.367 146.952 208.564C147.415 208.605 147.877 208.646 148.353 208.688C148.353 208.363 148.353 208.038 148.353 207.703C147.992 207.683 147.63 207.663 147.257 207.642C145.777 207.166 145.188 206.671 144.413 205.315C142.627 201.075 142.366 196.621 142.323 192.076C142.316 191.652 142.31 191.227 142.303 190.79C142.326 187.6 142.547 183.706 144.749 181.231C144.974 181.034 145.198 180.836 145.43 180.633Z" fill="#FFFEC7"/>
<path id="Vector_17" d="M199.886 188.354C200.429 188.43 200.429 188.43 200.982 188.508C201.178 188.907 201.178 188.907 201.377 189.313C201.799 190.161 202.234 191.002 202.675 191.84C202.93 192.334 203.186 192.828 203.449 193.337C203.706 193.828 203.963 194.318 204.228 194.824C205.726 198.402 205.457 202.282 205.46 206.104C205.466 206.662 205.472 207.221 205.478 207.797C205.479 208.6 205.479 208.6 205.481 209.418C205.483 209.904 205.485 210.39 205.487 210.89C205.368 212.133 205.368 212.133 204.394 213.609C204.401 213.288 204.409 212.966 204.417 212.634C204.689 201.972 204.689 201.972 201.47 191.953C201.47 191.628 201.47 191.303 201.47 190.969C200.666 190.969 199.862 190.969 199.033 190.969C198.715 191.726 198.401 192.485 198.089 193.245C197.914 193.668 197.739 194.09 197.558 194.526C196.56 197.401 196.487 200.259 196.475 203.273C196.473 203.683 196.471 204.092 196.469 204.514C196.499 207.746 196.964 210.632 197.786 213.763C198.059 215.086 198.059 215.086 197.571 216.562C194.455 213.415 194.523 209.524 194.462 205.188C194.463 204.668 194.464 204.148 194.465 203.612C194.466 203.071 194.466 202.53 194.467 201.972C194.526 198.016 194.702 188.949 199.886 188.354Z" fill="#FFFEC7"/>
<path id="Vector_18" d="M157.612 197.367C159.998 197.679 162.133 198.395 164.374 199.244C171.243 201.756 178.179 203.145 185.389 204.258C185.389 204.42 185.389 204.583 185.389 204.75C183.941 204.75 182.494 204.75 181.003 204.75C181.003 205.075 181.003 205.4 181.003 205.734C181.485 205.734 181.968 205.734 182.465 205.734C182.465 206.222 182.465 206.709 182.465 207.211C179.342 206.92 176.395 206.396 173.358 205.611C172.938 205.504 172.517 205.396 172.083 205.285C168.505 204.346 164.886 203.342 161.511 201.797C161.35 201.472 161.189 201.147 161.023 200.812C163.338 201.243 163.338 201.243 164.435 201.797C164.435 201.31 164.435 200.822 164.435 200.32C164.146 200.225 163.858 200.13 163.561 200.032C161.552 199.363 159.564 198.686 157.612 197.859C157.612 197.697 157.612 197.535 157.612 197.367Z" fill="#FFFEC7"/>
<path id="Vector_19" d="M139.582 178.172C140.176 179.971 139.878 180.633 139.375 182.438C138.431 186.343 138.443 190.094 138.516 194.076C138.523 194.782 138.53 195.488 138.536 196.193C138.552 197.897 138.577 199.601 138.607 201.305C136.177 201.078 134.388 200.853 132.272 199.551C131.715 199.215 131.715 199.215 131.146 198.873C130.739 198.615 130.739 198.615 130.323 198.352C130.667 199.926 130.667 199.926 132.052 200.584C132.567 200.832 133.082 201.08 133.613 201.335C134.123 201.585 134.633 201.834 135.158 202.091C136.459 202.689 137.763 203.245 139.095 203.766C139.095 204.415 139.095 205.065 139.095 205.734C133.947 204.896 130.149 202.659 126.796 198.6C124.866 195.828 123.304 192.941 123.501 189.492C124.062 190.614 124.607 191.741 125.142 192.876C125.384 193.384 125.627 193.891 125.877 194.414C126.237 195.175 126.237 195.175 126.604 195.952C127.382 197.337 128.183 198.276 129.349 199.336C129.349 198.686 129.349 198.037 129.349 197.367C131.397 197.626 132.974 198.405 134.774 199.367C135.752 199.89 135.752 199.89 137.146 200.32C137.138 200.021 137.13 199.722 137.122 199.414C136.794 184.563 136.794 184.563 139.582 178.172Z" fill="#FFFEC7"/>
<path id="Vector_20" d="M228.454 225.422C229.151 225.565 229.847 225.707 230.544 225.849C232.225 226.192 233.903 226.543 235.581 226.898C235.581 227.223 235.581 227.548 235.581 227.883C232.686 227.558 229.792 227.233 226.81 226.898C226.97 227.223 227.131 227.548 227.297 227.883C228.612 228.197 229.896 228.458 231.226 228.683C231.595 228.749 231.965 228.815 232.346 228.883C233.261 229.045 234.177 229.203 235.094 229.359C235.094 229.522 235.094 229.684 235.094 229.852C231.569 229.985 228.421 229.505 224.982 228.744C224.212 228.577 224.212 228.577 223.426 228.407C215.579 226.672 215.579 226.672 212.678 225.422C212.517 225.097 212.356 224.772 212.19 224.438C217.32 222.71 223.318 224.33 228.454 225.422ZM228.271 227.391C229.076 227.391 229.88 227.391 230.708 227.391C230.386 227.715 230.065 228.04 229.733 228.375C229.251 228.05 228.769 227.725 228.271 227.391Z" fill="#FFFEC7"/>
<path id="Vector_21" d="M312.88 200.751C313.694 200.781 313.694 200.781 314.524 200.812C315.665 202.612 315.681 204.126 315.499 206.227C314.52 208.727 312.953 209.562 310.626 210.656C309.194 210.779 309.194 210.779 308.189 210.656C307.944 207.309 308.63 204.79 310.139 201.797C311.113 200.812 311.113 200.812 312.88 200.751Z" fill="#040300"/>
<path id="Vector_22" d="M310.626 180.633C314.633 184.116 315.905 191.792 316.474 196.875C317.108 209.618 317.108 209.618 315.012 214.594C309.689 218.178 300.745 217.133 294.545 217.055C294.545 216.892 294.545 216.73 294.545 216.563C294.997 216.523 295.449 216.483 295.915 216.443C297.608 216.293 299.3 216.14 300.993 215.986C301.723 215.92 302.452 215.855 303.182 215.791C304.237 215.699 305.292 215.602 306.347 215.505C306.98 215.448 307.613 215.392 308.265 215.333C310.258 215.07 312.098 214.629 314.037 214.102C314.359 212.315 314.68 210.528 315.012 208.688C314.047 209.337 313.082 209.987 312.088 210.656C311.766 210.331 311.445 210.007 311.113 209.672C311.576 209.469 312.038 209.266 312.514 209.057C314.164 208.123 314.399 207.946 315.012 206.227C316.151 198.29 314.702 191.42 311.601 184.078C311.229 184.397 310.857 184.715 310.474 185.043C309.164 186.047 309.164 186.047 307.702 186.354C305.573 185.906 305.042 184.86 303.804 183.094C305.006 183.661 305.776 184.102 306.728 185.063C307.961 185.216 307.961 185.216 309.164 184.57C309.832 183.309 310.245 182.007 310.626 180.633Z" fill="#FFFEC7"/>
<path id="Vector_23" d="M226.322 226.406C227.683 226.558 229.043 226.712 230.403 226.868C230.79 226.911 231.177 226.953 231.576 226.997C234.496 227.335 234.496 227.335 235.581 227.883C235.581 227.558 235.581 227.233 235.581 226.898C237.084 227.036 238.586 227.182 240.089 227.329C240.727 227.387 240.727 227.387 241.377 227.446C241.789 227.488 242.2 227.529 242.624 227.571C243.002 227.607 243.38 227.644 243.769 227.681C244.917 227.897 245.774 228.293 246.789 228.867C246.307 229.03 245.824 229.192 245.327 229.359C245.006 229.847 244.684 230.334 244.353 230.836C241.856 231.429 239.659 231.282 237.134 230.928C236.498 230.844 235.862 230.759 235.206 230.673C233.632 230.344 233.632 230.344 232.657 229.359C231.286 229.09 229.916 228.921 228.53 228.748C227.297 228.375 227.297 228.375 226.642 227.356C226.537 227.043 226.431 226.729 226.322 226.406ZM228.271 227.391C229.236 227.878 229.236 227.878 230.221 228.375C230.382 228.05 230.542 227.725 230.708 227.391C229.904 227.391 229.1 227.391 228.271 227.391Z" fill="#FFFEC7"/>
<path id="Vector_24" d="M158.1 195.891C160.658 196.566 163.202 197.281 165.729 198.071C172.052 200.045 178.281 201.703 184.901 202.289C184.741 202.939 184.58 203.588 184.414 204.258C175.179 203.19 166.694 200.947 158.1 197.367C158.1 196.88 158.1 196.393 158.1 195.891Z" fill="#0F0A00"/>
<path id="Vector_25" d="M197.571 188.016C198.576 188.231 198.576 188.231 199.52 188.508C199.159 188.782 198.797 189.056 198.424 189.338C194.542 193.438 194.866 199.771 194.902 205.045C195.06 211.041 195.641 216.582 200.008 220.992C198.422 220.859 197.708 220.63 196.536 219.516C192.375 212.791 192.348 203.196 193.764 195.614C194.453 192.723 195.445 190.163 197.571 188.016Z" fill="#160F00"/>
<path id="Vector_26" d="M157.612 200.32C159.283 200.624 160.822 201.05 162.417 201.635C169.5 204.167 176.526 205.914 183.927 207.211C183.766 207.698 183.605 208.185 183.439 208.687C180.182 208.846 177.409 208.285 174.272 207.426C173.786 207.296 173.3 207.165 172.799 207.031C161.469 203.902 161.469 203.902 157.612 201.305C157.612 200.98 157.612 200.655 157.612 200.32Z" fill="#0F0B00"/>
<path id="Vector_27" d="M256.048 216.562C257.254 216.806 257.254 216.806 258.484 217.055C258.484 216.892 258.484 216.73 258.484 216.562C261.218 216.562 263.952 216.562 266.769 216.562C266.769 216.725 266.769 216.887 266.769 217.055C268.859 217.38 270.95 217.704 273.104 218.039C273.104 218.201 273.104 218.364 273.104 218.531C261.847 218.531 250.59 218.531 238.992 218.531C238.992 218.369 238.992 218.206 238.992 218.039C242.758 217.562 246.469 217.487 250.261 217.516C250.82 217.518 251.379 217.521 251.955 217.523C253.319 217.529 254.684 217.537 256.048 217.547C256.048 217.222 256.048 216.897 256.048 216.562Z" fill="#FFFEC7"/>
<path id="Vector_28" d="M155.663 156.023C155.191 156.247 154.718 156.47 154.232 156.7C152.705 157.332 152.705 157.332 152.252 158.484C151.218 158.592 150.184 158.698 149.149 158.792C146.904 159.115 144.838 159.937 142.719 160.73C142.051 160.973 142.051 160.973 141.37 161.221C140.285 161.617 139.202 162.017 138.12 162.422C138.912 162.207 139.704 161.992 140.496 161.776C140.985 161.643 141.474 161.509 141.979 161.372C143.335 160.987 144.669 160.557 146.008 160.115C148.171 159.444 149.999 159.342 152.252 159.469C152.252 159.631 152.252 159.794 152.252 159.961C151.983 160.006 151.714 160.051 151.438 160.097C147.272 160.861 143.296 162.19 139.274 163.499C138.35 163.799 137.425 164.096 136.5 164.393C135.957 164.569 135.414 164.746 134.854 164.928C133.185 165.392 131.553 165.656 129.836 165.867C131.123 164.318 132.749 163.583 134.534 162.76C135.015 162.536 135.015 162.536 135.507 162.308C138.848 160.786 142.271 159.532 145.741 158.345C146.792 157.985 147.839 157.615 148.887 157.244C149.559 157.011 150.231 156.778 150.904 156.546C151.503 156.339 152.102 156.131 152.72 155.918C154.201 155.531 154.201 155.531 155.663 156.023Z" fill="#FFFEC7"/>
<path id="Vector_29" d="M145.917 181.125C146.399 181.125 146.882 181.125 147.379 181.125C147.279 181.422 147.179 181.719 147.076 182.025C146.945 182.418 146.814 182.812 146.678 183.217C146.548 183.605 146.418 183.993 146.284 184.393C144.399 190.353 144.598 198.423 146.892 204.258C147.87 205.74 148.275 206.045 149.815 206.719C148.69 206.719 147.564 206.719 146.404 206.719C143.207 200.37 142.355 192.601 143.901 185.626C145.095 181.955 145.095 181.955 145.917 181.125Z" fill="#FFFEC7"/>
<path id="Vector_30" d="M201.774 267.719C202.648 267.723 202.648 267.723 203.539 267.726C204.961 267.732 206.383 267.74 207.805 267.75C207.805 268.075 207.805 268.4 207.805 268.734C208.084 268.719 208.362 268.705 208.65 268.689C214.871 268.363 221.067 268.172 227.297 268.242C227.297 268.08 227.297 267.917 227.297 267.75C230.191 267.75 233.086 267.75 236.068 267.75C236.068 267.912 236.068 268.075 236.068 268.242C237.516 268.486 237.516 268.486 238.992 268.734C238.992 268.897 238.992 269.059 238.992 269.227C234.221 269.238 229.451 269.247 224.68 269.252C222.464 269.255 220.247 269.258 218.031 269.264C199.199 269.311 199.199 269.311 190.262 268.734C190.262 268.572 190.262 268.41 190.262 268.242C194.107 267.75 197.902 267.691 201.774 267.719Z" fill="#202020"/>
<path id="Vector_31" d="M198.79 184.447C201.606 185.463 202.764 187.224 204.108 189.859C206.482 195.251 206.992 200.434 206.952 206.288C206.956 206.837 206.959 207.386 206.963 207.951C206.956 211.141 206.669 213.971 205.855 217.055C205.695 217.055 205.534 217.055 205.368 217.055C205.403 216.626 205.438 216.197 205.475 215.755C206.198 206.378 206.936 194.392 200.579 186.683C200.39 186.473 200.202 186.263 200.008 186.047C199.088 186.108 199.088 186.108 198.15 186.17C197.805 186.193 197.46 186.216 197.105 186.239C195.716 186.658 195.382 187.26 194.647 188.508C194.262 189.439 193.908 190.384 193.581 191.338C193.33 192.065 193.33 192.065 193.073 192.807C192.949 193.175 192.826 193.543 192.698 193.922C191.927 191.718 192.645 190.288 193.528 188.223C194.777 185.867 196.032 184.646 198.79 184.447Z" fill="#FFFEC7"/>
<path id="Vector_32" d="M130.811 169.805C131.132 169.805 131.454 169.805 131.785 169.805C131.635 170.34 131.635 170.34 131.483 170.885C131.351 171.361 131.22 171.837 131.085 172.327C130.955 172.795 130.825 173.264 130.691 173.746C129.431 178.794 128.913 185.027 130.811 189.984C131.663 191.484 131.663 191.484 132.76 192.445C133.242 192.445 133.725 192.445 134.222 192.445C134.246 192.065 134.271 191.685 134.296 191.294C134.409 189.575 134.528 187.857 134.648 186.139C134.686 185.541 134.725 184.943 134.764 184.327C134.805 183.755 134.846 183.182 134.888 182.592C134.924 182.064 134.959 181.535 134.996 180.991C135.196 179.648 135.196 179.648 136.171 178.172C136.132 180.428 136.077 182.684 136.019 184.939C136.002 185.901 136.002 185.901 135.985 186.881C135.968 187.497 135.951 188.112 135.933 188.746C135.92 189.313 135.907 189.88 135.894 190.465C135.668 192.061 135.29 192.751 134.222 193.922C133.156 193.922 133.156 193.922 131.785 193.43C128.95 189.892 128.773 186.754 128.77 182.355C128.761 181.588 128.761 181.588 128.752 180.806C128.746 177.419 128.898 174.061 129.836 170.789C130.158 170.464 130.479 170.139 130.811 169.805Z" fill="#FFFEC7"/>
<path id="Vector_33" d="M233.702 164.835C234.077 164.835 234.453 164.836 234.839 164.837C236.031 164.84 237.222 164.846 238.414 164.852C239.224 164.855 240.035 164.857 240.845 164.859C242.827 164.864 244.808 164.873 246.789 164.883C246.789 165.045 246.789 165.208 246.789 165.375C244.618 165.619 244.618 165.619 242.403 165.867C242.403 166.03 242.403 166.192 242.403 166.359C231.307 166.359 220.211 166.359 208.779 166.359C208.779 166.197 208.779 166.035 208.779 165.867C209.327 165.855 209.876 165.843 210.44 165.83C212.479 165.783 214.518 165.734 216.557 165.684C217.438 165.663 218.32 165.642 219.202 165.622C220.47 165.594 221.739 165.563 223.008 165.531C223.401 165.522 223.793 165.514 224.198 165.506C225.682 165.466 227.077 165.42 228.535 165.122C230.253 164.779 231.959 164.822 233.702 164.835Z" fill="#FFFEC7"/>
<path id="Vector_34" d="M276.027 166.359C278.098 166.274 280.166 166.216 282.239 166.234C282.587 166.237 282.936 166.239 283.296 166.241C284.782 166.414 285.903 167 287.152 167.807C288.65 168.545 290.128 168.692 291.773 168.943C295.012 169.467 297.918 170.431 300.941 171.712C301.521 171.954 301.521 171.954 302.112 172.201C305.143 173.535 307.903 175.228 309.651 178.172C309.651 178.659 309.651 179.146 309.651 179.648C306.596 179.648 303.541 179.648 300.393 179.648C300.393 179.486 300.393 179.324 300.393 179.156C303.126 179.156 305.86 179.156 308.677 179.156C308.214 178.598 307.752 178.04 307.276 177.464C307.016 177.15 306.756 176.836 306.488 176.513C305.791 175.658 305.791 175.658 304.778 175.219C304.778 174.894 304.778 174.569 304.778 174.234C304.43 174.178 304.082 174.121 303.724 174.063C302.26 173.723 301.073 173.201 299.723 172.542C296.229 170.907 292.923 170.151 289.12 169.637C287.598 169.284 286.601 168.669 285.286 167.836C283.45 167.174 281.491 167.179 279.56 167.067C279.22 167.046 278.881 167.024 278.53 167.002C277.696 166.951 276.862 166.901 276.027 166.852C276.027 166.689 276.027 166.527 276.027 166.359Z" fill="#FFFEC7"/>
<path id="Vector_35" d="M157.612 197.367C159.96 197.675 162.051 198.372 164.252 199.213C168.931 200.949 173.717 202.129 178.566 203.273C178.566 203.436 178.566 203.598 178.566 203.766C175.542 203.528 172.719 203.109 169.795 202.289C169.634 202.939 169.473 203.588 169.308 204.258C166.391 203.519 163.649 202.81 161.023 201.305C162.485 200.812 162.485 200.812 163.551 201.274C163.843 201.446 164.134 201.619 164.435 201.797C164.435 201.31 164.435 200.822 164.435 200.32C164.146 200.225 163.858 200.13 163.561 200.032C161.552 199.363 159.564 198.686 157.612 197.859C157.612 197.697 157.612 197.535 157.612 197.367Z" fill="#FFFEC7"/>
<path id="Vector_36" d="M145.43 180.633C145.912 180.795 146.395 180.958 146.892 181.125C146.667 181.328 146.443 181.531 146.212 181.74C143.255 184.996 143.719 190.393 143.825 194.52C144.025 198.793 144.75 202.975 146.892 206.719C147.374 207.044 147.856 207.368 148.353 207.703C146.699 207.61 146.048 207.347 144.881 206.134C142.481 201.936 142.368 196.796 142.323 192.076C142.316 191.652 142.31 191.227 142.303 190.79C142.326 187.6 142.547 183.706 144.749 181.231C144.974 181.034 145.198 180.836 145.43 180.633Z" fill="#0B0800"/>
<path id="Vector_37" d="M202.444 218.531C202.927 218.694 203.409 218.856 203.906 219.023C203.761 220.73 203.425 221.477 202.353 222.838C200.852 224.051 199.951 224.304 198.059 224.438C197.094 223.138 196.129 221.839 195.135 220.5C195.296 220.175 195.456 219.85 195.622 219.516C195.984 219.749 196.346 219.983 196.719 220.223C197.869 220.883 198.724 221.244 200.008 221.484C200.008 221.16 200.008 220.835 200.008 220.5C199.686 220.338 199.365 220.175 199.033 220.008C199.742 219.779 199.742 219.779 200.465 219.546C201.879 219.173 201.879 219.173 202.444 218.531Z" fill="#FFFEC7"/>
<path id="Vector_38" d="M151.277 202.781C152.016 205.019 151.459 206.958 150.79 209.18C149.907 210.502 149.907 210.502 148.841 211.148C147.653 211.241 147.653 211.241 146.404 210.656C145.474 209.578 144.707 208.429 143.968 207.211C144.129 206.886 144.289 206.561 144.455 206.227C144.556 206.541 144.656 206.856 144.76 207.18C145.379 208.367 145.379 208.367 146.953 208.564C147.415 208.605 147.877 208.646 148.354 208.687C148.354 208.2 148.354 207.713 148.354 207.211C147.871 207.049 147.389 206.886 146.892 206.719C147.253 206.526 147.615 206.333 147.988 206.134C149.425 205.178 150.269 204.177 151.277 202.781Z" fill="#FFFEC7"/>
<path id="Vector_39" d="M197.084 187.523C197.406 187.686 197.727 187.848 198.059 188.016C197.777 188.31 197.496 188.604 197.206 188.908C193.278 194.528 193.613 201.01 193.778 207.579C193.784 208.135 193.791 208.69 193.798 209.262C193.809 209.766 193.82 210.27 193.831 210.789C193.651 212.318 193.223 212.975 192.211 214.102C191.721 212.618 191.673 211.62 191.693 210.072C191.698 209.628 191.702 209.185 191.707 208.728C191.712 208.39 191.718 208.052 191.724 207.703C191.884 207.703 192.045 207.703 192.211 207.703C192.218 207.401 192.225 207.099 192.232 206.787C192.269 205.39 192.316 203.993 192.363 202.597C192.374 202.121 192.385 201.646 192.397 201.157C192.544 197.109 193.136 193.127 195.439 189.708C195.647 189.392 195.854 189.077 196.068 188.752C196.597 188.016 196.597 188.016 197.084 187.523Z" fill="#FFFEC7"/>
<path id="Vector_40" d="M191.724 193.43C192.045 193.592 192.367 193.755 192.698 193.922C193.178 195.967 193.219 197.872 193.127 199.963C193.103 200.531 193.079 201.098 193.055 201.683C193.028 202.269 193.001 202.855 192.972 203.458C192.947 204.055 192.921 204.652 192.895 205.267C192.832 206.736 192.767 208.204 192.698 209.672C192.216 209.672 191.733 209.672 191.236 209.672C191.222 207.426 191.214 205.181 191.206 202.935C191.202 202.298 191.198 201.662 191.194 201.006C191.192 200.392 191.19 199.778 191.189 199.146C191.185 198.299 191.185 198.299 191.181 197.435C191.231 196.037 191.405 194.788 191.724 193.43Z" fill="#FFFEC7"/>
<path id="Vector_41" d="M182.952 159.469C183.439 159.961 183.439 159.961 183.47 161.222C183.46 161.618 183.45 162.014 183.439 162.422C182.465 160.945 182.465 160.945 182.465 159.961C180.86 160.112 179.257 160.267 177.653 160.422C177.196 160.465 176.739 160.508 176.269 160.552C175.832 160.595 175.396 160.638 174.946 160.682C174.341 160.74 174.341 160.74 173.724 160.799C172.69 160.895 172.69 160.895 171.744 161.438C170.77 161.457 169.795 161.459 168.82 161.438C168.82 161.762 168.82 162.087 168.82 162.422C170.589 162.422 172.358 162.422 174.181 162.422C174.181 162.584 174.181 162.747 174.181 162.914C170.964 162.914 167.748 162.914 164.435 162.914C164.435 162.589 164.435 162.264 164.435 161.93C170.571 159.634 176.456 159.167 182.952 159.469Z" fill="#FFFEC7"/>
<path id="Vector_42" d="M226.322 226.406C227.683 226.558 229.043 226.712 230.403 226.868C230.79 226.911 231.177 226.953 231.576 226.997C234.496 227.335 234.496 227.335 235.581 227.883C235.581 227.558 235.581 227.233 235.581 226.898C236.556 227.391 236.556 227.391 237.043 228.375C236.882 228.7 236.721 229.025 236.556 229.359C237.36 229.359 238.164 229.359 238.992 229.359C238.992 229.522 238.992 229.684 238.992 229.852C238.12 229.961 237.247 230.062 236.373 230.159C235.887 230.216 235.401 230.273 234.9 230.332C234.481 230.336 234.063 230.34 233.632 230.344C233.31 230.019 232.989 229.694 232.657 229.359C231.286 229.09 229.916 228.921 228.53 228.748C227.297 228.375 227.297 228.375 226.642 227.356C226.537 227.043 226.431 226.729 226.322 226.406ZM228.271 227.391C229.236 227.878 229.236 227.878 230.221 228.375C230.382 228.05 230.542 227.725 230.708 227.391C229.904 227.391 229.1 227.391 228.271 227.391Z" fill="#FFFEC7"/>
<path id="Vector_43" d="M204.881 196.383C205.042 196.383 205.202 196.383 205.368 196.383C206.399 203.71 206.374 210.668 205.855 218.039C205.373 218.039 204.891 218.039 204.394 218.039C204.233 216.09 204.072 214.141 203.906 212.133C204.228 212.133 204.549 212.133 204.881 212.133C204.881 206.935 204.881 201.738 204.881 196.383Z" fill="#FFFEC7"/>
<path id="Vector_44" d="M141.044 186.047C141.768 186.534 141.768 186.534 142.506 187.031C142.672 188.227 142.672 188.227 142.649 189.711C142.644 190.241 142.639 190.771 142.634 191.317C142.622 191.872 142.61 192.427 142.597 192.999C142.591 193.558 142.584 194.117 142.577 194.693C142.56 196.077 142.536 197.46 142.506 198.844C142.023 198.844 141.541 198.844 141.044 198.844C141.044 194.621 141.044 190.398 141.044 186.047Z" fill="#FFFEC7"/>
<path id="Vector_45" d="M300.88 172.266C304.263 172.668 306.412 174.773 308.677 177.188C308.998 177.512 309.32 177.837 309.651 178.172C309.651 178.659 309.651 179.146 309.651 179.648C306.596 179.648 303.541 179.648 300.393 179.648C300.393 179.486 300.393 179.324 300.393 179.156C303.126 179.156 305.86 179.156 308.677 179.156C308.214 178.598 307.752 178.04 307.276 177.464C307.016 177.15 306.756 176.836 306.488 176.513C305.791 175.658 305.791 175.658 304.778 175.219C304.778 174.894 304.778 174.569 304.778 174.234C304.406 174.184 304.035 174.133 303.651 174.081C302.259 173.721 301.778 173.363 300.88 172.266Z" fill="#FFFEC7"/>
<path id="Vector_46" d="M310.626 180.633C312.024 181.966 312.805 183.257 313.55 185.062C313.389 185.55 313.228 186.037 313.062 186.539C312.741 186.052 312.419 185.565 312.088 185.062C311.766 184.738 311.445 184.413 311.113 184.078C310.852 184.403 310.591 184.728 310.321 185.062C309.164 186.047 309.164 186.047 307.733 186.354C305.575 185.91 305.057 184.881 303.804 183.094C305.006 183.661 305.776 184.102 306.728 185.062C307.961 185.216 307.961 185.216 309.164 184.57C309.832 183.309 310.245 182.007 310.626 180.633Z" fill="#FFFEC7"/>
<path id="Vector_47" d="M161.998 151.594C162.32 152.081 162.641 152.568 162.973 153.07C161.516 154.712 160.1 155.637 158.1 156.516C157.778 156.516 157.456 156.516 157.125 156.516C157.125 156.191 157.125 155.866 157.125 155.531C156.803 155.369 156.482 155.206 156.15 155.039C156.532 154.832 156.913 154.624 157.306 154.41C157.799 154.141 158.292 153.871 158.8 153.593C159.292 153.325 159.784 153.057 160.291 152.78C161.446 152.196 161.446 152.196 161.998 151.594Z" fill="#FFFEC7"/>
<path id="Vector_48" d="M152.252 189C153.326 190.747 153.358 192.197 153.348 194.229C153.351 194.794 153.353 195.359 153.356 195.941C153.227 197.367 153.227 197.367 152.252 198.352C152.057 199.495 151.892 200.644 151.765 201.797C151.604 201.797 151.443 201.797 151.277 201.797C151.092 197.467 151.664 193.276 152.252 189Z" fill="#FFFEC7"/>
<path id="Vector_49" d="M162.485 170.297C163.129 170.622 163.772 170.947 164.435 171.281C164.274 172.743 164.113 174.205 163.947 175.711C161.998 175.219 161.998 175.219 161.023 174.234C161.216 172.776 161.802 171.585 162.485 170.297Z" fill="#180F00"/>
<path id="Vector_50" d="M259.946 229.852C264.523 229.803 269.038 229.788 273.591 230.344C273.591 230.506 273.591 230.669 273.591 230.836C269.892 230.998 266.194 231.161 262.383 231.328C262.383 231.166 262.383 231.003 262.383 230.836C261.579 230.673 260.775 230.511 259.946 230.344C259.946 230.181 259.946 230.019 259.946 229.852Z" fill="#FFFEC7"/>
<path id="Vector_51" d="M125.45 175.219C125.611 175.544 125.772 175.868 125.937 176.203C125.787 176.569 125.636 176.934 125.481 177.311C124.875 178.652 124.875 178.652 124.963 180.141C124.963 181.617 124.963 181.617 124.506 182.725C123.729 184.757 123.659 186.84 123.501 189C123.34 189 123.179 189 123.014 189C122.672 179.427 122.672 179.427 125.45 175.219Z" fill="#FFFEC7"/>
<path id="Vector_52" d="M143.48 196.875C143.641 196.875 143.802 196.875 143.968 196.875C144.056 197.338 144.145 197.801 144.236 198.279C144.359 198.891 144.481 199.504 144.607 200.136C144.726 200.741 144.845 201.346 144.967 201.97C145.616 204.487 146.175 206.236 148.354 207.703C146.632 207.607 146.035 207.341 144.851 206.042C143.46 203.689 142.693 200.393 143.216 197.694C143.303 197.424 143.391 197.153 143.48 196.875Z" fill="#201700"/>
<path id="Vector_53" d="M249.713 228.375C249.874 228.862 250.035 229.35 250.2 229.852C251.647 230.095 251.647 230.095 253.124 230.344C253.124 230.506 253.124 230.669 253.124 230.836C250.229 230.836 247.335 230.836 244.353 230.836C245.727 228.06 246.856 228.311 249.713 228.375Z" fill="#FFFEC7"/>
<path id="Vector_54" d="M144.942 178.172C146.008 177.987 146.008 177.987 147.379 178.172C148.85 179.658 150.058 180.948 150.303 183.094C150.011 182.87 149.72 182.647 149.419 182.417C147.169 180.682 147.169 180.682 144.455 180.141C144.616 179.491 144.777 178.841 144.942 178.172Z" fill="#FFFEC7"/>
<path id="Vector_55" d="M168.82 147.656C170.334 147.656 170.941 147.922 172.231 148.641C170.77 149.625 170.77 149.625 169.829 149.854C168.639 150.165 167.83 150.691 166.81 151.378C165.027 152.578 165.027 152.578 163.947 152.578C164.487 150.996 164.915 150.614 166.384 149.748C167.846 149.133 167.846 149.133 168.82 149.133C168.82 148.646 168.82 148.158 168.82 147.656Z" fill="#FFFEC7"/>
<path id="Vector_56" d="M84.0293 227.391C84.3509 227.553 84.6725 227.715 85.0039 227.883C82.5917 230.319 80.1796 232.755 77.6943 235.266C77.6943 233.266 78.4398 232.779 79.7654 231.328C80.1498 230.902 80.5343 230.475 80.9303 230.036C81.9167 229.033 82.8842 228.197 84.0293 227.391Z" fill="#1B1B1B"/>
<path id="Vector_57" d="M141.531 195.398C142.802 196.886 143.219 197.938 143.389 199.89C143.432 200.317 143.476 200.745 143.52 201.185C143.48 202.289 143.48 202.289 142.506 203.273C142.506 202.949 142.506 202.624 142.506 202.289C142.184 202.289 141.863 202.289 141.531 202.289C141.086 199.843 141.086 197.845 141.531 195.398Z" fill="#FFFEC7"/>
<path id="Vector_58" d="M222.911 177.68C225.226 178.049 225.226 178.049 226.322 179.156C226.383 180.694 226.383 180.694 226.322 182.109C225.679 182.272 225.036 182.434 224.373 182.602C224.373 181.302 224.373 180.003 224.373 178.664C223.891 178.664 223.408 178.664 222.911 178.664C222.911 178.339 222.911 178.014 222.911 177.68Z" fill="#C0B3A9"/>
<path id="Vector_59" d="M151.277 202.781C151.935 204.775 151.58 206.124 151.277 208.195C150.795 208.033 150.312 207.87 149.815 207.703C149.333 208.028 148.851 208.353 148.354 208.688C148.354 208.2 148.354 207.713 148.354 207.211C147.871 207.049 147.389 206.886 146.892 206.719C147.434 206.429 147.434 206.429 147.988 206.134C149.425 205.178 150.269 204.177 151.277 202.781Z" fill="#FFFEC7"/>
<path id="Vector_60" d="M132.76 202.289C135.654 203.02 135.654 203.02 138.607 203.766C138.768 204.415 138.929 205.065 139.095 205.734C134.358 204.958 134.358 204.958 132.76 202.781C132.76 202.619 132.76 202.456 132.76 202.289Z" fill="#FFFEC7"/>
<path id="Vector_61" d="M196.597 214.102C197.585 215.065 198.493 215.997 199.307 217.116C200.026 218.166 200.026 218.166 201.47 219.023C200.373 219.393 200.373 219.393 199.033 219.516C197.643 218.432 196.699 217.256 196.109 215.578C196.27 215.091 196.431 214.604 196.597 214.102Z" fill="#FFFEC7"/>
<path id="Vector_62" d="M171.744 202.781C173.191 202.944 174.639 203.106 176.13 203.273C176.291 204.086 176.452 204.898 176.617 205.734C175.974 205.734 175.331 205.734 174.668 205.734C174.668 205.41 174.668 205.085 174.668 204.75C173.221 204.506 173.221 204.506 171.744 204.258C171.744 203.771 171.744 203.283 171.744 202.781Z" fill="#FFFEC7"/>
<path id="Vector_63" d="M135.196 162.422C135.518 162.584 135.84 162.747 136.171 162.914C135.684 164.391 135.684 164.391 134.728 164.875C134.34 164.999 133.952 165.124 133.552 165.252C132.973 165.446 132.973 165.446 132.383 165.644C131.298 165.867 131.298 165.867 129.836 165.375C130.706 164.868 131.58 164.366 132.455 163.868C132.941 163.588 133.428 163.308 133.929 163.02C134.347 162.822 134.765 162.625 135.196 162.422Z" fill="#FFFEC7"/>
<path id="Vector_64" d="M157.125 199.336C159.44 199.705 159.44 199.705 160.536 200.812C159.089 200.569 159.089 200.569 157.612 200.32C158.649 201.472 159.618 202.145 161.023 202.781C160.863 203.106 160.702 203.431 160.536 203.766C159.25 202.954 157.963 202.141 156.638 201.305C156.799 200.655 156.959 200.005 157.125 199.336Z" fill="#FFFEC7"/>
<path id="Vector_65" d="M315.986 205.242C316.147 205.242 316.308 205.242 316.474 205.242C316.474 206.217 316.474 207.191 316.474 208.195C314.061 209.413 314.061 209.413 311.601 210.656C311.44 210.331 311.279 210.007 311.113 209.672C311.777 209.398 311.777 209.398 312.453 209.118C314.258 208.066 314.928 207.024 315.986 205.242Z" fill="#FFFEC7"/>
<path id="Vector_66" d="M145.43 180.633C145.912 180.795 146.395 180.958 146.892 181.125C146.56 181.399 146.56 181.399 146.222 181.679C145.317 182.611 145.317 182.611 144.942 184.14C144.782 184.607 144.621 185.074 144.455 185.555C143.973 185.717 143.49 185.88 142.993 186.047C143.289 183.958 143.921 182.157 145.43 180.633Z" fill="#1C1300"/>
<path id="Vector_67" d="M167.937 201.489C168.389 201.591 168.842 201.692 169.308 201.797C169.308 202.284 169.308 202.771 169.308 203.273C167.137 202.786 167.137 202.786 164.922 202.289C166.384 201.305 166.384 201.305 167.937 201.489Z" fill="#FFFEC7"/>
<path id="Vector_68" d="M142.993 183.094C143.528 184.713 143.383 185.413 142.993 187.031C142.672 187.031 142.35 187.031 142.019 187.031C142.019 188.168 142.019 189.305 142.019 190.477C141.858 190.477 141.697 190.477 141.531 190.477C141.531 188.852 141.531 187.228 141.531 185.555C141.853 185.555 142.174 185.555 142.506 185.555C142.667 184.743 142.827 183.93 142.993 183.094Z" fill="#FFFEC7"/>
<path id="Vector_69" d="M182.465 161.438C182.038 163.837 182.038 163.837 181.49 164.391C180.678 164.411 179.866 164.412 179.054 164.391C179.772 162.716 180.446 161.438 182.465 161.438Z" fill="#FFFEC7"/>
<path id="Vector_70" d="M219.013 225.914C220.138 226.076 221.264 226.239 222.424 226.406C222.424 226.894 222.424 227.381 222.424 227.883C221.298 227.72 220.172 227.558 219.013 227.391C219.013 226.903 219.013 226.416 219.013 225.914Z" fill="#FFFEC7"/>
<path id="Vector_71" d="M198.546 188.508C199.35 188.508 200.154 188.508 200.982 188.508C200.982 188.995 200.982 189.482 200.982 189.984C200.018 190.147 199.053 190.309 198.059 190.477C198.219 189.827 198.38 189.177 198.546 188.508Z" fill="#FFFEC7"/>
<path id="Vector_72" d="M211.216 267.75C212.502 267.75 213.789 267.75 215.114 267.75C215.114 267.912 215.114 268.075 215.114 268.242C213.828 268.242 212.541 268.242 211.216 268.242C211.216 268.08 211.216 267.917 211.216 267.75Z" fill="#131212"/>
<path id="Vector_73" d="M276.027 258.891C276.349 259.215 276.671 259.54 277.002 259.875C275.876 259.875 274.751 259.875 273.591 259.875C273.591 259.713 273.591 259.55 273.591 259.383C274.748 259.075 274.748 259.075 276.027 258.891Z" fill="#1A1819"/>
<path id="Vector_74" d="M106.933 192.938C107.094 192.938 107.255 192.938 107.421 192.938C107.421 194.237 107.421 195.536 107.421 196.875C107.26 196.875 107.099 196.875 106.933 196.875C106.933 195.576 106.933 194.276 106.933 192.938Z" fill="#1F1E1D"/>
<path id="Vector_75" d="M164.922 311.062C165.404 311.306 165.404 311.306 165.896 311.555C165.736 312.042 165.575 312.529 165.409 313.031C165.248 312.382 165.088 311.732 164.922 311.062Z" fill="#1B1A1B"/>
<path id="Vector_76" d="M279.438 263.812C279.921 263.975 280.403 264.137 280.9 264.305C280.257 264.467 279.614 264.63 278.951 264.797C279.112 264.472 279.273 264.147 279.438 263.812Z" fill="#161514"/>
<path id="Vector_77" d="M198.546 261.352C199.511 261.352 200.476 261.352 201.47 261.352C201.47 261.514 201.47 261.676 201.47 261.844C200.505 261.844 199.54 261.844 198.546 261.844C198.546 261.681 198.546 261.519 198.546 261.352Z" fill="#181718"/>
<path id="Vector_78" d="M145.43 281.531C145.912 281.775 145.912 281.775 146.404 282.023C146.404 282.348 146.404 282.673 146.404 283.008C146.083 283.008 145.761 283.008 145.43 283.008C145.43 282.521 145.43 282.033 145.43 281.531Z" fill="#1B1A1A"/>
<path id="Vector_79" d="M281.875 263.812C282.679 263.812 283.483 263.812 284.312 263.812C284.312 263.975 284.312 264.137 284.312 264.305C283.507 264.305 282.703 264.305 281.875 264.305C281.875 264.142 281.875 263.98 281.875 263.812Z" fill="#181516"/>
<path id="Vector_80" d="M157.125 263.812C157.607 263.812 158.09 263.812 158.587 263.812C158.426 264.137 158.265 264.462 158.1 264.797C157.778 264.797 157.456 264.797 157.125 264.797C157.125 264.472 157.125 264.147 157.125 263.812Z" fill="#171615"/>
<path id="Vector_81" d="M277.977 258.891C278.781 258.891 279.585 258.891 280.413 258.891C280.413 259.053 280.413 259.215 280.413 259.383C279.609 259.383 278.805 259.383 277.977 259.383C277.977 259.22 277.977 259.058 277.977 258.891Z" fill="#181717"/>
<path id="Vector_82" d="M161.023 258.891C161.827 258.891 162.632 258.891 163.46 258.891C163.46 259.053 163.46 259.215 163.46 259.383C162.656 259.383 161.852 259.383 161.023 259.383C161.023 259.22 161.023 259.058 161.023 258.891Z" fill="#181717"/>
<path id="Vector_83" d="M302.342 254.953C302.985 255.116 303.628 255.278 304.291 255.445C303.809 255.689 303.809 255.689 303.316 255.938C302.995 255.613 302.673 255.288 302.342 254.953Z" fill="#1A1919"/>
<path id="Vector_84" d="M114.729 149.625C114.89 149.95 115.051 150.275 115.217 150.609C114.895 150.934 114.574 151.259 114.242 151.594C114.403 150.944 114.564 150.294 114.729 149.625Z" fill="#1E1E1E"/>
<path id="Vector_85" d="M254.586 86.625C255.068 86.625 255.551 86.625 256.048 86.625C256.048 86.9498 256.048 87.2747 256.048 87.6094C255.565 87.6094 255.083 87.6094 254.586 87.6094C254.586 87.2845 254.586 86.9597 254.586 86.625Z" fill="#1F1F1D"/>
<path id="Vector_86" d="M196.109 82.6875C196.913 82.6875 197.717 82.6875 198.546 82.6875C198.546 82.8499 198.546 83.0123 198.546 83.1797C197.742 83.1797 196.938 83.1797 196.109 83.1797C196.109 83.0173 196.109 82.8548 196.109 82.6875Z" fill="#1F1E1F"/>
<path id="Vector_87" d="M184.901 342.562C185.384 342.806 185.384 342.806 185.876 343.055C185.715 343.38 185.554 343.704 185.389 344.039C185.228 343.552 185.067 343.065 184.901 342.562Z" fill="#1A1A1A"/>
<path id="Vector_88" d="M134.709 260.367C136.658 260.859 136.658 260.859 136.658 260.859L134.709 260.367Z" fill="#171717"/>
<path id="Vector_89" d="M149.328 103.852C149.811 104.014 150.293 104.176 150.79 104.344C150.308 104.506 149.825 104.669 149.328 104.836C149.328 104.511 149.328 104.186 149.328 103.852Z" fill="#1E1C1D"/>
<path id="Vector_90" d="M180.516 86.625C180.837 86.625 181.159 86.625 181.49 86.625C181.49 86.9498 181.49 87.2747 181.49 87.6094C181.169 87.6094 180.847 87.6094 180.516 87.6094C180.516 87.2845 180.516 86.9597 180.516 86.625Z" fill="#1E1F1D"/>
<path id="Vector_91" d="M204.881 376.031C205.042 376.356 205.202 376.681 205.368 377.016C205.047 376.853 204.725 376.691 204.394 376.523C204.554 376.361 204.715 376.199 204.881 376.031Z" fill="#211F20"/>
<path id="Vector_92" d="M135.684 278.578C136.005 278.903 136.327 279.228 136.658 279.562C136.337 279.562 136.015 279.562 135.684 279.562C135.684 279.238 135.684 278.913 135.684 278.578Z" fill="#1D1C1D"/>
<path id="Vector_93" d="M137.146 278.578C138.607 279.07 138.607 279.07 138.607 279.07L137.146 278.578Z" fill="#1F1C1E"/>
<path id="Vector_94" d="M301.854 278.086C303.316 278.578 303.316 278.578 303.316 278.578L301.854 278.086Z" fill="#1D1D1E"/>
<path id="Vector_95" d="M130.323 277.102C131.785 277.594 131.785 277.594 131.785 277.594L130.323 277.102Z" fill="#1D1D1C"/>
<path id="Vector_96" d="M270.18 265.289C271.642 265.781 271.642 265.781 271.642 265.781L270.18 265.289Z" fill="#161615"/>
<path id="Vector_97" d="M274.565 263.812C275.048 264.056 275.048 264.056 275.54 264.305C275.058 264.548 275.058 264.548 274.565 264.797C274.565 264.472 274.565 264.147 274.565 263.812Z" fill="#171615"/>
<path id="Vector_98" d="M202.932 261.352C203.414 261.595 203.414 261.595 203.906 261.844C203.424 262.087 203.424 262.087 202.932 262.336C202.932 262.011 202.932 261.686 202.932 261.352Z" fill="#161616"/>
<path id="Vector_99" d="M303.316 259.875C303.638 260.2 303.96 260.525 304.291 260.859C303.969 260.859 303.648 260.859 303.316 260.859C303.316 260.535 303.316 260.21 303.316 259.875Z" fill="#171818"/>
<path id="Vector_100" d="M300.88 260.367C301.041 260.692 301.202 261.017 301.367 261.352C301.046 261.189 300.724 261.027 300.393 260.859C300.553 260.697 300.714 260.535 300.88 260.367Z" fill="#191818"/>
<path id="Vector_101" d="M117.653 255.938C119.115 256.43 119.115 256.43 119.115 256.43L117.653 255.938Z" fill="#161616"/>
<path id="Vector_102" d="M102.06 217.055C103.521 217.547 103.521 217.547 103.521 217.547L102.06 217.055Z" fill="#1D1E1E"/>
<path id="Vector_103" d="M212.19 387.844C213.165 388.336 213.165 388.336 213.165 388.336L212.19 387.844Z" fill="#222224"/>
<path id="Vector_104" d="M193.673 357.328C194.647 357.82 194.647 357.82 194.647 357.82L193.673 357.328Z" fill="#1D1B1B"/>
<path id="Vector_105" d="M180.516 336.164C181.49 336.656 181.49 336.656 181.49 336.656L180.516 336.164Z" fill="#1E1B1A"/>
<path id="Vector_106" d="M134.709 278.086C135.684 278.578 135.684 278.578 135.684 278.578L134.709 278.086Z" fill="#1E1E1D"/>
<path id="Vector_107" d="M119.603 274.641C120.577 275.133 120.577 275.133 120.577 275.133L119.603 274.641Z" fill="#1F1F1F"/>
<path id="Vector_108" d="M117.653 274.148C118.628 274.641 118.628 274.641 118.628 274.641L117.653 274.148Z" fill="#212121"/>
<path id="Vector_109" d="M330.118 270.703C331.093 271.195 331.093 271.195 331.093 271.195L330.118 270.703Z" fill="#222324"/>
<path id="Vector_110" d="M236.556 267.75C237.53 268.242 237.53 268.242 237.53 268.242L236.556 267.75Z" fill="#121113"/>
<path id="Vector_111" d="M223.398 267.75C224.373 268.242 224.373 268.242 224.373 268.242L223.398 267.75Z" fill="#151512"/>
<path id="Vector_112" d="M219.5 267.75C220.475 268.242 220.475 268.242 220.475 268.242L219.5 267.75Z" fill="#161313"/>
<path id="Vector_113" d="M259.946 266.273C260.921 266.766 260.921 266.766 260.921 266.766L259.946 266.273Z" fill="#161616"/>
<path id="Vector_114" d="M154.688 263.812C155.663 264.305 155.663 264.305 155.663 264.305L154.688 263.812Z" fill="#161616"/>
<path id="Vector_115" d="M233.632 261.844C234.606 262.336 234.606 262.336 234.606 262.336L233.632 261.844Z" fill="#191819"/>
<path id="Vector_116" d="M296.981 261.352C297.956 261.844 297.956 261.844 297.956 261.844L296.981 261.352Z" fill="#191A18"/>
<path id="Vector_117" d="M136.658 260.859C137.633 261.352 137.633 261.352 137.633 261.352L136.658 260.859Z" fill="#161613"/>
<path id="Vector_118" d="M169.308 259.383C170.282 259.875 170.282 259.875 170.282 259.875L169.308 259.383Z" fill="#171616"/>
<path id="Vector_119" d="M166.871 259.383C167.846 259.875 167.846 259.875 167.846 259.875L166.871 259.383Z" fill="#181818"/>
<path id="Vector_120" d="M282.85 258.398C283.824 258.891 283.824 258.891 283.824 258.891L282.85 258.398Z" fill="#191919"/>
<path id="Vector_121" d="M154.201 257.906C155.176 258.398 155.176 258.398 155.176 258.398L154.201 257.906Z" fill="#181718"/>
<path id="Vector_122" d="M124.963 257.906C125.938 258.398 125.938 258.398 125.938 258.398L124.963 257.906Z" fill="#191818"/>
<path id="Vector_123" d="M288.697 257.414C289.672 257.906 289.672 257.906 289.672 257.906L288.697 257.414Z" fill="#191818"/>
<path id="Vector_124" d="M149.815 257.414C150.79 257.906 150.79 257.906 150.79 257.906L149.815 257.414Z" fill="#181716"/>
<path id="Vector_125" d="M121.064 256.922C122.039 257.414 122.039 257.414 122.039 257.414L121.064 256.922Z" fill="#1A1818"/>
<path id="Vector_126" d="M120.09 256.43C121.064 256.922 121.064 256.922 121.064 256.922L120.09 256.43Z" fill="#191718"/>
<path id="Vector_127" d="M135.196 254.953C136.171 255.445 136.171 255.445 136.171 255.445L135.196 254.953Z" fill="#191719"/>
<path id="Vector_128" d="M328.656 252C329.631 252.492 329.631 252.492 329.631 252.492L328.656 252Z" fill="#1C1B1D"/>
<path id="Vector_129" d="M335.479 235.758C336.453 236.25 336.453 236.25 336.453 236.25L335.479 235.758Z" fill="#1E1E1D"/>
<path id="Vector_130" d="M111.318 229.852C112.293 230.344 112.293 230.344 112.293 230.344L111.318 229.852Z" fill="#1A1A1A"/>
<path id="Vector_131" d="M86.9531 224.438C87.9277 224.93 87.9277 224.93 87.9277 224.93L86.9531 224.438Z" fill="#272525"/>
<path id="Vector_132" d="M110.831 159.961C111.806 160.453 111.806 160.453 111.806 160.453L110.831 159.961Z" fill="#201F21"/>
<path id="Vector_133" d="M289.672 106.312C290.646 106.805 290.646 106.805 290.646 106.805L289.672 106.312Z" fill="#1C1B19"/>
<path id="Vector_134" d="M172.719 90.5625C173.693 91.0547 173.693 91.0547 173.693 91.0547L172.719 90.5625Z" fill="#201F1F"/>
<path id="Vector_135" d="M238.992 82.6875C239.967 83.1797 239.967 83.1797 239.967 83.1797L238.992 82.6875Z" fill="#1F1E1D"/>
<path id="Vector_136" d="M236.556 82.6875C237.53 83.1797 237.53 83.1797 237.53 83.1797L236.556 82.6875Z" fill="#1E1D1D"/>
</g>
</svg>
