<svg width="290" height="389" viewBox="0 0 290 389" fill="none" xmlns="http://www.w3.org/2000/svg">
<g id="Group 399">
<path id="EasyPark" d="M69.875 371.938V377H51.7344V371.938H69.875ZM53.7031 342.875V377H47.2578V342.875H53.7031ZM67.5078 356.961V361.906H51.7344V356.961H67.5078ZM69.8047 342.875V347.961H51.7344V342.875H69.8047ZM87.8516 371.609V359.914C87.8516 359.055 87.7031 358.312 87.4062 357.688C87.1094 357.062 86.6562 356.578 86.0469 356.234C85.4375 355.891 84.6641 355.719 83.7266 355.719C82.8984 355.719 82.1719 355.859 81.5469 356.141C80.9375 356.422 80.4688 356.82 80.1406 357.336C79.8125 357.836 79.6484 358.414 79.6484 359.07H73.4375C73.4375 358.023 73.6875 357.031 74.1875 356.094C74.6875 355.141 75.3984 354.297 76.3203 353.562C77.2578 352.812 78.375 352.227 79.6719 351.805C80.9844 351.383 82.4531 351.172 84.0781 351.172C86 351.172 87.7109 351.5 89.2109 352.156C90.7266 352.797 91.9141 353.766 92.7734 355.062C93.6484 356.359 94.0859 357.992 94.0859 359.961V371.023C94.0859 372.289 94.1641 373.375 94.3203 374.281C94.4922 375.172 94.7422 375.945 95.0703 376.602V377H88.7656C88.4688 376.359 88.2422 375.547 88.0859 374.562C87.9297 373.562 87.8516 372.578 87.8516 371.609ZM88.7188 361.555L88.7656 365.234H84.8516C83.8828 365.234 83.0312 365.336 82.2969 365.539C81.5625 365.727 80.9609 366.008 80.4922 366.383C80.0234 366.742 79.6719 367.18 79.4375 367.695C79.2031 368.195 79.0859 368.766 79.0859 369.406C79.0859 370.031 79.2266 370.594 79.5078 371.094C79.8047 371.594 80.2266 371.992 80.7734 372.289C81.3359 372.57 81.9922 372.711 82.7422 372.711C83.8359 372.711 84.7891 372.492 85.6016 372.055C86.4141 371.602 87.0469 371.055 87.5 370.414C87.9531 369.773 88.1953 369.164 88.2266 368.586L90.0078 371.258C89.7891 371.898 89.4609 372.578 89.0234 373.297C88.5859 374.016 88.0234 374.688 87.3359 375.312C86.6484 375.938 85.8203 376.453 84.8516 376.859C83.8828 377.266 82.7578 377.469 81.4766 377.469C79.8359 377.469 78.3672 377.141 77.0703 376.484C75.7734 375.828 74.75 374.93 74 373.789C73.25 372.648 72.875 371.352 72.875 369.898C72.875 368.555 73.125 367.367 73.625 366.336C74.125 365.305 74.8672 364.438 75.8516 363.734C76.8359 363.016 78.0547 362.477 79.5078 362.117C80.9766 361.742 82.6562 361.555 84.5469 361.555H88.7188ZM113.609 370.062C113.609 369.531 113.469 369.055 113.188 368.633C112.906 368.211 112.375 367.828 111.594 367.484C110.828 367.125 109.703 366.789 108.219 366.477C106.906 366.195 105.695 365.844 104.586 365.422C103.477 365 102.523 364.492 101.727 363.898C100.93 363.289 100.305 362.578 99.8516 361.766C99.4141 360.938 99.1953 359.984 99.1953 358.906C99.1953 357.859 99.4219 356.875 99.875 355.953C100.328 355.016 100.984 354.195 101.844 353.492C102.703 352.773 103.75 352.211 104.984 351.805C106.219 351.383 107.609 351.172 109.156 351.172C111.312 351.172 113.164 351.523 114.711 352.227C116.273 352.93 117.469 353.898 118.297 355.133C119.125 356.352 119.539 357.727 119.539 359.258H113.352C113.352 358.586 113.195 357.977 112.883 357.43C112.586 356.883 112.125 356.445 111.5 356.117C110.875 355.773 110.086 355.602 109.133 355.602C108.273 355.602 107.547 355.742 106.953 356.023C106.375 356.305 105.938 356.672 105.641 357.125C105.344 357.578 105.195 358.078 105.195 358.625C105.195 359.031 105.273 359.398 105.43 359.727C105.602 360.039 105.875 360.328 106.25 360.594C106.625 360.859 107.133 361.102 107.773 361.32C108.43 361.539 109.234 361.75 110.188 361.953C112.078 362.328 113.727 362.828 115.133 363.453C116.555 364.062 117.664 364.875 118.461 365.891C119.258 366.906 119.656 368.203 119.656 369.781C119.656 370.906 119.414 371.938 118.93 372.875C118.445 373.797 117.742 374.602 116.82 375.289C115.898 375.977 114.797 376.516 113.516 376.906C112.234 377.281 110.789 377.469 109.18 377.469C106.852 377.469 104.883 377.055 103.273 376.227C101.664 375.383 100.445 374.32 99.6172 373.039C98.7891 371.742 98.375 370.398 98.375 369.008H104.305C104.352 369.992 104.617 370.781 105.102 371.375C105.586 371.969 106.195 372.398 106.93 372.664C107.68 372.914 108.469 373.039 109.297 373.039C110.234 373.039 111.023 372.914 111.664 372.664C112.305 372.398 112.789 372.047 113.117 371.609C113.445 371.156 113.609 370.641 113.609 370.062ZM131.797 374.188L138.594 351.641H145.227L135.055 380.844C134.82 381.469 134.516 382.148 134.141 382.883C133.781 383.617 133.297 384.312 132.688 384.969C132.078 385.641 131.312 386.188 130.391 386.609C129.484 387.031 128.383 387.242 127.086 387.242C126.523 387.242 126.023 387.203 125.586 387.125C125.148 387.047 124.688 386.945 124.203 386.82V382.18C124.359 382.195 124.539 382.203 124.742 382.203C124.961 382.219 125.148 382.227 125.305 382.227C126.211 382.227 126.961 382.117 127.555 381.898C128.148 381.695 128.625 381.359 128.984 380.891C129.359 380.438 129.672 379.844 129.922 379.109L131.797 374.188ZM128.445 351.641L134.188 370.32L135.195 376.859L130.93 377.633L121.766 351.641H128.445ZM161.82 364.555H153.031V359.492H161.82C163.258 359.492 164.422 359.258 165.312 358.789C166.219 358.305 166.883 357.648 167.305 356.82C167.727 355.977 167.938 355.016 167.938 353.938C167.938 352.891 167.727 351.914 167.305 351.008C166.883 350.102 166.219 349.367 165.312 348.805C164.422 348.242 163.258 347.961 161.82 347.961H155.141V377H148.695V342.875H161.82C164.477 342.875 166.742 343.352 168.617 344.305C170.508 345.242 171.945 346.547 172.93 348.219C173.93 349.875 174.43 351.766 174.43 353.891C174.43 356.094 173.93 357.992 172.93 359.586C171.945 361.18 170.508 362.406 168.617 363.266C166.742 364.125 164.477 364.555 161.82 364.555ZM192.711 371.609V359.914C192.711 359.055 192.562 358.312 192.266 357.688C191.969 357.062 191.516 356.578 190.906 356.234C190.297 355.891 189.523 355.719 188.586 355.719C187.758 355.719 187.031 355.859 186.406 356.141C185.797 356.422 185.328 356.82 185 357.336C184.672 357.836 184.508 358.414 184.508 359.07H178.297C178.297 358.023 178.547 357.031 179.047 356.094C179.547 355.141 180.258 354.297 181.18 353.562C182.117 352.812 183.234 352.227 184.531 351.805C185.844 351.383 187.312 351.172 188.938 351.172C190.859 351.172 192.57 351.5 194.07 352.156C195.586 352.797 196.773 353.766 197.633 355.062C198.508 356.359 198.945 357.992 198.945 359.961V371.023C198.945 372.289 199.023 373.375 199.18 374.281C199.352 375.172 199.602 375.945 199.93 376.602V377H193.625C193.328 376.359 193.102 375.547 192.945 374.562C192.789 373.562 192.711 372.578 192.711 371.609ZM193.578 361.555L193.625 365.234H189.711C188.742 365.234 187.891 365.336 187.156 365.539C186.422 365.727 185.82 366.008 185.352 366.383C184.883 366.742 184.531 367.18 184.297 367.695C184.062 368.195 183.945 368.766 183.945 369.406C183.945 370.031 184.086 370.594 184.367 371.094C184.664 371.594 185.086 371.992 185.633 372.289C186.195 372.57 186.852 372.711 187.602 372.711C188.695 372.711 189.648 372.492 190.461 372.055C191.273 371.602 191.906 371.055 192.359 370.414C192.812 369.773 193.055 369.164 193.086 368.586L194.867 371.258C194.648 371.898 194.32 372.578 193.883 373.297C193.445 374.016 192.883 374.688 192.195 375.312C191.508 375.938 190.68 376.453 189.711 376.859C188.742 377.266 187.617 377.469 186.336 377.469C184.695 377.469 183.227 377.141 181.93 376.484C180.633 375.828 179.609 374.93 178.859 373.789C178.109 372.648 177.734 371.352 177.734 369.898C177.734 368.555 177.984 367.367 178.484 366.336C178.984 365.305 179.727 364.438 180.711 363.734C181.695 363.016 182.914 362.477 184.367 362.117C185.836 361.742 187.516 361.555 189.406 361.555H193.578ZM210.711 356.82V377H204.523V351.641H210.383L210.711 356.82ZM218.422 351.477L218.328 357.242C217.984 357.18 217.594 357.133 217.156 357.102C216.734 357.07 216.336 357.055 215.961 357.055C215.008 357.055 214.172 357.188 213.453 357.453C212.734 357.703 212.133 358.07 211.648 358.555C211.18 359.039 210.82 359.633 210.57 360.336C210.32 361.023 210.18 361.805 210.148 362.68L208.812 362.516C208.812 360.906 208.977 359.414 209.305 358.039C209.633 356.664 210.109 355.461 210.734 354.43C211.359 353.398 212.141 352.602 213.078 352.039C214.031 351.461 215.125 351.172 216.359 351.172C216.703 351.172 217.07 351.203 217.461 351.266C217.867 351.312 218.188 351.383 218.422 351.477ZM228.008 340.977V377H221.82V340.977H228.008ZM243.898 351.641L232.859 364.039L226.883 370.109L224.914 365.305L229.531 359.492L236.422 351.641H243.898ZM237.57 377L229.719 365.188L233.844 361.18L244.742 377H237.57Z" fill="black"/>
<path id="Vector" d="M70.3678 197.979C15.4809 187.216 15.4809 187.216 1.98713 169.836C1.31308 168.763 1.04598 168.026 0.822164 166.789L0.527116 165.602C-0.492524 160.909 -0.113543 157.275 2.37545 153.13C9.29017 143.074 22.5522 137.375 33.9589 134.304H35.4208L35.1181 132.609C34.9853 131.841 34.8527 131.073 34.7203 130.305L34.5214 129.2C33.481 123.1 33.3558 116.917 33.3498 110.741L33.3483 109.676C33.3572 100.113 34.5978 90.9184 36.8827 81.6402L38.1961 76.5711C38.3574 76.075 38.5079 75.5703 38.6599 75.0553C42.2964 63.0043 48.5655 52.0242 56.3749 42.2652C56.9264 41.5398 57.4747 40.8118 58.0195 40.0811L58.7315 39.1294C59.3316 38.3254 59.4905 38.263 59.9905 37.263C60.7582 36.6083 61.322 36.0348 62.0931 35.3842C63.1704 34.4143 64.1768 33.3934 65.1808 32.347C68.4987 28.8965 72.0547 25.9436 75.8671 23.0699L76.6692 22.4515C90.5641 11.751 106.698 5.25439 123.694 1.6392C124.635 1.43972 124.635 1.43972 125.572 0.92147C126.599 0.811022 127.629 0.727955 128.66 0.658073L130.569 0.528297L131.57 0.46377C132.557 0.399853 133.542 0.331695 134.528 0.262977C140.636 -0.141971 146.564 -0.05967 152.652 0.375678L161.633 1.90585C162.668 2.00157 163.704 2.09307 164.739 2.1827L166.123 2.30602L169.43 2.89022C170.54 3.31266 170.54 3.31266 171.91 3.65734L173.509 4.10218L175.247 4.58211C181.754 6.443 187.85 8.8997 194.026 11.6955C195.238 12.2337 196.463 12.7302 197.693 13.2262C199.39 14.083 200.964 15.1567 202.566 16.1793L204.066 17.1194C210.501 21.1873 216.501 25.7158 222.058 30.9449C222.737 31.5421 223.417 32.137 224.099 32.7291C231.78 39.5254 237.882 48.1561 243.013 57.0308L243.793 58.3786C245.449 61.3081 245.491 61.2629 245.991 62.2629L246.424 62.9371C246.771 63.9137 247.089 64.9008 247.398 65.8902C248.03 67.5381 248.688 69.1753 249.348 70.8121L250.979 75.263C251.322 76.7639 251.761 78.2364 252.21 79.733C254.184 86.324 255.425 92.8343 256.018 99.6973L256.11 100.741C256.896 109.646 256.685 118.146 255.814 127.041C255.61 129.15 255.422 131.261 255.234 133.371L255.195 133.812L256.196 134.178C281.967 143.683 281.967 143.683 288.341 155.413C289.787 158.559 289.786 162.318 288.991 165.652C285.625 174.934 276.272 180.049 267.858 184.014C253.337 190.596 236.175 195.689 220.307 197.231C219.17 197.342 219.17 197.342 217.673 197.796C217.155 198.916 217.155 198.916 216.698 200.257C216.167 201.201 215.617 202.132 215.052 203.055L214.064 204.673C213.713 205.242 213.363 205.81 213.013 206.379L212.459 207.282L211.934 208.14C209.712 211.761 207.462 215.361 205.164 218.933C203.67 221.264 202.19 223.605 200.708 225.943L199.681 227.565C197.454 231.082 195.239 234.606 193.035 238.138C189.158 244.348 185.266 250.548 181.308 256.705C179.222 259.949 177.169 263.213 175.128 266.486C171.033 273.048 166.915 279.595 162.726 286.096C160.863 288.999 159.058 291.937 157.253 294.876L157.156 295.034C153.423 301.106 149.512 307.046 145.552 312.968L131.839 293.706C130.621 291.812 129.448 289.891 128.282 287.965L125.588 283.589C125.212 282.944 124.819 282.31 124.415 281.684L123.49 280.236C123.013 279.493 122.821 279.194 122.527 278.867L118.554 273.208C117.527 271.763 117.342 270.726 116.358 269.456L113.397 264.395C113.189 264.001 112.944 263.605 112.649 263.161L111.879 261.985L111.044 260.735C110.463 259.848 109.881 258.96 109.301 258.072L108.407 256.711C107.108 254.716 105.846 252.698 104.588 250.676L103.873 249.532C102.604 247.497 101.34 245.459 100.08 243.418L99.2768 242.122C98.7684 241.302 98.2616 240.481 97.7566 239.658L97.0629 238.54L96.4565 237.557L92.4959 231.263C91.9096 230.299 91.2708 229.364 90.6385 228.404C88.1863 224.639 85.7815 220.847 83.4203 217.023L82.502 215.539C80.9675 213.054 79.4471 210.561 77.9457 208.055L77.0711 206.604C76.5236 205.694 75.9797 204.782 75.4397 203.867L74.7021 202.643L74.062 201.567L71.9686 198.289L70.3678 197.979Z" fill="#010100"/>
<path id="Vector_2" d="M54.8706 178.829C44.9375 176.256 30.8816 173.28 25.2366 163.659C24.6242 161.416 24.6442 159.687 25.2366 157.445C27.0239 153.968 29.9067 152.028 33.24 150.24L34.3431 149.662C36.2136 148.649 37.702 147.601 39.8558 147.601L40.2993 148.41L40.8608 149.478C41.4402 150.504 41.4402 150.504 41.805 151.539L41.805 151.539C42.0271 152.263 41.805 151.539 42.0271 152.763C42.2056 153.747 42.5271 153.763 42.5271 154.263C42.5271 154.763 43.4088 156.132 43.7237 156.707C44.2215 157.609 44.7189 158.511 45.2161 159.414C45.7634 160.417 46.3108 161.42 46.8609 162.421L47.4394 163.474C48.859 166.089 50.0988 169.006 52.8283 170.403L54.2008 170.857C55.481 171.296 56.7332 171.68 58.0554 171.964L59.3479 172.21C81.2353 177.155 103.935 178.526 126.289 179.248L127.948 179.3C128.978 179.334 130.008 179.367 131.039 179.399L132.478 179.438L133.789 179.478C134.478 179.497 135.168 179.531 135.855 179.593C137.027 179.763 136.583 179.719 137.527 179.763C137.925 179.754 138.641 179.771 139.027 179.763C139.482 179.754 139.642 179.727 140.027 179.763C141.027 179.763 143.546 179.775 144.027 179.763C146.027 179.763 145.866 179.686 147.319 179.863C148.44 179.837 148.723 179.888 149.844 179.863C153.148 179.79 156.452 179.712 159.755 179.629L161.195 179.593C186.321 178.972 213.644 178.491 237.791 170.584C241.542 169.133 241.542 169.133 247.107 156.816L247.107 156.816C247.543 155.845 247.984 154.883 248.454 153.928C248.831 153.173 249.187 152.407 249.538 151.639L250.189 150.185L250.847 148.716L251.346 147.601L252.182 147.907L253.265 148.309C253.929 148.553 254.372 148.993 255.027 149.263C255.31 149.448 256.027 149.763 256.76 150.052L256.903 150.118C258.912 151.046 260.657 151.85 262.067 153.63C262.398 154.091 262.705 154.316 263.027 154.763C264.027 155.763 264.027 155.763 264.808 156.707C265.527 159.263 266.057 161.374 265.044 163.972C255.346 173.245 255.346 173.245 242.156 177.155L240.534 177.625C238.797 178.131 237.106 178.637 235.368 178.932L230.879 180.085C215.83 183.223 200.64 185.059 185.331 186.262L184.067 186.361C179.753 186.707 175.452 187.004 171.123 187.041L169.938 187.045C168.642 187.052 167.672 187.522 166.377 187.468C166.045 187.301 165.922 187.396 165.601 187.234C165.601 187.569 162.359 187.143 162.359 187.468H161.195C161.195 187.301 160.101 187.396 160.101 187.234C158.527 187.263 158.974 187.263 157.527 187.263C156.178 187.468 154.527 187.306 154.527 187.468H133.906C133.906 187.134 133.027 187.588 133.027 187.263C129.2 187.713 126.299 187.068 122.448 186.999L121.236 186.976C113.326 186.869 105.501 186.405 97.6294 185.635L96.2613 185.5C94.9313 185.37 93.6014 185.238 92.272 185.103L91.0456 184.977C89.7326 184.845 88.4323 184.695 87.1243 184.515C87.0271 184.263 85.5271 184.263 85.5271 184.263H84.0271C83.5271 184.263 83.5271 184.263 82.5271 183.763C81.4002 183.681 80.4543 183.613 79.3274 183.531C79.3274 183.363 76.5271 183.263 77.0271 183.263C72.5584 183.039 70.5436 182.168 66.1675 181.275C65.4917 181.137 64.8156 181 64.1393 180.865C61.7038 180.381 59.2597 179.927 56.8461 179.341L55.9368 179.101L54.8706 178.829Z" fill="#FFFD78"/>
<path id="Vector_3" d="M134.243 59.862C135.924 59.8686 137.606 59.866 139.287 59.8635C159.434 59.841 177.585 60.9094 193.688 74.4499C195.505 75.8749 197.486 76.777 199.608 77.6395C201.308 78.3334 201.979 78.6094 203.029 80.2004C203.09 81.7693 203.09 81.7693 203.029 83.1535C201.128 84.4333 199.387 84.2122 197.181 84.1379C197.181 84.4628 197.181 84.7876 197.181 85.1223C197.749 85.1068 197.749 85.1068 198.327 85.0911C200.057 85.0499 201.786 85.0244 203.516 84.9992C204.111 84.9828 204.706 84.9663 205.319 84.9493C208.425 84.9153 210.703 84.9923 213.389 86.6195C214.781 87.3936 216.24 87.4999 217.8 87.7063C221.039 88.2225 223.947 89.1943 226.968 90.4748C227.354 90.6361 227.741 90.7975 228.139 90.9637C231.17 92.298 233.93 93.9909 235.678 96.9348C235.678 97.4221 235.678 97.9093 235.678 98.4114C232.784 98.4114 229.889 98.4114 226.907 98.4114C230.012 102.014 230.012 102.014 234.095 104.01C235.817 102.947 236.126 101.294 236.653 99.3957C240.66 102.878 241.932 110.555 242.501 115.638C243.135 128.381 243.135 128.381 241.039 133.357C237.727 135.587 232.97 135.522 229.073 135.852C228.329 135.916 228.329 135.916 227.57 135.981C225.908 136.118 224.245 136.246 222.582 136.371C221.999 136.415 221.416 136.459 220.815 136.504C209.342 137.332 197.88 137.485 186.381 137.479C185.05 137.479 183.72 137.48 182.389 137.481C173.556 137.484 164.743 137.369 155.924 136.839C155.425 136.809 155.425 136.809 154.916 136.778C139.168 135.809 139.168 135.809 134.806 134.341C134.802 133.878 134.797 133.415 134.793 132.938C135.065 115.826 135.065 115.826 127.689 100.968C125.974 99.3802 125.26 98.8909 122.898 98.9343C120.255 99.6369 119.357 100.829 117.977 103.074C112.742 112.726 113.996 123.834 115.314 134.341C103.571 133.3 90.3709 131.342 79.741 125.974C79.7762 125.649 79.8113 125.324 79.8476 124.989C80.826 114.448 81.4127 103.205 75.3552 93.9817C74.0701 92.8093 73.5012 92.5229 71.7614 92.1975C69.6307 92.5685 69.0081 93.1075 67.7297 94.8026C65.3346 98.9765 64.5675 103.679 64.587 108.436C64.588 108.938 64.588 108.938 64.589 109.449C64.5917 110.507 64.5979 111.565 64.6041 112.623C64.6065 113.345 64.6088 114.067 64.6107 114.788C64.6161 116.548 64.6245 118.308 64.6345 120.068C62.2046 119.841 60.4151 119.616 58.2996 118.314C57.9277 118.09 57.5558 117.866 57.1727 117.636C56.9013 117.464 56.63 117.292 56.3504 117.114C56.6941 118.689 56.6941 118.689 58.0788 119.347C58.5939 119.595 59.109 119.843 59.6397 120.098C60.1497 120.348 60.6598 120.597 61.1853 120.854C62.4856 121.452 63.7896 122.008 65.1218 122.529C65.1218 123.178 65.1218 123.828 65.1218 124.497C59.9693 123.658 56.1856 121.418 52.8212 117.366C48.937 111.761 48.2869 105.491 49.2654 98.8574C50.4576 94.3807 52.9062 90.9349 56.8377 88.5676C57.1593 88.5676 57.4809 88.5676 57.8123 88.5676C57.7124 88.9242 57.6125 89.2807 57.5096 89.6481C57.3783 90.124 57.247 90.5998 57.1118 91.0901C56.9817 91.5583 56.8517 92.0265 56.7177 92.509C55.4584 97.5571 54.9401 103.79 56.8377 108.747C57.6902 110.247 57.6902 110.247 58.7869 111.208C59.2693 111.208 59.7517 111.208 60.2488 111.208C60.2707 110.852 60.2925 110.495 60.3151 110.127C60.4194 108.477 60.532 106.828 60.6447 105.179C60.679 104.618 60.7132 104.057 60.7485 103.479C61.2447 96.422 62.5752 90.1365 67.7944 85.1165C70.9105 82.629 74.5638 80.6153 78.2791 79.216C75.7349 79.1022 73.6365 79.4636 71.2436 80.2754C70.9104 80.3835 70.5772 80.4916 70.2339 80.6029C69.1781 80.946 68.1245 81.2956 67.0711 81.6462C66.0174 81.9943 64.9634 82.3409 63.9082 82.6843C63.2548 82.8971 62.6022 83.1128 61.9507 83.3317C59.9135 83.9986 57.98 84.3785 55.8631 84.6301C57.153 83.0761 58.789 82.3373 60.5781 81.5116C60.9001 81.3617 61.2221 81.2117 61.5538 81.0573C65.1252 79.431 68.805 78.1745 72.5228 76.9397C81.5741 73.9215 81.5741 73.9215 89.9268 69.3531C104.012 60.3474 118.053 59.776 134.243 59.862Z" fill="#FFFEC7"/>
<path id="Vector_4" d="M126.212 64.3677C126.705 64.3657 127.199 64.3636 127.707 64.3615C129.312 64.3568 130.917 64.3568 132.522 64.3581C133.068 64.3581 133.614 64.3581 134.177 64.358C141.006 64.3633 147.817 64.4462 154.634 64.8811C155.244 64.9196 155.855 64.9582 156.484 64.998C170.466 65.9995 180.966 70.0725 191.887 78.9846C193.289 80.1013 194.744 81.134 196.207 82.1691C196.046 82.9813 195.885 83.7934 195.72 84.6301C195.161 84.6155 194.603 84.6009 194.027 84.5859C183.194 84.3077 172.365 84.1043 161.528 84.1039C159.914 84.1033 158.3 84.1002 156.686 84.0961C155.885 84.0941 155.885 84.0941 155.068 84.0921C153.991 84.0893 152.914 84.0864 151.837 84.0835C149.088 84.0771 146.339 84.0773 143.589 84.0889C140.858 84.0999 138.127 84.0944 135.396 84.0775C134.371 84.0742 133.347 84.077 132.322 84.0861C130.909 84.0979 129.498 84.0886 128.085 84.0742C127.671 84.0828 127.257 84.0913 126.831 84.1001C125.133 84.0641 124.037 84.0115 122.699 82.8953C120.656 80.5328 119.364 77.8563 118.055 75.0324C117.836 74.5839 117.617 74.1353 117.391 73.6731C116.206 71.1512 115.406 69.221 115.802 66.4191C118.601 63.9241 122.696 64.3722 126.212 64.3677Z" fill="#010000"/>
<path id="Vector_5" d="M176.258 113.577C176.884 113.566 176.884 113.566 177.524 113.556C178.877 113.65 179.987 113.861 181.297 114.165C185.256 114.9 189.237 114.763 193.246 114.728C194.708 114.715 196.171 114.709 197.633 114.704C200.731 114.693 203.829 114.674 206.927 114.654C210.533 114.63 214.138 114.61 217.743 114.599C219.185 114.592 220.626 114.58 222.067 114.567C222.946 114.564 223.825 114.56 224.705 114.557C225.306 114.55 225.306 114.55 225.92 114.542C227.809 114.542 228.708 114.554 230.318 115.638C231.026 119.014 229.939 122.193 228.228 125.057C226.612 127.418 225.075 128.671 222.521 129.911C222.039 130.155 222.039 130.155 221.547 130.404C210.05 132.281 190.956 134.7 181.077 127.731C177.356 124.542 173.527 120.088 171.354 115.638C171.515 115.151 171.676 114.663 171.842 114.161C173.283 113.598 174.724 113.588 176.258 113.577Z" fill="#080604"/>
<path id="Vector_6" d="M126.522 103.825C130.465 106.832 131.879 112.42 132.668 117.098C132.999 119.707 133.022 122.301 133.009 124.928C133.006 125.773 133.006 125.773 133.003 126.634C132.929 132.242 132.482 138.34 128.563 142.708C126.946 143.455 125.844 143.445 124.086 143.2C120.218 140.935 118.958 136.573 117.842 132.403C116.29 124.266 115.691 113.43 120.201 106.173C122.081 103.507 123.286 102.811 126.522 103.825Z" fill="#FFFEC7"/>
<path id="Vector_7" d="M107.03 66.3885C111.739 69.6585 114.433 74.639 115.517 80.2705C115.754 81.9232 115.853 83.0104 115.284 84.5994C114.06 85.9147 113.165 85.989 111.416 86.1067C110.074 83.7039 109.481 81.4042 108.979 78.7239C102.538 78.441 96.7332 79.2116 90.4617 80.6927C90.4617 81.0175 90.4617 81.3423 90.4617 81.677C95.9292 81.677 101.397 81.677 107.03 81.677C105.244 83.481 102.89 83.212 100.495 83.222C100.098 83.221 99.7012 83.22 99.2922 83.219C98.8784 83.2194 98.4646 83.2199 98.0383 83.2204C97.1664 83.2207 96.2944 83.2198 95.4224 83.2178C94.0889 83.2151 92.7555 83.2177 91.422 83.2209C90.5733 83.2206 89.7247 83.2199 88.876 83.219C88.478 83.22 88.08 83.221 87.67 83.222C85.9193 83.2147 84.3493 83.1389 82.6648 82.6614C82.6205 82.1456 82.6205 82.1456 82.5753 81.6194C82.5345 81.1714 82.4937 80.7235 82.4516 80.262C82.412 79.8166 82.3725 79.3712 82.3317 78.9123C82.2409 77.7341 82.2409 77.7341 81.6902 76.7552C81.9426 76.6241 82.195 76.493 82.455 76.358C88.2797 73.3622 88.2797 73.3622 93.8728 69.9568C98.0563 67.1923 101.981 64.7947 107.03 66.3885Z" fill="#040300"/>
<path id="Vector_8" d="M72.5531 95.9504C74.6299 96.7132 75.6642 98.0134 76.8171 99.8879C80.0699 107.478 80.6011 117.669 77.7917 125.482C76.3336 128.979 76.3336 128.979 74.8678 129.911C73.3639 129.979 72.4156 129.753 71.1731 128.873C67.018 124.751 66.9601 118.522 66.8689 113.039C66.8645 112.377 66.8608 111.716 66.8578 111.054C66.8503 110.104 66.8503 110.104 66.8428 109.135C66.8846 104.533 67.0879 99.8708 70.4821 96.4426C71.4567 95.9504 71.4567 95.9504 72.5531 95.9504Z" fill="#FFFEC7"/>
<path id="Vector_9" d="M141.629 93.9817C148.238 94.3618 154.807 95.9563 161.277 97.2724C163.111 97.6444 164.946 98.0094 166.781 98.3739C167.956 98.6109 169.131 98.8483 170.305 99.0862C170.85 99.1939 171.394 99.3016 171.954 99.4126C174.687 99.9744 177.129 100.621 179.638 101.857C179.151 103.333 179.151 103.333 178.313 103.911C176.985 104.397 175.937 104.437 174.524 104.431C173.986 104.431 173.449 104.43 172.896 104.429C172.317 104.423 171.738 104.417 171.141 104.41C170.542 104.406 169.943 104.402 169.325 104.398C164.864 104.358 160.403 104.265 155.943 104.133C155.074 104.11 155.074 104.11 154.187 104.087C145.685 103.793 145.685 103.793 143.608 102.048C142.245 100.548 141.123 98.935 140.654 96.9348C140.904 94.7137 140.904 94.7137 141.629 93.9817Z" fill="#030301"/>
<path id="Vector_10" d="M125.06 109.24C126.157 109.24 126.157 109.24 127.497 109.732C131.765 116.197 131.641 125.195 130.28 132.565C129.789 134.385 129.034 135.74 127.984 137.294C126.33 137.201 125.679 136.938 124.512 135.725C121.117 129.816 121.284 120.696 122.776 114.223C123.285 112.356 124.028 110.87 125.06 109.24Z" fill="#030200"/>
<path id="Vector_11" d="M56.3503 90.0442C56.2479 90.4733 56.2479 90.4733 56.1435 90.911C55.4022 94.2745 55.1972 97.4943 55.1929 100.934C55.181 101.442 55.1691 101.95 55.1568 102.474C55.1459 105.343 55.396 107.428 56.8573 109.916C57.3249 110.716 57.3249 110.716 57.8122 112.193C59.3761 112.368 60.0489 112.338 61.3451 111.393C62.3561 110.007 62.5325 108.968 62.6852 107.271C62.846 107.271 63.0069 107.271 63.1725 107.271C63.3333 111.331 63.4942 115.392 63.6598 119.575C58.2995 117.607 58.2995 117.607 57.3249 116.622C56.3168 116.306 56.3168 116.306 55.3757 116.13C55.5365 117.105 55.6973 118.079 55.863 119.083C52.8457 116.297 51.0237 113.056 49.528 109.24C49.3672 109.24 49.2064 109.24 49.0407 109.24C48.8388 102.306 48.8298 96.6385 53.4264 91.0286C54.8884 90.0442 54.8884 90.0442 56.3503 90.0442Z" fill="#FFFEC7"/>
<path id="Vector_12" d="M152.532 143.846C163.365 146.063 174.267 146.986 185.269 147.868C188.551 148.132 191.831 148.415 195.11 148.707C195.577 148.748 196.044 148.789 196.525 148.832C197.556 148.923 198.587 149.015 199.618 149.107C199.618 149.269 199.618 149.432 199.618 149.599C180.462 151.236 162.197 150.928 143.578 145.661C143.137 145.54 142.696 145.419 142.242 145.295C141.798 145.168 141.355 145.042 140.898 144.912C140.491 144.796 140.084 144.681 139.664 144.563C138.705 144.185 138.705 144.185 138.218 143.2C142.846 141.642 147.898 142.896 152.532 143.846Z" fill="#FFFEC7"/>
<path id="Vector_13" d="M159.568 121.39C160.06 121.417 160.552 121.443 161.059 121.47C163.371 121.647 164.666 121.771 166.561 123.196C167.739 124.909 167.793 125.901 167.456 127.943C165.958 129.465 164.778 129.608 162.699 129.615C162.153 129.617 161.608 129.619 161.046 129.621C160.478 129.615 159.909 129.61 159.324 129.604C158.765 129.609 158.206 129.615 157.631 129.621C154.151 129.609 150.443 129.573 147.616 127.259C146.989 126.466 146.989 126.466 146.776 124.774C146.989 123.021 146.989 123.021 147.659 121.821C150.811 119.926 156.018 121.127 159.568 121.39Z" fill="#030200"/>
<path id="Vector_14" d="M73.406 99.8879C76.1477 102.419 77.1261 105.398 77.4039 109.082C77.4622 110.571 77.4849 112.056 77.4872 113.546C77.4884 114.271 77.4884 114.271 77.4896 115.011C77.4381 118.425 77.2786 121.583 75.3552 124.497C74.2284 124.497 74.2284 124.497 72.9187 124.005C69.8815 118.801 70.118 110.106 71.3883 104.408C71.8359 103.178 72.3099 102.028 72.9187 100.872C73.0795 100.547 73.2403 100.223 73.406 99.8879Z" fill="#030200"/>
<path id="Vector_15" d="M126.035 104.318C128.628 106.41 130.048 109.508 130.908 112.685C130.957 114.065 130.957 114.065 130.908 115.146C129.871 113.575 128.987 111.956 128.091 110.301C127.605 109.433 127.07 108.593 126.522 107.763C125.36 107.7 125.36 107.7 124.086 108.255C121.165 112.265 120.972 117.261 120.979 122.036C120.98 122.849 120.98 122.849 120.982 123.678C121.071 129.731 121.624 135.3 126.035 139.755C124.449 139.622 123.735 139.393 122.563 138.279C118.402 131.554 118.375 121.959 119.791 114.377C120.453 111.59 121.429 109.567 123.111 107.271C121.791 108.432 121.235 109.535 120.614 111.178C120.371 111.808 120.371 111.808 120.123 112.452C119.393 114.554 119.134 116.396 119.058 118.63C119.038 119.201 119.018 119.772 118.997 120.36C118.977 120.954 118.958 121.548 118.939 122.159C118.918 122.761 118.896 123.362 118.875 123.982C118.823 125.466 118.773 126.951 118.725 128.435C118.243 128.435 117.761 128.435 117.263 128.435C117.249 126.189 117.241 123.944 117.233 121.698C117.229 121.061 117.225 120.425 117.221 119.769C117.219 119.155 117.217 118.541 117.216 117.909C117.212 117.062 117.212 117.062 117.208 116.198C117.259 114.788 117.364 113.548 117.751 112.193C118.072 112.03 118.394 111.868 118.725 111.7C119.263 110.352 119.694 108.98 120.14 107.598C120.668 106.303 121.054 105.66 122.136 104.81C124.471 104.024 124.471 104.024 126.035 104.318Z" fill="#FFFEC7"/>
<path id="Vector_16" d="M108.005 61.4973C108.005 61.8222 108.005 62.147 108.005 62.4817C107.327 62.6777 107.327 62.6777 106.636 62.8777C106.052 63.0516 105.469 63.2254 104.868 63.4045C104.285 63.5758 103.703 63.7471 103.103 63.9236C101.613 64.2835 101.613 64.2835 101.182 65.4348C101.535 65.412 101.888 65.3891 102.252 65.3656C105.274 65.2516 107.133 65.2611 109.467 67.4036C111.486 69.4741 113.322 71.5325 114.34 74.2942C114.098 75.0251 114.098 75.0251 113.852 75.7708C113.686 75.4199 113.521 75.069 113.35 74.7075C111.553 71.121 109.517 67.7486 105.568 66.4192C102.494 66.1837 100.608 66.6697 97.9235 68.1418C97.5873 68.3188 97.2511 68.4957 96.9048 68.678C94.2052 70.1203 91.611 71.7111 89.0302 73.3598C86.7996 74.7564 84.4965 76.0081 82.1775 77.2473C82.3383 77.4097 82.4991 77.5722 82.6648 77.7395C82.6999 78.5694 82.7057 79.4006 82.6953 80.2312C82.6909 80.6836 82.6865 81.1359 82.6819 81.602C82.6763 81.9516 82.6706 82.3012 82.6648 82.6614C83.1386 82.6588 83.6125 82.6562 84.1007 82.6536C85.8835 82.6446 87.6663 82.639 89.4491 82.6343C90.2161 82.6319 90.983 82.6285 91.75 82.6242C96.0589 82.6007 100.308 82.6282 104.594 83.1536C104.594 83.316 104.594 83.4784 104.594 83.6458C101.558 83.6582 98.522 83.6668 95.4863 83.6728C94.453 83.6753 93.4197 83.6786 92.3864 83.6829C90.9034 83.6888 89.4205 83.6916 87.9376 83.6938C87.4736 83.6964 87.0096 83.6989 86.5316 83.7015C86.1024 83.7016 85.6732 83.7016 85.231 83.7016C84.8523 83.7027 84.4735 83.7038 84.0833 83.7049C83.1521 83.6458 83.1521 83.6458 82.1775 83.1536C81.9928 82.223 81.9928 82.223 81.9034 81.0618C81.7592 79.4312 81.5606 77.8628 81.2029 76.2629C81.5245 76.2629 81.8461 76.2629 82.1775 76.2629C82.1775 75.9381 82.1775 75.6133 82.1775 75.2786C82.5123 75.1536 82.8471 75.0286 83.1921 74.8998C83.6312 74.7304 84.0703 74.561 84.5226 74.3865C84.958 74.2209 85.3933 74.0553 85.8418 73.8847C87.0434 73.3132 87.7089 72.8906 88.5125 71.8333C88.5613 71.5209 88.6101 71.2085 88.6603 70.8866C89.1372 69.4507 89.8352 69.1866 91.1355 68.4668C91.5807 68.2189 92.0259 67.9709 92.4847 67.7155C92.9628 67.4603 93.441 67.2051 93.9337 66.9421C94.4169 66.6799 94.9001 66.4178 95.398 66.1476C104.167 61.4973 104.167 61.4973 108.005 61.4973Z" fill="#FFFEC7"/>
<path id="Vector_17" d="M71.4569 99.3958C71.9393 99.5582 72.4217 99.7206 72.9188 99.8879C72.6945 100.091 72.4703 100.294 72.2392 100.503C69.2822 103.759 69.7468 109.155 69.8503 113.281C70.0397 117.338 70.8575 121.243 72.4315 124.99C73.1551 124.746 73.1551 124.746 73.8934 124.497C74.617 124.254 74.617 124.254 75.3553 124.005C76.4543 122.379 76.6012 120.643 76.8515 118.722C76.9787 117.765 76.9787 117.765 77.1085 116.79C77.1942 116.119 77.2798 115.448 77.3654 114.777C77.4546 114.098 77.544 113.419 77.6338 112.741C77.852 111.082 78.067 109.423 78.2791 107.763C79.5218 109.974 79.4213 111.918 79.406 114.407C79.4035 115.068 79.4035 115.068 79.4009 115.742C79.3213 120.657 78.5305 125.303 75.6599 129.388C74.868 129.911 74.868 129.911 73.7106 129.973C71.826 129.157 71.0438 127.7 69.995 125.974C70.1558 125.649 70.3166 125.324 70.4823 124.99C70.633 125.462 70.633 125.462 70.7868 125.943C71.4059 127.13 71.4059 127.13 72.9797 127.327C73.442 127.368 73.9044 127.409 74.3807 127.45C74.3807 127.126 74.3807 126.801 74.3807 126.466C74.0189 126.446 73.657 126.425 73.2843 126.405C71.8039 125.929 71.2154 125.434 70.4404 124.078C68.6543 119.838 68.3933 115.384 68.3503 110.839C68.3435 110.415 68.3368 109.99 68.3298 109.553C68.3527 106.363 68.5741 102.469 70.7766 99.9942C71.0011 99.7967 71.2256 99.5992 71.4569 99.3958Z" fill="#FFFEC7"/>
<path id="Vector_18" d="M125.913 107.117C126.456 107.193 126.456 107.193 127.01 107.271C127.205 107.67 127.205 107.67 127.404 108.076C127.826 108.924 128.261 109.765 128.702 110.603C128.957 111.097 129.213 111.591 129.477 112.1C129.733 112.591 129.99 113.081 130.255 113.587C131.754 117.165 131.485 121.045 131.487 124.866C131.493 125.425 131.499 125.984 131.505 126.56C131.506 127.363 131.506 127.363 131.508 128.181C131.51 128.667 131.512 129.153 131.514 129.653C131.395 130.896 131.395 130.896 130.421 132.372C130.428 132.051 130.436 131.729 130.444 131.397C130.716 120.735 130.716 120.735 127.497 110.716C127.497 110.391 127.497 110.066 127.497 109.732C126.693 109.732 125.889 109.732 125.06 109.732C124.742 110.489 124.428 111.248 124.116 112.008C123.941 112.431 123.766 112.853 123.585 113.289C122.587 116.164 122.514 119.022 122.502 122.036C122.5 122.446 122.498 122.855 122.496 123.276C122.526 126.509 122.991 129.395 123.814 132.526C124.086 133.849 124.086 133.849 123.598 135.325C120.482 132.178 120.55 128.287 120.49 123.951C120.49 123.431 120.491 122.911 120.492 122.375C120.493 121.834 120.493 121.293 120.494 120.735C120.553 116.779 120.729 107.712 125.913 107.117Z" fill="#FFFEC7"/>
<path id="Vector_19" d="M83.6394 116.13C86.0256 116.442 88.1606 117.158 90.4008 118.007C97.2701 120.519 104.206 121.908 111.416 123.021C111.416 123.183 111.416 123.346 111.416 123.513C109.968 123.513 108.521 123.513 107.03 123.513C107.03 123.838 107.03 124.163 107.03 124.497C107.512 124.497 107.995 124.497 108.492 124.497C108.492 124.985 108.492 125.472 108.492 125.974C105.369 125.683 102.422 125.159 99.3854 124.374C98.9647 124.267 98.5439 124.159 98.1104 124.048C94.5318 123.109 90.9131 122.104 87.5378 120.56C87.377 120.235 87.2162 119.91 87.0505 119.575C89.3652 120.006 89.3652 120.006 90.4617 120.56C90.4617 120.073 90.4617 119.585 90.4617 119.083C90.1733 118.988 89.885 118.893 89.5879 118.795C87.5794 118.126 85.591 117.449 83.6394 116.622C83.6394 116.46 83.6394 116.297 83.6394 116.13Z" fill="#FFFEC7"/>
<path id="Vector_20" d="M65.6091 96.9348C66.2028 98.7335 65.9047 99.3958 65.4017 101.201C64.4585 105.106 64.4698 108.857 64.5432 112.839C64.5505 113.545 64.5572 114.25 64.5631 114.956C64.579 116.66 64.6041 118.364 64.6345 120.068C62.2046 119.841 60.4151 119.616 58.2996 118.314C57.7418 117.978 57.7418 117.978 57.1727 117.636C56.7656 117.378 56.7656 117.378 56.3503 117.115C56.6941 118.689 56.6941 118.689 58.0788 119.347C58.5939 119.595 59.109 119.843 59.6397 120.098C60.1497 120.348 60.6598 120.597 61.1853 120.854C62.4856 121.452 63.7896 122.008 65.1218 122.529C65.1218 123.178 65.1218 123.828 65.1218 124.497C59.9738 123.659 56.1757 121.422 52.8231 117.363C50.8927 114.591 49.3316 111.704 49.5281 108.255C50.0888 109.377 50.6345 110.504 51.1689 111.639C51.4114 112.146 51.6539 112.654 51.9037 113.177C52.2636 113.938 52.2636 113.938 52.6308 114.715C53.4093 116.1 54.2102 117.039 55.3757 118.099C55.3757 117.449 55.3757 116.8 55.3757 116.13C57.4245 116.389 59.0013 117.168 60.8008 118.13C61.7792 118.653 61.7792 118.653 63.1726 119.083C63.165 118.784 63.1573 118.485 63.1494 118.177C62.8212 103.326 62.8212 103.326 65.6091 96.9348Z" fill="#FFFEC7"/>
<path id="Vector_21" d="M154.481 144.185C155.178 144.328 155.875 144.47 156.571 144.612C158.252 144.955 159.93 145.306 161.608 145.661C161.608 145.986 161.608 146.311 161.608 146.646C158.714 146.321 155.819 145.996 152.837 145.661C152.997 145.986 153.158 146.311 153.324 146.646C154.639 146.96 155.923 147.221 157.253 147.446C157.623 147.512 157.992 147.578 158.373 147.646C159.288 147.808 160.205 147.966 161.121 148.122C161.121 148.285 161.121 148.447 161.121 148.615C157.596 148.747 154.448 148.268 151.009 147.507C150.239 147.34 150.239 147.34 149.453 147.17C141.606 145.435 141.606 145.435 138.705 144.185C138.544 143.86 138.383 143.535 138.218 143.2C143.348 141.473 149.345 143.093 154.481 144.185ZM154.299 146.154C155.103 146.154 155.907 146.154 156.735 146.154C156.413 146.478 156.092 146.803 155.76 147.138C155.278 146.813 154.796 146.488 154.299 146.154Z" fill="#FFFEC7"/>
<path id="Vector_22" d="M238.907 119.514C239.721 119.544 239.721 119.544 240.551 119.575C241.692 121.375 241.709 122.889 241.526 124.99C240.547 127.49 238.98 128.325 236.653 129.419C235.222 129.542 235.222 129.542 234.217 129.419C233.971 126.072 234.657 123.553 236.166 120.56C237.14 119.575 237.14 119.575 238.907 119.514Z" fill="#040300"/>
<path id="Vector_23" d="M236.653 99.3958C240.66 102.878 241.932 110.555 242.501 115.638C243.135 128.381 243.135 128.381 241.039 133.357C235.716 136.941 226.772 135.896 220.572 135.818C220.572 135.655 220.572 135.493 220.572 135.325C221.024 135.286 221.476 135.246 221.942 135.206C223.635 135.056 225.328 134.903 227.02 134.749C227.75 134.683 228.48 134.618 229.209 134.554C230.264 134.462 231.319 134.365 232.374 134.268C233.007 134.211 233.64 134.155 234.292 134.096C236.285 133.833 238.125 133.392 240.064 132.865C240.386 131.078 240.707 129.291 241.039 127.45C240.074 128.1 239.109 128.75 238.115 129.419C237.793 129.094 237.472 128.77 237.14 128.435C237.603 128.232 238.065 128.029 238.541 127.82C240.191 126.886 240.427 126.709 241.039 124.99C242.179 117.053 240.729 110.183 237.628 102.841C237.256 103.16 236.884 103.478 236.501 103.806C235.191 104.81 235.191 104.81 233.729 105.117C231.6 104.669 231.069 103.622 229.831 101.857C231.033 102.424 231.803 102.865 232.755 103.825C233.988 103.979 233.988 103.979 235.191 103.333C235.859 102.072 236.272 100.77 236.653 99.3958Z" fill="#FFFEC7"/>
<path id="Vector_24" d="M152.349 145.169C153.71 145.321 155.07 145.475 156.431 145.631C156.817 145.673 157.204 145.716 157.603 145.76C160.523 146.098 160.523 146.098 161.608 146.646C161.608 146.321 161.608 145.996 161.608 145.661C163.111 145.799 164.614 145.944 166.116 146.092C166.754 146.15 166.754 146.15 167.404 146.209C167.816 146.251 168.227 146.292 168.651 146.334C169.029 146.37 169.407 146.406 169.796 146.444C170.944 146.66 171.801 147.056 172.816 147.63C172.334 147.793 171.851 147.955 171.354 148.122C171.033 148.61 170.711 149.097 170.38 149.599C167.883 150.192 165.686 150.045 163.161 149.691C162.525 149.607 161.889 149.522 161.233 149.435C159.659 149.107 159.659 149.107 158.684 148.122C157.313 147.853 155.943 147.684 154.557 147.511C153.324 147.138 153.324 147.138 152.669 146.119C152.564 145.806 152.458 145.492 152.349 145.169ZM154.299 146.154C155.263 146.641 155.263 146.641 156.248 147.138C156.409 146.813 156.569 146.488 156.735 146.154C155.931 146.154 155.127 146.154 154.299 146.154Z" fill="#FFFEC7"/>
<path id="Vector_25" d="M84.1267 114.654C86.6855 115.329 89.2294 116.044 91.7561 116.834C98.0793 118.807 104.308 120.465 110.928 121.052C110.768 121.702 110.607 122.351 110.441 123.021C101.206 121.953 92.7208 119.71 84.1267 116.13C84.1267 115.643 84.1267 115.156 84.1267 114.654Z" fill="#0F0A00"/>
<path id="Vector_26" d="M123.598 106.779C124.604 106.994 124.604 106.994 125.548 107.271C125.186 107.545 124.824 107.819 124.451 108.101C120.57 112.201 120.893 118.534 120.93 123.808C121.087 129.804 121.669 135.345 126.035 139.755C124.449 139.622 123.736 139.393 122.563 138.279C118.402 131.554 118.375 121.959 119.791 114.377C120.481 111.486 121.473 108.926 123.598 106.779Z" fill="#160F00"/>
<path id="Vector_27" d="M83.6394 119.083C85.3099 119.387 86.8496 119.813 88.4439 120.398C95.527 122.93 102.553 124.677 109.954 125.974C109.793 126.461 109.632 126.948 109.467 127.45C106.209 127.609 103.436 127.048 100.299 126.189C99.8131 126.059 99.327 125.928 98.8263 125.794C87.4965 122.665 87.4965 122.665 83.6394 120.068C83.6394 119.743 83.6394 119.418 83.6394 119.083Z" fill="#0F0B00"/>
<path id="Vector_28" d="M182.075 135.325C183.281 135.569 183.281 135.569 184.511 135.818C184.511 135.655 184.511 135.493 184.511 135.325C187.245 135.325 189.979 135.325 192.796 135.325C192.796 135.488 192.796 135.65 192.796 135.818C194.886 136.142 196.977 136.467 199.131 136.802C199.131 136.964 199.131 137.127 199.131 137.294C187.874 137.294 176.617 137.294 165.019 137.294C165.019 137.132 165.019 136.969 165.019 136.802C168.785 136.325 172.496 136.25 176.288 136.279C176.847 136.281 177.406 136.283 177.982 136.286C179.347 136.292 180.711 136.3 182.075 136.31C182.075 135.985 182.075 135.66 182.075 135.325Z" fill="#FFFEC7"/>
<path id="Vector_29" d="M81.6902 74.7864C81.2178 75.0097 80.7454 75.233 80.2587 75.4631C78.7319 76.0946 78.7319 76.0946 78.2791 77.2473C77.2454 77.355 76.2115 77.4605 75.1765 77.5547C72.9315 77.878 70.8647 78.7001 68.7462 79.4929C68.0786 79.7361 68.0786 79.7361 67.3975 79.9842C66.3124 80.3801 65.2292 80.7803 64.1472 81.1848C64.9393 80.9704 65.7311 80.7548 66.5228 80.5388C67.0122 80.4056 67.5015 80.2724 68.0057 80.1351C69.3626 79.7495 70.6958 79.3196 72.0355 78.8777C74.1979 78.2067 76.0261 78.1053 78.2791 78.2317C78.2791 78.3941 78.2791 78.5565 78.2791 78.7239C78.0103 78.7689 77.7416 78.8139 77.4647 78.8603C73.2989 79.6242 69.3235 80.9525 65.3016 82.2623C64.3775 82.5623 63.4524 82.8589 62.5273 83.1555C61.9841 83.3322 61.441 83.509 60.8813 83.6911C59.2121 84.1552 57.5802 84.419 55.863 84.6301C57.15 83.0811 58.7764 82.3455 60.561 81.5232C61.0426 81.2992 61.0426 81.2992 61.5339 81.0707C64.8754 79.5487 68.2982 78.2952 71.768 77.1082C72.8188 76.7476 73.8662 76.3778 74.9136 76.0072C75.586 75.7741 76.2586 75.5414 76.9314 75.3093C77.5305 75.1019 78.1296 74.8944 78.7468 74.6806C80.2283 74.2942 80.2283 74.2942 81.6902 74.7864Z" fill="#FFFEC7"/>
<path id="Vector_30" d="M71.944 99.8879C72.4264 99.8879 72.9089 99.8879 73.4059 99.8879C73.3061 100.185 73.2062 100.482 73.1033 100.788C72.972 101.181 72.8407 101.574 72.7054 101.98C72.5754 102.368 72.4454 102.756 72.3114 103.156C70.4261 109.116 70.6246 117.186 72.9186 123.021C73.8968 124.503 74.302 124.807 75.8425 125.482C74.7168 125.482 73.5911 125.482 72.4313 125.482C69.2342 119.133 68.3818 111.364 69.9282 104.389C71.1223 100.718 71.1223 100.718 71.944 99.8879Z" fill="#FFFEC7"/>
<path id="Vector_31" d="M124.817 103.21C127.633 104.226 128.791 105.986 130.135 108.622C132.509 114.014 133.019 119.197 132.979 125.051C132.983 125.6 132.987 126.149 132.99 126.714C132.983 129.904 132.696 132.734 131.883 135.818C131.722 135.818 131.561 135.818 131.395 135.818C131.43 135.389 131.466 134.96 131.502 134.518C132.225 125.141 132.963 113.155 126.606 105.446C126.417 105.236 126.229 105.026 126.035 104.81C125.115 104.871 125.115 104.871 124.177 104.933C123.832 104.956 123.487 104.979 123.132 105.002C121.743 105.421 121.409 106.023 120.675 107.271C120.289 108.202 119.935 109.147 119.609 110.101C119.357 110.828 119.357 110.828 119.1 111.57C118.977 111.938 118.853 112.306 118.725 112.685C117.954 110.481 118.672 109.051 119.555 106.986C120.804 104.63 122.059 103.409 124.817 103.21Z" fill="#FFFEC7"/>
<path id="Vector_32" d="M56.8377 88.5676C57.1593 88.5676 57.4809 88.5676 57.8123 88.5676C57.6625 89.1025 57.6625 89.1025 57.5096 89.6481C57.3783 90.124 57.247 90.5998 57.1118 91.0901C56.9817 91.5583 56.8517 92.0266 56.7177 92.509C55.4584 97.5571 54.9401 103.79 56.8377 108.747C57.6902 110.247 57.6902 110.247 58.7869 111.208C59.2693 111.208 59.7517 111.208 60.2488 111.208C60.2732 110.828 60.2976 110.448 60.3228 110.057C60.4358 108.338 60.5554 106.62 60.6752 104.902C60.7135 104.304 60.7518 103.706 60.7913 103.09C60.8321 102.517 60.873 101.945 60.915 101.355C60.9508 100.827 60.9865 100.298 61.0233 99.7537C61.2234 98.4114 61.2234 98.4114 62.198 96.9348C62.1586 99.191 62.1036 101.447 62.0457 103.702C62.0292 104.664 62.0292 104.664 62.0124 105.644C61.9951 106.26 61.9779 106.875 61.9601 107.509C61.9473 108.076 61.9346 108.643 61.9214 109.227C61.6955 110.824 61.3171 111.514 60.2488 112.685C59.1828 112.685 59.1828 112.685 57.8123 112.193C54.9775 108.655 54.7997 105.517 54.7971 101.118C54.7881 100.351 54.7881 100.351 54.779 99.5688C54.7727 96.1824 54.9247 92.8242 55.8631 89.552C56.1847 89.2272 56.5063 88.9023 56.8377 88.5676Z" fill="#FFFEC7"/>
<path id="Vector_33" d="M159.729 83.5977C160.104 83.5984 160.48 83.5991 160.866 83.5998C162.058 83.6025 163.249 83.6087 164.441 83.615C165.251 83.6175 166.062 83.6197 166.872 83.6217C168.854 83.6271 170.835 83.6356 172.816 83.6457C172.816 83.8082 172.816 83.9706 172.816 84.1379C170.645 84.3816 170.645 84.3816 168.43 84.6301C168.43 84.7925 168.43 84.955 168.43 85.1223C157.334 85.1223 146.239 85.1223 134.806 85.1223C134.806 84.9599 134.806 84.7975 134.806 84.6301C135.355 84.6178 135.903 84.6055 136.468 84.5927C138.506 84.5463 140.545 84.497 142.584 84.4469C143.466 84.4256 144.347 84.4051 145.229 84.3853C146.498 84.3568 147.766 84.3255 149.035 84.2937C149.428 84.2854 149.82 84.2772 150.225 84.2687C151.709 84.2294 153.104 84.1828 154.562 83.8851C156.28 83.5419 157.986 83.5854 159.729 83.5977Z" fill="#FFFEC7"/>
<path id="Vector_34" d="M202.054 85.1223C204.126 85.0367 206.193 84.9789 208.266 84.9973C208.615 84.9995 208.963 85.0017 209.323 85.0039C210.809 85.1772 211.93 85.7634 213.179 86.57C214.677 87.3078 216.155 87.455 217.8 87.7063C221.039 88.2298 223.946 89.1935 226.968 90.4748C227.548 90.7168 227.548 90.7168 228.139 90.9637C231.17 92.298 233.93 93.9909 235.678 96.9348C235.678 97.4221 235.678 97.9093 235.678 98.4114C232.623 98.4114 229.568 98.4114 226.42 98.4114C226.42 98.2489 226.42 98.0865 226.42 97.9192C229.153 97.9192 231.887 97.9192 234.704 97.9192C234.242 97.3609 233.779 96.8025 233.303 96.2273C233.043 95.9132 232.783 95.5992 232.515 95.2756C231.818 94.4207 231.818 94.4207 230.805 93.9817C230.805 93.6568 230.805 93.332 230.805 92.9973C230.457 92.9408 230.109 92.8844 229.751 92.8262C228.288 92.4862 227.1 91.964 225.75 91.3054C222.256 89.6702 218.95 88.9141 215.147 88.4004C213.625 88.0464 212.628 87.4324 211.313 86.5989C209.477 85.9372 207.519 85.9423 205.587 85.8298C205.248 85.8086 204.908 85.7873 204.558 85.7654C203.723 85.7135 202.889 85.6638 202.054 85.6145C202.054 85.4521 202.054 85.2897 202.054 85.1223Z" fill="#FFFEC7"/>
<path id="Vector_35" d="M83.6394 116.13C85.9867 116.438 88.0777 117.135 90.2789 117.976C94.9585 119.712 99.7444 120.892 104.594 122.036C104.594 122.199 104.594 122.361 104.594 122.529C101.57 122.291 98.7461 121.872 95.822 121.052C95.6612 121.702 95.5004 122.351 95.3347 123.021C92.4179 122.282 89.6759 121.573 87.0505 120.068C88.5125 119.575 88.5125 119.575 89.5784 120.037C89.8699 120.209 90.1614 120.382 90.4617 120.56C90.4617 120.073 90.4617 119.585 90.4617 119.083C90.1733 118.988 89.885 118.893 89.5879 118.795C87.5794 118.126 85.591 117.449 83.6394 116.622C83.6394 116.46 83.6394 116.297 83.6394 116.13Z" fill="#FFFEC7"/>
<path id="Vector_36" d="M71.4569 99.3958C71.9393 99.5582 72.4217 99.7206 72.9188 99.8879C72.6945 100.091 72.4703 100.294 72.2392 100.503C69.2819 103.759 69.7459 109.156 69.8522 113.283C70.0525 117.556 70.7775 121.738 72.9188 125.482C73.4012 125.807 73.8836 126.131 74.3807 126.466C72.7263 126.373 72.0754 126.11 70.9086 124.897C68.5081 120.699 68.395 115.559 68.3503 110.839C68.3435 110.415 68.3368 109.99 68.3298 109.553C68.3527 106.363 68.5741 102.469 70.7766 99.9942C71.0011 99.7967 71.2256 99.5992 71.4569 99.3958Z" fill="#0B0800"/>
<path id="Vector_37" d="M128.471 137.294C128.954 137.457 129.436 137.619 129.933 137.786C129.789 139.493 129.452 140.24 128.38 141.601C126.879 142.814 125.978 143.067 124.086 143.2C123.121 141.901 122.156 140.602 121.162 139.263C121.323 138.938 121.483 138.613 121.649 138.279C122.011 138.512 122.373 138.746 122.746 138.986C123.896 139.646 124.752 140.007 126.035 140.247C126.035 139.922 126.035 139.598 126.035 139.263C125.713 139.101 125.392 138.938 125.06 138.771C125.769 138.542 125.769 138.542 126.492 138.309C127.906 137.936 127.906 137.936 128.471 137.294Z" fill="#FFFEC7"/>
<path id="Vector_38" d="M77.3044 121.544C78.0429 123.782 77.4858 125.721 76.8171 127.943C75.9339 129.265 75.9339 129.265 74.8679 129.911C73.6801 130.004 73.6801 130.004 72.4314 129.419C71.5012 128.341 70.7345 127.191 69.9949 125.974C70.1557 125.649 70.3165 125.324 70.4822 124.99C70.5827 125.304 70.6832 125.619 70.7867 125.943C71.4058 127.13 71.4058 127.13 72.9796 127.327C73.4419 127.368 73.9043 127.409 74.3806 127.45C74.3806 126.963 74.3806 126.476 74.3806 125.974C73.8982 125.811 73.4158 125.649 72.9187 125.482C73.2805 125.289 73.6423 125.096 74.0151 124.897C75.4516 123.941 76.2962 122.94 77.3044 121.544Z" fill="#FFFEC7"/>
<path id="Vector_39" d="M123.111 106.286C123.433 106.449 123.754 106.611 124.086 106.779C123.804 107.073 123.523 107.367 123.233 107.671C119.305 113.291 119.641 119.773 119.805 126.342C119.812 126.898 119.818 127.453 119.826 128.025C119.836 128.529 119.847 129.033 119.858 129.552C119.678 131.081 119.25 131.738 118.238 132.865C117.748 131.381 117.7 130.383 117.72 128.835C117.725 128.391 117.729 127.948 117.734 127.491C117.739 127.153 117.745 126.814 117.751 126.466C117.912 126.466 118.072 126.466 118.238 126.466C118.245 126.164 118.252 125.862 118.26 125.55C118.296 124.153 118.343 122.756 118.39 121.36C118.401 120.884 118.412 120.409 118.424 119.92C118.572 115.872 119.163 111.889 121.466 108.47C121.674 108.155 121.881 107.84 122.095 107.515C122.624 106.779 122.624 106.779 123.111 106.286Z" fill="#FFFEC7"/>
<path id="Vector_40" d="M117.751 112.193C118.072 112.355 118.394 112.517 118.725 112.685C119.205 114.73 119.246 116.635 119.154 118.726C119.13 119.293 119.107 119.861 119.082 120.446C119.055 121.032 119.028 121.618 118.999 122.221C118.974 122.818 118.949 123.415 118.922 124.03C118.859 125.498 118.794 126.967 118.725 128.435C118.243 128.435 117.761 128.435 117.263 128.435C117.249 126.189 117.241 123.944 117.233 121.698C117.229 121.061 117.225 120.425 117.221 119.769C117.219 119.155 117.217 118.541 117.216 117.909C117.212 117.062 117.212 117.062 117.208 116.198C117.258 114.8 117.432 113.551 117.751 112.193Z" fill="#FFFEC7"/>
<path id="Vector_41" d="M108.979 78.2317C109.467 78.7239 109.467 78.7239 109.497 79.9851C109.487 80.381 109.477 80.7769 109.467 81.1848C108.492 79.7083 108.492 79.7083 108.492 78.7239C106.888 78.8745 105.284 79.0295 103.68 79.1853C103.223 79.2281 102.766 79.271 102.296 79.3151C101.859 79.3579 101.423 79.4007 100.973 79.4449C100.368 79.5029 100.368 79.5029 99.7512 79.562C98.7175 79.6579 98.7175 79.6579 97.7712 80.2005C96.7968 80.2201 95.8218 80.2218 94.8474 80.2005C94.8474 80.5253 94.8474 80.8501 94.8474 81.1848C96.6163 81.1848 98.3852 81.1848 100.208 81.1848C100.208 81.3472 100.208 81.5097 100.208 81.677C96.9916 81.677 93.7753 81.677 90.4617 81.677C90.4617 81.3522 90.4617 81.0273 90.4617 80.6926C96.5984 78.397 102.483 77.9296 108.979 78.2317Z" fill="#FFFEC7"/>
<path id="Vector_42" d="M152.349 145.169C153.71 145.321 155.07 145.475 156.431 145.631C156.817 145.673 157.204 145.716 157.603 145.76C160.523 146.098 160.523 146.098 161.608 146.646C161.608 146.321 161.608 145.996 161.608 145.661C162.583 146.154 162.583 146.154 163.07 147.138C162.909 147.463 162.748 147.788 162.583 148.122C163.387 148.122 164.191 148.122 165.019 148.122C165.019 148.285 165.019 148.447 165.019 148.615C164.147 148.724 163.274 148.825 162.4 148.922C161.914 148.979 161.428 149.036 160.927 149.095C160.508 149.099 160.09 149.103 159.659 149.107C159.337 148.782 159.016 148.457 158.684 148.122C157.313 147.853 155.943 147.684 154.557 147.511C153.324 147.138 153.324 147.138 152.669 146.119C152.564 145.806 152.458 145.492 152.349 145.169ZM154.299 146.154C155.263 146.641 155.263 146.641 156.248 147.138C156.409 146.813 156.569 146.488 156.735 146.154C155.931 146.154 155.127 146.154 154.299 146.154Z" fill="#FFFEC7"/>
<path id="Vector_43" d="M130.908 115.146C131.069 115.146 131.23 115.146 131.395 115.146C132.426 122.473 132.401 129.431 131.883 136.802C131.4 136.802 130.918 136.802 130.421 136.802C130.26 134.853 130.099 132.904 129.933 130.896C130.255 130.896 130.577 130.896 130.908 130.896C130.908 125.698 130.908 120.501 130.908 115.146Z" fill="#FFFEC7"/>
<path id="Vector_44" d="M67.071 104.81C67.7947 105.297 67.7947 105.297 68.533 105.794C68.6989 106.99 68.6989 106.99 68.6757 108.474C68.671 109.004 68.6663 109.534 68.6614 110.08C68.6492 110.635 68.6369 111.19 68.6243 111.762C68.6177 112.321 68.6111 112.88 68.6043 113.456C68.5871 114.84 68.563 116.223 68.533 117.607C68.0505 117.607 67.5681 117.607 67.071 117.607C67.071 113.384 67.071 109.161 67.071 104.81Z" fill="#FFFEC7"/>
<path id="Vector_45" d="M226.907 91.0286C230.29 91.4306 232.439 93.5358 234.704 95.9504C235.025 96.2753 235.347 96.6001 235.678 96.9348C235.678 97.4221 235.678 97.9093 235.678 98.4114C232.623 98.4114 229.568 98.4114 226.42 98.4114C226.42 98.249 226.42 98.0865 226.42 97.9192C229.153 97.9192 231.887 97.9192 234.704 97.9192C234.242 97.3609 233.779 96.8025 233.303 96.2273C233.043 95.9132 232.783 95.5992 232.515 95.2756C231.818 94.4207 231.818 94.4207 230.805 93.9817C230.805 93.6568 230.805 93.332 230.805 92.9973C230.434 92.9466 230.062 92.8958 229.679 92.8435C228.286 92.4836 227.805 92.1264 226.907 91.0286Z" fill="#FFFEC7"/>
<path id="Vector_46" d="M236.653 99.3958C238.052 100.729 238.832 102.02 239.577 103.825C239.416 104.313 239.255 104.8 239.09 105.302C238.768 104.815 238.446 104.327 238.115 103.825C237.793 103.501 237.472 103.176 237.14 102.841C236.879 103.166 236.618 103.491 236.349 103.825C235.191 104.81 235.191 104.81 233.76 105.117C231.602 104.673 231.084 103.644 229.831 101.857C231.033 102.424 231.803 102.865 232.755 103.825C233.988 103.979 233.988 103.979 235.191 103.333C235.859 102.072 236.272 100.77 236.653 99.3958Z" fill="#FFFEC7"/>
<path id="Vector_47" d="M88.0251 70.3567C88.3468 70.844 88.6684 71.3312 88.9998 71.8333C87.5427 73.4748 86.1271 74.4001 84.1267 75.2786C83.8051 75.2786 83.4835 75.2786 83.1521 75.2786C83.1521 74.9537 83.1521 74.6289 83.1521 74.2942C82.8305 74.1318 82.5089 73.9693 82.1775 73.802C82.5588 73.5945 82.9401 73.3871 83.3329 73.1733C83.826 72.9037 84.3192 72.634 84.8272 72.3562C85.3191 72.0878 85.8109 71.8194 86.3177 71.5429C87.4729 70.9586 87.4729 70.9586 88.0251 70.3567Z" fill="#FFFEC7"/>
<path id="Vector_48" d="M78.279 107.763C79.3526 109.51 79.3845 110.96 79.3754 112.992C79.3779 113.557 79.3804 114.122 79.383 114.704C79.2536 116.13 79.2536 116.13 78.279 117.115C78.0838 118.258 77.9185 119.407 77.7917 120.56C77.6309 120.56 77.4701 120.56 77.3044 120.56C77.1189 116.23 77.6907 112.039 78.279 107.763Z" fill="#FFFEC7"/>
<path id="Vector_49" d="M88.5125 89.0598C89.1557 89.3847 89.7989 89.7095 90.4617 90.0442C90.3009 91.506 90.14 92.9678 89.9744 94.4739C88.0251 93.9817 88.0251 93.9817 87.0505 92.9973C87.243 91.539 87.8293 90.3477 88.5125 89.0598Z" fill="#180F00"/>
<path id="Vector_50" d="M185.973 148.614C190.55 148.566 195.065 148.551 199.618 149.107C199.618 149.269 199.618 149.432 199.618 149.599C195.919 149.761 192.221 149.924 188.41 150.091C188.41 149.929 188.41 149.766 188.41 149.599C187.606 149.436 186.802 149.274 185.973 149.107C185.973 148.944 185.973 148.782 185.973 148.614Z" fill="#FFFEC7"/>
<path id="Vector_51" d="M51.4774 93.9817C51.6382 94.3065 51.799 94.6314 51.9647 94.9661C51.8139 95.3315 51.6631 95.697 51.5078 96.0735C50.9022 97.4147 50.9022 97.4147 50.9901 98.9036C50.9901 100.38 50.9901 100.38 50.5332 101.488C49.7559 103.52 49.686 105.603 49.5281 107.763C49.3673 107.763 49.2065 107.763 49.0408 107.763C48.6996 98.19 48.6996 98.19 51.4774 93.9817Z" fill="#FFFEC7"/>
<path id="Vector_52" d="M69.5076 115.638C69.6684 115.638 69.8292 115.638 69.9949 115.638C70.0835 116.101 70.172 116.564 70.2633 117.041C70.3858 117.654 70.5083 118.267 70.6345 118.899C70.7532 119.504 70.8719 120.109 70.9942 120.733C71.6427 123.25 72.2024 124.999 74.3806 126.466C72.6592 126.369 72.0624 126.104 70.8781 124.805C69.4873 122.452 68.7201 119.156 69.243 116.457C69.3303 116.187 69.4176 115.916 69.5076 115.638Z" fill="#201700"/>
<path id="Vector_53" d="M175.74 147.138C175.901 147.625 176.062 148.112 176.227 148.615C177.675 148.858 177.675 148.858 179.151 149.107C179.151 149.269 179.151 149.432 179.151 149.599C176.257 149.599 173.362 149.599 170.38 149.599C171.754 146.823 172.883 147.074 175.74 147.138Z" fill="#FFFEC7"/>
<path id="Vector_54" d="M70.9695 96.9348C72.0355 96.7502 72.0355 96.7502 73.406 96.9348C74.8774 98.4209 76.0848 99.7114 76.3298 101.857C76.0384 101.633 75.7469 101.41 75.4466 101.18C73.1966 99.4449 73.1966 99.4449 70.4822 98.9036C70.643 98.2539 70.8038 97.6042 70.9695 96.9348Z" fill="#FFFEC7"/>
<path id="Vector_55" d="M94.8474 66.4192C96.3607 66.4192 96.9685 66.6847 98.2585 67.4036C96.7966 68.3879 96.7966 68.3879 95.8563 68.6167C94.6659 68.9275 93.8575 69.4537 92.8373 70.1414C91.0539 71.3411 91.0539 71.3411 89.9744 71.3411C90.5144 69.7593 90.9418 69.3765 92.4109 68.511C93.8728 67.8958 93.8728 67.8958 94.8474 67.8958C94.8474 67.4085 94.8474 66.9212 94.8474 66.4192Z" fill="#FFFEC7"/>
<path id="Vector_56" d="M10.0564 146.154C10.378 146.316 10.6996 146.478 11.031 146.646C8.61885 149.082 6.20669 151.518 3.72144 154.029C3.72144 152.029 4.46694 151.542 5.79248 150.091C6.17692 149.665 6.56136 149.238 6.95744 148.799C7.94384 147.796 8.91131 146.96 10.0564 146.154Z" fill="#1B1B1B"/>
<path id="Vector_57" d="M67.5583 114.161C68.8289 115.649 69.246 116.701 69.4161 118.653C69.4595 119.08 69.5028 119.508 69.5475 119.948C69.5075 121.052 69.5075 121.052 68.5329 122.036C68.5329 121.712 68.5329 121.387 68.5329 121.052C68.2113 121.052 67.8896 121.052 67.5583 121.052C67.1134 118.606 67.1134 116.608 67.5583 114.161Z" fill="#FFFEC7"/>
<path id="Vector_58" d="M148.938 96.4426C151.253 96.8118 151.253 96.8118 152.349 97.9192C152.41 99.4573 152.41 99.4573 152.349 100.872C151.706 101.035 151.063 101.197 150.4 101.365C150.4 100.065 150.4 98.7658 150.4 97.427C149.918 97.427 149.435 97.427 148.938 97.427C148.938 97.1022 148.938 96.7773 148.938 96.4426Z" fill="#C0B3A9"/>
<path id="Vector_59" d="M77.3044 121.544C77.9624 123.538 77.607 124.887 77.3044 126.958C76.822 126.796 76.3396 126.633 75.8425 126.466C75.3601 126.791 74.8777 127.116 74.3806 127.45C74.3806 126.963 74.3806 126.476 74.3806 125.974C73.8982 125.811 73.4158 125.649 72.9187 125.482C73.4614 125.192 73.4614 125.192 74.0151 124.897C75.4516 123.941 76.2962 122.94 77.3044 121.544Z" fill="#FFFEC7"/>
<path id="Vector_60" d="M58.7869 121.052C61.6815 121.783 61.6815 121.783 64.6345 122.529C64.7953 123.178 64.9561 123.828 65.1218 124.497C60.3855 123.72 60.3855 123.72 58.7869 121.544C58.7869 121.382 58.7869 121.219 58.7869 121.052Z" fill="#FFFEC7"/>
<path id="Vector_61" d="M122.624 132.865C123.612 133.828 124.52 134.76 125.334 135.879C126.053 136.929 126.053 136.929 127.497 137.786C126.4 138.156 126.4 138.156 125.06 138.279C123.67 137.195 122.726 136.019 122.136 134.341C122.297 133.854 122.458 133.367 122.624 132.865Z" fill="#FFFEC7"/>
<path id="Vector_62" d="M97.7712 121.544C99.2185 121.707 100.666 121.869 102.157 122.036C102.318 122.848 102.479 123.661 102.644 124.497C102.001 124.497 101.358 124.497 100.695 124.497C100.695 124.172 100.695 123.848 100.695 123.513C99.2478 123.269 99.2478 123.269 97.7712 123.021C97.7712 122.533 97.7712 122.046 97.7712 121.544Z" fill="#FFFEC7"/>
<path id="Vector_63" d="M61.2234 81.1848C61.545 81.3472 61.8666 81.5097 62.198 81.677C61.7107 83.1536 61.7107 83.1536 60.7551 83.6381C60.3669 83.7624 59.9787 83.8868 59.5787 84.0149C59.0002 84.209 59.0002 84.209 58.41 84.4071C57.325 84.6301 57.325 84.6301 55.863 84.1379C56.7334 83.6308 57.6071 83.1294 58.4823 82.6306C58.9685 82.3508 59.4547 82.071 59.9556 81.7827C60.374 81.5854 60.7924 81.3881 61.2234 81.1848Z" fill="#FFFEC7"/>
<path id="Vector_64" d="M83.1521 118.099C85.4668 118.468 85.4668 118.468 86.5632 119.575C85.1159 119.332 85.1159 119.332 83.6394 119.083C84.6763 120.235 85.645 120.908 87.0505 121.544C86.8897 121.869 86.7289 122.194 86.5632 122.529C85.2767 121.716 83.9903 120.904 82.6648 120.068C82.8256 119.418 82.9864 118.768 83.1521 118.099Z" fill="#FFFEC7"/>
<path id="Vector_65" d="M242.013 124.005C242.174 124.005 242.335 124.005 242.501 124.005C242.501 124.98 242.501 125.954 242.501 126.958C240.089 128.176 240.089 128.176 237.628 129.419C237.467 129.094 237.306 128.77 237.14 128.435C237.804 128.161 237.804 128.161 238.48 127.881C240.285 126.829 240.955 125.787 242.013 124.005Z" fill="#FFFEC7"/>
<path id="Vector_66" d="M71.4568 99.3958C71.9392 99.5582 72.4217 99.7206 72.9187 99.8879C72.587 100.162 72.587 100.162 72.2487 100.442C71.3437 101.374 71.3437 101.374 70.9695 102.903C70.8087 103.37 70.6479 103.837 70.4822 104.318C69.9997 104.48 69.5173 104.642 69.0203 104.81C69.3157 102.721 69.9481 100.92 71.4568 99.3958Z" fill="#1C1300"/>
<path id="Vector_67" d="M93.9642 120.252C94.4165 120.354 94.8687 120.455 95.3347 120.56C95.3347 121.047 95.3347 121.534 95.3347 122.036C93.1638 121.549 93.1638 121.549 90.949 121.052C92.4109 120.068 92.4109 120.068 93.9642 120.252Z" fill="#FFFEC7"/>
<path id="Vector_68" d="M69.0203 101.857C69.5546 103.476 69.4099 104.176 69.0203 105.794C68.6986 105.794 68.377 105.794 68.0457 105.794C68.0457 106.931 68.0457 108.068 68.0457 109.24C67.8848 109.24 67.724 109.24 67.5583 109.24C67.5583 107.615 67.5583 105.991 67.5583 104.318C67.88 104.318 68.2016 104.318 68.533 104.318C68.6938 103.506 68.8546 102.693 69.0203 101.857Z" fill="#FFFEC7"/>
<path id="Vector_69" d="M108.492 80.2004C108.066 82.5999 108.066 82.5999 107.517 83.1536C106.705 83.1736 105.893 83.1746 105.081 83.1536C105.799 81.4785 106.473 80.2004 108.492 80.2004Z" fill="#FFFEC7"/>
<path id="Vector_70" d="M145.04 144.677C146.165 144.839 147.291 145.002 148.451 145.169C148.451 145.656 148.451 146.144 148.451 146.646C147.325 146.483 146.2 146.321 145.04 146.154C145.04 145.666 145.04 145.179 145.04 144.677Z" fill="#FFFEC7"/>
<path id="Vector_71" d="M124.573 107.271C125.377 107.271 126.181 107.271 127.01 107.271C127.01 107.758 127.01 108.245 127.01 108.747C126.045 108.91 125.08 109.072 124.086 109.24C124.247 108.59 124.407 107.94 124.573 107.271Z" fill="#FFFEC7"/>
<path id="Vector_72" d="M60.7361 179.13C62.6853 179.622 62.6853 179.622 62.6853 179.622L60.7361 179.13Z" fill="#171717"/>
<path id="Vector_73" d="M63.1726 197.341C64.6345 197.833 64.6345 197.833 64.6345 197.833L63.1726 197.341Z" fill="#1F1C1E"/>
<path id="Vector_74" d="M227.882 196.849C229.344 197.341 229.344 197.341 229.344 197.341L227.882 196.849Z" fill="#1D1D1E"/>
<path id="Vector_75" d="M56.3503 195.865C57.8123 196.357 57.8123 196.357 57.8123 196.357L56.3503 195.865Z" fill="#1D1D1C"/>
<path id="Vector_76" d="M196.207 184.052C197.669 184.544 197.669 184.544 197.669 184.544L196.207 184.052Z" fill="#161615"/>
<path id="Vector_77" d="M43.6804 174.7C45.1423 175.193 45.1423 175.193 45.1423 175.193L43.6804 174.7Z" fill="#161616"/>
<path id="Vector_78" d="M28.0867 135.818C29.5486 136.31 29.5486 136.31 29.5486 136.31L28.0867 135.818Z" fill="#1D1E1E"/>
<path id="Vector_79" d="M138.218 306.607C139.192 307.099 139.192 307.099 139.192 307.099L138.218 306.607Z" fill="#222224"/>
<path id="Vector_80" d="M119.7 276.091C120.675 276.583 120.675 276.583 120.675 276.583L119.7 276.091Z" fill="#1D1B1B"/>
<path id="Vector_81" d="M106.543 254.927C107.517 255.419 107.517 255.419 107.517 255.419L106.543 254.927Z" fill="#1E1B1A"/>
<path id="Vector_82" d="M60.7361 196.849C61.7107 197.341 61.7107 197.341 61.7107 197.341L60.7361 196.849Z" fill="#1E1E1D"/>
<path id="Vector_83" d="M45.6296 193.404C46.6042 193.896 46.6042 193.896 46.6042 193.896L45.6296 193.404Z" fill="#1F1F1F"/>
<path id="Vector_84" d="M43.6804 192.911C44.655 193.404 44.655 193.404 44.655 193.404L43.6804 192.911Z" fill="#212121"/>
<path id="Vector_85" d="M256.145 189.466C257.12 189.958 257.12 189.958 257.12 189.958L256.145 189.466Z" fill="#222324"/>
<path id="Vector_86" d="M162.583 186.513C163.557 187.005 163.557 187.005 163.557 187.005L162.583 186.513Z" fill="#121113"/>
<path id="Vector_87" d="M149.426 186.513C150.4 187.005 150.4 187.005 150.4 187.005L149.426 186.513Z" fill="#151512"/>
<path id="Vector_88" d="M145.527 186.513C146.502 187.005 146.502 187.005 146.502 187.005L145.527 186.513Z" fill="#161313"/>
<path id="Vector_89" d="M185.973 185.036C186.948 185.529 186.948 185.529 186.948 185.529L185.973 185.036Z" fill="#161616"/>
<path id="Vector_90" d="M80.7156 182.575C81.6902 183.068 81.6902 183.068 81.6902 183.068L80.7156 182.575Z" fill="#161616"/>
<path id="Vector_91" d="M159.659 180.607C160.634 181.099 160.634 181.099 160.634 181.099L159.659 180.607Z" fill="#191819"/>
<path id="Vector_92" d="M223.009 180.115C223.983 180.607 223.983 180.607 223.983 180.607L223.009 180.115Z" fill="#191A18"/>
<path id="Vector_93" d="M62.6853 179.622C63.6599 180.115 63.6599 180.115 63.6599 180.115L62.6853 179.622Z" fill="#161613"/>
<path id="Vector_94" d="M95.3347 178.146C96.3093 178.638 96.3093 178.638 96.3093 178.638L95.3347 178.146Z" fill="#171616"/>
<path id="Vector_95" d="M92.8982 178.146C93.8728 178.638 93.8728 178.638 93.8728 178.638L92.8982 178.146Z" fill="#181818"/>
<path id="Vector_96" d="M208.877 177.161C209.851 177.654 209.851 177.654 209.851 177.654L208.877 177.161Z" fill="#191919"/>
<path id="Vector_97" d="M80.2283 176.669C81.2029 177.161 81.2029 177.161 81.2029 177.161L80.2283 176.669Z" fill="#181718"/>
<path id="Vector_98" d="M50.99 176.669C51.9646 177.161 51.9646 177.161 51.9646 177.161L50.99 176.669Z" fill="#191818"/>
<path id="Vector_99" d="M214.724 176.177C215.699 176.669 215.699 176.669 215.699 176.669L214.724 176.177Z" fill="#191818"/>
<path id="Vector_100" d="M75.8425 176.177C76.8171 176.669 76.8171 176.669 76.8171 176.669L75.8425 176.177Z" fill="#181716"/>
<path id="Vector_101" d="M47.0916 175.685C48.0662 176.177 48.0662 176.177 48.0662 176.177L47.0916 175.685Z" fill="#1A1818"/>
<path id="Vector_102" d="M46.1169 175.193C47.0916 175.685 47.0916 175.685 47.0916 175.685L46.1169 175.193Z" fill="#191718"/>
<path id="Vector_103" d="M61.2234 173.716C62.198 174.208 62.198 174.208 62.198 174.208L61.2234 173.716Z" fill="#191719"/>
<path id="Vector_104" d="M254.683 170.763C255.658 171.255 255.658 171.255 255.658 171.255L254.683 170.763Z" fill="#1C1B1D"/>
<path id="Vector_105" d="M261.506 154.521C262.48 155.013 262.48 155.013 262.48 155.013L261.506 154.521Z" fill="#1E1E1D"/>
<path id="Vector_106" d="M37.3455 148.615C38.3201 149.107 38.3201 149.107 38.3201 149.107L37.3455 148.615Z" fill="#1A1A1A"/>
<path id="Vector_107" d="M12.9802 143.2C13.9548 143.693 13.9548 143.693 13.9548 143.693L12.9802 143.2Z" fill="#272525"/>
<path id="Vector_108" d="M215.699 25.0754C216.674 25.5676 216.674 25.5676 216.674 25.5676L215.699 25.0754Z" fill="#1C1B19"/>
<path id="Vector_109" d="M98.7458 9.32544C99.7205 9.81763 99.7205 9.81763 99.7205 9.81763L98.7458 9.32544Z" fill="#201F1F"/>
<path id="Vector_110" d="M165.019 1.45044C165.994 1.94263 165.994 1.94263 165.994 1.94263L165.019 1.45044Z" fill="#1F1E1D"/>
<path id="Vector_111" d="M162.583 1.45044C163.557 1.94263 163.557 1.94263 163.557 1.94263L162.583 1.45044Z" fill="#1E1D1D"/>
</g>
</svg>
