<svg width="30" height="30" viewBox="0 0 30 30" fill="none" xmlns="http://www.w3.org/2000/svg">
<g id="lucide:cctv">
<path id="Vector" d="M20.9375 15H25.4775C25.6905 15.0001 25.8999 15.0547 26.0859 15.1584C26.2719 15.2622 26.4283 15.4118 26.5402 15.593C26.6522 15.7742 26.716 15.981 26.7256 16.1938C26.7351 16.4065 26.6902 16.6182 26.595 16.8088L24.0525 21.895C23.9561 22.0877 23.8115 22.2523 23.6327 22.3726C23.454 22.493 23.2472 22.5651 23.0323 22.582C22.8175 22.5988 22.6019 22.5599 22.4066 22.4688C22.2113 22.3778 22.0428 22.2378 21.9175 22.0625L19.2625 18.35M2.5 23.75H7.2C7.66591 23.7532 8.12346 23.6262 8.52102 23.3833C8.91859 23.1403 9.24035 22.7911 9.45 22.375L11.25 18.75M2.5 26.25V21.25M8.75 11.25H8.7625M21.3825 11.3163C21.6788 11.4646 21.904 11.7244 22.0088 12.0387C22.1136 12.353 22.0893 12.6961 21.9412 12.9925L18.0587 20.7563C17.9853 20.9031 17.8837 21.0341 17.7596 21.1416C17.6356 21.2492 17.4915 21.3313 17.3358 21.3831C17.18 21.435 17.0155 21.4557 16.8517 21.444C16.6879 21.4323 16.5281 21.3885 16.3812 21.315L4.5125 15.375C3.65042 14.9408 2.99544 14.1827 2.6909 13.2668C2.38636 12.3508 2.45705 11.3515 2.8875 10.4875L4.6125 7C4.8275 6.57153 5.1248 6.18961 5.48742 5.87604C5.85004 5.56248 6.27088 5.32343 6.7259 5.17253C7.18092 5.02163 7.66121 4.96184 8.13934 4.99658C8.61747 5.03132 9.08407 5.15991 9.5125 5.375L21.3825 11.3163Z" stroke="black" stroke-width="2.5" stroke-linecap="round" stroke-linejoin="round"/>
</g>
</svg>
