<svg width="25" height="25" viewBox="0 0 25 25" fill="none" xmlns="http://www.w3.org/2000/svg">
<g id="mingcute:live-line">
<g id="Group">
<path id="Vector" fill-rule="evenodd" clip-rule="evenodd" d="M17.6563 2.69375C17.8515 2.88909 17.9612 3.154 17.9612 3.43021C17.9612 3.70642 17.8515 3.97133 17.6563 4.16667L14.5312 7.29167H19.7917C20.3442 7.29167 20.8741 7.51116 21.2648 7.90186C21.6555 8.29256 21.875 8.82247 21.875 9.375V19.7917C21.875 20.3442 21.6555 20.8741 21.2648 21.2648C20.8741 21.6555 20.3442 21.875 19.7917 21.875H5.20833C4.6558 21.875 4.12589 21.6555 3.73519 21.2648C3.34449 20.8741 3.125 20.3442 3.125 19.7917V9.375C3.125 8.82247 3.34449 8.29256 3.73519 7.90186C4.12589 7.51116 4.6558 7.29167 5.20833 7.29167H8.99583L7.34375 5.63959C7.14843 5.44413 7.03875 5.17908 7.03885 4.90276C7.03895 4.62644 7.14881 4.36147 7.34427 4.16615C7.53973 3.97083 7.80477 3.86115 8.0811 3.86125C8.35742 3.86135 8.62239 3.97121 8.81771 4.16667L11.3948 6.74479C11.4925 6.84244 11.6249 6.89729 11.763 6.89729C11.9011 6.89729 12.0336 6.84244 12.1312 6.74479L16.1833 2.69271C16.3787 2.49743 16.6436 2.38773 16.9198 2.38773C17.196 2.38773 17.4609 2.49847 17.6563 2.69375ZM19.7917 9.375H5.20833V19.7917H19.7917V9.375ZM9.35417 12.0281C9.37609 11.8278 9.44487 11.6355 9.55495 11.4667C9.66502 11.2979 9.81329 11.1575 9.98775 11.0566C10.1622 10.9558 10.358 10.8975 10.5592 10.8864C10.7604 10.8753 10.9613 10.9117 11.1458 10.9927C11.931 11.3394 12.6961 11.73 13.4375 12.1625C14.1837 12.589 14.9053 13.0571 15.599 13.5646C16.2948 14.0792 16.2969 15.1156 15.599 15.6313C14.9053 16.1381 14.1837 16.6055 13.4375 17.0313C12.399 17.6313 11.5781 18.0135 11.1458 18.2021C10.9615 18.2836 10.7604 18.3204 10.5592 18.3095C10.3579 18.2987 10.162 18.2405 9.9874 18.1397C9.81283 18.039 9.6645 17.8984 9.55447 17.7295C9.44444 17.5606 9.37581 17.3681 9.35417 17.1677C9.26372 16.3141 9.21921 15.4563 9.22083 14.5979C9.22083 13.4104 9.30208 12.5 9.35417 12.0281ZM11.3354 13.3885C11.2948 14.1936 11.2948 15.0002 11.3354 15.8052C12.0525 15.4379 12.7506 15.0346 13.4271 14.5969C12.7506 14.1592 12.0525 13.7559 11.3354 13.3885Z" fill="black"/>
</g>
</g>
</svg>
