<svg width="20" height="20" viewBox="0 0 20 20" fill="none" xmlns="http://www.w3.org/2000/svg">
<path d="M9.99984 1.66675C14.6023 1.66675 18.3332 5.39758 18.3332 10.0001C18.3332 14.6026 14.6023 18.3334 9.99984 18.3334C5.39734 18.3334 1.6665 14.6026 1.6665 10.0001C1.6665 5.39758 5.39734 1.66675 9.99984 1.66675ZM9.99984 3.33341C8.23173 3.33341 6.53603 4.03579 5.28579 5.28604C4.03555 6.53628 3.33317 8.23197 3.33317 10.0001C3.33317 11.7682 4.03555 13.4639 5.28579 14.7141C6.53603 15.9644 8.23173 16.6667 9.99984 16.6667C11.7679 16.6667 13.4636 15.9644 14.7139 14.7141C15.9641 13.4639 16.6665 11.7682 16.6665 10.0001C16.6665 8.23197 15.9641 6.53628 14.7139 5.28604C13.4636 4.03579 11.7679 3.33341 9.99984 3.33341ZM9.99984 5.00008C10.2039 5.00011 10.401 5.07504 10.5535 5.21068C10.706 5.34631 10.8035 5.53321 10.8273 5.73591L10.8332 5.83341V9.65508L13.089 11.9109C13.2385 12.0609 13.3252 12.2621 13.3317 12.4737C13.3382 12.6854 13.2638 12.8915 13.1238 13.0503C12.9838 13.2091 12.7885 13.3087 12.5778 13.3287C12.367 13.3488 12.1565 13.2879 11.989 13.1584L11.9107 13.0892L9.41067 10.5892C9.28115 10.4596 9.19797 10.2909 9.174 10.1092L9.1665 10.0001V5.83341C9.1665 5.6124 9.2543 5.40044 9.41058 5.24416C9.56686 5.08788 9.77882 5.00008 9.99984 5.00008Z" fill="black"/>
</svg>
