<svg width="40" height="40" viewBox="0 0 40 40" fill="none" xmlns="http://www.w3.org/2000/svg">
<path d="M25.7875 12.58C26.9984 12.5793 28.1722 12.162 29.1118 11.3981C30.0514 10.6342 30.6996 9.57032 30.9475 8.38505H35.53C35.7387 8.38357 35.9424 8.32063 36.1156 8.2041C36.2888 8.08756 36.4238 7.92259 36.5038 7.72978C36.5838 7.53697 36.6053 7.32487 36.5655 7.11995C36.5257 6.91503 36.4264 6.72638 36.28 6.57755C36.0801 6.38019 35.8109 6.26892 35.53 6.26755H30.955C30.7133 5.07456 30.0665 4.00185 29.1242 3.2313C28.182 2.46076 27.0022 2.03979 25.785 2.03979C24.5678 2.03979 23.388 2.46076 22.4457 3.2313C21.5034 4.00185 20.8566 5.07456 20.615 6.26755H4.47498C4.20308 6.28076 3.94669 6.39808 3.75893 6.59519C3.57117 6.79229 3.46644 7.05408 3.46644 7.3263C3.46644 7.59852 3.57117 7.8603 3.75893 8.05741C3.94669 8.25452 4.20308 8.37183 4.47498 8.38505H20.625C20.8731 9.57116 21.522 10.6357 22.4626 11.3997C23.4032 12.1636 24.5782 12.5804 25.79 12.58M25.79 10.38C25.3862 10.38 24.9863 10.3005 24.6132 10.146C24.2402 9.99145 23.9012 9.76494 23.6156 9.4794C23.3301 9.19386 23.1036 8.85488 22.949 8.4818C22.7945 8.10872 22.715 7.70886 22.715 7.30505C22.715 6.90123 22.7945 6.50137 22.949 6.1283C23.1036 5.75522 23.3301 5.41624 23.6156 5.1307C23.9012 4.84516 24.2402 4.61865 24.6132 4.46412C24.9863 4.30959 25.3862 4.23005 25.79 4.23005C26.6055 4.23005 27.3877 4.55402 27.9643 5.1307C28.541 5.70737 28.865 6.48951 28.865 7.30505C28.865 8.12059 28.541 8.90273 27.9643 9.4794C27.3877 10.0561 26.6055 10.38 25.79 10.38ZM14.78 25.3225C15.9954 25.3231 17.1738 24.904 18.1158 24.136C19.0578 23.368 19.7057 22.2982 19.95 21.1075L35.5325 21.09C35.7407 21.0881 35.9438 21.025 36.1165 20.9086C36.2891 20.7922 36.4238 20.6276 36.5037 20.4353C36.5836 20.243 36.6052 20.0314 36.5659 19.8269C36.5266 19.6224 36.428 19.434 36.2825 19.285C36.0826 19.0877 35.8134 18.9764 35.5325 18.975L19.95 18.99C19.7047 17.8011 19.0569 16.7331 18.1157 15.9662C17.1746 15.1994 15.9977 14.7806 14.7837 14.7806C13.5697 14.7806 12.3929 15.1994 11.4517 15.9662C10.5106 16.7331 9.86272 17.8011 9.61748 18.99L4.47498 18.975C4.19451 18.975 3.92553 19.0865 3.72722 19.2848C3.5289 19.4831 3.41748 19.7521 3.41748 20.0325C3.41748 20.313 3.5289 20.582 3.72722 20.7803C3.92553 20.9786 4.19451 21.09 4.47498 21.09L9.61748 21.1075C9.86155 22.2973 10.5087 23.3665 11.4497 24.1344C12.3907 24.9023 13.5654 25.322 14.78 25.3225ZM14.7825 23.1225C13.9669 23.1225 13.1848 22.7986 12.6081 22.2219C12.0315 21.6452 11.7075 20.8631 11.7075 20.0475C11.7075 19.232 12.0315 18.4499 12.6081 17.8732C13.1848 17.2965 13.9669 16.9725 14.7825 16.9725C15.598 16.9725 16.3802 17.2965 16.9568 17.8732C17.5335 18.4499 17.8575 19.232 17.8575 20.0475C17.8575 20.8631 17.5335 21.6452 16.9568 22.2219C16.3802 22.7986 15.598 23.1225 14.7825 23.1225ZM25.7775 37.9675C26.9957 37.9672 28.1763 37.5452 29.1187 36.7732C30.0611 36.0013 30.7073 34.9269 30.9475 33.7325L35.53 33.7975C35.7387 33.7961 35.9424 33.7331 36.1156 33.6166C36.2888 33.5001 36.4238 33.3351 36.5038 33.1423C36.5838 32.9495 36.6053 32.7374 36.5655 32.5324C36.5257 32.3275 36.4264 32.1389 36.28 31.99C36.0801 31.7927 35.8109 31.6814 35.53 31.68L30.94 31.6125C30.6912 30.4275 30.0424 29.3641 29.1024 28.6009C28.1623 27.8377 26.9883 27.4212 25.7775 27.4212C24.5666 27.4212 23.3926 27.8377 22.4526 28.6009C21.5126 29.3641 20.8637 30.4275 20.615 31.6125L4.47248 31.68C4.20058 31.6933 3.94419 31.8106 3.75643 32.0077C3.56867 32.2048 3.46394 32.4666 3.46394 32.7388C3.46394 33.011 3.56867 33.2728 3.75643 33.4699C3.94419 33.667 4.20058 33.7843 4.47248 33.7975L20.6075 33.7325C20.8477 34.9269 21.4938 36.0013 22.4362 36.7732C23.3787 37.5452 24.5592 37.9672 25.7775 37.9675ZM25.7775 35.7675C24.9619 35.7675 24.1798 35.4436 23.6031 34.8669C23.0265 34.2902 22.7025 33.5081 22.7025 32.6925C22.7025 31.877 23.0265 31.0949 23.6031 30.5182C24.1798 29.9415 24.9619 29.6175 25.7775 29.6175C26.593 29.6175 27.3752 29.9415 27.9518 30.5182C28.5285 31.0949 28.8525 31.877 28.8525 32.6925C28.8525 33.5081 28.5285 34.2902 27.9518 34.8669C27.3752 35.4436 26.593 35.7675 25.7775 35.7675Z" fill="#FFFC35"/>
</svg>
